<?xml version="1.0" standalone="no"?>
<!DOCTYPE svg PUBLIC "-//W3C//DTD SVG 1.1//EN" "http://www.w3.org/Graphics/SVG/1.1/DTD/svg11.dtd" >
<svg>
<metadata>
Created by FontForge 20090914 at Mon Jun  3 20:31:57 2013
 By www-data
&#194;&#169; 2008 The Monotype Corporation. All Rights Reserved.
</metadata>
<defs>
<font id="Arial-Black" horiz-adv-x="1366" >
  <font-face 
    font-family="Arial Black"
    font-weight="900"
    font-stretch="normal"
    units-per-em="2048"
    panose-1="2 11 10 4 2 1 2 2 2 4"
    ascent="1638"
    descent="-410"
    x-height="1062"
    cap-height="1466"
    bbox="-397 -628 3456 2219"
    underline-thickness="123"
    underline-position="-195"
    unicode-range="U+0020-U+FB02"
  />
<missing-glyph horiz-adv-x="1024" 
d="M102 0v1092h820v-1092h-820zM204 102h616v888h-616v-888z" />
    <glyph glyph-name=".notdef" horiz-adv-x="1024" 
d="M102 0v1092h820v-1092h-820zM204 102h616v888h-616v-888z" />
    <glyph glyph-name="space" unicode=" " horiz-adv-x="683" 
 />
    <glyph glyph-name="exclam" unicode="!" horiz-adv-x="682" 
d="M124 1466h435v-334l-84 -671h-269l-82 671v334zM139 359h406v-359h-406v359z" />
    <glyph glyph-name="quotedbl" unicode="&#x22;" horiz-adv-x="1024" 
d="M48 1466h406v-242l-64 -297h-276l-66 297v242zM569 1466h406v-242l-64 -297h-276l-66 297v242z" />
    <glyph glyph-name="numbersign" unicode="#" horiz-adv-x="1352" 
d="M253 604l52 253h-245v276h300l71 358h285l-73 -358h219l72 358h284l-70 -358h137v-276h-193l-51 -253h244v-276h-299l-71 -352h-285l70 352h-218l-72 -352h-283l73 352h-140v276h193zM537 604h219l52 253h-218z" />
    <glyph glyph-name="dollar" unicode="$" 
d="M1250 1121l-372.002 -58.999c-18.667 47.333 -35.5 80.166 -50.5 98.499s-39.833 36.833 -74.5 55.5v-289c202.667 -54 338 -111 406 -171c90 -80.667 135 -183 135 -307c0 -72.667 -16.167 -139.334 -48.5 -200.001s-73.666 -111.334 -123.999 -152.001
s-103.833 -70.167 -160.5 -88.5s-126 -29.166 -208 -32.499v-189h-146v189c-98 8.66699 -177.5 24.5 -238.5 47.5s-113.667 54.833 -158 95.5s-78.5 84.5 -102.5 131.5s-42 103.833 -54 170.5l404 47c12 -66 28.167 -113.667 48.5 -143s53.833 -55.333 100.5 -78v353
c-134.667 37.333 -230.167 69.666 -286.5 96.999s-105.166 71.166 -146.499 131.499s-62 133.833 -62 220.5c0 118.667 41.5 217.834 124.5 297.501s206.5 123.834 370.5 132.501v99h146v-99c149.333 -9.33301 263.5 -44.666 342.5 -105.999s130.5 -145.333 154.5 -252z
M606.998 1221c-42.667 -14 -72.333 -31.332 -89 -51.999s-25 -45 -25 -73c0 -29.333 8.5 -54.833 25.5 -76.5s46.5 -39.834 88.5 -54.501v256zM752.999 237.002c56.667 12.667 98.167 33.501 124.5 62.501s39.5 61.5 39.5 97.5c0 31.333 -11.167 60.166 -33.5 86.499
s-65.833 50.833 -130.5 73.5v-320z" />
    <glyph glyph-name="percent" unicode="%" horiz-adv-x="2048" 
d="M1344 1491h211l-847 -1566h-209zM99 1106c0 68 14.833 132.667 44.5 194s75 108.5 136 141.5s133.167 49.5 216.5 49.5c122.667 0 219.334 -35 290.001 -105s106 -163.333 106 -280c0 -117.333 -35.333 -211 -106 -281s-167.334 -105 -290.001 -105
c-83.333 0 -155.5 16.5 -216.5 49.5s-106.333 80.167 -136 141.5s-44.5 126.333 -44.5 195zM380 1104c0 -82.667 13.333 -142.667 40 -180c17.333 -24.667 42.666 -37 75.999 -37s58.333 12.333 75 37c26.667 37.333 40 97.333 40 180c0 82 -13.333 142 -40 180
c-16.667 24 -41.667 36 -75 36s-58.666 -12 -75.999 -36c-26.667 -37.333 -40 -97.333 -40 -180zM1156 313c0 68.667 14.667 133.5 44 194.5s74.666 108.167 135.999 141.5s133.333 50 216 50c123.333 0 220.333 -35.167 291 -105.5s106 -163.833 106 -280.5
s-35.333 -210.167 -106 -280.5s-167.667 -105.5 -291 -105.5c-82.667 0 -154.667 16.667 -216 50s-106.666 80.5 -135.999 141.5s-44 125.833 -44 194.5zM1437 311c0 -82.667 13.333 -142.667 40 -180c16.667 -24 41.667 -36 75 -36s58.666 12 75.999 36
c26.667 37.333 40 97.333 40 180s-13.333 143 -40 181c-17.333 24 -42.666 36 -75.999 36s-58.333 -12.333 -75 -37c-26.667 -37.333 -40 -97.333 -40 -180z" />
    <glyph glyph-name="ampersand" unicode="&#x26;" horiz-adv-x="1821" 
d="M1307 713l318.001 -70.999c-16.667 -58.667 -32.667 -105.667 -48 -141s-37 -77 -65 -125l153 -105c18.667 -12 42.667 -26.333 72 -43l-219 -252c-40 21.333 -81.5 46 -124.5 74s-81.5 52 -115.5 72c-70.667 -46.667 -141.334 -80.667 -212.001 -102
c-98 -29.333 -209.333 -44 -334 -44c-195.333 0 -340.666 40.667 -435.999 122s-143 180 -143 296c0 83.333 28 162.166 84 236.499s147.667 137.166 275 188.499c-53.333 64.667 -90 120.834 -110 168.501s-30 96.167 -30 145.5c0 104 39.667 189.667 119 257
s199.666 101 360.999 101c164.667 0 285.667 -32 363 -96s116 -140.667 116 -230c0 -50 -11.833 -98 -35.5 -144s-52.167 -83.333 -85.5 -112s-93 -71.334 -179 -128.001c71.333 -71.333 145.666 -137.666 222.999 -198.999c20.667 41.333 38.334 85 53.001 131z
M839.001 970.001c52.667 28.667 93.333 59.833 122 93.5s43 65.5 43 95.5c0 31.333 -12 57.833 -36 79.5s-57 32.5 -99 32.5c-41.333 0 -75 -12 -101 -36s-39 -52.333 -39 -85c0 -41.333 36.667 -101.333 110 -180zM694 614c-56 -39.333 -93.168 -73 -111.501 -101
s-27.5 -57.667 -27.5 -89c0 -48.667 21 -92 63 -130s96.667 -57 164 -57c72.667 0 154.334 28.333 245.001 85c-86.667 66.667 -197.667 164 -333 292z" />
    <glyph glyph-name="quotesingle" unicode="'" horiz-adv-x="569" 
d="M85 1466h406v-242l-64 -297h-276l-66 297v242z" />
    <glyph glyph-name="parenleft" unicode="(" horiz-adv-x="797" 
d="M463 1491l253.999 0.000976562c-87.333 -193.333 -150.333 -372 -189 -536c-32.667 -139.333 -49 -288 -49 -446c0 -304.667 79.333 -618 238 -940h-254c-129.333 183.333 -220.166 349.166 -272.499 497.499s-78.5 303.833 -78.5 466.5c0 168.667 27.5 329 82.5 481
s144.5 311 268.5 477z" />
    <glyph glyph-name="parenright" unicode=")" horiz-adv-x="797" 
d="M334 1491l-253.999 0.000976562c87.333 -193.333 150.333 -372 189 -536c32.667 -139.333 49 -288 49 -446c0 -304.667 -79.333 -618 -238 -940h254c129.333 183.333 220.166 349.166 272.499 497.499s78.5 303.833 78.5 466.5c0 168.667 -27.5 329 -82.5 481
s-144.5 311 -268.5 477z" />
    <glyph glyph-name="asterisk" unicode="*" horiz-adv-x="1139" 
d="M453 1491l221 0.000976562l-18 -151c-4 -36.667 -12.333 -78.334 -25 -125.001c25.333 12.667 42 21.334 50 26.001c28 15.333 49.333 26.333 64 33l139 66l69 -211l-154 -32c-28 -5.33301 -69.667 -9 -125 -11c37.333 -29.333 67 -56 89 -80l104 -113l-180 -135l-74 135
c-10.667 19.333 -28 57 -52 113c-26 -61.333 -43.333 -99 -52 -113l-75 -135l-185 135l112 113c31.333 31.333 62 58 92 80c-30.667 2.66699 -71 8.66699 -121 18l-155 25l72 211l139 -63c14.667 -6.66699 51 -27.334 109 -62.001c-12.667 56 -20.667 97.667 -24 125z" />
    <glyph glyph-name="plus" unicode="+" horiz-adv-x="1352" 
d="M127 894h383v385h323v-385h385v-324h-385v-383h-323v383h-383v324z" />
    <glyph glyph-name="comma" unicode="," horiz-adv-x="682" 
d="M124 404l435 -0.00195312v-335c0 -123.333 -25.667 -220.666 -77 -291.999s-139 -134.333 -263 -189l-95 178c77.333 36 130.5 71.833 159.5 107.5s45.167 77.834 48.5 126.501h-208v404z" />
    <glyph glyph-name="hyphen" unicode="-" horiz-adv-x="682" 
d="M45 692h592v-315h-592v315z" />
    <glyph glyph-name="hyphen" unicode="&#xad;" horiz-adv-x="682" 
d="M45 692h592v-315h-592v315z" />
    <glyph glyph-name="period" unicode="." horiz-adv-x="682" 
d="M124 408h435v-408h-435v408z" />
    <glyph glyph-name="slash" unicode="/" horiz-adv-x="569" 
d="M367 1491h208l-368 -1515h-206z" />
    <glyph glyph-name="zero" unicode="0" 
d="M84 739c0 278.667 50.168 473.667 150.501 585s253.166 167 458.499 167c98.667 0 179.667 -12.167 243 -36.5s115 -56 155 -95s71.5 -80 94.5 -123s41.5 -93.167 55.5 -150.5c27.333 -109.333 41 -223.333 41 -342c0 -266 -45 -460.667 -135 -584s-245 -185 -465 -185
c-123.333 0 -223 19.667 -299 59s-138.333 97 -187 173c-35.333 54 -62.833 127.833 -82.5 221.5s-29.5 197.167 -29.5 310.5zM488.001 738c0 -186.667 16.502 -314.168 49.502 -382.501s80.833 -102.5 143.5 -102.5c41.333 0 77.166 14.5 107.499 43.5
s52.666 74.833 66.999 137.5s21.5 160.334 21.5 293.001c0 194.667 -16.5 325.5 -49.5 392.5s-82.5 100.5 -148.5 100.5c-67.333 0 -116 -34.167 -146 -102.5s-45 -194.833 -45 -379.5z" />
    <glyph glyph-name="one" unicode="1" 
d="M1007 1491l-0.000976562 -1491h-412v977c-66.667 -50.667 -131.167 -91.667 -193.5 -123s-140.5 -61.333 -234.5 -90v334c138.667 44.667 246.334 98.334 323.001 161.001s136.667 140 180 232h337z" />
    <glyph glyph-name="two" unicode="2" 
d="M1276 0l-1222 0.00195312c14 120.667 56.5 234.167 127.5 340.5s204.167 231.833 399.5 376.5c119.333 88.667 195.666 156 228.999 202s50 89.667 50 131c0 44.667 -16.5 82.834 -49.5 114.501s-74.5 47.5 -124.5 47.5c-52 0 -94.5 -16.333 -127.5 -49
s-55.167 -90.334 -66.5 -173.001l-408 33c16 114.667 45.333 204.167 88 268.5s102.834 113.666 180.501 147.999s185.167 51.5 322.5 51.5c143.333 0 254.833 -16.333 334.5 -49s142.334 -82.834 188.001 -150.501s68.5 -143.5 68.5 -227.5
c0 -89.333 -26.167 -174.666 -78.5 -255.999s-147.5 -170.666 -285.5 -267.999c-82 -56.667 -136.833 -96.334 -164.5 -119.001s-60.167 -52.334 -97.5 -89.001h636v-332z" />
    <glyph glyph-name="three" unicode="3" 
d="M479 1042l-384.998 68.998c32 122.667 93.5 216.667 184.5 282s219.833 98 386.5 98c191.333 0 329.666 -35.667 414.999 -107s128 -161 128 -269c0 -63.333 -17.333 -120.666 -52 -171.999s-87 -96.333 -157 -135c56.667 -14 100 -30.333 130 -49
c48.667 -30 86.5 -69.5 113.5 -118.5s40.5 -107.5 40.5 -175.5c0 -85.333 -22.333 -167.166 -67 -245.499s-109 -138.666 -193 -180.999s-194.333 -63.5 -331 -63.5c-133.333 0 -238.5 15.667 -315.5 47s-140.333 77.166 -190 137.499s-87.834 136.166 -114.501 227.499
l407 54c16 -82 40.833 -138.833 74.5 -170.5s76.5 -47.5 128.5 -47.5c54.667 0 100.167 20 136.5 60s54.5 93.333 54.5 160c0 68 -17.5 120.667 -52.5 158s-82.5 56 -142.5 56c-32 0 -76 -8 -132 -24l21 291c22.667 -3.33301 40.334 -5 53.001 -5
c53.333 0 97.833 17 133.5 51s53.5 74.333 53.5 121c0 44.667 -13.333 80.334 -40 107.001s-63.334 40 -110.001 40c-48 0 -87 -14.5 -117 -43.5s-50.333 -79.833 -61 -152.5z" />
    <glyph glyph-name="four" unicode="4" 
d="M784 274h-742v335l742 882h355v-901h184v-316h-184v-274h-355v274zM784 590v461l-392 -461h392z" />
    <glyph glyph-name="five" unicode="5" 
d="M249 1466l967.001 0.00195312v-325h-655l-35 -220c45.333 21.333 90.166 37.333 134.499 48s88.166 16 131.499 16c146.667 0 265.667 -44.333 357 -133s137 -200.334 137 -335.001c0 -94.667 -23.5 -185.667 -70.5 -273s-113.667 -154 -200 -200
s-196.833 -69 -331.5 -69c-96.667 0 -179.5 9.16699 -248.5 27.5s-127.667 45.666 -176 81.999s-87.5 77.5 -117.5 123.5s-55 103.333 -75 172l412 45c10 -66 33.333 -116.167 70 -150.5s80.334 -51.5 131.001 -51.5c56.667 0 103.5 21.5 140.5 64.5
s55.5 107.167 55.5 192.5c0 87.333 -18.667 151.333 -56 192s-87 61 -149 61c-39.333 0 -77.333 -9.66699 -114 -29c-27.333 -14 -57.333 -39.333 -90 -76l-347 50z" />
    <glyph glyph-name="six" unicode="6" 
d="M1263 1136l-404.998 -50.002c-10.667 56.667 -28.5 96.667 -53.5 120s-55.833 35 -92.5 35c-66 0 -117.333 -33.333 -154 -100c-26.667 -48 -46.334 -150.667 -59.001 -308c48.667 49.333 98.667 85.833 150 109.5s110.666 35.5 177.999 35.5
c130.667 0 241.167 -46.667 331.5 -140s135.5 -211.666 135.5 -354.999c0 -96.667 -22.833 -185 -68.5 -265s-109 -140.5 -190 -181.5s-182.5 -61.5 -304.5 -61.5c-146.667 0 -264.334 25 -353.001 75s-159.5 129.833 -212.5 239.5s-79.5 254.834 -79.5 435.501
c0 264.667 55.667 458.5 167 581.5s265.666 184.5 462.999 184.5c116.667 0 208.834 -13.5 276.501 -40.5s123.834 -66.5 168.501 -118.5s78.667 -117.333 102 -196zM513.002 482.998c0 -79.333 19.999 -141.501 59.999 -186.501s89 -67.5 147 -67.5
c53.333 0 98 20.333 134 61s54 101.334 54 182.001c0 82.667 -18.667 145.667 -56 189s-83.666 65 -138.999 65c-56.667 0 -104.167 -21 -142.5 -63s-57.5 -102 -57.5 -180z" />
    <glyph glyph-name="seven" unicode="7" 
d="M91 1466h1189v-275c-103.333 -93.333 -189.666 -194.333 -258.999 -303c-84 -132 -150.333 -279 -199 -441c-38.667 -126 -64.667 -275 -78 -447h-406c32 239.333 82.333 440 151 602s177.334 335.333 326.001 520h-724v344z" />
    <glyph glyph-name="eight" unicode="8" 
d="M329 788c-64 34 -110.667 72 -140 114c-40 57.333 -60 123.333 -60 198c0 122.667 57.667 223 173 301c90 60 209 90 357 90c196 0 340.833 -37.333 434.5 -112s140.5 -168.667 140.5 -282c0 -66 -18.667 -127.667 -56 -185c-28 -42.667 -72 -84 -132 -124
c79.333 -38 138.5 -88.333 177.5 -151s58.5 -132 58.5 -208c0 -73.333 -16.833 -141.833 -50.5 -205.5s-75 -112.834 -124 -147.501s-110 -60.167 -183 -76.5s-150.833 -24.5 -233.5 -24.5c-155.333 0 -274 18.333 -356 55s-144.333 90.667 -187 162s-64 151 -64 239
c0 86 20 158.833 60 218.5s101.667 105.834 185 138.501zM512 1076c0 -50.667 15.832 -91.502 47.499 -122.502s73.834 -46.5 126.501 -46.5c46.667 0 85 15.333 115 46s45 70.334 45 119.001c0 50.667 -15.667 91.834 -47 123.501s-71.333 47.5 -120 47.5
c-49.333 0 -89.5 -15.5 -120.5 -46.5s-46.5 -71.167 -46.5 -120.5zM489.999 444.998c0 -64.667 19.667 -117.5 59 -158.5s84.333 -61.5 135 -61.5c48.667 0 92.334 20.833 131.001 62.5s58 94.5 58 158.5c0 64.667 -19.5 117.667 -58.5 159s-84.167 62 -135.5 62
c-50.667 0 -94.834 -20 -132.501 -60s-56.5 -94 -56.5 -162z" />
    <glyph glyph-name="nine" unicode="9" 
d="M102 329l404.996 51c10.667 -56.667 28.667 -96.667 54 -120s56.333 -35 93 -35c65.333 0 116.333 33 153 99c26.667 48.667 46.667 151.667 60 309c-48.667 -50 -98.667 -86.667 -150 -110s-110.666 -35 -177.999 -35c-131.333 0 -242.166 46.667 -332.499 140
s-135.5 211.333 -135.5 354c0 97.333 23 186 69 266s109.333 140.5 190 181.5s182 61.5 304 61.5c146.667 0 264.334 -25.167 353.001 -75.5s159.5 -130.333 212.5 -240s79.5 -254.5 79.5 -434.5c0 -264.667 -55.667 -458.5 -167 -581.5s-265.666 -184.5 -462.999 -184.5
c-116.667 0 -208.667 13.5 -276 40.5s-123.333 66.5 -168 118.5s-79 117 -103 195zM851.996 983c0 79.333 -20 141.5 -60 186.5s-88.667 67.5 -146 67.5c-54 0 -98.833 -20.333 -134.5 -61s-53.5 -101.667 -53.5 -183c0 -82 18.5 -144.667 55.5 -188s83.167 -65 138.5 -65
c57.333 0 105 21 143 63s57 102 57 180z" />
    <glyph glyph-name="colon" unicode=":" horiz-adv-x="682" 
d="M124 1062h435v-408h-435v408zM124 408h435v-408h-435v408z" />
    <glyph glyph-name="semicolon" unicode=";" horiz-adv-x="682" 
d="M124 1062h435v-408h-435v408zM124 404l435 -0.00195312v-335c0 -123.333 -25.667 -220.666 -77 -291.999s-139 -134.333 -263 -189l-95 178c77.333 36 130.5 71.833 159.5 107.5s45.167 77.834 48.5 126.501h-208v404z" />
    <glyph glyph-name="semicolon" unicode="&#x37e;" horiz-adv-x="682" 
d="M124 1062h435v-408h-435v408zM124 404l435 -0.00195312v-335c0 -123.333 -25.667 -220.666 -77 -291.999s-139 -134.333 -263 -189l-95 178c77.333 36 130.5 71.833 159.5 107.5s45.167 77.834 48.5 126.501h-208v404z" />
    <glyph glyph-name="less" unicode="&#x3c;" horiz-adv-x="1352" 
d="M1244 112l-1137 473v296l1137 472v-355l-691 -266l691 -267v-353z" />
    <glyph glyph-name="equal" unicode="=" horiz-adv-x="1352" 
d="M126 1141h1092v-325h-1092v325zM126 649h1092v-324h-1092v324z" />
    <glyph glyph-name="greater" unicode="&#x3e;" horiz-adv-x="1352" 
d="M108 112l1137 473v296l-1137 472v-355l691 -266l-691 -267v-353z" />
    <glyph glyph-name="question" unicode="?" horiz-adv-x="1251" 
d="M785 460l-379.998 0.000976562v38c0 64.667 7.33301 117.167 22 157.5s36.5 77.166 65.5 110.499s94.167 92 195.5 176c54 44 81 84.333 81 121s-10.833 65.167 -32.5 85.5s-54.5 30.5 -98.5 30.5c-47.333 0 -86.5 -15.667 -117.5 -47s-50.833 -86 -59.5 -164l-388 48
c13.333 142.667 65.166 257.5 155.499 344.5s228.833 130.5 415.5 130.5c145.333 0 262.666 -30.333 351.999 -91c121.333 -82 182 -191.333 182 -328c0 -56.667 -15.667 -111.334 -47 -164.001s-95.333 -117 -192 -193c-67.333 -53.333 -109.833 -96.166 -127.5 -128.499
s-26.5 -74.5 -26.5 -126.5zM392.002 359.001h407v-359h-407v359z" />
    <glyph glyph-name="at" unicode="@" horiz-adv-x="1516" 
d="M1156 1148l-124.999 -791c-2.66699 -16 -4 -27.667 -4 -35c0 -12 3.33301 -21.333 10 -28s16.667 -10 30 -10c30.667 0 65.334 13.667 104.001 41c57.333 40 104.5 97.833 141.5 173.5s55.5 167.167 55.5 274.5c0 176 -50.5 315 -151.5 417s-236.5 153 -406.5 153
c-125.333 0 -239.5 -30 -342.5 -90s-182.333 -147 -238 -261s-83.5 -240 -83.5 -378c0 -214.667 60.5 -384.834 181.5 -510.501s277.167 -188.5 468.5 -188.5c93.333 0 183.166 15.667 269.499 47s169.166 78 248.499 140h205
c-54.667 -64.667 -106.667 -115.334 -156 -152.001c-72.667 -54 -157 -98 -253 -132s-199.333 -51 -310 -51c-154 0 -292.333 35.667 -415 107s-218.5 173 -287.5 305s-103.5 277.333 -103.5 436c0 166.667 35.833 318.167 107.5 454.5s166.834 240.833 285.501 313.5
s259.334 109 422.001 109c210 0 380.833 -66.667 512.5 -200s197.5 -305.666 197.5 -516.999c0 -125.333 -25.667 -240 -77 -344s-126.666 -186.333 -225.999 -247c-76.667 -46.667 -148.667 -70 -216 -70c-40 0 -72.667 9.33301 -98 28s-44 48.334 -56 89.001
c-44.667 -43.333 -85.334 -73.833 -122.001 -91.5s-76.334 -26.5 -119.001 -26.5c-88.667 0 -165 37 -229 111s-96 180 -96 318c0 163.333 41 311 123 443s183.667 198 305 198c47.333 0 89.166 -11 125.499 -33s72.833 -60.333 109.5 -115l18 113h195zM490.001 493
c0 -79.333 17 -141 51 -185c25.333 -32.667 57.666 -49 96.999 -49c42.667 0 81.334 18.167 116.001 54.5s65 108.833 91 217.5s39 206.334 39 293.001c0 65.333 -14 114.666 -42 147.999s-61.333 50 -100 50c-44 0 -82.667 -16.667 -116 -50
c-44.667 -44.667 -78.5 -115.5 -101.5 -212.5s-34.5 -185.833 -34.5 -266.5z" />
    <glyph glyph-name="A" unicode="A" horiz-adv-x="1593" 
d="M1052 242h-516l-71 -242h-463l551 1466h494l551 -1466h-474zM957 559l-162 527l-161 -527h323z" />
    <glyph glyph-name="B" unicode="B" horiz-adv-x="1593" 
d="M151 1466h847.999c141.333 0 249.833 -35 325.5 -105s113.5 -156.667 113.5 -260c0 -86.667 -27 -161 -81 -223c-36 -41.333 -88.667 -74 -158 -98c105.333 -25.333 182.833 -68.833 232.5 -130.5s74.5 -139.167 74.5 -232.5c0 -76 -17.667 -144.333 -53 -205
s-83.666 -108.667 -144.999 -144c-38 -22 -95.333 -38 -172 -48c-102 -13.333 -169.667 -20 -203 -20h-782v1466zM607.999 891h197c70.667 0 119.834 12.167 147.501 36.5s41.5 59.5 41.5 105.5c0 42.667 -13.833 76 -41.5 100s-75.834 36 -144.501 36h-200v-278z
M607.999 315h231c78 0 133 13.833 165 41.5s48 64.834 48 111.501c0 43.333 -15.833 78.166 -47.5 104.499s-87.167 39.5 -166.5 39.5h-230v-297z" />
    <glyph glyph-name="C" unicode="C" horiz-adv-x="1593" 
d="M1126 599l397.001 -120.003c-26.667 -111.333 -68.667 -204.333 -126 -279s-128.5 -131 -213.5 -169s-193.167 -57 -324.5 -57c-159.333 0 -289.5 23.167 -390.5 69.5s-188.167 127.833 -261.5 244.5s-110 266 -110 448c0 242.667 64.5 429.167 193.5 559.5
s311.5 195.5 547.5 195.5c184.667 0 329.834 -37.333 435.501 -112s184.167 -189.334 235.5 -344.001l-400 -89c-14 44.667 -28.667 77.334 -44 98.001c-25.333 34.667 -56.333 61.334 -93 80.001s-77.667 28 -123 28c-102.667 0 -181.334 -41.333 -236.001 -124
c-41.333 -61.333 -62 -157.666 -62 -288.999c0 -162.667 24.667 -274.167 74 -334.5s118.666 -90.5 207.999 -90.5c86.667 0 152.167 24.333 196.5 73s76.5 119.334 96.5 212.001z" />
    <glyph glyph-name="D" unicode="D" horiz-adv-x="1593" 
d="M156 1466l672.999 -0.00292969c132.667 0 239.834 -18 321.501 -54s149.167 -87.667 202.5 -155s92 -145.666 116 -234.999s36 -184 36 -284c0 -156.667 -17.833 -278.167 -53.5 -364.5s-85.167 -158.666 -148.5 -216.999s-131.333 -97.166 -204 -116.499
c-99.333 -26.667 -189.333 -40 -270 -40h-673v1466zM608.999 1134v-800.998h111c94.667 0 162 10.5 202 31.5s71.333 57.667 94 110s34 137.166 34 254.499c0 155.333 -25.333 261.666 -76 318.999s-134.667 86 -252 86h-113z" />
    <glyph glyph-name="E" unicode="E" horiz-adv-x="1479" 
d="M149 1466h1214v-313h-760v-233h705v-299h-705v-289h782v-332h-1236v1466z" />
    <glyph glyph-name="F" unicode="F" 
d="M152 1466h1120v-315h-665v-256h568v-296h-568v-599h-455v1466z" />
    <glyph glyph-name="G" unicode="G" horiz-adv-x="1706" 
d="M887 531l-0.000976562 305.004h700v-625c-134 -91.333 -252.5 -153.5 -355.5 -186.5s-225.167 -49.5 -366.5 -49.5c-174 0 -315.833 29.667 -425.5 89s-194.667 147.666 -255 264.999s-90.5 252 -90.5 404c0 160 33 299.167 99 417.5s162.667 208.166 290 269.499
c99.333 47.333 233 71 401 71c162 0 283.167 -14.667 363.5 -44s147 -74.833 200 -136.5s92.833 -139.834 119.5 -234.501l-437 -78c-18 55.333 -48.5 97.666 -91.5 126.999s-97.833 44 -164.5 44c-99.333 0 -178.5 -34.5 -237.5 -103.5s-88.5 -178.167 -88.5 -327.5
c0 -158.667 29.833 -272 89.5 -340s142.834 -102 249.501 -102c50.667 0 99 7.33301 145 22s98.667 39.667 158 75v138h-303z" />
    <glyph glyph-name="H" unicode="H" horiz-adv-x="1706" 
d="M152 1466h453v-513h495v513h455v-1466h-455v593h-495v-593h-453v1466z" />
    <glyph glyph-name="I" unicode="I" horiz-adv-x="797" 
d="M168 1466h454v-1466h-454v1466z" />
    <glyph glyph-name="J" unicode="J" 
d="M760 1466l453.998 -0.00195312v-797c0 -167.333 -14.833 -294.666 -44.5 -381.999s-89.334 -161.333 -179.001 -222s-204.5 -91 -344.5 -91c-148 0 -262.667 20 -344 60s-144.166 98.5 -188.499 175.5s-70.5 172.167 -78.5 285.5l433 59
c0.666992 -64.667 6.33398 -112.667 17.001 -144s28.667 -56.666 54 -75.999c17.333 -12.667 42 -19 74 -19c50.667 0 87.834 18.833 111.501 56.5s35.5 101.167 35.5 190.5v904z" />
    <glyph glyph-name="K" unicode="K" horiz-adv-x="1706" 
d="M152 1466h453v-554l475 554h602l-534 -553l558 -913h-558l-309 603l-234 -245v-358h-453v1466z" />
    <glyph glyph-name="L" unicode="L" 
d="M150 1466h453v-1105h707v-361h-1160v1466z" />
    <glyph glyph-name="M" unicode="M" horiz-adv-x="1933" 
d="M145 1466h596l230 -892l229 892h594v-1466h-370v1118l-287 -1118h-335l-286 1118v-1118h-371v1466z" />
    <glyph glyph-name="N" unicode="N" horiz-adv-x="1706" 
d="M153 1466h423l552 -811v811h427v-1466h-427l-549 805v-805h-426v1466z" />
    <glyph glyph-name="O" unicode="O" horiz-adv-x="1706" 
d="M93 732c0 239.333 66.665 425.667 199.998 559s319 200 557 200c244 0 432 -65.5 564 -196.5s198 -314.5 198 -550.5c0 -171.333 -28.833 -311.833 -86.5 -421.5s-141 -195 -250 -256s-244.833 -91.5 -407.5 -91.5c-165.333 0 -302.166 26.333 -410.499 79
s-196.166 136 -263.499 250s-101 256.667 -101 428zM545.998 730.001c0 -148 27.5 -254.333 82.5 -319s129.833 -97 224.5 -97c97.333 0 172.666 31.667 225.999 95s80 177 80 341c0 138 -27.833 238.833 -83.5 302.5s-131.167 95.5 -226.5 95.5
c-91.333 0 -164.666 -32.333 -219.999 -97s-83 -171.667 -83 -321z" />
    <glyph glyph-name="P" unicode="P" horiz-adv-x="1479" 
d="M148 1466h753c164 0 286.833 -39 368.5 -117s122.5 -189 122.5 -333c0 -148 -44.5 -263.667 -133.5 -347s-224.833 -125 -407.5 -125h-248v-544h-455v1466zM603 841l111.002 0.000976562c87.333 0 148.666 15.167 183.999 45.5s53 69.166 53 116.499
c0 46 -15.333 85 -46 117s-88.334 48 -173.001 48h-129v-327z" />
    <glyph glyph-name="Q" unicode="Q" horiz-adv-x="1706" 
d="M1452 214c56.667 -39.333 93.6689 -63.999 111.002 -73.999c26 -14.667 61 -31.667 105 -51l-126 -254c-63.333 30.667 -126 67.167 -188 109.5s-105.333 74.166 -130 95.499c-100 -43.333 -225.333 -65 -376 -65c-222.667 0 -398.334 58 -527.001 174
c-152 137.333 -228 330.333 -228 579c0 241.333 66.5 428.833 199.5 562.5s318.833 200.5 557.5 200.5c243.333 0 431.166 -65.333 563.499 -196s198.5 -317.667 198.5 -561c0 -216.667 -53.333 -390 -160 -520zM1105 446.001c36 64.667 54 161.332 54 289.999
c0 148 -27.5 253.667 -82.5 317s-130.833 95 -227.5 95c-90 0 -163 -32.333 -219 -97s-84 -165.667 -84 -303c0 -160 27.333 -272.333 82 -337s129.667 -97 225 -97c30.667 0 59.667 3 87 9c-38 36.667 -98 71.334 -180 104.001l71 163c40 -7.33301 71.167 -16.333 93.5 -27
s65.833 -38.667 130.5 -84c15.333 -10.667 32 -21.667 50 -33z" />
    <glyph glyph-name="R" unicode="R" horiz-adv-x="1593" 
d="M156 0l-0.000976562 1466h755c140 0 247 -12 321 -36s133.667 -68.5 179 -133.5s68 -144.167 68 -237.5c0 -81.333 -17.333 -151.5 -52 -210.5s-82.334 -106.833 -143.001 -143.5c-38.667 -23.333 -91.667 -42.666 -159 -57.999c54 -18 93.333 -36 118 -54
c16.667 -12 40.834 -37.667 72.501 -77s52.834 -69.666 63.501 -90.999l219 -425h-512l-242 448c-30.667 58 -58 95.667 -82 113c-32.667 22.667 -69.667 34 -111 34h-40v-595h-455zM610.999 871.998l191 0.000976562c20.667 0 60.667 6.66699 120 20
c30 6 54.5 21.333 73.5 46s28.5 53 28.5 85c0 47.333 -15 83.666 -45 108.999s-86.333 38 -169 38h-199v-298z" />
    <glyph glyph-name="S" unicode="S" horiz-adv-x="1479" 
d="M71 485l430.998 27.002c9.33301 -70 28.333 -123.333 57 -160c46.667 -59.333 113.334 -89 200.001 -89c64.667 0 114.5 15.167 149.5 45.5s52.5 65.5 52.5 105.5c0 38 -16.667 72 -50 102s-110.666 58.333 -231.999 85c-198.667 44.667 -340.334 104 -425.001 178
c-85.333 74 -128 168.333 -128 283c0 75.333 21.833 146.5 65.5 213.5s109.334 119.667 197.001 158s207.834 57.5 360.501 57.5c187.333 0 330.166 -34.833 428.499 -104.5s156.833 -180.5 175.5 -332.5l-427 -25c-11.333 66 -35.166 114 -71.499 144s-86.5 45 -150.5 45
c-52.667 0 -92.334 -11.167 -119.001 -33.5s-40 -49.5 -40 -81.5c0 -23.333 11 -44.333 33 -63c21.333 -19.333 72 -37.333 152 -54c198 -42.667 339.833 -85.834 425.5 -129.501s148 -97.834 187 -162.501s58.5 -137 58.5 -217c0 -94 -26 -180.667 -78 -260
s-124.667 -139.5 -218 -180.5s-211 -61.5 -353 -61.5c-249.333 0 -422 48 -518 144s-150.333 218 -163 366z" />
    <glyph glyph-name="T" unicode="T" horiz-adv-x="1479" 
d="M47 1466h1377v-362h-462v-1104h-453v1104h-462v362z" />
    <glyph glyph-name="U" unicode="U" horiz-adv-x="1706" 
d="M1104 1466h451.999v-874c0 -86.667 -13.5 -168.5 -40.5 -245.5s-69.333 -144.333 -127 -202s-118.167 -98.167 -181.5 -121.5c-88 -32.667 -193.667 -49 -317 -49c-71.333 0 -149.166 5 -233.499 15s-154.833 29.833 -211.5 59.5s-108.5 71.834 -155.5 126.501
s-79.167 111 -96.5 169c-28 93.333 -42 176 -42 248v874h452v-895c0 -80 22.167 -142.5 66.5 -187.5s105.833 -67.5 184.5 -67.5c78 0 139.167 22.167 183.5 66.5s66.5 107.166 66.5 188.499v895z" />
    <glyph glyph-name="V" unicode="V" horiz-adv-x="1593" 
d="M5 1466h474l330 -1055l325 1055h460l-544 -1466h-491z" />
    <glyph glyph-name="W" unicode="W" horiz-adv-x="2048" 
d="M-1 1466h430l155 -819l226 819h429l227 -819l155 819h428l-323 -1466h-444l-257 923l-256 -923h-444z" />
    <glyph glyph-name="X" unicode="X" horiz-adv-x="1593" 
d="M49 1466h499l260 -451l252 451h494l-456 -710l499 -756h-509l-289 471l-290 -471h-506l506 764z" />
    <glyph glyph-name="Y" unicode="Y" horiz-adv-x="1593" 
d="M2 1466h503l296 -495l296 495h500l-570 -852v-614h-454v614z" />
    <glyph glyph-name="Z" unicode="Z" horiz-adv-x="1479" 
d="M113 1466h1282v-293l-822 -858h852v-315h-1391v304l813 849h-734v313z" />
    <glyph glyph-name="bracketleft" unicode="[" horiz-adv-x="797" 
d="M135 1466h615v-316h-243v-1241h243v-316h-615v1873z" />
    <glyph glyph-name="backslash" unicode="\" horiz-adv-x="569" 
d="M202 1491h-208l368 -1515h206z" />
    <glyph glyph-name="bracketright" unicode="]" horiz-adv-x="797" 
d="M662 1466h-615v-316h243v-1241h-243v-316h615v1873z" />
    <glyph glyph-name="asciicircum" unicode="^" horiz-adv-x="1352" 
d="M533 1491h279l408 -813h-353l-193 491l-195 -491h-354z" />
    <glyph glyph-name="underscore" unicode="_" horiz-adv-x="1024" 
d="M-12 -154h1048v-102h-1048v102z" />
    <glyph glyph-name="grave" unicode="`" horiz-adv-x="682" 
d="M1 1491h347l164 -298h-192z" />
    <glyph glyph-name="a" unicode="a" 
d="M494 718l-388.996 41.001c14.667 68 35.834 121.5 63.501 160.5s67.5 72.833 119.5 101.5c37.333 20.667 88.666 36.667 153.999 48s136 17 212 17c122 0 220 -6.83301 294 -20.5s135.667 -42.167 185 -85.5c34.667 -30 62 -72.5 82 -127.5s30 -107.5 30 -157.5v-469
c0 -50 3.16699 -89.167 9.5 -117.5s20.166 -64.5 41.499 -108.5h-382c-15.333 27.333 -25.333 48.166 -30 62.499s-9.33398 36.833 -14.001 67.5c-53.333 -51.333 -106.333 -88 -159 -110c-72 -29.333 -155.667 -44 -251 -44c-126.667 0 -222.834 29.333 -288.501 88
s-98.5 131 -98.5 217c0 80.667 23.667 147 71 199s134.666 90.667 261.999 116c152.667 30.667 251.667 52.167 297 64.5s93.333 28.5 144 48.5c0 50 -10.333 85 -31 105s-57 30 -109 30c-66.667 0 -116.667 -10.667 -150 -32c-26 -16.667 -47 -48 -63 -94zM847.004 504.001
c-56 -20 -114.332 -37.668 -174.999 -53.001c-82.667 -22 -135 -43.667 -157 -65c-22.667 -22 -34 -47 -34 -75c0 -32 11.167 -58.167 33.5 -78.5s55.166 -30.5 98.499 -30.5c45.333 0 87.5 11 126.5 33s66.667 48.833 83 80.5s24.5 72.834 24.5 123.501v65z" />
    <glyph glyph-name="b" unicode="b" 
d="M125 1466h410.997v-508c40.667 42.667 86.834 74.667 138.501 96s108.834 32 171.501 32c129.333 0 236.333 -46.5 321 -139.5s127 -226.5 127 -400.5c0 -116 -19.333 -218.167 -58 -306.5s-92.167 -154.333 -160.5 -198s-144.166 -65.5 -227.499 -65.5
c-71.333 0 -136.666 15.333 -195.999 46c-44.667 24 -93.334 69 -146.001 135v-157h-381v1466zM532.997 534c0 -91.333 17.167 -157.499 51.5 -198.499s77.833 -61.5 130.5 -61.5c48.667 0 89.5 20.167 122.5 60.5s49.5 108.166 49.5 203.499
c0 84 -16.167 145.667 -48.5 185s-71.5 59 -117.5 59c-55.333 0 -100.5 -20.5 -135.5 -61.5s-52.5 -103.167 -52.5 -186.5z" />
    <glyph glyph-name="c" unicode="c" 
d="M915 415l387.004 -44c-21.333 -80.667 -56.333 -150.5 -105 -209.5s-110.834 -104.833 -186.501 -137.5s-171.834 -49 -288.501 -49c-112.667 0 -206.5 10.5 -281.5 31.5s-139.5 55 -193.5 102s-96.333 102.167 -127 165.5s-46 147.333 -46 252
c0 109.333 18.667 200.333 56 273c27.333 53.333 64.666 101.166 111.999 143.499s96 73.833 146 94.5c79.333 32.667 181 49 305 49c173.333 0 305.5 -31 396.5 -93s154.833 -152.667 191.5 -272l-383 -51c-12 45.333 -33.833 79.5 -65.5 102.5s-74.167 34.5 -127.5 34.5
c-67.333 0 -121.833 -24.167 -163.5 -72.5s-62.5 -121.5 -62.5 -219.5c0 -87.333 20.667 -153.666 62 -198.999s94 -68 158 -68c53.333 0 98.166 13.667 134.499 41s63.5 69.333 81.5 126z" />
    <glyph glyph-name="d" unicode="d" 
d="M1241 1466v-1466h-381v157c-53.333 -66.667 -102 -111.667 -146 -135c-58.667 -30.667 -124 -46 -196 -46c-144.667 0 -255.167 55 -331.5 165s-114.5 243.667 -114.5 401c0 176 42.167 310.667 126.5 404s191.5 140 321.5 140c63.333 0 120.833 -10.667 172.5 -32
s97.5 -53.333 137.5 -96v508h411zM833 534c0 83.333 -17.667 145.5 -53 186.5s-80 61.5 -134 61.5c-47.333 0 -87 -19.667 -119 -59s-48 -105.333 -48 -198c0 -86.667 16.5 -150.167 49.5 -190.5s73.833 -60.5 122.5 -60.5c52 0 95.333 20.333 130 61s52 107 52 199z" />
    <glyph glyph-name="e" unicode="e" 
d="M1302 430h-815.997c7.33301 -65.333 25 -114 53 -146c39.333 -46 90.666 -69 153.999 -69c40 0 78 10 114 30c22 12.667 45.667 35 71 67l401 -37c-61.333 -106.667 -135.333 -183.167 -222 -229.5s-211 -69.5 -373 -69.5c-140.667 0 -251.334 19.833 -332.001 59.5
s-147.5 102.667 -200.5 189s-79.5 187.833 -79.5 304.5c0 166 53.167 300.333 159.5 403s253.166 154 440.499 154c152 0 272 -23 360 -69s155 -112.667 201 -200s69 -201 69 -341v-46zM888.003 625c-8 78.667 -29.165 135 -63.498 169s-79.5 51 -135.5 51
c-64.667 0 -116.334 -25.667 -155.001 -77c-24.667 -32 -40.334 -79.667 -47.001 -143h401z" />
    <glyph glyph-name="f" unicode="f" horiz-adv-x="797" 
d="M576 1062h194.001v-298h-194v-764h-408v764h-152v298h152v48c0 43.333 4.66699 91 14 143s26.833 94.5 52.5 127.5s61.667 59.667 108 80s114.166 30.5 203.499 30.5c71.333 0 175 -8.33301 311 -25l-45 -246c-48.667 8 -88 12 -118 12c-36.667 0 -63 -6.16699 -79 -18.5
s-27.333 -31.833 -34 -58.5c-3.33301 -14.667 -5 -45.667 -5 -93z" />
    <glyph glyph-name="g" unicode="g" 
d="M862 1062l380.998 -0.00195312v-1003l1 -47c0 -66.667 -14.167 -130.167 -42.5 -190.5s-66 -109.166 -113 -146.499s-106.667 -64.333 -179 -81s-155.166 -25 -248.499 -25c-213.333 0 -359.833 32 -439.5 96s-119.5 149.667 -119.5 257c0 13.333 0.666992 31.333 2 54
l395 -45c10 -36.667 25.333 -62 46 -76c30 -20.667 67.667 -31 113 -31c58.667 0 102.5 15.667 131.5 47s43.5 86 43.5 164v161c-40 -47.333 -80 -81.666 -120 -102.999c-62.667 -33.333 -130.334 -50 -203.001 -50c-142 0 -256.667 62 -344 186c-62 88 -93 204.333 -93 349
c0 165.333 40 291.333 120 378s184.667 130 314 130c82.667 0 150.834 -14 204.501 -42s103.834 -74.333 150.501 -139v157zM478.998 546.998c0 -76.667 16.333 -133.499 49 -170.499s75.667 -55.5 129 -55.5c50.667 0 93.167 19.167 127.5 57.5s51.5 96.166 51.5 173.499
s-18 136.5 -54 177.5s-80 61.5 -132 61.5s-93.5 -18.833 -124.5 -56.5s-46.5 -100.167 -46.5 -187.5z" />
    <glyph glyph-name="h" unicode="h" 
d="M123 1466l406.999 -0.00195312v-540c55.333 57.333 110.333 98.333 165 123s119.334 37 194.001 37c110.667 0 197.834 -33.667 261.501 -101s95.5 -170.666 95.5 -309.999v-675h-409v584c0 66.667 -12.333 113.834 -37 141.501s-59.334 41.5 -104.001 41.5
c-49.333 0 -89.333 -18.667 -120 -56s-46 -104.333 -46 -201v-510h-407v1466z" />
    <glyph glyph-name="i" unicode="i" horiz-adv-x="682" 
d="M138 1466h407v-277h-407v277zM138 1062h407v-1062h-407v1062z" />
    <glyph glyph-name="j" unicode="j" horiz-adv-x="682" 
d="M139 1466h408v-280h-408v280zM139 1062l408 -0.000976562v-1030c0 -131.333 -9.5 -224.333 -28.5 -279s-54.167 -99 -105.5 -133s-124.666 -51 -219.999 -51c-78.667 0 -176.334 11.667 -293.001 35l61 296c32.667 -6.66699 56.667 -10 72 -10
c34.667 0 61 11.833 79 35.5s27 70.834 27 141.501v995z" />
    <glyph glyph-name="k" unicode="k" 
d="M123 1466h416v-756l304 352h501l-381 -372l403 -690h-459l-215 426l-153 -150v-276h-416v1466z" />
    <glyph glyph-name="l" unicode="l" horiz-adv-x="682" 
d="M137 1466h408v-1466h-408v1466z" />
    <glyph glyph-name="m" unicode="m" horiz-adv-x="2048" 
d="M126 1062h379.999v-155c54.667 64.667 109.834 110.667 165.501 138s122.834 41 201.501 41c84.667 0 151.667 -15 201 -45s89.666 -74.667 120.999 -134c64 69.333 122.333 116.5 175 141.5s117.667 37.5 195 37.5c114 0 203 -33.833 267 -101.5s96 -173.5 96 -317.5
v-667h-408v605c0 48 -9.33301 83.667 -28 107c-27.333 36.667 -61.333 55 -102 55c-48 0 -86.667 -17.333 -116 -52s-44 -90.334 -44 -167.001v-548h-408v585c0 46.667 -2.66699 78.334 -8 95.001c-8.66699 26.667 -23.667 48.167 -45 64.5s-46.333 24.5 -75 24.5
c-46.667 0 -85 -17.667 -115 -53s-45 -93.333 -45 -174v-542h-408v1062z" />
    <glyph glyph-name="n" unicode="n" 
d="M123 1062l379 -0.000976562v-173c56.667 70.667 114 121.167 172 151.5s128.667 45.5 212 45.5c112.667 0 200.834 -33.5 264.501 -100.5s95.5 -170.5 95.5 -310.5v-675h-409v584c0 66.667 -12.333 113.834 -37 141.501s-59.334 41.5 -104.001 41.5
c-49.333 0 -89.333 -18.667 -120 -56s-46 -104.333 -46 -201v-510h-407v1062z" />
    <glyph glyph-name="o" unicode="o" 
d="M73 528c0 162 54.665 295.498 163.998 400.498s257 157.5 443 157.5c212.667 0 373.334 -61.667 482.001 -185c87.333 -99.333 131 -221.666 131 -366.999c0 -163.333 -54.167 -297.166 -162.5 -401.499s-258.166 -156.5 -449.499 -156.5
c-170.667 0 -308.667 43.333 -414 130c-129.333 107.333 -194 248 -194 422zM480.998 528.998c0 -94.667 19.166 -164.668 57.499 -210.001s86.5 -68 144.5 -68c58.667 0 106.834 22.333 144.501 67s56.5 116.334 56.5 215.001c0 92 -19 160.5 -57 205.5s-85 67.5 -141 67.5
c-59.333 0 -108.333 -22.833 -147 -68.5s-58 -115.167 -58 -208.5z" />
    <glyph glyph-name="p" unicode="p" 
d="M125 -404l0.00195312 1466h381v-157c52.667 66 101 110.667 145 134c59.333 31.333 125 47 197 47c142 0 251.833 -54.333 329.5 -163s116.5 -243 116.5 -403c0 -176.667 -42.333 -311.5 -127 -404.5s-191.667 -139.5 -321 -139.5c-62.667 0 -119.834 10.667 -171.501 32
s-97.834 53 -138.501 95v-507h-411zM533.002 528c0 -84 17.667 -146.333 53 -187s80 -61 134 -61c47.333 0 87 19.5 119 58.5s48 105.167 48 198.5c0 86 -16.667 149.167 -50 189.5s-74 60.5 -122 60.5c-52 0 -95.333 -20.333 -130 -61s-52 -106.667 -52 -198z" />
    <glyph glyph-name="q" unicode="q" 
d="M1241 -404l-411.002 -0.000976562v507c-40 -42 -85.833 -73.667 -137.5 -95s-109.167 -32 -172.5 -32c-129.333 0 -236.333 46.5 -321 139.5s-127 226.167 -127 399.5c0 116 19.333 218.333 58 307s92.334 154.834 161.001 198.501s144.334 65.5 227.001 65.5
c71.333 0 137 -15.667 197 -47c44 -23.333 92.333 -68 145 -134v157h381v-1466zM832.998 527.999c0 91.333 -17.167 157.333 -51.5 198s-77.833 61 -130.5 61c-48.667 0 -89.5 -20.167 -122.5 -60.5s-49.5 -107.833 -49.5 -202.5c0 -84.667 16.167 -146.5 48.5 -185.5
s71.833 -58.5 118.5 -58.5c54.667 0 99.5 20.333 134.5 61s52.5 103 52.5 187z" />
    <glyph glyph-name="r" unicode="r" horiz-adv-x="909" 
d="M127 1062l380.999 0.000976562v-174c36.667 75.333 74.5 127.166 113.5 155.499s87.167 42.5 144.5 42.5c60 0 125.667 -18.667 197 -56l-126 -290c-48 20 -86 30 -114 30c-53.333 0 -94.666 -22 -123.999 -66c-42 -62 -63 -178 -63 -348v-356h-409v1062z" />
    <glyph glyph-name="s" unicode="s" horiz-adv-x="1251" 
d="M51 294l404 37.999c16.667 -48 40 -82.333 70 -103s70 -31 120 -31c54.667 0 97 11.667 127 35c23.333 17.333 35 39 35 65c0 29.333 -15.333 52 -46 68c-22 11.333 -80.333 25.333 -175 42c-141.333 24.667 -239.5 47.5 -294.5 68.5s-101.333 56.5 -139 106.5
s-56.5 107 -56.5 171c0 70 20.333 130.333 61 181s96.667 88.5 168 113.5s167 37.5 287 37.5c126.667 0 220.167 -9.66699 280.5 -29s110.666 -49.333 150.999 -90s73.833 -95.667 100.5 -165l-386 -38c-10 34 -26.667 59 -50 75c-32 21.333 -70.667 32 -116 32
c-46 0 -79.5 -8.16699 -100.5 -24.5s-31.5 -36.166 -31.5 -59.499c0 -26 13.333 -45.667 40 -59s84.667 -25.333 174 -36c135.333 -15.333 236 -36.666 302 -63.999s116.5 -66.333 151.5 -117s52.5 -106.334 52.5 -167.001c0 -61.333 -18.5 -121 -55.5 -179
s-95.333 -104.167 -175 -138.5s-188.167 -51.5 -325.5 -51.5c-194 0 -332.167 27.667 -414.5 83s-135.166 134 -158.499 236z" />
    <glyph glyph-name="t" unicode="t" horiz-adv-x="909" 
d="M614 1466l0.000976562 -404h224v-297h-224v-377c0 -45.333 4.33301 -75.333 13 -90c13.333 -22.667 36.666 -34 69.999 -34c30 0 72 8.66699 126 26l30 -281c-100.667 -22 -194.667 -33 -282 -33c-101.333 0 -176 13 -224 39s-83.5 65.5 -106.5 118.5
s-34.5 138.833 -34.5 257.5v374h-150v297h150v195z" />
    <glyph glyph-name="u" unicode="u" 
d="M1242 0h-380v172c-56.667 -70.667 -113.834 -121 -171.501 -151s-128.5 -45 -212.5 -45c-112 0 -199.833 33.5 -263.5 100.5s-95.5 170.167 -95.5 309.5v676h409v-584c0 -66.667 12.333 -114 37 -142s59.334 -42 104.001 -42c48.667 0 88.5 18.667 119.5 56
s46.5 104.333 46.5 201v511h407v-1062z" />
    <glyph glyph-name="v" unicode="v" horiz-adv-x="1251" 
d="M2 1062h424l206 -673l213 673h411l-451 -1062h-361z" />
    <glyph glyph-name="w" unicode="w" horiz-adv-x="1933" 
d="M3 1062h394l171 -669l216 669h367l224 -669l171 669h391l-391 -1062h-362l-215 639l-208 -639h-364z" />
    <glyph glyph-name="x" unicode="x" 
d="M31 1062h483l169 -296l196 296h449l-362 -506l388 -556h-475l-196 342l-231 -342h-441l386 556z" />
    <glyph glyph-name="y" unicode="y" horiz-adv-x="1251" 
d="M5 1062l430.001 -0.000976562l219 -707l203 707h401l-421 -1135c-48 -129.333 -97 -216.666 -147 -261.999c-70.667 -64 -178.334 -96 -323.001 -96c-58.667 0 -149.334 8 -272.001 24l-32 284c58.667 -18.667 124 -28 196 -28c48 0 86.833 11 116.5 33
s54.834 61.333 75.501 118z" />
    <glyph glyph-name="z" unicode="z" horiz-adv-x="1139" 
d="M77 1062h985v-238l-536 -546h569v-278h-1058v264l508 520h-468v278z" />
    <glyph glyph-name="braceleft" unicode="{" horiz-adv-x="797" 
d="M774 1491v-327.999h-45c-42 0 -73.5 -8.83301 -94.5 -26.5s-35.833 -44.834 -44.5 -81.501c-4.66699 -20 -7.33398 -74.833 -8.00098 -164.5s-10 -160.167 -28 -211.5c-13.333 -39.333 -32.333 -71 -57 -95c-18.667 -18 -49.334 -36.333 -92.001 -55
c44.667 -20.667 77.834 -42.167 99.501 -64.5s40.167 -56.333 55.5 -102s23 -118.5 23 -218.5c0 -90 4.66699 -148.667 14 -176s24.833 -46.666 46.5 -57.999s65.167 -17 130.5 -17v-324h-126c-130 0 -222.333 14.167 -277 42.5s-93.667 69.666 -117 123.999
s-35 135.833 -35 244.5c0 24 0.666992 48 2 72c0.666992 14.667 1 29.667 1 45c0 77.333 -7 132.333 -21 165s-34.167 56.334 -60.5 71.001s-64.5 22.667 -114.5 24v343c51.333 0 89.833 8 115.5 24s45.167 40.5 58.5 73.5s20 88.833 20 167.5v34
c-0.666992 15.333 -1 30.666 -1 45.999c0 118 9.83301 203.333 29.5 256s46.834 93 81.501 121c26 21.333 61.333 37.333 106 48c59.333 14 127 21 203 21h135z" />
    <glyph glyph-name="bar" unicode="|" horiz-adv-x="569" 
d="M160 1466h255v-1870h-255v1870z" />
    <glyph glyph-name="braceright" unicode="}" horiz-adv-x="797" 
d="M23 1491v-327.999h45c42 0 73.5 -8.83301 94.5 -26.5s35.833 -44.834 44.5 -81.501c4.66699 -20 7.33398 -74.833 8.00098 -164.5s10 -160.167 28 -211.5c13.333 -39.333 32.333 -71 57 -95c18.667 -18 49.334 -36.333 92.001 -55
c-44.667 -20.667 -77.834 -42.167 -99.501 -64.5s-40.167 -56.333 -55.5 -102s-23 -118.5 -23 -218.5c0 -90 -4.66699 -148.667 -14 -176s-24.833 -46.666 -46.5 -57.999s-65.167 -17 -130.5 -17v-324h126c130 0 222.333 14.167 277 42.5s93.667 69.666 117 123.999
s35 135.833 35 244.5c0 24 -0.666992 48 -2 72c-0.666992 14.667 -1 29.667 -1 45c0 77.333 7 132.333 21 165s34.167 56.334 60.5 71.001s64.5 22.667 114.5 24v343c-51.333 0 -89.833 8 -115.5 24s-45.167 40.5 -58.5 73.5s-20 88.833 -20 167.5v34
c0.666992 15.333 1 30.666 1 45.999c0 118 -9.83301 203.333 -29.5 256s-46.834 93 -81.501 121c-26 21.333 -61.333 37.333 -106 48c-59.333 14 -127 21 -203 21h-135z" />
    <glyph glyph-name="asciitilde" unicode="~" horiz-adv-x="1352" 
d="M1246 972v-325.999c-76.667 -61.333 -138.667 -102.333 -186 -123s-96.333 -31 -147 -31c-38.667 0 -77.5 5.66699 -116.5 17s-100 38 -183 80s-148.5 63 -196.5 63c-102.667 0 -208.667 -53.333 -318 -160v329c62 55.333 120 94.666 174 117.999s113 35 177 35
c32.667 0 67 -5.16699 103 -15.5s88.833 -32.5 158.5 -66.5s119.167 -55.333 148.5 -64s57 -13 83 -13c89.333 0 190.333 52.333 303 157z" />
    <glyph glyph-name="nbspace" unicode="&#xa0;" horiz-adv-x="683" 
 />
    <glyph glyph-name="exclamdown" unicode="&#xa1;" horiz-adv-x="682" 
d="M124 -404h435v334l-84 671h-269l-82 -671v-334zM139 703h406v359h-406v-359z" />
    <glyph glyph-name="cent" unicode="&#xa2;" 
d="M932 412l370 -40.998c-14 -66 -34 -118.667 -60 -158c-47.333 -72 -113.166 -130.833 -197.499 -176.5s-184.5 -68.5 -300.5 -68.5c-30 0 -89.667 2.66699 -179 8l-129 -366l-131 46l122 352c-108 34 -193.833 95.5 -257.5 184.5s-95.5 201.167 -95.5 336.5
c0 169.333 53.5 305.833 160.5 409.5s246.833 155.5 419.5 155.5c26 0 75.667 -2.66699 149 -8l129 360l129 -47l-120 -337c67.333 -21.333 122.833 -48.5 166.5 -81.5s80.167 -71.5 109.5 -115.5c21.333 -32.667 43 -80.334 65 -143.001l-364 -49
c-9.33301 31.333 -18.333 53.666 -27 66.999s-23.334 29.333 -44.001 48l-194 -555c24 -3.33301 43 -5 57 -5c51.333 0 97 15.833 137 47.5s68.333 77.167 85 136.5zM529 299.002l182.001 529c-8.66699 0.666992 -15.334 1 -20.001 1c-58.667 0 -111.667 -23.833 -159 -71.5
s-71 -131.5 -71 -251.5c0 -50.667 4.83301 -90.167 14.5 -118.5s27.5 -57.833 53.5 -88.5z" />
    <glyph glyph-name="sterling" unicode="&#xa3;" 
d="M676 845l302.999 0.00390625v-239h-268c-3.33301 -56.667 -13.666 -107.667 -30.999 -153c-14 -34.667 -37.333 -70.667 -70 -108c37.333 8.66699 69.333 13 96 13c34 0 78.333 -6.66699 133 -20c74.667 -17.333 134.334 -26 179.001 -26c36.667 0 68.5 3.16699 95.5 9.5
s62.5 19.5 106.5 39.5l136 -298c-66 -33.333 -124 -56.333 -174 -69s-103.667 -19 -161 -19c-62.667 0 -134.334 11 -215.001 33c-106 29.333 -171.667 46.333 -197 51s-52.666 7 -81.999 7c-86 0 -181 -30.333 -285 -91l-129 284c140 100.667 210 201.334 210 302.001
c0 5.33301 -0.666992 20.333 -2 45h-208v239h149c-25.333 88 -39.666 139 -42.999 153c-4 21.333 -6 47.666 -6 78.999c0 83.333 22.167 158.166 66.5 224.499s102.666 114.5 174.999 144.5s169.833 45 292.5 45c114.667 0 205.5 -12.833 272.5 -38.5
s123.667 -68.334 170 -128.001s78.166 -131.834 95.499 -216.501l-382 -60c-19.333 71.333 -41.5 118.666 -66.5 141.999s-53.5 35 -85.5 35c-38.667 0 -70 -12.667 -94 -38s-36 -61.333 -36 -108c0 -24.667 2.33301 -48.5 7 -71.5s20.667 -77.167 48 -162.5z" />
    <glyph glyph-name="currency" unicode="&#xa4;" horiz-adv-x="1352" 
d="M305 1147l144.003 -142c38 19.333 75.5 33.666 112.5 42.999s73.5 14 109.5 14s72.667 -4.66699 110 -14s75 -23.666 113 -42.999l140 142l211 -209l-141 -143c17.333 -36 30.333 -72.167 39 -108.5s13 -72.833 13 -109.5c0 -36 -4.33301 -72.667 -13 -110
s-21.667 -75.333 -39 -114l141 -140l-211 -213l-140 143c-40.667 -18 -79.834 -31.5 -117.501 -40.5s-73.834 -13.5 -108.501 -13.5s-70.334 4.5 -107.001 13.5s-74 22.5 -112 40.5l-137 -143l-214 213l141 140c-18 34.667 -31.5 70 -40.5 106s-13.5 72.667 -13.5 110
c0 38 4.5 75.833 13.5 113.5s22.5 75.167 40.5 112.5l-141 143zM863.003 574c0 53.333 -18.667 98.666 -56 135.999s-82.666 56 -135.999 56c-52.667 0 -97.667 -18.667 -135 -56s-56 -82.666 -56 -135.999c0 -52.667 18.667 -97.667 56 -135s82.333 -56 135 -56
c53.333 0 98.666 18.667 135.999 56s56 82.333 56 135z" />
    <glyph glyph-name="yen" unicode="&#xa5;" 
d="M-2 1466h457l229 -498l226 498h458l-349 -632h297v-221h-421v-121h421v-224h-421v-268h-416v268h-428v224h428v121h-428v221h306z" />
    <glyph glyph-name="brokenbar" unicode="&#xa6;" horiz-adv-x="569" 
d="M160 1466h255v-776h-255v776zM160 373h255v-777h-255v777z" />
    <glyph glyph-name="section" unicode="&#xa7;" 
d="M1211 1159l-382 -44.001c-12.667 38 -30.167 65 -52.5 81s-52.166 24 -89.499 24c-44.667 0 -77.334 -8.66699 -98.001 -26s-31 -39.333 -31 -66c0 -22.667 9.33301 -42.667 28 -60c33.333 -30.667 111.333 -68.334 234 -113.001c175.333 -64 297.333 -126.667 366 -188
c68 -62 102 -143 102 -243c0 -58.667 -13 -112.167 -39 -160.5s-68 -97.5 -126 -147.5c35.333 -38.667 61.5 -77.667 78.5 -117s25.5 -84.333 25.5 -135c0 -69.333 -17.833 -134.333 -53.5 -195s-91.834 -109.167 -168.501 -145.5s-179.667 -54.5 -309 -54.5
c-82.667 0 -156.167 7 -220.5 21s-117.333 33.333 -159 58s-76 53.167 -103 85.5s-47.167 63.333 -60.5 93s-25.333 69.834 -36 120.501l376 39c24 -48.667 51.333 -84.334 82 -107.001s68.334 -34 113.001 -34c46 0 80.5 10.667 103.5 32s34.5 47.666 34.5 78.999
c0 26.667 -13.667 53.667 -41 81c-38 37.333 -139.833 88.833 -305.5 154.5s-276.167 130.834 -331.5 195.501s-83 133.334 -83 206.001c0 57.333 14.833 110.166 44.5 158.499s80.5 97.833 152.5 148.5c-34 37.333 -58.667 74 -74 110s-23 76.333 -23 121
c0 57.333 13.5 109.833 40.5 157.5s62.167 85.834 105.5 114.501s87.333 49.334 132 62.001c60.667 17.333 138.667 26 234 26c127.333 0 222.5 -11.5 285.5 -34.5s114.5 -58.5 154.5 -106.5s71.333 -111.667 94 -191zM446 763.999c-34.667 -46 -52 -83 -52 -111
c0 -17.333 5.66699 -32.333 17 -45c18.667 -21.333 64.667 -48.666 138 -81.999l385 -173c30 45.333 45 81.666 45 108.999c0 22 -9 41.667 -27 59c-26 25.333 -103 64.5 -231 117.5s-219.667 94.833 -275 125.5z" />
    <glyph glyph-name="dieresis" unicode="&#xa8;" horiz-adv-x="682" 
d="M-2 1446h260v-250h-260v250zM422 1446h263v-250h-263v250z" />
    <glyph glyph-name="copyright" unicode="&#xa9;" horiz-adv-x="1638" 
d="M1585 728c0 -136.667 -34.167 -264 -102.5 -382s-161.5 -211 -279.5 -279s-245.333 -102 -382 -102c-136 0 -263 34 -381 102s-211.167 161 -279.5 279s-102.5 245.333 -102.5 382c0 136 34.167 263.167 102.5 381.5s161.5 211.5 279.5 279.5s245 102 381 102
c136.667 0 264 -34 382 -102s211.167 -161.167 279.5 -279.5s102.5 -245.5 102.5 -381.5zM1437 728c0 170 -60.167 315.167 -180.5 435.5s-265.5 180.5 -435.5 180.5s-315.167 -60.167 -435.5 -180.5s-180.5 -265.5 -180.5 -435.5s60.167 -315.167 180.5 -435.5
s265.5 -180.5 435.5 -180.5s315.167 60.167 435.5 180.5s180.5 265.5 180.5 435.5zM999 634l206.001 -49c-25.333 -80.667 -60.333 -142.667 -105 -186c-70 -67.333 -161.333 -101 -274 -101c-122.667 0 -222.667 39.5 -300 118.5s-116 183.5 -116 313.5
c0 123.333 39.667 225.166 119 305.499s178.666 120.5 297.999 120.5c96.667 0 178 -25.667 244 -77s107.667 -117.666 125 -198.999l-197 -30c-12 54 -33.833 94.167 -65.5 120.5s-70.167 39.5 -115.5 39.5c-52 0 -95.667 -22.167 -131 -66.5s-53 -113.833 -53 -208.5
c0 -95.333 12 -163.333 36 -204c35.333 -58.667 85.333 -88 150 -88c40.667 0 77.167 15 109.5 45s55.5 78.667 69.5 146z" />
    <glyph glyph-name="ordfeminine" unicode="&#xaa;" horiz-adv-x="819" 
d="M761 761h-218.001c-10 20.667 -18 43 -24 67c-30.667 -28.667 -60.667 -48.667 -90 -60c-41.333 -16 -89.333 -24 -144 -24c-83.333 0 -146.166 19.667 -188.499 59s-63.5 91.333 -63.5 156c0 58.667 17.667 105.667 53 141c34.667 35.333 109.334 63.333 224.001 84
c69.333 12 132.666 28.333 189.999 49c0 37.333 -7.33301 63.166 -22 77.499s-41 21.5 -79 21.5c-35.333 0 -61.166 -5.66699 -77.499 -17s-28.833 -31.666 -37.5 -60.999l-221 43c12.667 47.333 30.667 84.5 54 111.5s53.666 47.5 90.999 61.5s93 21 167 21
c141.333 0 235.333 -18.667 282 -56c46 -38 69 -98.333 69 -181v-337c0 -41.333 2.16699 -71.5 6.5 -90.5s13.833 -40.833 28.5 -65.5zM499.999 1096c-38 -13.333 -78.668 -24.167 -122.001 -32.5s-72.666 -19.833 -87.999 -34.5c-16 -14.667 -24 -32 -24 -52
c0 -24 8.66699 -44 26 -60s41 -24 71 -24c42 0 75.333 13.333 100 40s37 68 37 124v39z" />
    <glyph glyph-name="guillemotleft" unicode="&#xab;" 
d="M932 996h313l-277 -463l277 -462h-313l-318 462zM414 996h312l-277 -463l277 -462h-312l-319 462z" />
    <glyph glyph-name="logicalnot" unicode="&#xac;" horiz-adv-x="1352" 
d="M126 1133h1092v-817h-326v492h-766v325z" />
    <glyph glyph-name="registered" unicode="&#xae;" horiz-adv-x="1638" 
d="M1585 728c0 -136.667 -34.167 -264 -102.5 -382s-161.5 -211 -279.5 -279s-245.333 -102 -382 -102c-136 0 -263 34 -381 102s-211.167 161 -279.5 279s-102.5 245.333 -102.5 382c0 136 34.167 263.167 102.5 381.5s161.5 211.5 279.5 279.5s245 102 381 102
c136.667 0 264 -34 382 -102s211.167 -161.167 279.5 -279.5s102.5 -245.5 102.5 -381.5zM1437 728c0 170 -60.167 315.167 -180.5 435.5s-265.5 180.5 -435.5 180.5s-315.167 -60.167 -435.5 -180.5s-180.5 -265.5 -180.5 -435.5s60.167 -315.167 180.5 -435.5
s265.5 -180.5 435.5 -180.5s315.167 60.167 435.5 180.5s180.5 265.5 180.5 435.5zM475 1136l365.001 0.00292969c103.333 0 178.166 -20.833 224.499 -62.5s69.5 -97.5 69.5 -167.5c0 -54.667 -17.667 -102 -53 -142s-91 -69 -167 -87c31.333 -12 54.333 -24.667 69 -38
c20.667 -18.667 42.334 -46.334 65.001 -83.001c1.33301 -2.66699 45.333 -81.334 132 -236.001h-240c-78 155.333 -130.333 248.166 -157 278.499s-53.334 45.5 -80.001 45.5c-6 0 -14.333 -1 -25 -3v-321h-203v816zM678.001 790.003h88c58.667 0 100 9.5 124 28.5
s36 43.5 36 73.5s-11.5 54.5 -34.5 73.5s-62.167 28.5 -117.5 28.5h-96v-204z" />
    <glyph glyph-name="overscore" unicode="&#xaf;" horiz-adv-x="1024" 
d="M-12 1701h1048v-102h-1048v102z" />
    <glyph glyph-name="degree" unicode="&#xb0;" horiz-adv-x="819" 
d="M692 1206c0 -78.667 -28 -146 -84 -202s-123.667 -84 -203 -84c-78.667 0 -146 28 -202 84s-84 123.333 -84 202c0 79.333 28 146.833 84 202.5s123.333 83.5 202 83.5c79.333 0 147 -27.833 203 -83.5s84 -123.167 84 -202.5zM506 1207c0 28 -9.83301 52 -29.5 72
s-43.5 30 -71.5 30s-52 -10 -72 -30s-30 -44 -30 -72s10 -51.833 30 -71.5s44 -29.5 72 -29.5s51.833 9.83301 71.5 29.5s29.5 43.5 29.5 71.5z" />
    <glyph glyph-name="plusminus" unicode="&#xb1;" horiz-adv-x="1352" 
d="M127 1072h383v373h323v-373h385v-315h-385v-356h-323v356h-383v315zM127 307h1091v-307h-1091v307z" />
    <glyph glyph-name="twosuperior" unicode="&#xb2;" horiz-adv-x="819" 
d="M791 741l-769.001 0.000976562c16.667 60.667 43.5 112.667 80.5 156s119.5 107.666 247.5 192.999c74 49.333 121 86 141 110c19.333 24 29 45.667 29 65c0 20 -7.5 36.333 -22.5 49s-38.167 19 -69.5 19c-32.667 0 -60 -8.83301 -82 -26.5s-38 -46.5 -48 -86.5l-246 21
c12 53.333 28 93.333 48 120c28.667 39.333 71 70.833 127 94.5s126.667 35.5 212 35.5c120.667 0 209 -22 265 -66s84 -96.667 84 -158c0 -46 -14 -88.333 -42 -127c-28.667 -39.333 -76.167 -78.333 -142.5 -117s-120.166 -71.667 -161.499 -99h349v-183z" />
    <glyph glyph-name="threesuperior" unicode="&#xb3;" horiz-adv-x="819" 
d="M301 1258l-257.998 40.002c32.667 62.667 73 108.334 121 137.001c64 37.333 149.333 56 256 56c120 0 210.667 -22.333 272 -67c43.333 -32 65 -73.333 65 -124c0 -35.333 -12 -68 -36 -98c-16.667 -20.667 -46.667 -41.334 -90 -62.001
c53.333 -17.333 92.666 -43 117.999 -77s38 -73.333 38 -118c0 -62.667 -24.333 -112.334 -73 -149.001c-66 -50 -167 -75 -303 -75c-127.333 0 -225 26 -293 78c-39.333 30 -68.333 74.667 -87 134l254 29c10.667 -32 25.667 -55 45 -69s45 -21 77 -21
c37.333 0 66.5 9.16699 87.5 27.5s31.5 40.166 31.5 65.499c0 34 -18.667 60.333 -56 79c-21.333 10.667 -71 16.667 -149 18l28 141c57.333 0 96 7.33301 116 22s30 33 30 55c0 17.333 -6.83301 31.833 -20.5 43.5s-33.834 17.5 -60.501 17.5
c-27.333 0 -52 -7.66699 -74 -23c-16 -11.333 -29 -31.333 -39 -60z" />
    <glyph glyph-name="acute" unicode="&#xb4;" horiz-adv-x="682" 
d="M331 1491h350l-323 -299h-195z" />
    <glyph glyph-name="mu1" unicode="&#xb5;" 
d="M120 1062l408.003 -0.000976562v-534c0 -76 10 -128 30 -156c29.333 -43.333 71.666 -65 126.999 -65c51.333 0 89.666 19.5 114.999 58.5s38 96.833 38 173.5v523h406v-1062h-382v84c-22 -37.333 -43.333 -62.666 -64 -75.999c-32.667 -21.333 -66.334 -32 -101.001 -32
c-32 0 -65.667 9.66699 -101 29c-23.333 12.667 -46 36.667 -68 72v-479h-408v1464z" />
    <glyph glyph-name="paragraph" unicode="&#xb6;" horiz-adv-x="1741" 
d="M1617 1466l0.000976562 -317h-131v-1556h-297v1556h-167v-1556h-297v1022h-69c-134.667 0 -236 16.5 -304 49.5s-121.167 84 -159.5 153s-57.5 146.5 -57.5 232.5c0 134 42.667 236.833 128 308.5s212.666 107.5 381.999 107.5h972z" />
    <glyph glyph-name="middot" unicode="&#xb7;" horiz-adv-x="683" 
d="M124 937h435v-408h-435v408z" />
    <glyph glyph-name="cedilla" unicode="&#xb8;" horiz-adv-x="682" 
d="M116 -165l30.001 118.001c62.667 15.333 121.334 23 176.001 23c114 0 192.667 -19.333 236 -58s65 -84.334 65 -137.001c0 -32 -9.83301 -65 -29.5 -99s-54.834 -61.333 -105.501 -82s-118 -31 -202 -31c-76 0 -165.333 8.66699 -268 26v123
c69.333 -13.333 143 -20 221 -20c57.333 0 96.166 7.66699 116.499 23s30.5 35.333 30.5 60c0 19.333 -8.33301 36 -25 50s-42.667 21 -78 21c-47.333 0 -103 -5.66699 -167 -17z" />
    <glyph glyph-name="onesuperior" unicode="&#xb9;" horiz-adv-x="819" 
d="M627 1491l-0.000976562 -750h-260v448c-37.333 -22 -71.166 -38.5 -101.499 -49.5s-71.833 -21.833 -124.5 -32.5v207c122.667 30 218.667 89 288 177h198z" />
    <glyph glyph-name="ordmasculine" unicode="&#xba;" horiz-adv-x="819" 
d="M23 1117c0 63.333 14.332 124.833 42.999 184.5s73 106.167 133 139.5s131.333 50 214 50c114.667 0 205.834 -34.333 273.501 -103s101.5 -160 101.5 -274c0 -110 -34.333 -199.333 -103 -268s-159 -103 -271 -103c-88.667 0 -163 18.167 -223 54.5
s-103 84.5 -129 144.5s-39 118.333 -39 175zM270.999 1117c0 -72 14.333 -125.333 43 -160c22 -26.667 54.333 -40 97 -40c38 0 69.333 15.333 94 46s37 82 37 154c0 73.333 -12.5 125.5 -37.5 156.5s-57.5 46.5 -97.5 46.5c-40.667 0 -73.5 -15.5 -98.5 -46.5
s-37.5 -83.167 -37.5 -156.5z" />
    <glyph glyph-name="guillemotright" unicode="&#xbb;" 
d="M434 996h-313l277 -463l-277 -462h313l318 462zM952 996h-312l277 -463l-277 -462h312l319 462z" />
    <glyph glyph-name="onequarter" unicode="&#xbc;" horiz-adv-x="2048" 
d="M643 1491l-0.000976562 -750h-260v448c-37.333 -22 -71.166 -38.5 -101.499 -49.5s-71.833 -21.833 -124.5 -32.5v207c122.667 30 218.667 89 288 177h198zM1400 1491h215l-922 -1544h-213zM1648 71h-408v189l418 461h214v-484h99v-166h-99v-121h-224v121zM1648 237v219
l-204 -219h204z" />
    <glyph glyph-name="onehalf" unicode="&#xbd;" horiz-adv-x="2048" 
d="M643 1491l-0.000976562 -750h-260v448c-37.333 -22 -71.166 -38.5 -101.499 -49.5s-71.833 -21.833 -124.5 -32.5v207c122.667 30 218.667 89 288 177h198zM1369 1491h215l-922 -1544h-213zM1990 -29l-769.001 0.000976562c16.667 60.667 43.5 112.667 80.5 156
s119.5 107.666 247.5 192.999c74 49.333 121 86 141 110c19.333 24 29 45.667 29 65c0 20 -7.5 36.333 -22.5 49s-38.167 19 -69.5 19c-32.667 0 -60 -8.83301 -82 -26.5s-38 -46.5 -48 -86.5l-246 21c12 53.333 28 93.333 48 120c28.667 39.333 71 70.833 127 94.5
s126.667 35.5 212 35.5c120.667 0 209 -22 265 -66s84 -96.667 84 -158c0 -46 -14 -88.333 -42 -127c-28.667 -39.333 -76.167 -78.333 -142.5 -117s-120.166 -71.667 -161.499 -99h349v-183z" />
    <glyph glyph-name="threequarters" unicode="&#xbe;" horiz-adv-x="2048" 
d="M340 1258l-257.998 40.002c32.667 62.667 73 108.334 121 137.001c64 37.333 149.333 56 256 56c120 0 210.667 -22.333 272 -67c43.333 -32 65 -73.333 65 -124c0 -35.333 -12 -68 -36 -98c-16.667 -20.667 -46.667 -41.334 -90 -62.001
c53.333 -17.333 92.666 -43 117.999 -77s38 -73.333 38 -118c0 -62.667 -24.333 -112.334 -73 -149.001c-66 -50 -167 -75 -303 -75c-127.333 0 -225 26 -293 78c-39.333 30 -68.333 74.667 -87 134l254 29c10.667 -32 25.667 -55 45 -69s45 -21 77 -21
c37.333 0 66.5 9.16699 87.5 27.5s31.5 40.166 31.5 65.499c0 34 -18.667 60.333 -56 79c-21.333 10.667 -71 16.667 -149 18l28 141c57.333 0 96 7.33301 116 22s30 33 30 55c0 17.333 -6.83301 31.833 -20.5 43.5s-33.834 17.5 -60.501 17.5
c-27.333 0 -52 -7.66699 -74 -23c-16 -11.333 -29 -31.333 -39 -60zM1425 1491h215l-922 -1544h-213zM1648 71.002h-408v189l418 461h214v-484h99v-166h-99v-121h-224v121zM1648 237.002v219l-204 -219h204z" />
    <glyph glyph-name="questiondown" unicode="&#xbf;" horiz-adv-x="1251" 
d="M466 602l379.998 -0.000976562v-38c0 -64.667 -7.33301 -117.167 -22 -157.5s-36.5 -77.166 -65.5 -110.499s-94.167 -92 -195.5 -176c-54 -44 -81 -84.333 -81 -121s10.833 -65.167 32.5 -85.5s54.5 -30.5 98.5 -30.5c47.333 0 86.5 15.667 117.5 47s50.833 86 59.5 164
l388 -48c-13.333 -142.667 -65.166 -257.5 -155.499 -344.5s-228.833 -130.5 -415.5 -130.5c-145.333 0 -262.666 30.333 -351.999 91c-121.333 82 -182 191.333 -182 328c0 56.667 15.667 111.334 47 164.001s95.333 117 192 193
c67.333 53.333 109.833 96.166 127.5 128.499s26.5 74.5 26.5 126.5zM858.998 702.999h-407v359h407v-359z" />
    <glyph glyph-name="Agrave" unicode="&#xc0;" horiz-adv-x="1593" 
d="M1052 242h-516l-71 -242h-463l551 1466h494l551 -1466h-474zM957 559l-162 527l-161 -527h323zM457 1854h347l164 -298h-192z" />
    <glyph glyph-name="Aacute" unicode="&#xc1;" horiz-adv-x="1593" 
d="M1052 242h-516l-71 -242h-463l551 1466h494l551 -1466h-474zM957 559l-162 527l-161 -527h323zM787 1854h350l-323 -299h-195z" />
    <glyph glyph-name="Acircumflex" unicode="&#xc2;" horiz-adv-x="1593" 
d="M1052 242h-516l-71 -242h-463l551 1466h494l551 -1466h-474zM957 559l-162 527l-161 -527h323zM657 1841h289l222 -286h-248l-122 153l-122 -153h-248z" />
    <glyph glyph-name="Atilde" unicode="&#xc3;" horiz-adv-x="1593" 
d="M1052 242h-516l-71 -242h-463l551 1466h494l551 -1466h-474zM957 559l-162 527l-161 -527h323zM999 1829l158.001 -0.000976562c0.666992 -17.333 1 -32.333 1 -45c0 -74 -18.667 -131.333 -56 -172s-85.333 -61 -144 -61c-42.667 0 -107.334 17.667 -194.001 53
c-52.667 21.333 -89 32 -109 32c-19.333 0 -34.333 -6 -45 -18s-16.334 -33.333 -17.001 -64h-156c-0.666992 16 -1 30 -1 42c0 71.333 19.667 128 59 170s86 63 140 63c23.333 0 45.333 -2.66699 66 -8s58.834 -19.666 114.501 -42.999s96.167 -35 121.5 -35
c18 0 32.5 6.16699 43.5 18.5s17.167 34.833 18.5 67.5z" />
    <glyph glyph-name="Adieresis" unicode="&#xc4;" horiz-adv-x="1593" 
d="M1052 242h-516l-71 -242h-463l551 1466h494l551 -1466h-474zM957 559l-162 527l-161 -527h323zM454 1809h260v-250h-260v250zM878 1809h263v-250h-263v250z" />
    <glyph glyph-name="Aring" unicode="&#xc5;" horiz-adv-x="1593" 
d="M587 1466c-21.333 37.333 -32 77.666 -32 120.999c0 66 23.5 122.667 70.5 170s103.5 71 169.5 71c66.667 0 123.5 -23.5 170.5 -70.5s70.5 -103.833 70.5 -170.5c0 -43.333 -11 -83.666 -33 -120.999h44l551 -1466h-474l-77 242h-506l-76 -242h-463l551 1466h34z
M692 1588c0 -29.333 10 -54 30 -74s44.333 -30 73 -30c28 0 52 10 72 30s30 44.333 30 73s-10 53 -30 73s-44 30 -72 30c-28.667 0 -53 -10 -73 -30s-30 -44 -30 -72zM945 577l-150 485l-149 -485h299z" />
    <glyph glyph-name="AE" unicode="&#xc6;" horiz-adv-x="2048" 
d="M556 1466h1400v-313h-618v-233h562v-299h-562v-289h637v-332h-1063v263h-435l-97 -263h-456zM811 1169l-211 -572h312v572h-101z" />
    <glyph glyph-name="Ccedilla" unicode="&#xc7;" horiz-adv-x="1593" 
d="M1126 599l397.001 -120.003c-26.667 -111.333 -68.667 -204.333 -126 -279s-128.5 -131 -213.5 -169s-193.167 -57 -324.5 -57c-159.333 0 -289.5 23.167 -390.5 69.5s-188.167 127.833 -261.5 244.5s-110 266 -110 448c0 242.667 64.5 429.167 193.5 559.5
s311.5 195.5 547.5 195.5c184.667 0 329.834 -37.333 435.501 -112s184.167 -189.334 235.5 -344.001l-400 -89c-14 44.667 -28.667 77.334 -44 98.001c-25.333 34.667 -56.333 61.334 -93 80.001s-77.667 28 -123 28c-102.667 0 -181.334 -41.333 -236.001 -124
c-41.333 -61.333 -62 -157.666 -62 -288.999c0 -162.667 24.667 -274.167 74 -334.5s118.666 -90.5 207.999 -90.5c86.667 0 152.167 24.333 196.5 73s76.5 119.334 96.5 212.001zM572.001 -165.003l30.001 118.001c62.667 15.333 121.334 23 176.001 23
c114 0 192.667 -19.333 236 -58s65 -84.334 65 -137.001c0 -32 -9.83301 -65 -29.5 -99s-54.834 -61.333 -105.501 -82s-118 -31 -202 -31c-76 0 -165.333 8.66699 -268 26v123c69.333 -13.333 143 -20 221 -20c57.333 0 96.166 7.66699 116.499 23s30.5 35.333 30.5 60
c0 19.333 -8.33301 36 -25 50s-42.667 21 -78 21c-47.333 0 -103 -5.66699 -167 -17z" />
    <glyph glyph-name="Egrave" unicode="&#xc8;" horiz-adv-x="1479" 
d="M149 1466h1214v-313h-760v-233h705v-299h-705v-289h782v-332h-1236v1466zM400 1854h347l164 -298h-192z" />
    <glyph glyph-name="Eacute" unicode="&#xc9;" horiz-adv-x="1479" 
d="M149 1466h1214v-313h-760v-233h705v-299h-705v-289h782v-332h-1236v1466zM730 1854h350l-323 -299h-195z" />
    <glyph glyph-name="Ecircumflex" unicode="&#xca;" horiz-adv-x="1479" 
d="M149 1466h1214v-313h-760v-233h705v-299h-705v-289h782v-332h-1236v1466zM600 1841h289l222 -286h-248l-122 153l-122 -153h-248z" />
    <glyph glyph-name="Edieresis" unicode="&#xcb;" horiz-adv-x="1479" 
d="M149 1466h1214v-313h-760v-233h705v-299h-705v-289h782v-332h-1236v1466zM397 1809h260v-250h-260v250zM821 1809h263v-250h-263v250z" />
    <glyph glyph-name="Igrave" unicode="&#xcc;" horiz-adv-x="797" 
d="M168 1466h454v-1466h-454v1466zM59 1854h347l164 -298h-192z" />
    <glyph glyph-name="Iacute" unicode="&#xcd;" horiz-adv-x="797" 
d="M168 1466h454v-1466h-454v1466zM389 1854h350l-323 -299h-195z" />
    <glyph glyph-name="Icircumflex" unicode="&#xce;" horiz-adv-x="797" 
d="M168 1466h454v-1466h-454v1466zM259 1841h289l222 -286h-248l-122 153l-122 -153h-248z" />
    <glyph glyph-name="Idieresis" unicode="&#xcf;" horiz-adv-x="797" 
d="M168 1466h454v-1466h-454v1466zM56 1809h260v-250h-260v250zM480 1809h263v-250h-263v250z" />
    <glyph glyph-name="Eth" unicode="&#xd0;" horiz-adv-x="1593" 
d="M156 1466h673c132.667 0 239.834 -18 321.501 -54s149.167 -87.5 202.5 -154.5s91.833 -145.167 115.5 -234.5s35.5 -184 35.5 -284c0 -160.667 -18.333 -284.167 -55 -370.5s-86.334 -158 -149.001 -215s-130.667 -95.167 -204 -114.5c-98 -26 -187 -39 -267 -39h-673
v622h-154v221h154v623zM609 1134v-290.998h220v-221h-220v-289h111c94.667 0 162 10.5 202 31.5s71.333 57.667 94 110s34 137.166 34 254.499c0 155.333 -25.5 261.666 -76.5 318.999s-135.167 86 -252.5 86h-112z" />
    <glyph glyph-name="Ntilde" unicode="&#xd1;" horiz-adv-x="1706" 
d="M153 1466h423l552 -811v811h427v-1466h-427l-549 805v-805h-426v1466zM1055 1829l158.001 -0.000976562c0.666992 -17.333 1 -32.333 1 -45c0 -74 -18.667 -131.333 -56 -172s-85.333 -61 -144 -61c-42.667 0 -107.334 17.667 -194.001 53c-52.667 21.333 -89 32 -109 32
c-19.333 0 -34.333 -6 -45 -18s-16.334 -33.333 -17.001 -64h-156c-0.666992 16 -1 30 -1 42c0 71.333 19.667 128 59 170s86 63 140 63c23.333 0 45.333 -2.66699 66 -8s58.834 -19.666 114.501 -42.999s96.167 -35 121.5 -35c18 0 32.5 6.16699 43.5 18.5
s17.167 34.833 18.5 67.5z" />
    <glyph glyph-name="Ograve" unicode="&#xd2;" horiz-adv-x="1706" 
d="M93 732c0 239.333 66.665 425.667 199.998 559s319 200 557 200c244 0 432 -65.5 564 -196.5s198 -314.5 198 -550.5c0 -171.333 -28.833 -311.833 -86.5 -421.5s-141 -195 -250 -256s-244.833 -91.5 -407.5 -91.5c-165.333 0 -302.166 26.333 -410.499 79
s-196.166 136 -263.499 250s-101 256.667 -101 428zM545.998 730.001c0 -148 27.5 -254.333 82.5 -319s129.833 -97 224.5 -97c97.333 0 172.666 31.667 225.999 95s80 177 80 341c0 138 -27.833 238.833 -83.5 302.5s-131.167 95.5 -226.5 95.5
c-91.333 0 -164.666 -32.333 -219.999 -97s-83 -171.667 -83 -321zM512.998 1854h347l164 -298h-192z" />
    <glyph glyph-name="Oacute" unicode="&#xd3;" horiz-adv-x="1706" 
d="M93 732c0 239.333 66.665 425.667 199.998 559s319 200 557 200c244 0 432 -65.5 564 -196.5s198 -314.5 198 -550.5c0 -171.333 -28.833 -311.833 -86.5 -421.5s-141 -195 -250 -256s-244.833 -91.5 -407.5 -91.5c-165.333 0 -302.166 26.333 -410.499 79
s-196.166 136 -263.499 250s-101 256.667 -101 428zM545.998 730.001c0 -148 27.5 -254.333 82.5 -319s129.833 -97 224.5 -97c97.333 0 172.666 31.667 225.999 95s80 177 80 341c0 138 -27.833 238.833 -83.5 302.5s-131.167 95.5 -226.5 95.5
c-91.333 0 -164.666 -32.333 -219.999 -97s-83 -171.667 -83 -321zM842.998 1854h350l-323 -299h-195z" />
    <glyph glyph-name="Ocircumflex" unicode="&#xd4;" horiz-adv-x="1706" 
d="M93 732c0 239.333 66.665 425.667 199.998 559s319 200 557 200c244 0 432 -65.5 564 -196.5s198 -314.5 198 -550.5c0 -171.333 -28.833 -311.833 -86.5 -421.5s-141 -195 -250 -256s-244.833 -91.5 -407.5 -91.5c-165.333 0 -302.166 26.333 -410.499 79
s-196.166 136 -263.499 250s-101 256.667 -101 428zM545.998 730.001c0 -148 27.5 -254.333 82.5 -319s129.833 -97 224.5 -97c97.333 0 172.666 31.667 225.999 95s80 177 80 341c0 138 -27.833 238.833 -83.5 302.5s-131.167 95.5 -226.5 95.5
c-91.333 0 -164.666 -32.333 -219.999 -97s-83 -171.667 -83 -321zM712.998 1841h289l222 -286h-248l-122 153l-122 -153h-248z" />
    <glyph glyph-name="Otilde" unicode="&#xd5;" horiz-adv-x="1706" 
d="M93 732c0 239.333 66.665 425.667 199.998 559s319 200 557 200c244 0 432 -65.5 564 -196.5s198 -314.5 198 -550.5c0 -171.333 -28.833 -311.833 -86.5 -421.5s-141 -195 -250 -256s-244.833 -91.5 -407.5 -91.5c-165.333 0 -302.166 26.333 -410.499 79
s-196.166 136 -263.499 250s-101 256.667 -101 428zM545.998 730.001c0 -148 27.5 -254.333 82.5 -319s129.833 -97 224.5 -97c97.333 0 172.666 31.667 225.999 95s80 177 80 341c0 138 -27.833 238.833 -83.5 302.5s-131.167 95.5 -226.5 95.5
c-91.333 0 -164.666 -32.333 -219.999 -97s-83 -171.667 -83 -321zM1055 1829l158.001 -0.000976562c0.666992 -17.333 1 -32.333 1 -45c0 -74 -18.667 -131.333 -56 -172s-85.333 -61 -144 -61c-42.667 0 -107.334 17.667 -194.001 53c-52.667 21.333 -89 32 -109 32
c-19.333 0 -34.333 -6 -45 -18s-16.334 -33.333 -17.001 -64h-156c-0.666992 16 -1 30 -1 42c0 71.333 19.667 128 59 170s86 63 140 63c23.333 0 45.333 -2.66699 66 -8s58.834 -19.666 114.501 -42.999s96.167 -35 121.5 -35c18 0 32.5 6.16699 43.5 18.5
s17.167 34.833 18.5 67.5z" />
    <glyph glyph-name="Odieresis" unicode="&#xd6;" horiz-adv-x="1706" 
d="M93 732c0 239.333 66.665 425.667 199.998 559s319 200 557 200c244 0 432 -65.5 564 -196.5s198 -314.5 198 -550.5c0 -171.333 -28.833 -311.833 -86.5 -421.5s-141 -195 -250 -256s-244.833 -91.5 -407.5 -91.5c-165.333 0 -302.166 26.333 -410.499 79
s-196.166 136 -263.499 250s-101 256.667 -101 428zM545.998 730.001c0 -148 27.5 -254.333 82.5 -319s129.833 -97 224.5 -97c97.333 0 172.666 31.667 225.999 95s80 177 80 341c0 138 -27.833 238.833 -83.5 302.5s-131.167 95.5 -226.5 95.5
c-91.333 0 -164.666 -32.333 -219.999 -97s-83 -171.667 -83 -321zM509.998 1809h260v-250h-260v250zM933.998 1809h263v-250h-263v250z" />
    <glyph glyph-name="multiply" unicode="&#xd7;" horiz-adv-x="1352" 
d="M355 1280l318 -315l315 315l232 -231l-317 -315l317 -319l-232 -229l-315 319l-318 -319l-230 229l318 319l-318 315z" />
    <glyph glyph-name="Oslash" unicode="&#xd8;" horiz-adv-x="1706" 
d="M1346 1352l174 163.998l151 -161l-173 -164c35.333 -53.333 63 -120.5 83 -201.5s30 -165.833 30 -254.5c0 -171.333 -30.833 -312.166 -92.5 -422.499s-146.667 -194.166 -255 -251.499s-244.833 -86 -409.5 -86c-117.333 0 -222.333 15 -315 45
c-60 19.333 -119.333 51 -178 95l-175 -167l-151 159l176 168c-79.333 123.333 -119 274.666 -119 453.999c0 240.667 66.5 427.834 199.5 561.501s317.833 200.5 554.5 200.5c210 0 376.667 -46.333 500 -139zM1054 1075c-50 48.667 -118.668 73 -206.001 73
c-91.333 0 -164.666 -32.167 -219.999 -96.5s-83 -168.833 -83 -313.5c0 -45.333 3.33301 -91 10 -137zM1150 860.998l-501.002 -474.001c48.667 -48.667 116.334 -73 203.001 -73c96.667 0 171.834 31.333 225.501 94s80.5 171.334 80.5 326.001
c0 42.667 -2.66699 85 -8 127z" />
    <glyph glyph-name="Ugrave" unicode="&#xd9;" horiz-adv-x="1706" 
d="M1104 1466h451.999v-874c0 -86.667 -13.5 -168.5 -40.5 -245.5s-69.333 -144.333 -127 -202s-118.167 -98.167 -181.5 -121.5c-88 -32.667 -193.667 -49 -317 -49c-71.333 0 -149.166 5 -233.499 15s-154.833 29.833 -211.5 59.5s-108.5 71.834 -155.5 126.501
s-79.167 111 -96.5 169c-28 93.333 -42 176 -42 248v874h452v-895c0 -80 22.167 -142.5 66.5 -187.5s105.833 -67.5 184.5 -67.5c78 0 139.167 22.167 183.5 66.5s66.5 107.166 66.5 188.499v895zM512.999 1854h347l164 -298h-192z" />
    <glyph glyph-name="Uacute" unicode="&#xda;" horiz-adv-x="1706" 
d="M1104 1466h451.999v-874c0 -86.667 -13.5 -168.5 -40.5 -245.5s-69.333 -144.333 -127 -202s-118.167 -98.167 -181.5 -121.5c-88 -32.667 -193.667 -49 -317 -49c-71.333 0 -149.166 5 -233.499 15s-154.833 29.833 -211.5 59.5s-108.5 71.834 -155.5 126.501
s-79.167 111 -96.5 169c-28 93.333 -42 176 -42 248v874h452v-895c0 -80 22.167 -142.5 66.5 -187.5s105.833 -67.5 184.5 -67.5c78 0 139.167 22.167 183.5 66.5s66.5 107.166 66.5 188.499v895zM842.999 1854h350l-323 -299h-195z" />
    <glyph glyph-name="Ucircumflex" unicode="&#xdb;" horiz-adv-x="1706" 
d="M1104 1466h451.999v-874c0 -86.667 -13.5 -168.5 -40.5 -245.5s-69.333 -144.333 -127 -202s-118.167 -98.167 -181.5 -121.5c-88 -32.667 -193.667 -49 -317 -49c-71.333 0 -149.166 5 -233.499 15s-154.833 29.833 -211.5 59.5s-108.5 71.834 -155.5 126.501
s-79.167 111 -96.5 169c-28 93.333 -42 176 -42 248v874h452v-895c0 -80 22.167 -142.5 66.5 -187.5s105.833 -67.5 184.5 -67.5c78 0 139.167 22.167 183.5 66.5s66.5 107.166 66.5 188.499v895zM712.999 1841h289l222 -286h-248l-122 153l-122 -153h-248z" />
    <glyph glyph-name="Udieresis" unicode="&#xdc;" horiz-adv-x="1706" 
d="M1104 1466h451.999v-874c0 -86.667 -13.5 -168.5 -40.5 -245.5s-69.333 -144.333 -127 -202s-118.167 -98.167 -181.5 -121.5c-88 -32.667 -193.667 -49 -317 -49c-71.333 0 -149.166 5 -233.499 15s-154.833 29.833 -211.5 59.5s-108.5 71.834 -155.5 126.501
s-79.167 111 -96.5 169c-28 93.333 -42 176 -42 248v874h452v-895c0 -80 22.167 -142.5 66.5 -187.5s105.833 -67.5 184.5 -67.5c78 0 139.167 22.167 183.5 66.5s66.5 107.166 66.5 188.499v895zM509.999 1809h260v-250h-260v250zM933.999 1809h263v-250h-263v250z" />
    <glyph glyph-name="Yacute" unicode="&#xdd;" horiz-adv-x="1593" 
d="M2 1466h503l296 -495l296 495h500l-570 -852v-614h-454v614zM787 1854h350l-323 -299h-195z" />
    <glyph glyph-name="Thorn" unicode="&#xde;" horiz-adv-x="1479" 
d="M148 1466l455 -0.000976562v-261l298 -1c164 0 286.833 -39 368.5 -117s122.5 -189 122.5 -333c0 -147.333 -44.5 -262.666 -133.5 -345.999s-224.833 -125 -407.5 -125h-248v-283h-455v1466zM603 579.999l111.002 0.00195312c87.333 0 148.666 15.167 183.999 45.5
s53 69.166 53 116.499c0 45.333 -15.333 84.166 -46 116.499s-88.334 48.5 -173.001 48.5h-129v-327z" />
    <glyph glyph-name="germandbls" unicode="&#xdf;" 
d="M119 0l-0.00195312 1017c0 86 17.333 166.5 52 241.5s91.834 132.5 171.501 172.5s185.5 60 317.5 60c161.333 0 277.833 -28.833 349.5 -86.5s107.5 -128.167 107.5 -211.5c0 -54.667 -19.5 -121 -58.5 -199s-58.5 -129 -58.5 -153c0 -18 4.33301 -35.167 13 -51.5
s27.667 -37.833 57 -64.5c86.667 -79.333 148.667 -157 186 -233c25.333 -53.333 38 -112.666 38 -177.999c0 -98 -33 -178.833 -99 -242.5s-154.333 -95.5 -265 -95.5c-81.333 0 -152 14 -212 42c-44.667 21.333 -88.667 57.333 -132 108l233 138
c23.333 -29.333 46.333 -44 69 -44c23.333 0 42.666 7.66699 57.999 23s23 34.333 23 57c0 20 -9.16699 43.667 -27.5 71s-78.166 90 -179.499 188c-52 50.667 -88.333 95.667 -109 135c-13.333 25.333 -20 54 -20 86c0 39.333 19.667 97.833 59 175.5s59 136.167 59 175.5
c0 30 -10.167 54.833 -30.5 74.5s-47.166 29.5 -80.499 29.5c-38 0 -69.5 -15.333 -94.5 -46s-37.5 -85.334 -37.5 -164.001v-1025h-389z" />
    <glyph glyph-name="agrave" unicode="&#xe0;" 
d="M494 718l-388.996 41.001c14.667 68 35.834 121.5 63.501 160.5s67.5 72.833 119.5 101.5c37.333 20.667 88.666 36.667 153.999 48s136 17 212 17c122 0 220 -6.83301 294 -20.5s135.667 -42.167 185 -85.5c34.667 -30 62 -72.5 82 -127.5s30 -107.5 30 -157.5v-469
c0 -50 3.16699 -89.167 9.5 -117.5s20.166 -64.5 41.499 -108.5h-382c-15.333 27.333 -25.333 48.166 -30 62.499s-9.33398 36.833 -14.001 67.5c-53.333 -51.333 -106.333 -88 -159 -110c-72 -29.333 -155.667 -44 -251 -44c-126.667 0 -222.834 29.333 -288.501 88
s-98.5 131 -98.5 217c0 80.667 23.667 147 71 199s134.666 90.667 261.999 116c152.667 30.667 251.667 52.167 297 64.5s93.333 28.5 144 48.5c0 50 -10.333 85 -31 105s-57 30 -109 30c-66.667 0 -116.667 -10.667 -150 -32c-26 -16.667 -47 -48 -63 -94zM847.004 504.001
c-56 -20 -114.332 -37.668 -174.999 -53.001c-82.667 -22 -135 -43.667 -157 -65c-22.667 -22 -34 -47 -34 -75c0 -32 11.167 -58.167 33.5 -78.5s55.166 -30.5 98.499 -30.5c45.333 0 87.5 11 126.5 33s66.667 48.833 83 80.5s24.5 72.834 24.5 123.501v65zM343.005 1491
h347l164 -298h-192z" />
    <glyph glyph-name="aacute" unicode="&#xe1;" 
d="M494 718l-388.996 41.001c14.667 68 35.834 121.5 63.501 160.5s67.5 72.833 119.5 101.5c37.333 20.667 88.666 36.667 153.999 48s136 17 212 17c122 0 220 -6.83301 294 -20.5s135.667 -42.167 185 -85.5c34.667 -30 62 -72.5 82 -127.5s30 -107.5 30 -157.5v-469
c0 -50 3.16699 -89.167 9.5 -117.5s20.166 -64.5 41.499 -108.5h-382c-15.333 27.333 -25.333 48.166 -30 62.499s-9.33398 36.833 -14.001 67.5c-53.333 -51.333 -106.333 -88 -159 -110c-72 -29.333 -155.667 -44 -251 -44c-126.667 0 -222.834 29.333 -288.501 88
s-98.5 131 -98.5 217c0 80.667 23.667 147 71 199s134.666 90.667 261.999 116c152.667 30.667 251.667 52.167 297 64.5s93.333 28.5 144 48.5c0 50 -10.333 85 -31 105s-57 30 -109 30c-66.667 0 -116.667 -10.667 -150 -32c-26 -16.667 -47 -48 -63 -94zM847.004 504.001
c-56 -20 -114.332 -37.668 -174.999 -53.001c-82.667 -22 -135 -43.667 -157 -65c-22.667 -22 -34 -47 -34 -75c0 -32 11.167 -58.167 33.5 -78.5s55.166 -30.5 98.499 -30.5c45.333 0 87.5 11 126.5 33s66.667 48.833 83 80.5s24.5 72.834 24.5 123.501v65zM673.005 1491
h350l-323 -299h-195z" />
    <glyph glyph-name="acircumflex" unicode="&#xe2;" 
d="M494 718l-388.996 41.001c14.667 68 35.834 121.5 63.501 160.5s67.5 72.833 119.5 101.5c37.333 20.667 88.666 36.667 153.999 48s136 17 212 17c122 0 220 -6.83301 294 -20.5s135.667 -42.167 185 -85.5c34.667 -30 62 -72.5 82 -127.5s30 -107.5 30 -157.5v-469
c0 -50 3.16699 -89.167 9.5 -117.5s20.166 -64.5 41.499 -108.5h-382c-15.333 27.333 -25.333 48.166 -30 62.499s-9.33398 36.833 -14.001 67.5c-53.333 -51.333 -106.333 -88 -159 -110c-72 -29.333 -155.667 -44 -251 -44c-126.667 0 -222.834 29.333 -288.501 88
s-98.5 131 -98.5 217c0 80.667 23.667 147 71 199s134.666 90.667 261.999 116c152.667 30.667 251.667 52.167 297 64.5s93.333 28.5 144 48.5c0 50 -10.333 85 -31 105s-57 30 -109 30c-66.667 0 -116.667 -10.667 -150 -32c-26 -16.667 -47 -48 -63 -94zM847.004 504.001
c-56 -20 -114.332 -37.668 -174.999 -53.001c-82.667 -22 -135 -43.667 -157 -65c-22.667 -22 -34 -47 -34 -75c0 -32 11.167 -58.167 33.5 -78.5s55.166 -30.5 98.499 -30.5c45.333 0 87.5 11 126.5 33s66.667 48.833 83 80.5s24.5 72.834 24.5 123.501v65zM543.005 1478
h289l222 -286h-248l-122 153l-122 -153h-248z" />
    <glyph glyph-name="atilde" unicode="&#xe3;" 
d="M494 718l-388.996 41.001c14.667 68 35.834 121.5 63.501 160.5s67.5 72.833 119.5 101.5c37.333 20.667 88.666 36.667 153.999 48s136 17 212 17c122 0 220 -6.83301 294 -20.5s135.667 -42.167 185 -85.5c34.667 -30 62 -72.5 82 -127.5s30 -107.5 30 -157.5v-469
c0 -50 3.16699 -89.167 9.5 -117.5s20.166 -64.5 41.499 -108.5h-382c-15.333 27.333 -25.333 48.166 -30 62.499s-9.33398 36.833 -14.001 67.5c-53.333 -51.333 -106.333 -88 -159 -110c-72 -29.333 -155.667 -44 -251 -44c-126.667 0 -222.834 29.333 -288.501 88
s-98.5 131 -98.5 217c0 80.667 23.667 147 71 199s134.666 90.667 261.999 116c152.667 30.667 251.667 52.167 297 64.5s93.333 28.5 144 48.5c0 50 -10.333 85 -31 105s-57 30 -109 30c-66.667 0 -116.667 -10.667 -150 -32c-26 -16.667 -47 -48 -63 -94zM847.004 504.001
c-56 -20 -114.332 -37.668 -174.999 -53.001c-82.667 -22 -135 -43.667 -157 -65c-22.667 -22 -34 -47 -34 -75c0 -32 11.167 -58.167 33.5 -78.5s55.166 -30.5 98.499 -30.5c45.333 0 87.5 11 126.5 33s66.667 48.833 83 80.5s24.5 72.834 24.5 123.501v65zM885.005 1466
l158.001 -0.000976562c0.666992 -17.333 1 -32.333 1 -45c0 -74 -18.667 -131.333 -56 -172s-85.333 -61 -144 -61c-42.667 0 -107.334 17.667 -194.001 53c-52.667 21.333 -89 32 -109 32c-19.333 0 -34.333 -6 -45 -18s-16.334 -33.333 -17.001 -64h-156
c-0.666992 16 -1 30 -1 42c0 71.333 19.667 128 59 170s86 63 140 63c23.333 0 45.333 -2.66699 66 -8s58.834 -19.666 114.501 -42.999s96.167 -35 121.5 -35c18 0 32.5 6.16699 43.5 18.5s17.167 34.833 18.5 67.5z" />
    <glyph glyph-name="adieresis" unicode="&#xe4;" 
d="M494 718l-388.996 41.001c14.667 68 35.834 121.5 63.501 160.5s67.5 72.833 119.5 101.5c37.333 20.667 88.666 36.667 153.999 48s136 17 212 17c122 0 220 -6.83301 294 -20.5s135.667 -42.167 185 -85.5c34.667 -30 62 -72.5 82 -127.5s30 -107.5 30 -157.5v-469
c0 -50 3.16699 -89.167 9.5 -117.5s20.166 -64.5 41.499 -108.5h-382c-15.333 27.333 -25.333 48.166 -30 62.499s-9.33398 36.833 -14.001 67.5c-53.333 -51.333 -106.333 -88 -159 -110c-72 -29.333 -155.667 -44 -251 -44c-126.667 0 -222.834 29.333 -288.501 88
s-98.5 131 -98.5 217c0 80.667 23.667 147 71 199s134.666 90.667 261.999 116c152.667 30.667 251.667 52.167 297 64.5s93.333 28.5 144 48.5c0 50 -10.333 85 -31 105s-57 30 -109 30c-66.667 0 -116.667 -10.667 -150 -32c-26 -16.667 -47 -48 -63 -94zM847.004 504.001
c-56 -20 -114.332 -37.668 -174.999 -53.001c-82.667 -22 -135 -43.667 -157 -65c-22.667 -22 -34 -47 -34 -75c0 -32 11.167 -58.167 33.5 -78.5s55.166 -30.5 98.499 -30.5c45.333 0 87.5 11 126.5 33s66.667 48.833 83 80.5s24.5 72.834 24.5 123.501v65zM340.005 1446
h260v-250h-260v250zM764.005 1446h263v-250h-263v250z" />
    <glyph glyph-name="aring" unicode="&#xe5;" 
d="M494 718l-388.996 41.001c14.667 68 35.834 121.5 63.501 160.5s67.5 72.833 119.5 101.5c37.333 20.667 88.666 36.667 153.999 48s136 17 212 17c122 0 220 -6.83301 294 -20.5s135.667 -42.167 185 -85.5c34.667 -30 62 -72.5 82 -127.5s30 -107.5 30 -157.5v-469
c0 -50 3.16699 -89.167 9.5 -117.5s20.166 -64.5 41.499 -108.5h-382c-15.333 27.333 -25.333 48.166 -30 62.499s-9.33398 36.833 -14.001 67.5c-53.333 -51.333 -106.333 -88 -159 -110c-72 -29.333 -155.667 -44 -251 -44c-126.667 0 -222.834 29.333 -288.501 88
s-98.5 131 -98.5 217c0 80.667 23.667 147 71 199s134.666 90.667 261.999 116c152.667 30.667 251.667 52.167 297 64.5s93.333 28.5 144 48.5c0 50 -10.333 85 -31 105s-57 30 -109 30c-66.667 0 -116.667 -10.667 -150 -32c-26 -16.667 -47 -48 -63 -94zM847.004 504.001
c-56 -20 -114.332 -37.668 -174.999 -53.001c-82.667 -22 -135 -43.667 -157 -65c-22.667 -22 -34 -47 -34 -75c0 -32 11.167 -58.167 33.5 -78.5s55.166 -30.5 98.499 -30.5c45.333 0 87.5 11 126.5 33s66.667 48.833 83 80.5s24.5 72.834 24.5 123.501v65zM923.005 1403
c0 -66.667 -23.5 -123.334 -70.5 -170.001s-103.5 -70 -169.5 -70c-66.667 0 -123.5 23.333 -170.5 70s-70.5 103.334 -70.5 170.001s23.5 123.5 70.5 170.5s103.833 70.5 170.5 70.5c66 0 122.5 -23.5 169.5 -70.5s70.5 -103.833 70.5 -170.5zM785.005 1404
c0 28.667 -10 53 -30 73s-44.333 30 -73 30s-53 -10 -73 -30s-30 -44.333 -30 -73s10 -53 30 -73s44.333 -30 73 -30s53 10 73 30s30 44.333 30 73z" />
    <glyph glyph-name="ae" unicode="&#xe6;" horiz-adv-x="2048" 
d="M1990 431l-770.999 0.00292969c7.33301 -64 23 -111.667 47 -143c36.667 -47.333 84.667 -71 144 -71c33.333 0 62.166 7.5 86.499 22.5s48.166 40.833 71.499 77.5l397 -35c-54 -100.667 -123.833 -176.834 -209.5 -228.501s-200.167 -77.5 -343.5 -77.5
c-110 0 -204.667 16 -284 48c-60 24 -117.667 64 -173 120c-82 -60 -159.833 -103 -233.5 -129s-155.5 -39 -245.5 -39c-135.333 0 -237 28.5 -305 85.5s-102 131.5 -102 223.5c0 46 10.667 89.333 32 130s48.333 73 81 97c43.333 31.333 90.333 55.666 141 72.999
c23.333 8 80.333 20.667 171 38s149 29.333 175 36c44.667 11.333 96.667 27 156 47c-1.33301 53.333 -12.166 89.666 -32.499 108.999s-57.5 29 -111.5 29c-56.667 0 -99 -10.167 -127 -30.5s-47.667 -52.5 -59 -96.5l-391 45c19.333 70.667 42 124 68 160
c35.333 49.333 89.166 89.166 161.499 119.499s174.166 45.5 305.499 45.5c105.333 0 192 -9.33301 260 -28c48.667 -13.333 102.334 -39 161.001 -77c61.333 38.667 117.166 65.667 167.499 81s109.833 23 178.5 23c102.667 0 190.834 -14.667 264.501 -44
s133.834 -69.166 180.501 -119.499s80 -100.5 100 -150.5c26 -66 39 -157.333 39 -274v-67zM1584 626.003c-5.33301 68.667 -22.833 122 -52.5 160s-71.5 57 -125.5 57c-48 0 -89.167 -17.333 -123.5 -52s-56.5 -89.667 -66.5 -165h368zM825.001 507.003l-125.002 -41
c-16 -5.33301 -30 -9 -42 -11c-66 -12.667 -112.167 -31.667 -138.5 -57s-39.5 -51.666 -39.5 -78.999c0 -30.667 11 -56.667 33 -78s51 -32 87 -32c36.667 0 74.334 9.33301 113.001 28s68.334 47 89.001 85c15.333 27.333 23 63.666 23 108.999v76z" />
    <glyph glyph-name="ccedilla" unicode="&#xe7;" 
d="M915 415l387.004 -44c-21.333 -80.667 -56.333 -150.5 -105 -209.5s-110.834 -104.833 -186.501 -137.5s-171.834 -49 -288.501 -49c-112.667 0 -206.5 10.5 -281.5 31.5s-139.5 55 -193.5 102s-96.333 102.167 -127 165.5s-46 147.333 -46 252
c0 109.333 18.667 200.333 56 273c27.333 53.333 64.666 101.166 111.999 143.499s96 73.833 146 94.5c79.333 32.667 181 49 305 49c173.333 0 305.5 -31 396.5 -93s154.833 -152.667 191.5 -272l-383 -51c-12 45.333 -33.833 79.5 -65.5 102.5s-74.167 34.5 -127.5 34.5
c-67.333 0 -121.833 -24.167 -163.5 -72.5s-62.5 -121.5 -62.5 -219.5c0 -87.333 20.667 -153.666 62 -198.999s94 -68 158 -68c53.333 0 98.166 13.667 134.499 41s63.5 69.333 81.5 126zM458.004 -165l30.001 118.001c62.667 15.333 121.334 23 176.001 23
c114 0 192.667 -19.333 236 -58s65 -84.334 65 -137.001c0 -32 -9.83301 -65 -29.5 -99s-54.834 -61.333 -105.501 -82s-118 -31 -202 -31c-76 0 -165.333 8.66699 -268 26v123c69.333 -13.333 143 -20 221 -20c57.333 0 96.166 7.66699 116.499 23s30.5 35.333 30.5 60
c0 19.333 -8.33301 36 -25 50s-42.667 21 -78 21c-47.333 0 -103 -5.66699 -167 -17z" />
    <glyph glyph-name="egrave" unicode="&#xe8;" 
d="M1302 430h-815.997c7.33301 -65.333 25 -114 53 -146c39.333 -46 90.666 -69 153.999 -69c40 0 78 10 114 30c22 12.667 45.667 35 71 67l401 -37c-61.333 -106.667 -135.333 -183.167 -222 -229.5s-211 -69.5 -373 -69.5c-140.667 0 -251.334 19.833 -332.001 59.5
s-147.5 102.667 -200.5 189s-79.5 187.833 -79.5 304.5c0 166 53.167 300.333 159.5 403s253.166 154 440.499 154c152 0 272 -23 360 -69s155 -112.667 201 -200s69 -201 69 -341v-46zM888.003 625c-8 78.667 -29.165 135 -63.498 169s-79.5 51 -135.5 51
c-64.667 0 -116.334 -25.667 -155.001 -77c-24.667 -32 -40.334 -79.667 -47.001 -143h401zM343.005 1491h347l164 -298h-192z" />
    <glyph glyph-name="eacute" unicode="&#xe9;" 
d="M1302 430h-815.997c7.33301 -65.333 25 -114 53 -146c39.333 -46 90.666 -69 153.999 -69c40 0 78 10 114 30c22 12.667 45.667 35 71 67l401 -37c-61.333 -106.667 -135.333 -183.167 -222 -229.5s-211 -69.5 -373 -69.5c-140.667 0 -251.334 19.833 -332.001 59.5
s-147.5 102.667 -200.5 189s-79.5 187.833 -79.5 304.5c0 166 53.167 300.333 159.5 403s253.166 154 440.499 154c152 0 272 -23 360 -69s155 -112.667 201 -200s69 -201 69 -341v-46zM888.003 625c-8 78.667 -29.165 135 -63.498 169s-79.5 51 -135.5 51
c-64.667 0 -116.334 -25.667 -155.001 -77c-24.667 -32 -40.334 -79.667 -47.001 -143h401zM673.005 1491h350l-323 -299h-195z" />
    <glyph glyph-name="ecircumflex" unicode="&#xea;" 
d="M1302 430h-815.997c7.33301 -65.333 25 -114 53 -146c39.333 -46 90.666 -69 153.999 -69c40 0 78 10 114 30c22 12.667 45.667 35 71 67l401 -37c-61.333 -106.667 -135.333 -183.167 -222 -229.5s-211 -69.5 -373 -69.5c-140.667 0 -251.334 19.833 -332.001 59.5
s-147.5 102.667 -200.5 189s-79.5 187.833 -79.5 304.5c0 166 53.167 300.333 159.5 403s253.166 154 440.499 154c152 0 272 -23 360 -69s155 -112.667 201 -200s69 -201 69 -341v-46zM888.003 625c-8 78.667 -29.165 135 -63.498 169s-79.5 51 -135.5 51
c-64.667 0 -116.334 -25.667 -155.001 -77c-24.667 -32 -40.334 -79.667 -47.001 -143h401zM543.005 1478h289l222 -286h-248l-122 153l-122 -153h-248z" />
    <glyph glyph-name="edieresis" unicode="&#xeb;" 
d="M1302 430h-815.997c7.33301 -65.333 25 -114 53 -146c39.333 -46 90.666 -69 153.999 -69c40 0 78 10 114 30c22 12.667 45.667 35 71 67l401 -37c-61.333 -106.667 -135.333 -183.167 -222 -229.5s-211 -69.5 -373 -69.5c-140.667 0 -251.334 19.833 -332.001 59.5
s-147.5 102.667 -200.5 189s-79.5 187.833 -79.5 304.5c0 166 53.167 300.333 159.5 403s253.166 154 440.499 154c152 0 272 -23 360 -69s155 -112.667 201 -200s69 -201 69 -341v-46zM888.003 625c-8 78.667 -29.165 135 -63.498 169s-79.5 51 -135.5 51
c-64.667 0 -116.334 -25.667 -155.001 -77c-24.667 -32 -40.334 -79.667 -47.001 -143h401zM340.005 1446h260v-250h-260v250zM764.005 1446h263v-250h-263v250z" />
    <glyph glyph-name="igrave" unicode="&#xec;" horiz-adv-x="682" 
d="M138 1062h407v-1062h-407v1062zM1 1491h347l164 -298h-192z" />
    <glyph glyph-name="iacute" unicode="&#xed;" horiz-adv-x="682" 
d="M138 1062h407v-1062h-407v1062zM331 1491h350l-323 -299h-195z" />
    <glyph glyph-name="icircumflex" unicode="&#xee;" horiz-adv-x="682" 
d="M138 1062h407v-1062h-407v1062zM201 1478h289l222 -286h-248l-122 153l-122 -153h-248z" />
    <glyph glyph-name="idieresis" unicode="&#xef;" horiz-adv-x="682" 
d="M138 1062h407v-1062h-407v1062zM-2 1446h260v-250h-260v250zM422 1446h263v-250h-263v250z" />
    <glyph glyph-name="eth" unicode="&#xf0;" 
d="M321 1200l252.999 89.999c-43.333 42.667 -82.166 76.834 -116.499 102.501s-73.833 50.167 -118.5 73.5h412c40 -21.333 77.667 -45.333 113 -72l203 72l37 -101l-146 -54c110.667 -112 193.667 -228.667 249 -350s83 -247.666 83 -378.999
c0 -190 -53.667 -338.5 -161 -445.5s-254.666 -160.5 -441.999 -160.5c-127.333 0 -238.5 24.167 -333.5 72.5s-165.167 117.333 -210.5 207s-68 181.5 -68 275.5c0 97.333 22 187.666 66 270.999s106 147.5 186 192.5s160.667 67.5 242 67.5c40 0 79 -5.66699 117 -17
c25.333 -8 56.666 -23.333 93.999 -46c-45.333 79.333 -88.333 146.333 -129 201l-293 -107zM482.999 527.999c0 -95.333 19.167 -165.332 57.5 -209.999s84.833 -67 139.5 -67c50.667 0 98 21.833 142 65.5s66 120.5 66 230.5c0 96 -21.5 163.333 -64.5 202
s-89.833 58 -140.5 58c-56 0 -103.333 -22.333 -142 -67s-58 -115.334 -58 -212.001z" />
    <glyph glyph-name="ntilde" unicode="&#xf1;" 
d="M123 1062l379 -0.000976562v-173c56.667 70.667 114 121.167 172 151.5s128.667 45.5 212 45.5c112.667 0 200.834 -33.5 264.501 -100.5s95.5 -170.5 95.5 -310.5v-675h-409v584c0 66.667 -12.333 113.834 -37 141.501s-59.334 41.5 -104.001 41.5
c-49.333 0 -89.333 -18.667 -120 -56s-46 -104.333 -46 -201v-510h-407v1062zM885 1466l158.001 -0.000976562c0.666992 -17.333 1 -32.333 1 -45c0 -74 -18.667 -131.333 -56 -172s-85.333 -61 -144 -61c-42.667 0 -107.334 17.667 -194.001 53
c-52.667 21.333 -89 32 -109 32c-19.333 0 -34.333 -6 -45 -18s-16.334 -33.333 -17.001 -64h-156c-0.666992 16 -1 30 -1 42c0 71.333 19.667 128 59 170s86 63 140 63c23.333 0 45.333 -2.66699 66 -8s58.834 -19.666 114.501 -42.999s96.167 -35 121.5 -35
c18 0 32.5 6.16699 43.5 18.5s17.167 34.833 18.5 67.5z" />
    <glyph glyph-name="ograve" unicode="&#xf2;" 
d="M73 528c0 162 54.665 295.498 163.998 400.498s257 157.5 443 157.5c212.667 0 373.334 -61.667 482.001 -185c87.333 -99.333 131 -221.666 131 -366.999c0 -163.333 -54.167 -297.166 -162.5 -401.499s-258.166 -156.5 -449.499 -156.5
c-170.667 0 -308.667 43.333 -414 130c-129.333 107.333 -194 248 -194 422zM480.998 528.998c0 -94.667 19.166 -164.668 57.499 -210.001s86.5 -68 144.5 -68c58.667 0 106.834 22.333 144.501 67s56.5 116.334 56.5 215.001c0 92 -19 160.5 -57 205.5s-85 67.5 -141 67.5
c-59.333 0 -108.333 -22.833 -147 -68.5s-58 -115.167 -58 -208.5zM342.997 1491h347l164 -298h-192z" />
    <glyph glyph-name="oacute" unicode="&#xf3;" 
d="M73 528c0 162 54.665 295.498 163.998 400.498s257 157.5 443 157.5c212.667 0 373.334 -61.667 482.001 -185c87.333 -99.333 131 -221.666 131 -366.999c0 -163.333 -54.167 -297.166 -162.5 -401.499s-258.166 -156.5 -449.499 -156.5
c-170.667 0 -308.667 43.333 -414 130c-129.333 107.333 -194 248 -194 422zM480.998 528.998c0 -94.667 19.166 -164.668 57.499 -210.001s86.5 -68 144.5 -68c58.667 0 106.834 22.333 144.501 67s56.5 116.334 56.5 215.001c0 92 -19 160.5 -57 205.5s-85 67.5 -141 67.5
c-59.333 0 -108.333 -22.833 -147 -68.5s-58 -115.167 -58 -208.5zM672.997 1491h350l-323 -299h-195z" />
    <glyph glyph-name="ocircumflex" unicode="&#xf4;" 
d="M73 528c0 162 54.665 295.498 163.998 400.498s257 157.5 443 157.5c212.667 0 373.334 -61.667 482.001 -185c87.333 -99.333 131 -221.666 131 -366.999c0 -163.333 -54.167 -297.166 -162.5 -401.499s-258.166 -156.5 -449.499 -156.5
c-170.667 0 -308.667 43.333 -414 130c-129.333 107.333 -194 248 -194 422zM480.998 528.998c0 -94.667 19.166 -164.668 57.499 -210.001s86.5 -68 144.5 -68c58.667 0 106.834 22.333 144.501 67s56.5 116.334 56.5 215.001c0 92 -19 160.5 -57 205.5s-85 67.5 -141 67.5
c-59.333 0 -108.333 -22.833 -147 -68.5s-58 -115.167 -58 -208.5zM542.997 1478h289l222 -286h-248l-122 153l-122 -153h-248z" />
    <glyph glyph-name="otilde" unicode="&#xf5;" 
d="M73 528c0 162 54.665 295.498 163.998 400.498s257 157.5 443 157.5c212.667 0 373.334 -61.667 482.001 -185c87.333 -99.333 131 -221.666 131 -366.999c0 -163.333 -54.167 -297.166 -162.5 -401.499s-258.166 -156.5 -449.499 -156.5
c-170.667 0 -308.667 43.333 -414 130c-129.333 107.333 -194 248 -194 422zM480.998 528.998c0 -94.667 19.166 -164.668 57.499 -210.001s86.5 -68 144.5 -68c58.667 0 106.834 22.333 144.501 67s56.5 116.334 56.5 215.001c0 92 -19 160.5 -57 205.5s-85 67.5 -141 67.5
c-59.333 0 -108.333 -22.833 -147 -68.5s-58 -115.167 -58 -208.5zM884.997 1466l158.001 -0.000976562c0.666992 -17.333 1 -32.333 1 -45c0 -74 -18.667 -131.333 -56 -172s-85.333 -61 -144 -61c-42.667 0 -107.334 17.667 -194.001 53c-52.667 21.333 -89 32 -109 32
c-19.333 0 -34.333 -6 -45 -18s-16.334 -33.333 -17.001 -64h-156c-0.666992 16 -1 30 -1 42c0 71.333 19.667 128 59 170s86 63 140 63c23.333 0 45.333 -2.66699 66 -8s58.834 -19.666 114.501 -42.999s96.167 -35 121.5 -35c18 0 32.5 6.16699 43.5 18.5
s17.167 34.833 18.5 67.5z" />
    <glyph glyph-name="odieresis" unicode="&#xf6;" 
d="M73 528c0 162 54.665 295.498 163.998 400.498s257 157.5 443 157.5c212.667 0 373.334 -61.667 482.001 -185c87.333 -99.333 131 -221.666 131 -366.999c0 -163.333 -54.167 -297.166 -162.5 -401.499s-258.166 -156.5 -449.499 -156.5
c-170.667 0 -308.667 43.333 -414 130c-129.333 107.333 -194 248 -194 422zM480.998 528.998c0 -94.667 19.166 -164.668 57.499 -210.001s86.5 -68 144.5 -68c58.667 0 106.834 22.333 144.501 67s56.5 116.334 56.5 215.001c0 92 -19 160.5 -57 205.5s-85 67.5 -141 67.5
c-59.333 0 -108.333 -22.833 -147 -68.5s-58 -115.167 -58 -208.5zM339.997 1446h260v-250h-260v250zM763.997 1446h263v-250h-263v250z" />
    <glyph glyph-name="divide" unicode="&#xf7;" horiz-adv-x="1352" 
d="M470 1356h401v-369h-401v369zM127 896h1091v-326h-1091v326zM470 478h401v-373h-401v373z" />
    <glyph glyph-name="oslash" unicode="&#xf8;" 
d="M1153 1156l103.998 -93.999l-124 -136c46 -38.667 84 -93.334 114 -164.001s45 -147.334 45 -230.001c0 -162.667 -53.667 -296 -161 -400s-253.333 -156 -438 -156c-75.333 0 -141.666 6.33301 -198.999 19c-39.333 8.66699 -89 27.334 -149 56.001l-133 -148l-105 97
l127 135c-56.667 60.667 -97.667 121.667 -123 183s-38 130.666 -38 207.999c0 163.333 54.333 297.5 163 402.5s254.667 157.5 438 157.5c74.667 0 141.334 -7 200.001 -21c39.333 -9.33301 88 -28.666 146 -57.999zM820.998 785.001c-18.667 18 -34.667 29.667 -48 35
c-26 10.667 -55.333 16 -88 16c-67.333 0 -122.833 -25.833 -166.5 -77.5s-65.5 -130.5 -65.5 -236.5c0 -35.333 5.66699 -77.333 17 -126zM544.998 270.001c22 -17.333 40.001 -28.668 54.001 -34.001c26.667 -9.33301 56 -14 88 -14c65.333 0 119.166 25.833 161.499 77.5
s63.5 132.834 63.5 243.501c0 34 -5.66699 73 -17 117z" />
    <glyph glyph-name="ugrave" unicode="&#xf9;" 
d="M1242 0h-380v172c-56.667 -70.667 -113.834 -121 -171.501 -151s-128.5 -45 -212.5 -45c-112 0 -199.833 33.5 -263.5 100.5s-95.5 170.167 -95.5 309.5v676h409v-584c0 -66.667 12.333 -114 37 -142s59.334 -42 104.001 -42c48.667 0 88.5 18.667 119.5 56
s46.5 104.333 46.5 201v511h407v-1062zM343 1491h347l164 -298h-192z" />
    <glyph glyph-name="uacute" unicode="&#xfa;" 
d="M1242 0h-380v172c-56.667 -70.667 -113.834 -121 -171.501 -151s-128.5 -45 -212.5 -45c-112 0 -199.833 33.5 -263.5 100.5s-95.5 170.167 -95.5 309.5v676h409v-584c0 -66.667 12.333 -114 37 -142s59.334 -42 104.001 -42c48.667 0 88.5 18.667 119.5 56
s46.5 104.333 46.5 201v511h407v-1062zM673 1491h350l-323 -299h-195z" />
    <glyph glyph-name="ucircumflex" unicode="&#xfb;" 
d="M1242 0h-380v172c-56.667 -70.667 -113.834 -121 -171.501 -151s-128.5 -45 -212.5 -45c-112 0 -199.833 33.5 -263.5 100.5s-95.5 170.167 -95.5 309.5v676h409v-584c0 -66.667 12.333 -114 37 -142s59.334 -42 104.001 -42c48.667 0 88.5 18.667 119.5 56
s46.5 104.333 46.5 201v511h407v-1062zM543 1478h289l222 -286h-248l-122 153l-122 -153h-248z" />
    <glyph glyph-name="udieresis" unicode="&#xfc;" 
d="M1242 0h-380v172c-56.667 -70.667 -113.834 -121 -171.501 -151s-128.5 -45 -212.5 -45c-112 0 -199.833 33.5 -263.5 100.5s-95.5 170.167 -95.5 309.5v676h409v-584c0 -66.667 12.333 -114 37 -142s59.334 -42 104.001 -42c48.667 0 88.5 18.667 119.5 56
s46.5 104.333 46.5 201v511h407v-1062zM340 1446h260v-250h-260v250zM764 1446h263v-250h-263v250z" />
    <glyph glyph-name="yacute" unicode="&#xfd;" horiz-adv-x="1251" 
d="M5 1062l430.001 -0.000976562l219 -707l203 707h401l-421 -1135c-48 -129.333 -97 -216.666 -147 -261.999c-70.667 -64 -178.334 -96 -323.001 -96c-58.667 0 -149.334 8 -272.001 24l-32 284c58.667 -18.667 124 -28 196 -28c48 0 86.833 11 116.5 33
s54.834 61.333 75.501 118zM616.001 1491h350l-323 -299h-195z" />
    <glyph glyph-name="thorn" unicode="&#xfe;" 
d="M125 -404l0.00195312 1870h411v-507c42.667 44.667 87.334 77 134.001 97s102.667 30 168 30c145.333 0 257.666 -53.167 336.999 -159.5s119 -241.833 119 -406.5c0 -176.667 -42.333 -311.5 -127 -404.5s-191.667 -139.5 -321 -139.5
c-62.667 0 -119.834 10.667 -171.501 32s-97.834 53 -138.501 95v-507h-411zM533.002 528c0 -84 17.667 -146.333 53 -187s80 -61 134 -61c47.333 0 87 19.5 119 58.5s48 105.167 48 198.5c0 86 -16.667 149.167 -50 189.5s-74 60.5 -122 60.5
c-52 0 -95.333 -20.333 -130 -61s-52 -106.667 -52 -198z" />
    <glyph glyph-name="ydieresis" unicode="&#xff;" horiz-adv-x="1251" 
d="M5 1062l430.001 -0.000976562l219 -707l203 707h401l-421 -1135c-48 -129.333 -97 -216.666 -147 -261.999c-70.667 -64 -178.334 -96 -323.001 -96c-58.667 0 -149.334 8 -272.001 24l-32 284c58.667 -18.667 124 -28 196 -28c48 0 86.833 11 116.5 33
s54.834 61.333 75.501 118zM283.001 1446h260v-250h-260v250zM707.001 1446h263v-250h-263v250z" />
    <glyph glyph-name="Amacron" unicode="&#x100;" horiz-adv-x="1593" 
d="M1052 242h-516l-71 -242h-463l551 1466h494l551 -1466h-474zM957 559l-162 527l-161 -527h323zM470 1786h647v-217h-647v217z" />
    <glyph glyph-name="amacron" unicode="&#x101;" 
d="M494 718l-388.996 41.001c14.667 68 35.834 121.5 63.501 160.5s67.5 72.833 119.5 101.5c37.333 20.667 88.666 36.667 153.999 48s136 17 212 17c122 0 220 -6.83301 294 -20.5s135.667 -42.167 185 -85.5c34.667 -30 62 -72.5 82 -127.5s30 -107.5 30 -157.5v-469
c0 -50 3.16699 -89.167 9.5 -117.5s20.166 -64.5 41.499 -108.5h-382c-15.333 27.333 -25.333 48.166 -30 62.499s-9.33398 36.833 -14.001 67.5c-53.333 -51.333 -106.333 -88 -159 -110c-72 -29.333 -155.667 -44 -251 -44c-126.667 0 -222.834 29.333 -288.501 88
s-98.5 131 -98.5 217c0 80.667 23.667 147 71 199s134.666 90.667 261.999 116c152.667 30.667 251.667 52.167 297 64.5s93.333 28.5 144 48.5c0 50 -10.333 85 -31 105s-57 30 -109 30c-66.667 0 -116.667 -10.667 -150 -32c-26 -16.667 -47 -48 -63 -94zM847.004 504.001
c-56 -20 -114.332 -37.668 -174.999 -53.001c-82.667 -22 -135 -43.667 -157 -65c-22.667 -22 -34 -47 -34 -75c0 -32 11.167 -58.167 33.5 -78.5s55.166 -30.5 98.499 -30.5c45.333 0 87.5 11 126.5 33s66.667 48.833 83 80.5s24.5 72.834 24.5 123.501v65zM362.005 1446
h647v-217h-647v217z" />
    <glyph glyph-name="Abreve" unicode="&#x102;" horiz-adv-x="1593" 
d="M1052 242h-516l-71 -242h-463l551 1466h494l551 -1466h-474zM957 559l-162 527l-161 -527h323zM971 1862h165c-4 -63.333 -19 -116.5 -45 -159.5s-65.333 -77.5 -118 -103.5s-109.667 -39 -171 -39c-101.333 0 -182.333 26.5 -243 79.5s-96 127.167 -106 222.5h172
c13.333 -38.667 32.333 -66.167 57 -82.5s61.667 -24.5 111 -24.5c58 0 99.5 8.16699 124.5 24.5s42.833 43.833 53.5 82.5z" />
    <glyph glyph-name="abreve" unicode="&#x103;" 
d="M494 718l-388.996 41.001c14.667 68 35.834 121.5 63.501 160.5s67.5 72.833 119.5 101.5c37.333 20.667 88.666 36.667 153.999 48s136 17 212 17c122 0 220 -6.83301 294 -20.5s135.667 -42.167 185 -85.5c34.667 -30 62 -72.5 82 -127.5s30 -107.5 30 -157.5v-469
c0 -50 3.16699 -89.167 9.5 -117.5s20.166 -64.5 41.499 -108.5h-382c-15.333 27.333 -25.333 48.166 -30 62.499s-9.33398 36.833 -14.001 67.5c-53.333 -51.333 -106.333 -88 -159 -110c-72 -29.333 -155.667 -44 -251 -44c-126.667 0 -222.834 29.333 -288.501 88
s-98.5 131 -98.5 217c0 80.667 23.667 147 71 199s134.666 90.667 261.999 116c152.667 30.667 251.667 52.167 297 64.5s93.333 28.5 144 48.5c0 50 -10.333 85 -31 105s-57 30 -109 30c-66.667 0 -116.667 -10.667 -150 -32c-26 -16.667 -47 -48 -63 -94zM847.004 504.001
c-56 -20 -114.332 -37.668 -174.999 -53.001c-82.667 -22 -135 -43.667 -157 -65c-22.667 -22 -34 -47 -34 -75c0 -32 11.167 -58.167 33.5 -78.5s55.166 -30.5 98.499 -30.5c45.333 0 87.5 11 126.5 33s66.667 48.833 83 80.5s24.5 72.834 24.5 123.501v65zM861.005 1491
h165c-4 -63.333 -19 -116.5 -45 -159.5s-65.333 -77.5 -118 -103.5s-109.667 -39 -171 -39c-101.333 0 -182.333 26.5 -243 79.5s-96 127.167 -106 222.5h172c13.333 -38.667 32.333 -66.167 57 -82.5s61.667 -24.5 111 -24.5c58 0 99.5 8.16699 124.5 24.5
s42.833 43.833 53.5 82.5z" />
    <glyph glyph-name="Aogonek" unicode="&#x104;" horiz-adv-x="1593" 
d="M1052 242h-516l-71 -242h-463l551 1466h494l551 -1466h-474zM957 559l-162 527l-161 -527h323zM1223 26l169.001 -0.000976562c-13.333 -58 -20 -106 -20 -144c0 -50.667 12.333 -89 37 -115s59 -39 103 -39c31.333 0 74 8.66699 128 26v-155
c-82.667 -30.667 -153.334 -46 -212.001 -46c-80 0 -142.167 21.333 -186.5 64s-66.5 99.334 -66.5 170.001c0 59.333 16 139 48 239z" />
    <glyph glyph-name="aogonek" unicode="&#x105;" 
d="M494 718l-388.996 41.001c14.667 68 35.834 121.5 63.501 160.5s67.5 72.833 119.5 101.5c37.333 20.667 88.666 36.667 153.999 48s136 17 212 17c122 0 220 -6.83301 294 -20.5s135.667 -42.167 185 -85.5c34.667 -30 62 -72.5 82 -127.5s30 -107.5 30 -157.5v-469
c0 -50 3.16699 -89.167 9.5 -117.5s20.166 -64.5 41.499 -108.5h-382c-15.333 27.333 -25.333 48.166 -30 62.499s-9.33398 36.833 -14.001 67.5c-53.333 -51.333 -106.333 -88 -159 -110c-72 -29.333 -155.667 -44 -251 -44c-126.667 0 -222.834 29.333 -288.501 88
s-98.5 131 -98.5 217c0 80.667 23.667 147 71 199s134.666 90.667 261.999 116c152.667 30.667 251.667 52.167 297 64.5s93.333 28.5 144 48.5c0 50 -10.333 85 -31 105s-57 30 -109 30c-66.667 0 -116.667 -10.667 -150 -32c-26 -16.667 -47 -48 -63 -94zM847.004 504.001
c-56 -20 -114.332 -37.668 -174.999 -53.001c-82.667 -22 -135 -43.667 -157 -65c-22.667 -22 -34 -47 -34 -75c0 -32 11.167 -58.167 33.5 -78.5s55.166 -30.5 98.499 -30.5c45.333 0 87.5 11 126.5 33s66.667 48.833 83 80.5s24.5 72.834 24.5 123.501v65zM920.005 26
l169.001 -0.000976562c-13.333 -58 -20 -106 -20 -144c0 -50.667 12.333 -89 37 -115s59 -39 103 -39c31.333 0 74 8.66699 128 26v-155c-82.667 -30.667 -153.334 -46 -212.001 -46c-80 0 -142.167 21.333 -186.5 64s-66.5 99.334 -66.5 170.001c0 59.333 16 139 48 239z
" />
    <glyph glyph-name="Cacute" unicode="&#x106;" horiz-adv-x="1593" 
d="M1126 599l397.001 -120.003c-26.667 -111.333 -68.667 -204.333 -126 -279s-128.5 -131 -213.5 -169s-193.167 -57 -324.5 -57c-159.333 0 -289.5 23.167 -390.5 69.5s-188.167 127.833 -261.5 244.5s-110 266 -110 448c0 242.667 64.5 429.167 193.5 559.5
s311.5 195.5 547.5 195.5c184.667 0 329.834 -37.333 435.501 -112s184.167 -189.334 235.5 -344.001l-400 -89c-14 44.667 -28.667 77.334 -44 98.001c-25.333 34.667 -56.333 61.334 -93 80.001s-77.667 28 -123 28c-102.667 0 -181.334 -41.333 -236.001 -124
c-41.333 -61.333 -62 -157.666 -62 -288.999c0 -162.667 24.667 -274.167 74 -334.5s118.666 -90.5 207.999 -90.5c86.667 0 152.167 24.333 196.5 73s76.5 119.334 96.5 212.001zM831.001 1854h350l-323 -299h-195z" />
    <glyph glyph-name="cacute" unicode="&#x107;" 
d="M915 415l387.004 -44c-21.333 -80.667 -56.333 -150.5 -105 -209.5s-110.834 -104.833 -186.501 -137.5s-171.834 -49 -288.501 -49c-112.667 0 -206.5 10.5 -281.5 31.5s-139.5 55 -193.5 102s-96.333 102.167 -127 165.5s-46 147.333 -46 252
c0 109.333 18.667 200.333 56 273c27.333 53.333 64.666 101.166 111.999 143.499s96 73.833 146 94.5c79.333 32.667 181 49 305 49c173.333 0 305.5 -31 396.5 -93s154.833 -152.667 191.5 -272l-383 -51c-12 45.333 -33.833 79.5 -65.5 102.5s-74.167 34.5 -127.5 34.5
c-67.333 0 -121.833 -24.167 -163.5 -72.5s-62.5 -121.5 -62.5 -219.5c0 -87.333 20.667 -153.666 62 -198.999s94 -68 158 -68c53.333 0 98.166 13.667 134.499 41s63.5 69.333 81.5 126zM773.004 1491h350l-323 -299h-195z" />
    <glyph glyph-name="Ccircumflex" unicode="&#x108;" horiz-adv-x="1593" 
d="M1126 599l397.001 -120.003c-26.667 -111.333 -68.667 -204.333 -126 -279s-128.5 -131 -213.5 -169s-193.167 -57 -324.5 -57c-159.333 0 -289.5 23.167 -390.5 69.5s-188.167 127.833 -261.5 244.5s-110 266 -110 448c0 242.667 64.5 429.167 193.5 559.5
s311.5 195.5 547.5 195.5c184.667 0 329.834 -37.333 435.501 -112s184.167 -189.334 235.5 -344.001l-400 -89c-14 44.667 -28.667 77.334 -44 98.001c-25.333 34.667 -56.333 61.334 -93 80.001s-77.667 28 -123 28c-102.667 0 -181.334 -41.333 -236.001 -124
c-41.333 -61.333 -62 -157.666 -62 -288.999c0 -162.667 24.667 -274.167 74 -334.5s118.666 -90.5 207.999 -90.5c86.667 0 152.167 24.333 196.5 73s76.5 119.334 96.5 212.001zM681.001 1858h289l222 -286h-248l-122 153l-122 -153h-248z" />
    <glyph glyph-name="ccircumflex" unicode="&#x109;" 
d="M915 415l387.004 -44c-21.333 -80.667 -56.333 -150.5 -105 -209.5s-110.834 -104.833 -186.501 -137.5s-171.834 -49 -288.501 -49c-112.667 0 -206.5 10.5 -281.5 31.5s-139.5 55 -193.5 102s-96.333 102.167 -127 165.5s-46 147.333 -46 252
c0 109.333 18.667 200.333 56 273c27.333 53.333 64.666 101.166 111.999 143.499s96 73.833 146 94.5c79.333 32.667 181 49 305 49c173.333 0 305.5 -31 396.5 -93s154.833 -152.667 191.5 -272l-383 -51c-12 45.333 -33.833 79.5 -65.5 102.5s-74.167 34.5 -127.5 34.5
c-67.333 0 -121.833 -24.167 -163.5 -72.5s-62.5 -121.5 -62.5 -219.5c0 -87.333 20.667 -153.666 62 -198.999s94 -68 158 -68c53.333 0 98.166 13.667 134.499 41s63.5 69.333 81.5 126zM561.004 1478h289l222 -286h-248l-122 153l-122 -153h-248z" />
    <glyph glyph-name="Cdot" unicode="&#x10a;" horiz-adv-x="1593" 
d="M1126 599l397.001 -120.003c-26.667 -111.333 -68.667 -204.333 -126 -279s-128.5 -131 -213.5 -169s-193.167 -57 -324.5 -57c-159.333 0 -289.5 23.167 -390.5 69.5s-188.167 127.833 -261.5 244.5s-110 266 -110 448c0 242.667 64.5 429.167 193.5 559.5
s311.5 195.5 547.5 195.5c184.667 0 329.834 -37.333 435.501 -112s184.167 -189.334 235.5 -344.001l-400 -89c-14 44.667 -28.667 77.334 -44 98.001c-25.333 34.667 -56.333 61.334 -93 80.001s-77.667 28 -123 28c-102.667 0 -181.334 -41.333 -236.001 -124
c-41.333 -61.333 -62 -157.666 -62 -288.999c0 -162.667 24.667 -274.167 74 -334.5s118.666 -90.5 207.999 -90.5c86.667 0 152.167 24.333 196.5 73s76.5 119.334 96.5 212.001zM660.001 1868h314v-300h-314v300z" />
    <glyph glyph-name="cdot" unicode="&#x10b;" 
d="M915 415l387.004 -44c-21.333 -80.667 -56.333 -150.5 -105 -209.5s-110.834 -104.833 -186.501 -137.5s-171.834 -49 -288.501 -49c-112.667 0 -206.5 10.5 -281.5 31.5s-139.5 55 -193.5 102s-96.333 102.167 -127 165.5s-46 147.333 -46 252
c0 109.333 18.667 200.333 56 273c27.333 53.333 64.666 101.166 111.999 143.499s96 73.833 146 94.5c79.333 32.667 181 49 305 49c173.333 0 305.5 -31 396.5 -93s154.833 -152.667 191.5 -272l-383 -51c-12 45.333 -33.833 79.5 -65.5 102.5s-74.167 34.5 -127.5 34.5
c-67.333 0 -121.833 -24.167 -163.5 -72.5s-62.5 -121.5 -62.5 -219.5c0 -87.333 20.667 -153.666 62 -198.999s94 -68 158 -68c53.333 0 98.166 13.667 134.499 41s63.5 69.333 81.5 126zM536.004 1496h314v-300h-314v300z" />
    <glyph glyph-name="Ccaron" unicode="&#x10c;" horiz-adv-x="1593" 
d="M1126 599l397.001 -120.003c-26.667 -111.333 -68.667 -204.333 -126 -279s-128.5 -131 -213.5 -169s-193.167 -57 -324.5 -57c-159.333 0 -289.5 23.167 -390.5 69.5s-188.167 127.833 -261.5 244.5s-110 266 -110 448c0 242.667 64.5 429.167 193.5 559.5
s311.5 195.5 547.5 195.5c184.667 0 329.834 -37.333 435.501 -112s184.167 -189.334 235.5 -344.001l-400 -89c-14 44.667 -28.667 77.334 -44 98.001c-25.333 34.667 -56.333 61.334 -93 80.001s-77.667 28 -123 28c-102.667 0 -181.334 -41.333 -236.001 -124
c-41.333 -61.333 -62 -157.666 -62 -288.999c0 -162.667 24.667 -274.167 74 -334.5s118.666 -90.5 207.999 -90.5c86.667 0 152.167 24.333 196.5 73s76.5 119.334 96.5 212.001zM982.001 1555h-288l-222 286h247l122 -153l122 153h249z" />
    <glyph glyph-name="ccaron" unicode="&#x10d;" 
d="M915 415l387.004 -44c-21.333 -80.667 -56.333 -150.5 -105 -209.5s-110.834 -104.833 -186.501 -137.5s-171.834 -49 -288.501 -49c-112.667 0 -206.5 10.5 -281.5 31.5s-139.5 55 -193.5 102s-96.333 102.167 -127 165.5s-46 147.333 -46 252
c0 109.333 18.667 200.333 56 273c27.333 53.333 64.666 101.166 111.999 143.499s96 73.833 146 94.5c79.333 32.667 181 49 305 49c173.333 0 305.5 -31 396.5 -93s154.833 -152.667 191.5 -272l-383 -51c-12 45.333 -33.833 79.5 -65.5 102.5s-74.167 34.5 -127.5 34.5
c-67.333 0 -121.833 -24.167 -163.5 -72.5s-62.5 -121.5 -62.5 -219.5c0 -87.333 20.667 -153.666 62 -198.999s94 -68 158 -68c53.333 0 98.166 13.667 134.499 41s63.5 69.333 81.5 126zM844.004 1192h-288l-222 286h247l122 -153l122 153h249z" />
    <glyph glyph-name="Dcaron" unicode="&#x10e;" horiz-adv-x="1593" 
d="M156 1466l672.999 -0.00292969c132.667 0 239.834 -18 321.501 -54s149.167 -87.667 202.5 -155s92 -145.666 116 -234.999s36 -184 36 -284c0 -156.667 -17.833 -278.167 -53.5 -364.5s-85.167 -158.666 -148.5 -216.999s-131.333 -97.166 -204 -116.499
c-99.333 -26.667 -189.333 -40 -270 -40h-673v1466zM608.999 1134v-800.998h111c94.667 0 162 10.5 202 31.5s71.333 57.667 94 110s34 137.166 34 254.499c0 155.333 -25.333 261.666 -76 318.999s-134.667 86 -252 86h-113zM915.999 1562h-288l-222 286h247l122 -153
l122 153h249z" />
    <glyph glyph-name="dcaron" unicode="&#x10f;" horiz-adv-x="1728" 
d="M1241 1466v-1466h-381v157c-53.333 -66.667 -102 -111.667 -146 -135c-58.667 -30.667 -124 -46 -196 -46c-144.667 0 -255.167 55 -331.5 165s-114.5 243.667 -114.5 401c0 176 42.167 310.667 126.5 404s191.5 140 321.5 140c63.333 0 120.833 -10.667 172.5 -32
s97.5 -53.333 137.5 -96v508h411zM833 534c0 83.333 -17.667 145.5 -53 186.5s-80 61.5 -134 61.5c-47.333 0 -87 -19.667 -119 -59s-48 -105.333 -48 -198c0 -86.667 16.5 -150.167 49.5 -190.5s73.833 -60.5 122.5 -60.5c52 0 95.333 20.333 130 61s52 107 52 199z
M1423 1466h269.999v-196c0 -72 -14.833 -128.833 -44.5 -170.5s-81.167 -78.5 -154.5 -110.5l-71 104c80.667 36 121.334 81.667 122.001 137h-122v236z" />
    <glyph glyph-name="Dslash" unicode="&#x110;" horiz-adv-x="1593" 
d="M156 1466h673c132.667 0 239.834 -18 321.501 -54s149.167 -87.5 202.5 -154.5s91.833 -145.167 115.5 -234.5s35.5 -184 35.5 -284c0 -160.667 -18.333 -284.167 -55 -370.5s-86.334 -158 -149.001 -215s-130.667 -95.167 -204 -114.5c-98 -26 -187 -39 -267 -39h-673
v622h-154v221h154v623zM609 1134v-290.998h220v-221h-220v-289h111c94.667 0 162 10.5 202 31.5s71.333 57.667 94 110s34 137.166 34 254.499c0 155.333 -25.5 261.666 -76.5 318.999s-135.167 86 -252.5 86h-112z" />
    <glyph glyph-name="dmacron" unicode="&#x111;" 
d="M1241 1350h184v-163h-184v-1187h-381v157c-53.333 -66.667 -102 -111.667 -146 -135c-58.667 -30.667 -124 -46 -196 -46c-144.667 0 -255.167 55 -331.5 165s-114.5 243.667 -114.5 401c0 176 42.167 310.667 126.5 404s191.5 140 321.5 140
c63.333 0 120.833 -10.667 172.5 -32s97.5 -53.333 137.5 -96v229h-306v163h306v116h411v-116zM833 534c0 83.333 -17.667 145.5 -53 186.5s-80 61.5 -134 61.5c-47.333 0 -87 -19.667 -119 -59s-48 -105.333 -48 -198c0 -86.667 16.5 -150.167 49.5 -190.5
s73.833 -60.5 122.5 -60.5c52 0 95.333 20.333 130 61s52 107 52 199z" />
    <glyph glyph-name="Emacron" unicode="&#x112;" horiz-adv-x="1479" 
d="M149 1466h1214v-313h-760v-233h705v-299h-705v-289h782v-332h-1236v1466zM450 1786h647v-217h-647v217z" />
    <glyph glyph-name="emacron" unicode="&#x113;" 
d="M1302 430h-815.997c7.33301 -65.333 25 -114 53 -146c39.333 -46 90.666 -69 153.999 -69c40 0 78 10 114 30c22 12.667 45.667 35 71 67l401 -37c-61.333 -106.667 -135.333 -183.167 -222 -229.5s-211 -69.5 -373 -69.5c-140.667 0 -251.334 19.833 -332.001 59.5
s-147.5 102.667 -200.5 189s-79.5 187.833 -79.5 304.5c0 166 53.167 300.333 159.5 403s253.166 154 440.499 154c152 0 272 -23 360 -69s155 -112.667 201 -200s69 -201 69 -341v-46zM888.003 625c-8 78.667 -29.165 135 -63.498 169s-79.5 51 -135.5 51
c-64.667 0 -116.334 -25.667 -155.001 -77c-24.667 -32 -40.334 -79.667 -47.001 -143h401zM378.005 1446h647v-217h-647v217z" />
    <glyph glyph-name="Ebreve" unicode="&#x114;" horiz-adv-x="1479" 
d="M149 1466h1214v-313h-760v-233h705v-299h-705v-289h782v-332h-1236v1466zM934 1871h165c-4 -63.333 -19 -116.5 -45 -159.5s-65.333 -77.5 -118 -103.5s-109.667 -39 -171 -39c-101.333 0 -182.333 26.5 -243 79.5s-96 127.167 -106 222.5h172
c13.333 -38.667 32.333 -66.167 57 -82.5s61.667 -24.5 111 -24.5c58 0 99.5 8.16699 124.5 24.5s42.833 43.833 53.5 82.5z" />
    <glyph glyph-name="ebreve" unicode="&#x115;" 
d="M1302 430h-815.997c7.33301 -65.333 25 -114 53 -146c39.333 -46 90.666 -69 153.999 -69c40 0 78 10 114 30c22 12.667 45.667 35 71 67l401 -37c-61.333 -106.667 -135.333 -183.167 -222 -229.5s-211 -69.5 -373 -69.5c-140.667 0 -251.334 19.833 -332.001 59.5
s-147.5 102.667 -200.5 189s-79.5 187.833 -79.5 304.5c0 166 53.167 300.333 159.5 403s253.166 154 440.499 154c152 0 272 -23 360 -69s155 -112.667 201 -200s69 -201 69 -341v-46zM888.003 625c-8 78.667 -29.165 135 -63.498 169s-79.5 51 -135.5 51
c-64.667 0 -116.334 -25.667 -155.001 -77c-24.667 -32 -40.334 -79.667 -47.001 -143h401zM846.005 1491h165c-4 -63.333 -19 -116.5 -45 -159.5s-65.333 -77.5 -118 -103.5s-109.667 -39 -171 -39c-101.333 0 -182.333 26.5 -243 79.5s-96 127.167 -106 222.5h172
c13.333 -38.667 32.333 -66.167 57 -82.5s61.667 -24.5 111 -24.5c58 0 99.5 8.16699 124.5 24.5s42.833 43.833 53.5 82.5z" />
    <glyph glyph-name="Edot" unicode="&#x116;" horiz-adv-x="1479" 
d="M149 1466h1214v-313h-760v-233h705v-299h-705v-289h782v-332h-1236v1466zM616 1868h314v-300h-314v300z" />
    <glyph glyph-name="edot" unicode="&#x117;" 
d="M1302 430h-815.997c7.33301 -65.333 25 -114 53 -146c39.333 -46 90.666 -69 153.999 -69c40 0 78 10 114 30c22 12.667 45.667 35 71 67l401 -37c-61.333 -106.667 -135.333 -183.167 -222 -229.5s-211 -69.5 -373 -69.5c-140.667 0 -251.334 19.833 -332.001 59.5
s-147.5 102.667 -200.5 189s-79.5 187.833 -79.5 304.5c0 166 53.167 300.333 159.5 403s253.166 154 440.499 154c152 0 272 -23 360 -69s155 -112.667 201 -200s69 -201 69 -341v-46zM888.003 625c-8 78.667 -29.165 135 -63.498 169s-79.5 51 -135.5 51
c-64.667 0 -116.334 -25.667 -155.001 -77c-24.667 -32 -40.334 -79.667 -47.001 -143h401zM536.005 1496h314v-300h-314v300z" />
    <glyph glyph-name="Eogonek" unicode="&#x118;" horiz-adv-x="1479" 
d="M149 1466h1214v-313h-760v-233h705v-299h-705v-289h782v-332h-1236v1466zM923 26l169.001 -0.000976562c-13.333 -58 -20 -106 -20 -144c0 -50.667 12.333 -89 37 -115s59 -39 103 -39c31.333 0 74 8.66699 128 26v-155c-82.667 -30.667 -153.334 -46 -212.001 -46
c-80 0 -142.167 21.333 -186.5 64s-66.5 99.334 -66.5 170.001c0 59.333 16 139 48 239z" />
    <glyph glyph-name="eogonek" unicode="&#x119;" 
d="M1302 430h-815.997c7.33301 -65.333 25 -114 53 -146c39.333 -46 90.666 -69 153.999 -69c40 0 78 10 114 30c22 12.667 45.667 35 71 67l401 -37c-61.333 -106.667 -135.333 -183.167 -222 -229.5s-211 -69.5 -373 -69.5c-140.667 0 -251.334 19.833 -332.001 59.5
s-147.5 102.667 -200.5 189s-79.5 187.833 -79.5 304.5c0 166 53.167 300.333 159.5 403s253.166 154 440.499 154c152 0 272 -23 360 -69s155 -112.667 201 -200s69 -201 69 -341v-46zM888.003 625c-8 78.667 -29.165 135 -63.498 169s-79.5 51 -135.5 51
c-64.667 0 -116.334 -25.667 -155.001 -77c-24.667 -32 -40.334 -79.667 -47.001 -143h401zM622.005 26l169.001 -0.000976562c-13.333 -58 -20 -106 -20 -144c0 -50.667 12.333 -89 37 -115s59 -39 103 -39c31.333 0 74 8.66699 128 26v-155
c-82.667 -30.667 -153.334 -46 -212.001 -46c-80 0 -142.167 21.333 -186.5 64s-66.5 99.334 -66.5 170.001c0 59.333 16 139 48 239z" />
    <glyph glyph-name="Ecaron" unicode="&#x11a;" horiz-adv-x="1479" 
d="M149 1466h1214v-313h-760v-233h705v-299h-705v-289h782v-332h-1236v1466zM913 1562h-288l-222 286h247l122 -153l122 153h249z" />
    <glyph glyph-name="ecaron" unicode="&#x11b;" 
d="M1302 430h-815.997c7.33301 -65.333 25 -114 53 -146c39.333 -46 90.666 -69 153.999 -69c40 0 78 10 114 30c22 12.667 45.667 35 71 67l401 -37c-61.333 -106.667 -135.333 -183.167 -222 -229.5s-211 -69.5 -373 -69.5c-140.667 0 -251.334 19.833 -332.001 59.5
s-147.5 102.667 -200.5 189s-79.5 187.833 -79.5 304.5c0 166 53.167 300.333 159.5 403s253.166 154 440.499 154c152 0 272 -23 360 -69s155 -112.667 201 -200s69 -201 69 -341v-46zM888.003 625c-8 78.667 -29.165 135 -63.498 169s-79.5 51 -135.5 51
c-64.667 0 -116.334 -25.667 -155.001 -77c-24.667 -32 -40.334 -79.667 -47.001 -143h401zM824.005 1192h-288l-222 286h247l122 -153l122 153h249z" />
    <glyph glyph-name="Gcircumflex" unicode="&#x11c;" horiz-adv-x="1706" 
d="M887 531l-0.000976562 305.004h700v-625c-134 -91.333 -252.5 -153.5 -355.5 -186.5s-225.167 -49.5 -366.5 -49.5c-174 0 -315.833 29.667 -425.5 89s-194.667 147.666 -255 264.999s-90.5 252 -90.5 404c0 160 33 299.167 99 417.5s162.667 208.166 290 269.499
c99.333 47.333 233 71 401 71c162 0 283.167 -14.667 363.5 -44s147 -74.833 200 -136.5s92.833 -139.834 119.5 -234.501l-437 -78c-18 55.333 -48.5 97.666 -91.5 126.999s-97.833 44 -164.5 44c-99.333 0 -178.5 -34.5 -237.5 -103.5s-88.5 -178.167 -88.5 -327.5
c0 -158.667 29.833 -272 89.5 -340s142.834 -102 249.501 -102c50.667 0 99 7.33301 145 22s98.667 39.667 158 75v138h-303zM736.999 1858h289l222 -286h-248l-122 153l-122 -153h-248z" />
    <glyph glyph-name="gcircumflex" unicode="&#x11d;" 
d="M862 1062l380.998 -0.00195312v-1003l1 -47c0 -66.667 -14.167 -130.167 -42.5 -190.5s-66 -109.166 -113 -146.499s-106.667 -64.333 -179 -81s-155.166 -25 -248.499 -25c-213.333 0 -359.833 32 -439.5 96s-119.5 149.667 -119.5 257c0 13.333 0.666992 31.333 2 54
l395 -45c10 -36.667 25.333 -62 46 -76c30 -20.667 67.667 -31 113 -31c58.667 0 102.5 15.667 131.5 47s43.5 86 43.5 164v161c-40 -47.333 -80 -81.666 -120 -102.999c-62.667 -33.333 -130.334 -50 -203.001 -50c-142 0 -256.667 62 -344 186c-62 88 -93 204.333 -93 349
c0 165.333 40 291.333 120 378s184.667 130 314 130c82.667 0 150.834 -14 204.501 -42s103.834 -74.333 150.501 -139v157zM478.998 546.998c0 -76.667 16.333 -133.499 49 -170.499s75.667 -55.5 129 -55.5c50.667 0 93.167 19.167 127.5 57.5s51.5 96.166 51.5 173.499
s-18 136.5 -54 177.5s-80 61.5 -132 61.5s-93.5 -18.833 -124.5 -56.5s-46.5 -100.167 -46.5 -187.5zM540.998 1478h289l222 -286h-248l-122 153l-122 -153h-248z" />
    <glyph glyph-name="Gbreve" unicode="&#x11e;" horiz-adv-x="1706" 
d="M887 531l-0.000976562 305.004h700v-625c-134 -91.333 -252.5 -153.5 -355.5 -186.5s-225.167 -49.5 -366.5 -49.5c-174 0 -315.833 29.667 -425.5 89s-194.667 147.666 -255 264.999s-90.5 252 -90.5 404c0 160 33 299.167 99 417.5s162.667 208.166 290 269.499
c99.333 47.333 233 71 401 71c162 0 283.167 -14.667 363.5 -44s147 -74.833 200 -136.5s92.833 -139.834 119.5 -234.501l-437 -78c-18 55.333 -48.5 97.666 -91.5 126.999s-97.833 44 -164.5 44c-99.333 0 -178.5 -34.5 -237.5 -103.5s-88.5 -178.167 -88.5 -327.5
c0 -158.667 29.833 -272 89.5 -340s142.834 -102 249.501 -102c50.667 0 99 7.33301 145 22s98.667 39.667 158 75v138h-303zM1030 1854h165c-4 -63.333 -19 -116.5 -45 -159.5s-65.333 -77.5 -118 -103.5s-109.667 -39 -171 -39c-101.333 0 -182.333 26.5 -243 79.5
s-96 127.167 -106 222.5h172c13.333 -38.667 32.333 -66.167 57 -82.5s61.667 -24.5 111 -24.5c58 0 99.5 8.16699 124.5 24.5s42.833 43.833 53.5 82.5z" />
    <glyph glyph-name="gbreve" unicode="&#x11f;" 
d="M862 1062l380.998 -0.00195312v-1003l1 -47c0 -66.667 -14.167 -130.167 -42.5 -190.5s-66 -109.166 -113 -146.499s-106.667 -64.333 -179 -81s-155.166 -25 -248.499 -25c-213.333 0 -359.833 32 -439.5 96s-119.5 149.667 -119.5 257c0 13.333 0.666992 31.333 2 54
l395 -45c10 -36.667 25.333 -62 46 -76c30 -20.667 67.667 -31 113 -31c58.667 0 102.5 15.667 131.5 47s43.5 86 43.5 164v161c-40 -47.333 -80 -81.666 -120 -102.999c-62.667 -33.333 -130.334 -50 -203.001 -50c-142 0 -256.667 62 -344 186c-62 88 -93 204.333 -93 349
c0 165.333 40 291.333 120 378s184.667 130 314 130c82.667 0 150.834 -14 204.501 -42s103.834 -74.333 150.501 -139v157zM478.998 546.998c0 -76.667 16.333 -133.499 49 -170.499s75.667 -55.5 129 -55.5c50.667 0 93.167 19.167 127.5 57.5s51.5 96.166 51.5 173.499
s-18 136.5 -54 177.5s-80 61.5 -132 61.5s-93.5 -18.833 -124.5 -56.5s-46.5 -100.167 -46.5 -187.5zM859.998 1491h165c-4 -63.333 -19 -116.5 -45 -159.5s-65.333 -77.5 -118 -103.5s-109.667 -39 -171 -39c-101.333 0 -182.333 26.5 -243 79.5s-96 127.167 -106 222.5
h172c13.333 -38.667 32.333 -66.167 57 -82.5s61.667 -24.5 111 -24.5c58 0 99.5 8.16699 124.5 24.5s42.833 43.833 53.5 82.5z" />
    <glyph glyph-name="Gdot" unicode="&#x120;" horiz-adv-x="1706" 
d="M887 531l-0.000976562 305.004h700v-625c-134 -91.333 -252.5 -153.5 -355.5 -186.5s-225.167 -49.5 -366.5 -49.5c-174 0 -315.833 29.667 -425.5 89s-194.667 147.666 -255 264.999s-90.5 252 -90.5 404c0 160 33 299.167 99 417.5s162.667 208.166 290 269.499
c99.333 47.333 233 71 401 71c162 0 283.167 -14.667 363.5 -44s147 -74.833 200 -136.5s92.833 -139.834 119.5 -234.501l-437 -78c-18 55.333 -48.5 97.666 -91.5 126.999s-97.833 44 -164.5 44c-99.333 0 -178.5 -34.5 -237.5 -103.5s-88.5 -178.167 -88.5 -327.5
c0 -158.667 29.833 -272 89.5 -340s142.834 -102 249.501 -102c50.667 0 99 7.33301 145 22s98.667 39.667 158 75v138h-303zM719.999 1868h314v-300h-314v300z" />
    <glyph glyph-name="gdot" unicode="&#x121;" 
d="M862 1062l380.998 -0.00195312v-1003l1 -47c0 -66.667 -14.167 -130.167 -42.5 -190.5s-66 -109.166 -113 -146.499s-106.667 -64.333 -179 -81s-155.166 -25 -248.499 -25c-213.333 0 -359.833 32 -439.5 96s-119.5 149.667 -119.5 257c0 13.333 0.666992 31.333 2 54
l395 -45c10 -36.667 25.333 -62 46 -76c30 -20.667 67.667 -31 113 -31c58.667 0 102.5 15.667 131.5 47s43.5 86 43.5 164v161c-40 -47.333 -80 -81.666 -120 -102.999c-62.667 -33.333 -130.334 -50 -203.001 -50c-142 0 -256.667 62 -344 186c-62 88 -93 204.333 -93 349
c0 165.333 40 291.333 120 378s184.667 130 314 130c82.667 0 150.834 -14 204.501 -42s103.834 -74.333 150.501 -139v157zM478.998 546.998c0 -76.667 16.333 -133.499 49 -170.499s75.667 -55.5 129 -55.5c50.667 0 93.167 19.167 127.5 57.5s51.5 96.166 51.5 173.499
s-18 136.5 -54 177.5s-80 61.5 -132 61.5s-93.5 -18.833 -124.5 -56.5s-46.5 -100.167 -46.5 -187.5zM523.998 1496h314v-300h-314v300z" />
    <glyph glyph-name="Gcedilla" unicode="&#x122;" horiz-adv-x="1706" 
d="M887 531l-0.000976562 305.004h700v-625c-134 -91.333 -252.5 -153.5 -355.5 -186.5s-225.167 -49.5 -366.5 -49.5c-174 0 -315.833 29.667 -425.5 89s-194.667 147.666 -255 264.999s-90.5 252 -90.5 404c0 160 33 299.167 99 417.5s162.667 208.166 290 269.499
c99.333 47.333 233 71 401 71c162 0 283.167 -14.667 363.5 -44s147 -74.833 200 -136.5s92.833 -139.834 119.5 -234.501l-437 -78c-18 55.333 -48.5 97.666 -91.5 126.999s-97.833 44 -164.5 44c-99.333 0 -178.5 -34.5 -237.5 -103.5s-88.5 -178.167 -88.5 -327.5
c0 -158.667 29.833 -272 89.5 -340s142.834 -102 249.501 -102c50.667 0 99 7.33301 145 22s98.667 39.667 158 75v138h-303zM707.999 -164.996l30.001 118.001c62.667 15.333 121.334 23 176.001 23c114 0 192.667 -19.333 236 -58s65 -84.334 65 -137.001
c0 -32 -9.83301 -65 -29.5 -99s-54.834 -61.333 -105.501 -82s-118 -31 -202 -31c-76 0 -165.333 8.66699 -268 26v123c69.333 -13.333 143 -20 221 -20c57.333 0 96.166 7.66699 116.499 23s30.5 35.333 30.5 60c0 19.333 -8.33301 36 -25 50s-42.667 21 -78 21
c-47.333 0 -103 -5.66699 -167 -17z" />
    <glyph glyph-name="gcedilla" unicode="&#x123;" 
d="M862 1062l380.998 -0.00195312v-1003l1 -47c0 -66.667 -14.167 -130.167 -42.5 -190.5s-66 -109.166 -113 -146.499s-106.667 -64.333 -179 -81s-155.166 -25 -248.499 -25c-213.333 0 -359.833 32 -439.5 96s-119.5 149.667 -119.5 257c0 13.333 0.666992 31.333 2 54
l395 -45c10 -36.667 25.333 -62 46 -76c30 -20.667 67.667 -31 113 -31c58.667 0 102.5 15.667 131.5 47s43.5 86 43.5 164v161c-40 -47.333 -80 -81.666 -120 -102.999c-62.667 -33.333 -130.334 -50 -203.001 -50c-142 0 -256.667 62 -344 186c-62 88 -93 204.333 -93 349
c0 165.333 40 291.333 120 378s184.667 130 314 130c82.667 0 150.834 -14 204.501 -42s103.834 -74.333 150.501 -139v157zM478.998 546.998c0 -76.667 16.333 -133.499 49 -170.499s75.667 -55.5 129 -55.5c50.667 0 93.167 19.167 127.5 57.5s51.5 96.166 51.5 173.499
s-18 136.5 -54 177.5s-80 61.5 -132 61.5s-93.5 -18.833 -124.5 -56.5s-46.5 -100.167 -46.5 -187.5zM830.998 1193h-269.999v196c0 72 14.833 128.833 44.5 170.5s81.167 78.5 154.5 110.5l71 -104c-80.667 -36 -121.334 -81.667 -122.001 -137h122v-236z" />
    <glyph glyph-name="Hcircumflex" unicode="&#x124;" horiz-adv-x="1706" 
d="M152 1466h453v-513h495v513h455v-1466h-455v593h-495v-593h-453v1466zM713 1858h289l222 -286h-248l-122 153l-122 -153h-248z" />
    <glyph glyph-name="hcircumflex" unicode="&#x125;" 
d="M123 1466l406.999 -0.00195312v-540c55.333 57.333 110.333 98.333 165 123s119.334 37 194.001 37c110.667 0 197.834 -33.667 261.501 -101s95.5 -170.666 95.5 -309.999v-675h-409v584c0 66.667 -12.333 113.834 -37 141.501s-59.334 41.5 -104.001 41.5
c-49.333 0 -89.333 -18.667 -120 -56s-46 -104.333 -46 -201v-510h-407v1466zM544.999 1854h289l222 -286h-248l-122 153l-122 -153h-248z" />
    <glyph glyph-name="Hbar" unicode="&#x126;" horiz-adv-x="1706" 
d="M1688 1102h-134v-1102h-452v592h-498v-592h-452v1102h-134v221h134v143h452v-143h498v143h452v-143h134v-221zM1102 952v150h-498v-150h498z" />
    <glyph glyph-name="hbar" unicode="&#x127;" 
d="M1247 0h-407v584c0 122.667 -48 184 -144 184c-52.667 0 -93.5 -19.5 -122.5 -58.5s-43.5 -105.5 -43.5 -199.5v-510h-407v1186h-103v186h103v94h407v-94h261v-186h-261v-260c96 106 216.333 159 361 159c117.333 0 206 -35.5 266 -106.5s90 -171.833 90 -302.5v-676z
" />
    <glyph glyph-name="Itilde" unicode="&#x128;" horiz-adv-x="797" 
d="M168 1466h454v-1466h-454v1466zM607 1846l158.001 -0.000976562c0.666992 -17.333 1 -32.333 1 -45c0 -74 -18.667 -131.333 -56 -172s-85.333 -61 -144 -61c-42.667 0 -107.334 17.667 -194.001 53c-52.667 21.333 -89 32 -109 32c-19.333 0 -34.333 -6 -45 -18
s-16.334 -33.333 -17.001 -64h-156c-0.666992 16 -1 30 -1 42c0 71.333 19.667 128 59 170s86 63 140 63c23.333 0 45.333 -2.66699 66 -8s58.834 -19.666 114.501 -42.999s96.167 -35 121.5 -35c18 0 32.5 6.16699 43.5 18.5s17.167 34.833 18.5 67.5z" />
    <glyph glyph-name="itilde" unicode="&#x129;" horiz-adv-x="682" 
d="M138 1062h407v-1062h-407v1062zM555 1466l158.001 -0.000976562c0.666992 -17.333 1 -32.333 1 -45c0 -74 -18.667 -131.333 -56 -172s-85.333 -61 -144 -61c-42.667 0 -107.334 17.667 -194.001 53c-52.667 21.333 -89 32 -109 32c-19.333 0 -34.333 -6 -45 -18
s-16.334 -33.333 -17.001 -64h-156c-0.666992 16 -1 30 -1 42c0 71.333 19.667 128 59 170s86 63 140 63c23.333 0 45.333 -2.66699 66 -8s58.834 -19.666 114.501 -42.999s96.167 -35 121.5 -35c18 0 32.5 6.16699 43.5 18.5s17.167 34.833 18.5 67.5z" />
    <glyph glyph-name="Imacron" unicode="&#x12a;" horiz-adv-x="797" 
d="M168 1466h454v-1466h-454v1466zM78 1786h647v-217h-647v217z" />
    <glyph glyph-name="imacron" unicode="&#x12b;" horiz-adv-x="682" 
d="M138 1062h407v-1062h-407v1062zM18 1446h647v-217h-647v217z" />
    <glyph glyph-name="Ibreve" unicode="&#x12c;" horiz-adv-x="797" 
d="M168 1466h454v-1466h-454v1466zM578 1875h165c-4 -63.333 -19 -116.5 -45 -159.5s-65.333 -77.5 -118 -103.5s-109.667 -39 -171 -39c-101.333 0 -182.333 26.5 -243 79.5s-96 127.167 -106 222.5h172c13.333 -38.667 32.333 -66.167 57 -82.5s61.667 -24.5 111 -24.5
c58 0 99.5 8.16699 124.5 24.5s42.833 43.833 53.5 82.5z" />
    <glyph glyph-name="ibreve" unicode="&#x12d;" horiz-adv-x="682" 
d="M138 1062h407v-1062h-407v1062zM518 1491h165c-4 -63.333 -19 -116.5 -45 -159.5s-65.333 -77.5 -118 -103.5s-109.667 -39 -171 -39c-101.333 0 -182.333 26.5 -243 79.5s-96 127.167 -106 222.5h172c13.333 -38.667 32.333 -66.167 57 -82.5s61.667 -24.5 111 -24.5
c58 0 99.5 8.16699 124.5 24.5s42.833 43.833 53.5 82.5z" />
    <glyph glyph-name="Iogonek" unicode="&#x12e;" horiz-adv-x="797" 
d="M698 -401c-75.333 -30 -145.667 -45 -211 -45c-78.667 0 -140.667 21 -186 63s-68 98.667 -68 170c0 58 13.667 129 41 213h-102v1466h453v-1466h-181c-8 -43.333 -12 -83 -12 -119c0 -102 46.333 -153 139 -153c30.667 0 73 8.66699 127 26v-155z" />
    <glyph glyph-name="iogonek" unicode="&#x12f;" horiz-adv-x="682" 
d="M616 -401c-75.333 -30 -145.333 -45 -210 -45c-79.333 0 -141.5 21 -186.5 63s-67.5 98.667 -67.5 170c0 58 13.667 129 41 213h-56v1061h408v-1061h-183c-8 -43.333 -12 -83 -12 -119c0 -102 46.333 -153 139 -153c30.667 0 73 8.66699 127 26v-155zM138 1466h407v-277
h-407v277z" />
    <glyph glyph-name="Idot" unicode="&#x130;" horiz-adv-x="797" 
d="M168 1466h454v-1466h-454v1466zM242 1855h314v-300h-314v300z" />
    <glyph glyph-name="dotlessi" unicode="&#x131;" horiz-adv-x="682" 
d="M138 1062h407v-1062h-407v1062z" />
    <glyph glyph-name="IJ" unicode="&#x132;" horiz-adv-x="2105" 
d="M1952 672c0 -108 -5.50098 -198.5 -16.501 -271.5s-35.667 -140.167 -74 -201.5s-88 -109.5 -149 -144.5s-118 -57 -171 -66s-105.5 -13.5 -157.5 -13.5c-208.667 0 -360.167 45.167 -454.5 135.5s-146.833 218.833 -157.5 385.5l432 59c0 -160 49.333 -240 148 -240
c46.667 0 82.834 17.167 108.501 51.5s38.5 99.833 38.5 196.5v903h453v-794zM624.999 0h-453v1466h453v-1466z" />
    <glyph glyph-name="ij" unicode="&#x133;" horiz-adv-x="1368" 
d="M1231 1188h-408v278h408v-278zM545 1188h-408v278h408v-278zM1231 33c0 -98 -5.83203 -177.832 -17.499 -239.499s-43.334 -114.334 -95.001 -158.001s-132.167 -65.5 -241.5 -65.5c-88 0 -185.667 11.667 -293 35l61 295c37.333 -7.33301 61.333 -11 72 -11
c38.667 0 66 13.5 82 40.5s24 73.167 24 138.5v993h408v-1028zM545.001 0.000976562h-408v1061h408v-1061z" />
    <glyph glyph-name="Jcircumflex" unicode="&#x134;" 
d="M760 1466l453.998 -0.00195312v-797c0 -167.333 -14.833 -294.666 -44.5 -381.999s-89.334 -161.333 -179.001 -222s-204.5 -91 -344.5 -91c-148 0 -262.667 20 -344 60s-144.166 98.5 -188.499 175.5s-70.5 172.167 -78.5 285.5l433 59
c0.666992 -64.667 6.33398 -112.667 17.001 -144s28.667 -56.666 54 -75.999c17.333 -12.667 42 -19 74 -19c50.667 0 87.834 18.833 111.501 56.5s35.5 101.167 35.5 190.5v904zM556.998 1854h289l222 -286h-248l-122 153l-122 -153h-248z" />
    <glyph glyph-name="jcircumflex" unicode="&#x135;" horiz-adv-x="682" 
d="M707 1192h-248l-121 154l-123 -154h-248l230 287h288zM139 1062l408 -0.000976562v-1030c0 -131.333 -9.5 -224.333 -28.5 -279s-54.167 -99 -105.5 -133s-124.666 -51 -219.999 -51c-78.667 0 -176.334 11.667 -293.001 35l61 296c32.667 -6.66699 56.667 -10 72 -10
c34.667 0 61 11.833 79 35.5s27 70.834 27 141.501v995z" />
    <glyph glyph-name="Kcedilla" unicode="&#x136;" horiz-adv-x="1706" 
d="M152 1466h453v-554l475 554h602l-534 -553l558 -913h-558l-309 603l-234 -245v-358h-453v1466zM746 -121h269.999v-196c0 -72 -14.833 -128.833 -44.5 -170.5s-81.167 -78.5 -154.5 -110.5l-71 104c80.667 36 121.334 81.667 122.001 137h-122v236z" />
    <glyph glyph-name="kcedilla" unicode="&#x137;" 
d="M123 1466h416v-756l304 352h501l-381 -372l403 -690h-459l-215 426l-153 -150v-276h-416v1466zM574 -121h269.999v-196c0 -72 -14.833 -128.833 -44.5 -170.5s-81.167 -78.5 -154.5 -110.5l-71 104c80.667 36 121.334 81.667 122.001 137h-122v236z" />
    <glyph glyph-name="kgreenlandic" unicode="&#x138;" 
d="M1358 0h-459l-215 426l-154 -150v-276h-407v1061h407v-352l306 352h499l-379 -371z" />
    <glyph glyph-name="Lacute" unicode="&#x139;" 
d="M150 1466h453v-1105h707v-361h-1160v1466zM720 1862h350l-323 -299h-195z" />
    <glyph glyph-name="lacute" unicode="&#x13a;" horiz-adv-x="682" 
d="M137 1466h408v-1466h-408v1466zM348 1862h350l-323 -299h-195z" />
    <glyph glyph-name="Lcedilla" unicode="&#x13b;" 
d="M150 1466h453v-1105h707v-361h-1160v1466zM532 -165l30.001 118.001c62.667 15.333 121.334 23 176.001 23c114 0 192.667 -19.333 236 -58s65 -84.334 65 -137.001c0 -32 -9.83301 -65 -29.5 -99s-54.834 -61.333 -105.501 -82s-118 -31 -202 -31
c-76 0 -165.333 8.66699 -268 26v123c69.333 -13.333 143 -20 221 -20c57.333 0 96.166 7.66699 116.499 23s30.5 35.333 30.5 60c0 19.333 -8.33301 36 -25 50s-42.667 21 -78 21c-47.333 0 -103 -5.66699 -167 -17z" />
    <glyph glyph-name="lcedilla" unicode="&#x13c;" horiz-adv-x="682" 
d="M137 1466h408v-1466h-408v1466zM116 -165l30.001 118.001c62.667 15.333 121.334 23 176.001 23c114 0 192.667 -19.333 236 -58s65 -84.334 65 -137.001c0 -32 -9.83301 -65 -29.5 -99s-54.834 -61.333 -105.501 -82s-118 -31 -202 -31c-76 0 -165.333 8.66699 -268 26
v123c69.333 -13.333 143 -20 221 -20c57.333 0 96.166 7.66699 116.499 23s30.5 35.333 30.5 60c0 19.333 -8.33301 36 -25 50s-42.667 21 -78 21c-47.333 0 -103 -5.66699 -167 -17z" />
    <glyph glyph-name="Lcaron" unicode="&#x13d;" 
d="M150 1466h453v-1105h707v-361h-1160v1466zM956 1466h269.999v-196c0 -72 -14.833 -128.833 -44.5 -170.5s-81.167 -78.5 -154.5 -110.5l-71 104c80.667 36 121.334 81.667 122.001 137h-122v236z" />
    <glyph glyph-name="lcaron" unicode="&#x13e;" horiz-adv-x="1024" 
d="M137 1466h408v-1466h-408v1466zM717 1466h269.999v-196c0 -72 -14.833 -128.833 -44.5 -170.5s-81.167 -78.5 -154.5 -110.5l-71 104c80.667 36 121.334 81.667 122.001 137h-122v236z" />
    <glyph glyph-name="Ldot" unicode="&#x13f;" 
d="M150 1466h453v-1105h707v-361h-1160v1466zM900 1068h314v-300h-314v300z" />
    <glyph glyph-name="ldot" unicode="&#x140;" horiz-adv-x="1094" 
d="M137 1466h408v-1466h-408v1466zM696 1068h314v-300h-314v300z" />
    <glyph glyph-name="Lslash" unicode="&#x141;" 
d="M150 1466h453v-404l318 239v-280l-318 -240v-420h706v-361h-1159v439l-151 -116v280l151 114v749z" />
    <glyph glyph-name="lslash" unicode="&#x142;" horiz-adv-x="682" 
d="M138 1466h409v-469l136 89v-196l-136 -91v-799h-409v528l-138 -92v196l138 93v741z" />
    <glyph glyph-name="Nacute" unicode="&#x143;" horiz-adv-x="1706" 
d="M153 1466h423l552 -811v811h427v-1466h-427l-549 805v-805h-426v1466zM842 1862h350l-323 -299h-195z" />
    <glyph glyph-name="nacute" unicode="&#x144;" 
d="M123 1062l379 -0.000976562v-173c56.667 70.667 114 121.167 172 151.5s128.667 45.5 212 45.5c112.667 0 200.834 -33.5 264.501 -100.5s95.5 -170.5 95.5 -310.5v-675h-409v584c0 66.667 -12.333 113.834 -37 141.501s-59.334 41.5 -104.001 41.5
c-49.333 0 -89.333 -18.667 -120 -56s-46 -104.333 -46 -201v-510h-407v1062zM677 1491h350l-323 -299h-195z" />
    <glyph glyph-name="Ncedilla" unicode="&#x145;" horiz-adv-x="1706" 
d="M153 1466h423l552 -811v811h427v-1466h-427l-549 805v-805h-426v1466zM668 -165l30.001 118.001c62.667 15.333 121.334 23 176.001 23c114 0 192.667 -19.333 236 -58s65 -84.334 65 -137.001c0 -32 -9.83301 -65 -29.5 -99s-54.834 -61.333 -105.501 -82
s-118 -31 -202 -31c-76 0 -165.333 8.66699 -268 26v123c69.333 -13.333 143 -20 221 -20c57.333 0 96.166 7.66699 116.499 23s30.5 35.333 30.5 60c0 19.333 -8.33301 36 -25 50s-42.667 21 -78 21c-47.333 0 -103 -5.66699 -167 -17z" />
    <glyph glyph-name="ncedilla" unicode="&#x146;" 
d="M123 1062l379 -0.000976562v-173c56.667 70.667 114 121.167 172 151.5s128.667 45.5 212 45.5c112.667 0 200.834 -33.5 264.501 -100.5s95.5 -170.5 95.5 -310.5v-675h-409v584c0 66.667 -12.333 113.834 -37 141.501s-59.334 41.5 -104.001 41.5
c-49.333 0 -89.333 -18.667 -120 -56s-46 -104.333 -46 -201v-510h-407v1062zM524 -165.001l30.001 118.001c62.667 15.333 121.334 23 176.001 23c114 0 192.667 -19.333 236 -58s65 -84.334 65 -137.001c0 -32 -9.83301 -65 -29.5 -99s-54.834 -61.333 -105.501 -82
s-118 -31 -202 -31c-76 0 -165.333 8.66699 -268 26v123c69.333 -13.333 143 -20 221 -20c57.333 0 96.166 7.66699 116.499 23s30.5 35.333 30.5 60c0 19.333 -8.33301 36 -25 50s-42.667 21 -78 21c-47.333 0 -103 -5.66699 -167 -17z" />
    <glyph glyph-name="Ncaron" unicode="&#x147;" horiz-adv-x="1706" 
d="M153 1466h423l552 -811v811h427v-1466h-427l-549 805v-805h-426v1466zM992 1562h-288l-222 286h247l122 -153l122 153h249z" />
    <glyph glyph-name="ncaron" unicode="&#x148;" 
d="M123 1062l379 -0.000976562v-173c56.667 70.667 114 121.167 172 151.5s128.667 45.5 212 45.5c112.667 0 200.834 -33.5 264.501 -100.5s95.5 -170.5 95.5 -310.5v-675h-409v584c0 66.667 -12.333 113.834 -37 141.501s-59.334 41.5 -104.001 41.5
c-49.333 0 -89.333 -18.667 -120 -56s-46 -104.333 -46 -201v-510h-407v1062zM827 1192h-288l-222 286h247l122 -153l122 153h249z" />
    <glyph glyph-name="napostrophe" unicode="&#x149;" horiz-adv-x="1757" 
d="M449 1169c0 -106 -23.333 -194.665 -70 -265.998s-123 -129.333 -229 -174l-97 129c56 25.333 101 55.666 135 90.999s52 85.666 54 150.999h-189v366h396v-297zM1638 0.00195312h-406.999v584c0 122.667 -48 184 -144 184c-52.667 0 -93.334 -19.5 -122.001 -58.5
s-43 -105.5 -43 -199.5v-510h-408v1061h381v-172h4c91.333 130.667 217.666 196 378.999 196c118.667 0 208.334 -35.167 269.001 -105.5s91 -171.5 91 -303.5v-676z" />
    <glyph glyph-name="Eng" unicode="&#x14a;" horiz-adv-x="1667" 
d="M582 1294c42 54 106.834 100.332 194.501 138.999s178.5 58 272.5 58c350.667 0 526 -267 526 -801c0 -379.333 -46.5 -660.833 -139.5 -844.5s-236.833 -275.5 -431.5 -275.5c-68.667 0 -149.334 11.667 -242.001 35l61 336c36 -7.33301 65.333 -11 88 -11
c75.333 0 129.333 61.333 162 184s49 309.334 49 560.001c0 292 -88 438 -264 438c-69.333 0 -129 -19.333 -179 -58s-75 -82.667 -75 -132v-922h-452v1466h426v-172h4z" />
    <glyph glyph-name="eng" unicode="&#x14b;" horiz-adv-x="1395" 
d="M555 889c88 130.667 208.001 195.998 360.001 195.998c137.333 0 233.833 -53.667 289.5 -161s83.5 -280 83.5 -518c0 -286 -31.667 -496.833 -95 -632.5s-164 -203.5 -302 -203.5c-86 0 -173.333 11.667 -262 35l61 295c26 -7.33301 50 -11 72 -11
c44.667 0 75.667 40.333 93 121s26 206.334 26 377.001c0 160 -12.833 266.833 -38.5 320.5s-64.834 80.5 -117.501 80.5c-48 0 -84.5 -22.167 -109.5 -66.5s-37.5 -105.166 -37.5 -182.499v-539h-426v1061h399v-172h4z" />
    <glyph glyph-name="Omacron" unicode="&#x14c;" horiz-adv-x="1706" 
d="M93 732c0 239.333 66.665 425.667 199.998 559s319 200 557 200c244 0 432 -65.5 564 -196.5s198 -314.5 198 -550.5c0 -171.333 -28.833 -311.833 -86.5 -421.5s-141 -195 -250 -256s-244.833 -91.5 -407.5 -91.5c-165.333 0 -302.166 26.333 -410.499 79
s-196.166 136 -263.499 250s-101 256.667 -101 428zM545.998 730.001c0 -148 27.5 -254.333 82.5 -319s129.833 -97 224.5 -97c97.333 0 172.666 31.667 225.999 95s80 177 80 341c0 138 -27.833 238.833 -83.5 302.5s-131.167 95.5 -226.5 95.5
c-91.333 0 -164.666 -32.333 -219.999 -97s-83 -171.667 -83 -321zM529.998 1786h647v-217h-647v217z" />
    <glyph glyph-name="omacron" unicode="&#x14d;" 
d="M73 528c0 162 54.665 295.498 163.998 400.498s257 157.5 443 157.5c212.667 0 373.334 -61.667 482.001 -185c87.333 -99.333 131 -221.666 131 -366.999c0 -163.333 -54.167 -297.166 -162.5 -401.499s-258.166 -156.5 -449.499 -156.5
c-170.667 0 -308.667 43.333 -414 130c-129.333 107.333 -194 248 -194 422zM480.998 528.998c0 -94.667 19.166 -164.668 57.499 -210.001s86.5 -68 144.5 -68c58.667 0 106.834 22.333 144.501 67s56.5 116.334 56.5 215.001c0 92 -19 160.5 -57 205.5s-85 67.5 -141 67.5
c-59.333 0 -108.333 -22.833 -147 -68.5s-58 -115.167 -58 -208.5zM357.997 1446h647v-217h-647v217z" />
    <glyph glyph-name="Obreve" unicode="&#x14e;" horiz-adv-x="1706" 
d="M93 732c0 239.333 66.665 425.667 199.998 559s319 200 557 200c244 0 432 -65.5 564 -196.5s198 -314.5 198 -550.5c0 -171.333 -28.833 -311.833 -86.5 -421.5s-141 -195 -250 -256s-244.833 -91.5 -407.5 -91.5c-165.333 0 -302.166 26.333 -410.499 79
s-196.166 136 -263.499 250s-101 256.667 -101 428zM545.998 730.001c0 -148 27.5 -254.333 82.5 -319s129.833 -97 224.5 -97c97.333 0 172.666 31.667 225.999 95s80 177 80 341c0 138 -27.833 238.833 -83.5 302.5s-131.167 95.5 -226.5 95.5
c-91.333 0 -164.666 -32.333 -219.999 -97s-83 -171.667 -83 -321zM1018 1875h165c-4 -63.333 -19 -116.5 -45 -159.5s-65.333 -77.5 -118 -103.5s-109.667 -39 -171 -39c-101.333 0 -182.333 26.5 -243 79.5s-96 127.167 -106 222.5h172
c13.333 -38.667 32.333 -66.167 57 -82.5s61.667 -24.5 111 -24.5c58 0 99.5 8.16699 124.5 24.5s42.833 43.833 53.5 82.5z" />
    <glyph glyph-name="obreve" unicode="&#x14f;" 
d="M73 528c0 162 54.665 295.498 163.998 400.498s257 157.5 443 157.5c212.667 0 373.334 -61.667 482.001 -185c87.333 -99.333 131 -221.666 131 -366.999c0 -163.333 -54.167 -297.166 -162.5 -401.499s-258.166 -156.5 -449.499 -156.5
c-170.667 0 -308.667 43.333 -414 130c-129.333 107.333 -194 248 -194 422zM480.998 528.998c0 -94.667 19.166 -164.668 57.499 -210.001s86.5 -68 144.5 -68c58.667 0 106.834 22.333 144.501 67s56.5 116.334 56.5 215.001c0 92 -19 160.5 -57 205.5s-85 67.5 -141 67.5
c-59.333 0 -108.333 -22.833 -147 -68.5s-58 -115.167 -58 -208.5zM849.997 1491h165c-4 -63.333 -19 -116.5 -45 -159.5s-65.333 -77.5 -118 -103.5s-109.667 -39 -171 -39c-101.333 0 -182.333 26.5 -243 79.5s-96 127.167 -106 222.5h172
c13.333 -38.667 32.333 -66.167 57 -82.5s61.667 -24.5 111 -24.5c58 0 99.5 8.16699 124.5 24.5s42.833 43.833 53.5 82.5z" />
    <glyph glyph-name="Odblacute" unicode="&#x150;" horiz-adv-x="1706" 
d="M93 732c0 239.333 66.665 425.667 199.998 559s319 200 557 200c244 0 432 -65.5 564 -196.5s198 -314.5 198 -550.5c0 -171.333 -28.833 -311.833 -86.5 -421.5s-141 -195 -250 -256s-244.833 -91.5 -407.5 -91.5c-165.333 0 -302.166 26.333 -410.499 79
s-196.166 136 -263.499 250s-101 256.667 -101 428zM545.998 730.001c0 -148 27.5 -254.333 82.5 -319s129.833 -97 224.5 -97c97.333 0 172.666 31.667 225.999 95s80 177 80 341c0 138 -27.833 238.833 -83.5 302.5s-131.167 95.5 -226.5 95.5
c-91.333 0 -164.666 -32.333 -219.999 -97s-83 -171.667 -83 -321zM633.998 1863h325l-296 -295h-197zM1031 1863h328l-302 -295h-191z" />
    <glyph glyph-name="odblacute" unicode="&#x151;" 
d="M73 528c0 162 54.665 295.498 163.998 400.498s257 157.5 443 157.5c212.667 0 373.334 -61.667 482.001 -185c87.333 -99.333 131 -221.666 131 -366.999c0 -163.333 -54.167 -297.166 -162.5 -401.499s-258.166 -156.5 -449.499 -156.5
c-170.667 0 -308.667 43.333 -414 130c-129.333 107.333 -194 248 -194 422zM480.998 528.998c0 -94.667 19.166 -164.668 57.499 -210.001s86.5 -68 144.5 -68c58.667 0 106.834 22.333 144.501 67s56.5 116.334 56.5 215.001c0 92 -19 160.5 -57 205.5s-85 67.5 -141 67.5
c-59.333 0 -108.333 -22.833 -147 -68.5s-58 -115.167 -58 -208.5zM461.997 1491h325l-296 -295h-197zM858.997 1491h328l-302 -295h-191z" />
    <glyph glyph-name="OE" unicode="&#x152;" horiz-adv-x="2048" 
d="M1013 1466l941 -0.000976562v-313h-542v-233h486v-299h-486v-289h572v-332h-971v162c-42.667 -62 -88.667 -106.667 -138 -134c-65.333 -36 -144 -54 -236 -54c-166 0 -296.667 56 -392 168c-117.333 138.667 -176 334 -176 586c0 254.667 57.667 451 173 589
c97.333 116 222.666 174 375.999 174c88.667 0 163.834 -15.167 225.501 -45.5s117.5 -75.166 167.5 -134.499v155zM741 1155c-49.333 0 -94.166 -15.832 -134.499 -47.499s-68.333 -73.834 -84 -126.501s-23.5 -144.334 -23.5 -275.001
c0 -109.333 10.5 -190.166 31.5 -242.499s51.5 -91.5 91.5 -117.5s79.667 -39 119 -39c40.667 0 81.667 14.167 123 42.5s71.333 68.5 90 120.5s28 144.333 28 277c0 108 -8.83301 188.667 -26.5 242s-46.334 94.333 -86.001 123s-82.5 43 -128.5 43z" />
    <glyph glyph-name="oe" unicode="&#x153;" horiz-adv-x="2048" 
d="M1990 436l-773.001 0.000976562c6 -78.667 25.333 -134.667 58 -168s75.334 -50 128.001 -50c34.667 0 64.667 7.66699 90 23s50 40.333 74 75l392 -36c-44.667 -99.333 -113.667 -174.833 -207 -226.5s-204.333 -77.5 -333 -77.5c-162.667 0 -301 39.333 -415 118
c-66 -43.333 -126.5 -73.833 -181.5 -91.5s-115.833 -26.5 -182.5 -26.5c-172.667 0 -312.667 53.167 -420 159.5s-161 242.166 -161 407.499c0 183.333 67 327 201 431c95.333 74.667 220 112 374 112c74.667 0 140.667 -9 198 -27s120.333 -50 189 -96
c61.333 41.333 123.333 72.166 186 92.499s133 30.5 211 30.5c178 0 318.167 -51.333 420.5 -154s153.5 -244.667 153.5 -426c0 -15.333 -0.666992 -38.666 -2 -69.999zM1583 629.001c-8 78.667 -27.332 134.167 -57.999 166.5s-71.334 48.5 -122.001 48.5
c-50 0 -91.833 -16.833 -125.5 -50.5s-55.167 -88.5 -64.5 -164.5h370zM466 543.001c0 -98.667 14.5 -168.332 43.5 -208.999s71.167 -61 126.5 -61c56 0 99.333 19.333 130 58s46 113.667 46 225c0 92.667 -15.333 158.167 -46 196.5s-69 57.5 -115 57.5
c-58.667 0 -104.167 -19.333 -136.5 -58s-48.5 -108.334 -48.5 -209.001z" />
    <glyph glyph-name="Racute" unicode="&#x154;" horiz-adv-x="1593" 
d="M156 0l-0.000976562 1466h755c140 0 247 -12 321 -36s133.667 -68.5 179 -133.5s68 -144.167 68 -237.5c0 -81.333 -17.333 -151.5 -52 -210.5s-82.334 -106.833 -143.001 -143.5c-38.667 -23.333 -91.667 -42.666 -159 -57.999c54 -18 93.333 -36 118 -54
c16.667 -12 40.834 -37.667 72.501 -77s52.834 -69.666 63.501 -90.999l219 -425h-512l-242 448c-30.667 58 -58 95.667 -82 113c-32.667 22.667 -69.667 34 -111 34h-40v-595h-455zM610.999 871.998l191 0.000976562c20.667 0 60.667 6.66699 120 20
c30 6 54.5 21.333 73.5 46s28.5 53 28.5 85c0 47.333 -15 83.666 -45 108.999s-86.333 38 -169 38h-199v-298zM822.999 1858h350l-323 -299h-195z" />
    <glyph glyph-name="racute" unicode="&#x155;" horiz-adv-x="909" 
d="M127 1062l380.999 0.000976562v-174c36.667 75.333 74.5 127.166 113.5 155.499s87.167 42.5 144.5 42.5c60 0 125.667 -18.667 197 -56l-126 -290c-48 20 -86 30 -114 30c-53.333 0 -94.666 -22 -123.999 -66c-42 -62 -63 -178 -63 -348v-356h-409v1062zM511.999 1491
h350l-323 -299h-195z" />
    <glyph glyph-name="Rcedilla" unicode="&#x156;" horiz-adv-x="1593" 
d="M156 0l-0.000976562 1466h755c140 0 247 -12 321 -36s133.667 -68.5 179 -133.5s68 -144.167 68 -237.5c0 -81.333 -17.333 -151.5 -52 -210.5s-82.334 -106.833 -143.001 -143.5c-38.667 -23.333 -91.667 -42.666 -159 -57.999c54 -18 93.333 -36 118 -54
c16.667 -12 40.834 -37.667 72.501 -77s52.834 -69.666 63.501 -90.999l219 -425h-512l-242 448c-30.667 58 -58 95.667 -82 113c-32.667 22.667 -69.667 34 -111 34h-40v-595h-455zM610.999 871.998l191 0.000976562c20.667 0 60.667 6.66699 120 20
c30 6 54.5 21.333 73.5 46s28.5 53 28.5 85c0 47.333 -15 83.666 -45 108.999s-86.333 38 -169 38h-199v-298zM631.999 -165.001l30.001 118.001c62.667 15.333 121.334 23 176.001 23c114 0 192.667 -19.333 236 -58s65 -84.334 65 -137.001c0 -32 -9.83301 -65 -29.5 -99
s-54.834 -61.333 -105.501 -82s-118 -31 -202 -31c-76 0 -165.333 8.66699 -268 26v123c69.333 -13.333 143 -20 221 -20c57.333 0 96.166 7.66699 116.499 23s30.5 35.333 30.5 60c0 19.333 -8.33301 36 -25 50s-42.667 21 -78 21c-47.333 0 -103 -5.66699 -167 -17z" />
    <glyph glyph-name="rcedilla" unicode="&#x157;" horiz-adv-x="909" 
d="M127 1062l380.999 0.000976562v-174c36.667 75.333 74.5 127.166 113.5 155.499s87.167 42.5 144.5 42.5c60 0 125.667 -18.667 197 -56l-126 -290c-48 20 -86 30 -114 30c-53.333 0 -94.666 -22 -123.999 -66c-42 -62 -63 -178 -63 -348v-356h-409v1062z
M263.999 -164.999l30.001 118.001c62.667 15.333 121.334 23 176.001 23c114 0 192.667 -19.333 236 -58s65 -84.334 65 -137.001c0 -32 -9.83301 -65 -29.5 -99s-54.834 -61.333 -105.501 -82s-118 -31 -202 -31c-76 0 -165.333 8.66699 -268 26v123
c69.333 -13.333 143 -20 221 -20c57.333 0 96.166 7.66699 116.499 23s30.5 35.333 30.5 60c0 19.333 -8.33301 36 -25 50s-42.667 21 -78 21c-47.333 0 -103 -5.66699 -167 -17z" />
    <glyph glyph-name="Rcaron" unicode="&#x158;" horiz-adv-x="1593" 
d="M156 0l-0.000976562 1466h755c140 0 247 -12 321 -36s133.667 -68.5 179 -133.5s68 -144.167 68 -237.5c0 -81.333 -17.333 -151.5 -52 -210.5s-82.334 -106.833 -143.001 -143.5c-38.667 -23.333 -91.667 -42.666 -159 -57.999c54 -18 93.333 -36 118 -54
c16.667 -12 40.834 -37.667 72.501 -77s52.834 -69.666 63.501 -90.999l219 -425h-512l-242 448c-30.667 58 -58 95.667 -82 113c-32.667 22.667 -69.667 34 -111 34h-40v-595h-455zM610.999 871.998l191 0.000976562c20.667 0 60.667 6.66699 120 20
c30 6 54.5 21.333 73.5 46s28.5 53 28.5 85c0 47.333 -15 83.666 -45 108.999s-86.333 38 -169 38h-199v-298zM972.999 1562h-288l-222 286h247l122 -153l122 153h249z" />
    <glyph glyph-name="rcaron" unicode="&#x159;" horiz-adv-x="909" 
d="M127 1062l380.999 0.000976562v-174c36.667 75.333 74.5 127.166 113.5 155.499s87.167 42.5 144.5 42.5c60 0 125.667 -18.667 197 -56l-126 -290c-48 20 -86 30 -114 30c-53.333 0 -94.666 -22 -123.999 -66c-42 -62 -63 -178 -63 -348v-356h-409v1062zM666.999 1192
h-288l-222 286h247l122 -153l122 153h249z" />
    <glyph glyph-name="Sacute" unicode="&#x15a;" horiz-adv-x="1479" 
d="M71 485l430.998 27.002c9.33301 -70 28.333 -123.333 57 -160c46.667 -59.333 113.334 -89 200.001 -89c64.667 0 114.5 15.167 149.5 45.5s52.5 65.5 52.5 105.5c0 38 -16.667 72 -50 102s-110.666 58.333 -231.999 85c-198.667 44.667 -340.334 104 -425.001 178
c-85.333 74 -128 168.333 -128 283c0 75.333 21.833 146.5 65.5 213.5s109.334 119.667 197.001 158s207.834 57.5 360.501 57.5c187.333 0 330.166 -34.833 428.499 -104.5s156.833 -180.5 175.5 -332.5l-427 -25c-11.333 66 -35.166 114 -71.499 144s-86.5 45 -150.5 45
c-52.667 0 -92.334 -11.167 -119.001 -33.5s-40 -49.5 -40 -81.5c0 -23.333 11 -44.333 33 -63c21.333 -19.333 72 -37.333 152 -54c198 -42.667 339.833 -85.834 425.5 -129.501s148 -97.834 187 -162.501s58.5 -137 58.5 -217c0 -94 -26 -180.667 -78 -260
s-124.667 -139.5 -218 -180.5s-211 -61.5 -353 -61.5c-249.333 0 -422 48 -518 144s-150.333 218 -163 366zM731.998 1862h350l-323 -299h-195z" />
    <glyph glyph-name="sacute" unicode="&#x15b;" horiz-adv-x="1251" 
d="M51 294l404 37.999c16.667 -48 40 -82.333 70 -103s70 -31 120 -31c54.667 0 97 11.667 127 35c23.333 17.333 35 39 35 65c0 29.333 -15.333 52 -46 68c-22 11.333 -80.333 25.333 -175 42c-141.333 24.667 -239.5 47.5 -294.5 68.5s-101.333 56.5 -139 106.5
s-56.5 107 -56.5 171c0 70 20.333 130.333 61 181s96.667 88.5 168 113.5s167 37.5 287 37.5c126.667 0 220.167 -9.66699 280.5 -29s110.666 -49.333 150.999 -90s73.833 -95.667 100.5 -165l-386 -38c-10 34 -26.667 59 -50 75c-32 21.333 -70.667 32 -116 32
c-46 0 -79.5 -8.16699 -100.5 -24.5s-31.5 -36.166 -31.5 -59.499c0 -26 13.333 -45.667 40 -59s84.667 -25.333 174 -36c135.333 -15.333 236 -36.666 302 -63.999s116.5 -66.333 151.5 -117s52.5 -106.334 52.5 -167.001c0 -61.333 -18.5 -121 -55.5 -179
s-95.333 -104.167 -175 -138.5s-188.167 -51.5 -325.5 -51.5c-194 0 -332.167 27.667 -414.5 83s-135.166 134 -158.499 236zM600 1491h350l-323 -299h-195z" />
    <glyph glyph-name="Scircumflex" unicode="&#x15c;" horiz-adv-x="1479" 
d="M71 485l430.998 27.002c9.33301 -70 28.333 -123.333 57 -160c46.667 -59.333 113.334 -89 200.001 -89c64.667 0 114.5 15.167 149.5 45.5s52.5 65.5 52.5 105.5c0 38 -16.667 72 -50 102s-110.666 58.333 -231.999 85c-198.667 44.667 -340.334 104 -425.001 178
c-85.333 74 -128 168.333 -128 283c0 75.333 21.833 146.5 65.5 213.5s109.334 119.667 197.001 158s207.834 57.5 360.501 57.5c187.333 0 330.166 -34.833 428.499 -104.5s156.833 -180.5 175.5 -332.5l-427 -25c-11.333 66 -35.166 114 -71.499 144s-86.5 45 -150.5 45
c-52.667 0 -92.334 -11.167 -119.001 -33.5s-40 -49.5 -40 -81.5c0 -23.333 11 -44.333 33 -63c21.333 -19.333 72 -37.333 152 -54c198 -42.667 339.833 -85.834 425.5 -129.501s148 -97.834 187 -162.501s58.5 -137 58.5 -217c0 -94 -26 -180.667 -78 -260
s-124.667 -139.5 -218 -180.5s-211 -61.5 -353 -61.5c-249.333 0 -422 48 -518 144s-150.333 218 -163 366zM596.998 1862h289l222 -286h-248l-122 153l-122 -153h-248z" />
    <glyph glyph-name="scircumflex" unicode="&#x15d;" horiz-adv-x="1251" 
d="M51 294l404 37.999c16.667 -48 40 -82.333 70 -103s70 -31 120 -31c54.667 0 97 11.667 127 35c23.333 17.333 35 39 35 65c0 29.333 -15.333 52 -46 68c-22 11.333 -80.333 25.333 -175 42c-141.333 24.667 -239.5 47.5 -294.5 68.5s-101.333 56.5 -139 106.5
s-56.5 107 -56.5 171c0 70 20.333 130.333 61 181s96.667 88.5 168 113.5s167 37.5 287 37.5c126.667 0 220.167 -9.66699 280.5 -29s110.666 -49.333 150.999 -90s73.833 -95.667 100.5 -165l-386 -38c-10 34 -26.667 59 -50 75c-32 21.333 -70.667 32 -116 32
c-46 0 -79.5 -8.16699 -100.5 -24.5s-31.5 -36.166 -31.5 -59.499c0 -26 13.333 -45.667 40 -59s84.667 -25.333 174 -36c135.333 -15.333 236 -36.666 302 -63.999s116.5 -66.333 151.5 -117s52.5 -106.334 52.5 -167.001c0 -61.333 -18.5 -121 -55.5 -179
s-95.333 -104.167 -175 -138.5s-188.167 -51.5 -325.5 -51.5c-194 0 -332.167 27.667 -414.5 83s-135.166 134 -158.499 236zM465 1478h289l222 -286h-248l-122 153l-122 -153h-248z" />
    <glyph glyph-name="Scedilla" unicode="&#x15e;" horiz-adv-x="1479" 
d="M71 485l430.998 27.002c9.33301 -70 28.333 -123.333 57 -160c46.667 -59.333 113.334 -89 200.001 -89c64.667 0 114.5 15.167 149.5 45.5s52.5 65.5 52.5 105.5c0 38 -16.667 72 -50 102s-110.666 58.333 -231.999 85c-198.667 44.667 -340.334 104 -425.001 178
c-85.333 74 -128 168.333 -128 283c0 75.333 21.833 146.5 65.5 213.5s109.334 119.667 197.001 158s207.834 57.5 360.501 57.5c187.333 0 330.166 -34.833 428.499 -104.5s156.833 -180.5 175.5 -332.5l-427 -25c-11.333 66 -35.166 114 -71.499 144s-86.5 45 -150.5 45
c-52.667 0 -92.334 -11.167 -119.001 -33.5s-40 -49.5 -40 -81.5c0 -23.333 11 -44.333 33 -63c21.333 -19.333 72 -37.333 152 -54c198 -42.667 339.833 -85.834 425.5 -129.501s148 -97.834 187 -162.501s58.5 -137 58.5 -217c0 -94 -26 -180.667 -78 -260
s-124.667 -139.5 -218 -180.5s-211 -61.5 -353 -61.5c-249.333 0 -422 48 -518 144s-150.333 218 -163 366zM514.998 -164.998l30.001 118.001c62.667 15.333 121.334 23 176.001 23c114 0 192.667 -19.333 236 -58s65 -84.334 65 -137.001c0 -32 -9.83301 -65 -29.5 -99
s-54.834 -61.333 -105.501 -82s-118 -31 -202 -31c-76 0 -165.333 8.66699 -268 26v123c69.333 -13.333 143 -20 221 -20c57.333 0 96.166 7.66699 116.499 23s30.5 35.333 30.5 60c0 19.333 -8.33301 36 -25 50s-42.667 21 -78 21c-47.333 0 -103 -5.66699 -167 -17z" />
    <glyph glyph-name="scedilla" unicode="&#x15f;" horiz-adv-x="1251" 
d="M51 294l404 37.999c16.667 -48 40 -82.333 70 -103s70 -31 120 -31c54.667 0 97 11.667 127 35c23.333 17.333 35 39 35 65c0 29.333 -15.333 52 -46 68c-22 11.333 -80.333 25.333 -175 42c-141.333 24.667 -239.5 47.5 -294.5 68.5s-101.333 56.5 -139 106.5
s-56.5 107 -56.5 171c0 70 20.333 130.333 61 181s96.667 88.5 168 113.5s167 37.5 287 37.5c126.667 0 220.167 -9.66699 280.5 -29s110.666 -49.333 150.999 -90s73.833 -95.667 100.5 -165l-386 -38c-10 34 -26.667 59 -50 75c-32 21.333 -70.667 32 -116 32
c-46 0 -79.5 -8.16699 -100.5 -24.5s-31.5 -36.166 -31.5 -59.499c0 -26 13.333 -45.667 40 -59s84.667 -25.333 174 -36c135.333 -15.333 236 -36.666 302 -63.999s116.5 -66.333 151.5 -117s52.5 -106.334 52.5 -167.001c0 -61.333 -18.5 -121 -55.5 -179
s-95.333 -104.167 -175 -138.5s-188.167 -51.5 -325.5 -51.5c-194 0 -332.167 27.667 -414.5 83s-135.166 134 -158.499 236zM401 -165.001l30.001 118.001c62.667 15.333 121.334 23 176.001 23c114 0 192.667 -19.333 236 -58s65 -84.334 65 -137.001
c0 -32 -9.83301 -65 -29.5 -99s-54.834 -61.333 -105.501 -82s-118 -31 -202 -31c-76 0 -165.333 8.66699 -268 26v123c69.333 -13.333 143 -20 221 -20c57.333 0 96.166 7.66699 116.499 23s30.5 35.333 30.5 60c0 19.333 -8.33301 36 -25 50s-42.667 21 -78 21
c-47.333 0 -103 -5.66699 -167 -17z" />
    <glyph glyph-name="Scaron" unicode="&#x160;" horiz-adv-x="1479" 
d="M71 485l430.998 27.002c9.33301 -70 28.333 -123.333 57 -160c46.667 -59.333 113.334 -89 200.001 -89c64.667 0 114.5 15.167 149.5 45.5s52.5 65.5 52.5 105.5c0 38 -16.667 72 -50 102s-110.666 58.333 -231.999 85c-198.667 44.667 -340.334 104 -425.001 178
c-85.333 74 -128 168.333 -128 283c0 75.333 21.833 146.5 65.5 213.5s109.334 119.667 197.001 158s207.834 57.5 360.501 57.5c187.333 0 330.166 -34.833 428.499 -104.5s156.833 -180.5 175.5 -332.5l-427 -25c-11.333 66 -35.166 114 -71.499 144s-86.5 45 -150.5 45
c-52.667 0 -92.334 -11.167 -119.001 -33.5s-40 -49.5 -40 -81.5c0 -23.333 11 -44.333 33 -63c21.333 -19.333 72 -37.333 152 -54c198 -42.667 339.833 -85.834 425.5 -129.501s148 -97.834 187 -162.501s58.5 -137 58.5 -217c0 -94 -26 -180.667 -78 -260
s-124.667 -139.5 -218 -180.5s-211 -61.5 -353 -61.5c-249.333 0 -422 48 -518 144s-150.333 218 -163 366zM880.998 1555h-288l-222 286h247l122 -153l122 153h249z" />
    <glyph glyph-name="scaron" unicode="&#x161;" horiz-adv-x="1251" 
d="M51 294l404 37.999c16.667 -48 40 -82.333 70 -103s70 -31 120 -31c54.667 0 97 11.667 127 35c23.333 17.333 35 39 35 65c0 29.333 -15.333 52 -46 68c-22 11.333 -80.333 25.333 -175 42c-141.333 24.667 -239.5 47.5 -294.5 68.5s-101.333 56.5 -139 106.5
s-56.5 107 -56.5 171c0 70 20.333 130.333 61 181s96.667 88.5 168 113.5s167 37.5 287 37.5c126.667 0 220.167 -9.66699 280.5 -29s110.666 -49.333 150.999 -90s73.833 -95.667 100.5 -165l-386 -38c-10 34 -26.667 59 -50 75c-32 21.333 -70.667 32 -116 32
c-46 0 -79.5 -8.16699 -100.5 -24.5s-31.5 -36.166 -31.5 -59.499c0 -26 13.333 -45.667 40 -59s84.667 -25.333 174 -36c135.333 -15.333 236 -36.666 302 -63.999s116.5 -66.333 151.5 -117s52.5 -106.334 52.5 -167.001c0 -61.333 -18.5 -121 -55.5 -179
s-95.333 -104.167 -175 -138.5s-188.167 -51.5 -325.5 -51.5c-194 0 -332.167 27.667 -414.5 83s-135.166 134 -158.499 236zM767 1192h-288l-222 286h247l122 -153l122 153h249z" />
    <glyph glyph-name="Tcedilla" unicode="&#x162;" horiz-adv-x="1479" 
d="M47 1466h1377v-362h-462v-1104h-453v1104h-462v362zM515 -165l30.001 118.001c62.667 15.333 121.334 23 176.001 23c114 0 192.667 -19.333 236 -58s65 -84.334 65 -137.001c0 -32 -9.83301 -65 -29.5 -99s-54.834 -61.333 -105.501 -82s-118 -31 -202 -31
c-76 0 -165.333 8.66699 -268 26v123c69.333 -13.333 143 -20 221 -20c57.333 0 96.166 7.66699 116.499 23s30.5 35.333 30.5 60c0 19.333 -8.33301 36 -25 50s-42.667 21 -78 21c-47.333 0 -103 -5.66699 -167 -17z" />
    <glyph glyph-name="tcedilla" unicode="&#x163;" horiz-adv-x="909" 
d="M614 1466l0.000976562 -404h224v-297h-224v-377c0 -45.333 4.33301 -75.333 13 -90c13.333 -22.667 36.666 -34 69.999 -34c30 0 72 8.66699 126 26l30 -281c-100.667 -22 -194.667 -33 -282 -33c-101.333 0 -176 13 -224 39s-83.5 65.5 -106.5 118.5
s-34.5 138.833 -34.5 257.5v374h-150v297h150v195zM336.001 -165l30.001 118.001c62.667 15.333 121.334 23 176.001 23c114 0 192.667 -19.333 236 -58s65 -84.334 65 -137.001c0 -32 -9.83301 -65 -29.5 -99s-54.834 -61.333 -105.501 -82s-118 -31 -202 -31
c-76 0 -165.333 8.66699 -268 26v123c69.333 -13.333 143 -20 221 -20c57.333 0 96.166 7.66699 116.499 23s30.5 35.333 30.5 60c0 19.333 -8.33301 36 -25 50s-42.667 21 -78 21c-47.333 0 -103 -5.66699 -167 -17z" />
    <glyph glyph-name="Tcaron" unicode="&#x164;" horiz-adv-x="1479" 
d="M47 1466h1377v-362h-462v-1104h-453v1104h-462v362zM884 1562h-288l-222 286h247l122 -153l122 153h249z" />
    <glyph glyph-name="tcaron" unicode="&#x165;" horiz-adv-x="1280" 
d="M614 1466l0.000976562 -404h224v-297h-224v-377c0 -45.333 4.33301 -75.333 13 -90c13.333 -22.667 36.666 -34 69.999 -34c30 0 72 8.66699 126 26l30 -281c-100.667 -22 -194.667 -33 -282 -33c-101.333 0 -176 13 -224 39s-83.5 65.5 -106.5 118.5
s-34.5 138.833 -34.5 257.5v374h-150v297h150v195zM966.001 1466h269.999v-196c0 -72 -14.833 -128.833 -44.5 -170.5s-81.167 -78.5 -154.5 -110.5l-71 104c80.667 36 121.334 81.667 122.001 137h-122v236z" />
    <glyph glyph-name="Tbar" unicode="&#x166;" horiz-adv-x="1479" 
d="M1427 1106h-460v-283h192v-262h-192v-561h-453v561h-182v262h182v283h-461v360h1374v-360z" />
    <glyph glyph-name="tbar" unicode="&#x167;" horiz-adv-x="909" 
d="M850 8c-98 -22 -192.332 -33 -282.999 -33c-102 0 -179 14.667 -231 44s-87.167 72 -105.5 128s-27.5 137.333 -27.5 244v31h-150v221h150v121h-150v297h150v196l407 209v-405h224v-297h-224v-121h176v-221h-176v-33c0 -54.667 7.66699 -89.167 23 -103.5
s35.666 -21.5 60.999 -21.5c34 0 75.667 9 125 27z" />
    <glyph glyph-name="Utilde" unicode="&#x168;" horiz-adv-x="1706" 
d="M1104 1466h451.999v-874c0 -86.667 -13.5 -168.5 -40.5 -245.5s-69.333 -144.333 -127 -202s-118.167 -98.167 -181.5 -121.5c-88 -32.667 -193.667 -49 -317 -49c-71.333 0 -149.166 5 -233.499 15s-154.833 29.833 -211.5 59.5s-108.5 71.834 -155.5 126.501
s-79.167 111 -96.5 169c-28 93.333 -42 176 -42 248v874h452v-895c0 -80 22.167 -142.5 66.5 -187.5s105.833 -67.5 184.5 -67.5c78 0 139.167 22.167 183.5 66.5s66.5 107.166 66.5 188.499v895zM1055 1850l158.001 -0.000976562c0.666992 -17.333 1 -32.333 1 -45
c0 -74 -18.667 -131.333 -56 -172s-85.333 -61 -144 -61c-42.667 0 -107.334 17.667 -194.001 53c-52.667 21.333 -89 32 -109 32c-19.333 0 -34.333 -6 -45 -18s-16.334 -33.333 -17.001 -64h-156c-0.666992 16 -1 30 -1 42c0 71.333 19.667 128 59 170s86 63 140 63
c23.333 0 45.333 -2.66699 66 -8s58.834 -19.666 114.501 -42.999s96.167 -35 121.5 -35c18 0 32.5 6.16699 43.5 18.5s17.167 34.833 18.5 67.5z" />
    <glyph glyph-name="utilde" unicode="&#x169;" 
d="M1242 0h-380v172c-56.667 -70.667 -113.834 -121 -171.501 -151s-128.5 -45 -212.5 -45c-112 0 -199.833 33.5 -263.5 100.5s-95.5 170.167 -95.5 309.5v676h409v-584c0 -66.667 12.333 -114 37 -142s59.334 -42 104.001 -42c48.667 0 88.5 18.667 119.5 56
s46.5 104.333 46.5 201v511h407v-1062zM887 1466l158.001 -0.000976562c0.666992 -17.333 1 -32.333 1 -45c0 -74 -18.667 -131.333 -56 -172s-85.333 -61 -144 -61c-42.667 0 -107.334 17.667 -194.001 53c-52.667 21.333 -89 32 -109 32c-19.333 0 -34.333 -6 -45 -18
s-16.334 -33.333 -17.001 -64h-156c-0.666992 16 -1 30 -1 42c0 71.333 19.667 128 59 170s86 63 140 63c23.333 0 45.333 -2.66699 66 -8s58.834 -19.666 114.501 -42.999s96.167 -35 121.5 -35c18 0 32.5 6.16699 43.5 18.5s17.167 34.833 18.5 67.5z" />
    <glyph glyph-name="Umacron" unicode="&#x16a;" horiz-adv-x="1706" 
d="M1104 1466h451.999v-874c0 -86.667 -13.5 -168.5 -40.5 -245.5s-69.333 -144.333 -127 -202s-118.167 -98.167 -181.5 -121.5c-88 -32.667 -193.667 -49 -317 -49c-71.333 0 -149.166 5 -233.499 15s-154.833 29.833 -211.5 59.5s-108.5 71.834 -155.5 126.501
s-79.167 111 -96.5 169c-28 93.333 -42 176 -42 248v874h452v-895c0 -80 22.167 -142.5 66.5 -187.5s105.833 -67.5 184.5 -67.5c78 0 139.167 22.167 183.5 66.5s66.5 107.166 66.5 188.499v895zM533.999 1786h647v-217h-647v217z" />
    <glyph glyph-name="umacron" unicode="&#x16b;" 
d="M1242 0h-380v172c-56.667 -70.667 -113.834 -121 -171.501 -151s-128.5 -45 -212.5 -45c-112 0 -199.833 33.5 -263.5 100.5s-95.5 170.167 -95.5 309.5v676h409v-584c0 -66.667 12.333 -114 37 -142s59.334 -42 104.001 -42c48.667 0 88.5 18.667 119.5 56
s46.5 104.333 46.5 201v511h407v-1062zM354 1446h647v-217h-647v217z" />
    <glyph glyph-name="Ubreve" unicode="&#x16c;" horiz-adv-x="1706" 
d="M1104 1466h451.999v-874c0 -86.667 -13.5 -168.5 -40.5 -245.5s-69.333 -144.333 -127 -202s-118.167 -98.167 -181.5 -121.5c-88 -32.667 -193.667 -49 -317 -49c-71.333 0 -149.166 5 -233.499 15s-154.833 29.833 -211.5 59.5s-108.5 71.834 -155.5 126.501
s-79.167 111 -96.5 169c-28 93.333 -42 176 -42 248v874h452v-895c0 -80 22.167 -142.5 66.5 -187.5s105.833 -67.5 184.5 -67.5c78 0 139.167 22.167 183.5 66.5s66.5 107.166 66.5 188.499v895zM1026 1875h165c-4 -63.333 -19 -116.5 -45 -159.5
s-65.333 -77.5 -118 -103.5s-109.667 -39 -171 -39c-101.333 0 -182.333 26.5 -243 79.5s-96 127.167 -106 222.5h172c13.333 -38.667 32.333 -66.167 57 -82.5s61.667 -24.5 111 -24.5c58 0 99.5 8.16699 124.5 24.5s42.833 43.833 53.5 82.5z" />
    <glyph glyph-name="ubreve" unicode="&#x16d;" 
d="M1242 0h-380v172c-56.667 -70.667 -113.834 -121 -171.501 -151s-128.5 -45 -212.5 -45c-112 0 -199.833 33.5 -263.5 100.5s-95.5 170.167 -95.5 309.5v676h409v-584c0 -66.667 12.333 -114 37 -142s59.334 -42 104.001 -42c48.667 0 88.5 18.667 119.5 56
s46.5 104.333 46.5 201v511h407v-1062zM858 1491h165c-4 -63.333 -19 -116.5 -45 -159.5s-65.333 -77.5 -118 -103.5s-109.667 -39 -171 -39c-101.333 0 -182.333 26.5 -243 79.5s-96 127.167 -106 222.5h172c13.333 -38.667 32.333 -66.167 57 -82.5
s61.667 -24.5 111 -24.5c58 0 99.5 8.16699 124.5 24.5s42.833 43.833 53.5 82.5z" />
    <glyph glyph-name="Uring" unicode="&#x16e;" horiz-adv-x="1706" 
d="M1104 1466h451.999v-874c0 -86.667 -13.5 -168.5 -40.5 -245.5s-69.333 -144.333 -127 -202s-118.167 -98.167 -181.5 -121.5c-88 -32.667 -193.667 -49 -317 -49c-71.333 0 -149.166 5 -233.499 15s-154.833 29.833 -211.5 59.5s-108.5 71.834 -155.5 126.501
s-79.167 111 -96.5 169c-28 93.333 -42 176 -42 248v874h452v-895c0 -80 22.167 -142.5 66.5 -187.5s105.833 -67.5 184.5 -67.5c78 0 139.167 22.167 183.5 66.5s66.5 107.166 66.5 188.499v895zM1094 1773c0 -66.667 -23.5 -123.334 -70.5 -170.001s-103.5 -70 -169.5 -70
c-66.667 0 -123.5 23.333 -170.5 70s-70.5 103.334 -70.5 170.001s23.5 123.5 70.5 170.5s103.833 70.5 170.5 70.5c66 0 122.5 -23.5 169.5 -70.5s70.5 -103.833 70.5 -170.5zM955.999 1774c0 28.667 -10 53 -30 73s-44.333 30 -73 30s-53 -10 -73 -30s-30 -44.333 -30 -73
s10 -53 30 -73s44.333 -30 73 -30s53 10 73 30s30 44.333 30 73z" />
    <glyph glyph-name="uring" unicode="&#x16f;" 
d="M1242 0h-380v172c-56.667 -70.667 -113.834 -121 -171.501 -151s-128.5 -45 -212.5 -45c-112 0 -199.833 33.5 -263.5 100.5s-95.5 170.167 -95.5 309.5v676h409v-584c0 -66.667 12.333 -114 37 -142s59.334 -42 104.001 -42c48.667 0 88.5 18.667 119.5 56
s46.5 104.333 46.5 201v511h407v-1062zM923 1403c0 -66.667 -23.5 -123.334 -70.5 -170.001s-103.5 -70 -169.5 -70c-66.667 0 -123.5 23.333 -170.5 70s-70.5 103.334 -70.5 170.001s23.5 123.5 70.5 170.5s103.833 70.5 170.5 70.5c66 0 122.5 -23.5 169.5 -70.5
s70.5 -103.833 70.5 -170.5zM785 1404c0 28.667 -10 53 -30 73s-44.333 30 -73 30s-53 -10 -73 -30s-30 -44.333 -30 -73s10 -53 30 -73s44.333 -30 73 -30s53 10 73 30s30 44.333 30 73z" />
    <glyph glyph-name="Udblacute" unicode="&#x170;" horiz-adv-x="1706" 
d="M1104 1466h451.999v-874c0 -86.667 -13.5 -168.5 -40.5 -245.5s-69.333 -144.333 -127 -202s-118.167 -98.167 -181.5 -121.5c-88 -32.667 -193.667 -49 -317 -49c-71.333 0 -149.166 5 -233.499 15s-154.833 29.833 -211.5 59.5s-108.5 71.834 -155.5 126.501
s-79.167 111 -96.5 169c-28 93.333 -42 176 -42 248v874h452v-895c0 -80 22.167 -142.5 66.5 -187.5s105.833 -67.5 184.5 -67.5c78 0 139.167 22.167 183.5 66.5s66.5 107.166 66.5 188.499v895zM720.999 1861h325l-296 -295h-197zM1118 1861h328l-302 -295h-191z" />
    <glyph glyph-name="udblacute" unicode="&#x171;" 
d="M1242 0h-380v172c-56.667 -70.667 -113.834 -121 -171.501 -151s-128.5 -45 -212.5 -45c-112 0 -199.833 33.5 -263.5 100.5s-95.5 170.167 -95.5 309.5v676h409v-584c0 -66.667 12.333 -114 37 -142s59.334 -42 104.001 -42c48.667 0 88.5 18.667 119.5 56
s46.5 104.333 46.5 201v511h407v-1062zM458 1491h325l-296 -295h-197zM855 1491h328l-302 -295h-191z" />
    <glyph glyph-name="Uogonek" unicode="&#x172;" horiz-adv-x="1706" 
d="M1161 -401c-75.333 -30 -145.669 -45 -211.002 -45c-78.667 0 -140.667 21 -186 63s-68 98.667 -68 170c0 52 11.667 117 35 195c-193.333 10 -338.166 71.5 -434.499 184.5s-144.5 254.833 -144.5 425.5v874h452v-895c0 -79.333 21.167 -141.833 63.5 -187.5
s104.5 -68.5 186.5 -68.5s143.833 22.833 185.5 68.5s62.5 108.167 62.5 187.5v895h452v-874c0 -182 -53.667 -330 -161 -444s-270.666 -171.667 -489.999 -173c-5.33301 -36.667 -8 -68 -8 -94c0 -102 46.333 -153 139 -153c30.667 0 73 8.66699 127 26v-155z" />
    <glyph glyph-name="uogonek" unicode="&#x173;" 
d="M1286 -401c-76 -30 -146.333 -45 -211 -45c-78.667 0 -140.667 21 -186 63s-68 98.667 -68 170c0 41.333 7 88 21 140l20 73v172h-4c-91.333 -131.333 -217.666 -197 -378.999 -197c-118.667 0 -208.334 35.333 -269.001 106s-91 172 -91 304v676h407v-584
c0 -122.667 48 -184 144 -184c52.667 0 93.5 19.5 122.5 58.5s43.5 105.5 43.5 199.5v510h407v-1061h-211c-8 -43.333 -12 -83 -12 -119c0 -102 46.333 -153 139 -153c30.667 0 73 8.66699 127 26v-155z" />
    <glyph glyph-name="Wcircumflex" unicode="&#x174;" horiz-adv-x="2048" 
d="M-1 1466h430l155 -819l226 819h429l227 -819l155 819h428l-323 -1466h-444l-257 923l-256 -923h-444zM885 1854h289l222 -286h-248l-122 153l-122 -153h-248z" />
    <glyph glyph-name="wcircumflex" unicode="&#x175;" horiz-adv-x="1933" 
d="M3 1062h394l171 -669l216 669h367l224 -669l171 669h391l-391 -1062h-362l-215 639l-208 -639h-364zM817 1478h289l222 -286h-248l-122 153l-122 -153h-248z" />
    <glyph glyph-name="Ycircumflex" unicode="&#x176;" horiz-adv-x="1593" 
d="M2 1466h503l296 -495l296 495h500l-570 -852v-614h-454v614zM657 1854h289l222 -286h-248l-122 153l-122 -153h-248z" />
    <glyph glyph-name="ycircumflex" unicode="&#x177;" horiz-adv-x="1251" 
d="M5 1062l430.001 -0.000976562l219 -707l203 707h401l-421 -1135c-48 -129.333 -97 -216.666 -147 -261.999c-70.667 -64 -178.334 -96 -323.001 -96c-58.667 0 -149.334 8 -272.001 24l-32 284c58.667 -18.667 124 -28 196 -28c48 0 86.833 11 116.5 33
s54.834 61.333 75.501 118zM505.001 1478h289l222 -286h-248l-122 153l-122 -153h-248z" />
    <glyph glyph-name="Ydieresis" unicode="&#x178;" horiz-adv-x="1593" 
d="M2 1466h503l296 -495l296 495h500l-570 -852v-614h-454v614zM454 1809h260v-250h-260v250zM878 1809h263v-250h-263v250z" />
    <glyph glyph-name="Zacute" unicode="&#x179;" horiz-adv-x="1479" 
d="M113 1466h1282v-293l-822 -858h852v-315h-1391v304l813 849h-734v313zM726 1862h350l-323 -299h-195z" />
    <glyph glyph-name="zacute" unicode="&#x17a;" horiz-adv-x="1139" 
d="M77 1062h985v-238l-536 -546h569v-278h-1058v264l508 520h-468v278zM564 1491h350l-323 -299h-195z" />
    <glyph glyph-name="Zdot" unicode="&#x17b;" horiz-adv-x="1479" 
d="M113 1466h1282v-293l-822 -858h852v-315h-1391v304l813 849h-734v313zM609 1855h314v-300h-314v300z" />
    <glyph glyph-name="zdot" unicode="&#x17c;" horiz-adv-x="1139" 
d="M77 1062h985v-238l-536 -546h569v-278h-1058v264l508 520h-468v278zM416 1496h314v-300h-314v300z" />
    <glyph glyph-name="Zcaron" unicode="&#x17d;" horiz-adv-x="1479" 
d="M113 1466h1282v-293l-822 -858h852v-315h-1391v304l813 849h-734v313zM881 1555h-288l-222 286h247l122 -153l122 153h249z" />
    <glyph glyph-name="zcaron" unicode="&#x17e;" horiz-adv-x="1139" 
d="M77 1062h985v-238l-536 -546h569v-278h-1058v264l508 520h-468v278zM711 1192h-288l-222 286h247l122 -153l122 153h249z" />
    <glyph glyph-name="longs" unicode="&#x17f;" horiz-adv-x="799" 
d="M784 1473l-59 -250c-30.667 8 -58.667 12 -84 12c-87.333 0 -131 -69.667 -131 -209v-1026h-391v1016c0 136 39.667 249.167 119 339.5s220.666 135.5 423.999 135.5c40.667 0 81.334 -6 122.001 -18z" />
    <glyph glyph-name="florin" unicode="&#x192;" 
d="M986 999h198.001l-63 -290h-195l-188 -882c-18 -84 -55.833 -148 -113.5 -192s-139.5 -66 -245.5 -66c-98.667 0 -212.667 19.667 -342 59l73 260c68.667 -24 120 -36 154 -36c26 0 46.333 7.16699 61 21.5s27.667 48.5 39 102.5l156 733h-191l59 290h195l45 213
c11.333 56.667 30.5 106 57.5 148s66.167 74.333 117.5 97s113.666 34 186.999 34c110.667 0 225.667 -20.667 345 -62l-73 -262c-62 26 -113 39 -153 39c-26 0 -46.5 -7.83301 -61.5 -23.5s-29.833 -53.167 -44.5 -112.5z" />
    <glyph glyph-name="Aringacute" unicode="&#x1fa;" horiz-adv-x="1593" 
d="M587 1466c-21.333 37.333 -32 77.666 -32 120.999c0 66 23.5 122.667 70.5 170s103.5 71 169.5 71c66.667 0 123.5 -23.5 170.5 -70.5s70.5 -103.833 70.5 -170.5c0 -43.333 -11 -83.666 -33 -120.999h44l551 -1466h-474l-77 242h-506l-76 -242h-463l551 1466h34z
M692 1588c0 -29.333 10 -54 30 -74s44.333 -30 73 -30c28 0 52 10 72 30s30 44.333 30 73s-10 53 -30 73s-44 30 -72 30c-28.667 0 -53 -10 -73 -30s-30 -44 -30 -72zM945 577l-150 485l-149 -485h299zM747 2219h350l-323 -299h-195z" />
    <glyph glyph-name="aringacute" unicode="&#x1fb;" 
d="M494 718l-388.996 41.001c14.667 68 35.834 121.5 63.501 160.5s67.5 72.833 119.5 101.5c37.333 20.667 88.666 36.667 153.999 48s136 17 212 17c122 0 220 -6.83301 294 -20.5s135.667 -42.167 185 -85.5c34.667 -30 62 -72.5 82 -127.5s30 -107.5 30 -157.5v-469
c0 -50 3.16699 -89.167 9.5 -117.5s20.166 -64.5 41.499 -108.5h-382c-15.333 27.333 -25.333 48.166 -30 62.499s-9.33398 36.833 -14.001 67.5c-53.333 -51.333 -106.333 -88 -159 -110c-72 -29.333 -155.667 -44 -251 -44c-126.667 0 -222.834 29.333 -288.501 88
s-98.5 131 -98.5 217c0 80.667 23.667 147 71 199s134.666 90.667 261.999 116c152.667 30.667 251.667 52.167 297 64.5s93.333 28.5 144 48.5c0 50 -10.333 85 -31 105s-57 30 -109 30c-66.667 0 -116.667 -10.667 -150 -32c-26 -16.667 -47 -48 -63 -94zM847.004 504.001
c-56 -20 -114.332 -37.668 -174.999 -53.001c-82.667 -22 -135 -43.667 -157 -65c-22.667 -22 -34 -47 -34 -75c0 -32 11.167 -58.167 33.5 -78.5s55.166 -30.5 98.499 -30.5c45.333 0 87.5 11 126.5 33s66.667 48.833 83 80.5s24.5 72.834 24.5 123.501v65zM923.005 1403
c0 -66.667 -23.5 -123.334 -70.5 -170.001s-103.5 -70 -169.5 -70c-66.667 0 -123.5 23.333 -170.5 70s-70.5 103.334 -70.5 170.001s23.5 123.5 70.5 170.5s103.833 70.5 170.5 70.5c66 0 122.5 -23.5 169.5 -70.5s70.5 -103.833 70.5 -170.5zM785.005 1404
c0 28.667 -10 53 -30 73s-44.333 30 -73 30s-53 -10 -73 -30s-30 -44.333 -30 -73s10 -53 30 -73s44.333 -30 73 -30s53 10 73 30s30 44.333 30 73zM619.005 2031h350l-323 -299h-195z" />
    <glyph glyph-name="AEacute" unicode="&#x1fc;" horiz-adv-x="2048" 
d="M556 1466h1400v-313h-618v-233h562v-299h-562v-289h637v-332h-1063v263h-435l-97 -263h-456zM811 1169l-211 -572h312v572h-101zM1167 1871h350l-323 -299h-195z" />
    <glyph glyph-name="aeacute" unicode="&#x1fd;" horiz-adv-x="2048" 
d="M1990 431l-770.999 0.00292969c7.33301 -64 23 -111.667 47 -143c36.667 -47.333 84.667 -71 144 -71c33.333 0 62.166 7.5 86.499 22.5s48.166 40.833 71.499 77.5l397 -35c-54 -100.667 -123.833 -176.834 -209.5 -228.501s-200.167 -77.5 -343.5 -77.5
c-110 0 -204.667 16 -284 48c-60 24 -117.667 64 -173 120c-82 -60 -159.833 -103 -233.5 -129s-155.5 -39 -245.5 -39c-135.333 0 -237 28.5 -305 85.5s-102 131.5 -102 223.5c0 46 10.667 89.333 32 130s48.333 73 81 97c43.333 31.333 90.333 55.666 141 72.999
c23.333 8 80.333 20.667 171 38s149 29.333 175 36c44.667 11.333 96.667 27 156 47c-1.33301 53.333 -12.166 89.666 -32.499 108.999s-57.5 29 -111.5 29c-56.667 0 -99 -10.167 -127 -30.5s-47.667 -52.5 -59 -96.5l-391 45c19.333 70.667 42 124 68 160
c35.333 49.333 89.166 89.166 161.499 119.499s174.166 45.5 305.499 45.5c105.333 0 192 -9.33301 260 -28c48.667 -13.333 102.334 -39 161.001 -77c61.333 38.667 117.166 65.667 167.499 81s109.833 23 178.5 23c102.667 0 190.834 -14.667 264.501 -44
s133.834 -69.166 180.501 -119.499s80 -100.5 100 -150.5c26 -66 39 -157.333 39 -274v-67zM1584 626.003c-5.33301 68.667 -22.833 122 -52.5 160s-71.5 57 -125.5 57c-48 0 -89.167 -17.333 -123.5 -52s-56.5 -89.667 -66.5 -165h368zM825.001 507.003l-125.002 -41
c-16 -5.33301 -30 -9 -42 -11c-66 -12.667 -112.167 -31.667 -138.5 -57s-39.5 -51.666 -39.5 -78.999c0 -30.667 11 -56.667 33 -78s51 -32 87 -32c36.667 0 74.334 9.33301 113.001 28s68.334 47 89.001 85c15.333 27.333 23 63.666 23 108.999v76zM994.999 1491h350
l-323 -299h-195z" />
    <glyph glyph-name="Oslashacute" unicode="&#x1fe;" horiz-adv-x="1706" 
d="M1346 1352l174 163.998l151 -161l-173 -164c35.333 -53.333 63 -120.5 83 -201.5s30 -165.833 30 -254.5c0 -171.333 -30.833 -312.166 -92.5 -422.499s-146.667 -194.166 -255 -251.499s-244.833 -86 -409.5 -86c-117.333 0 -222.333 15 -315 45
c-60 19.333 -119.333 51 -178 95l-175 -167l-151 159l176 168c-79.333 123.333 -119 274.666 -119 453.999c0 240.667 66.5 427.834 199.5 561.501s317.833 200.5 554.5 200.5c210 0 376.667 -46.333 500 -139zM1054 1075c-50 48.667 -118.668 73 -206.001 73
c-91.333 0 -164.666 -32.167 -219.999 -96.5s-83 -168.833 -83 -313.5c0 -45.333 3.33301 -91 10 -137zM1150 860.998l-501.002 -474.001c48.667 -48.667 116.334 -73 203.001 -73c96.667 0 171.834 31.333 225.501 94s80.5 171.334 80.5 326.001
c0 42.667 -2.66699 85 -8 127zM830.997 1871h350l-323 -299h-195z" />
    <glyph glyph-name="oslashacute" unicode="&#x1ff;" 
d="M1153 1156l103.998 -93.999l-124 -136c46 -38.667 84 -93.334 114 -164.001s45 -147.334 45 -230.001c0 -162.667 -53.667 -296 -161 -400s-253.333 -156 -438 -156c-75.333 0 -141.666 6.33301 -198.999 19c-39.333 8.66699 -89 27.334 -149 56.001l-133 -148l-105 97
l127 135c-56.667 60.667 -97.667 121.667 -123 183s-38 130.666 -38 207.999c0 163.333 54.333 297.5 163 402.5s254.667 157.5 438 157.5c74.667 0 141.334 -7 200.001 -21c39.333 -9.33301 88 -28.666 146 -57.999zM820.998 785.001c-18.667 18 -34.667 29.667 -48 35
c-26 10.667 -55.333 16 -88 16c-67.333 0 -122.833 -25.833 -166.5 -77.5s-65.5 -130.5 -65.5 -236.5c0 -35.333 5.66699 -77.333 17 -126zM544.998 270.001c22 -17.333 40.001 -28.668 54.001 -34.001c26.667 -9.33301 56 -14 88 -14c65.333 0 119.166 25.833 161.499 77.5
s63.5 132.834 63.5 243.501c0 34 -5.66699 73 -17 117zM670.999 1491h350l-323 -299h-195z" />
    <glyph glyph-name="uni0218" unicode="&#x218;" horiz-adv-x="1479" 
d="M71 485l430.998 27.002c9.33301 -70 28.333 -123.333 57 -160c46.667 -59.333 113.334 -89 200.001 -89c64.667 0 114.5 15.167 149.5 45.5s52.5 65.5 52.5 105.5c0 38 -16.667 72 -50 102s-110.666 58.333 -231.999 85c-198.667 44.667 -340.334 104 -425.001 178
c-85.333 74 -128 168.333 -128 283c0 75.333 21.833 146.5 65.5 213.5s109.334 119.667 197.001 158s207.834 57.5 360.501 57.5c187.333 0 330.166 -34.833 428.499 -104.5s156.833 -180.5 175.5 -332.5l-427 -25c-11.333 66 -35.166 114 -71.499 144s-86.5 45 -150.5 45
c-52.667 0 -92.334 -11.167 -119.001 -33.5s-40 -49.5 -40 -81.5c0 -23.333 11 -44.333 33 -63c21.333 -19.333 72 -37.333 152 -54c198 -42.667 339.833 -85.834 425.5 -129.501s148 -97.834 187 -162.501s58.5 -137 58.5 -217c0 -94 -26 -180.667 -78 -260
s-124.667 -139.5 -218 -180.5s-211 -61.5 -353 -61.5c-249.333 0 -422 48 -518 144s-150.333 218 -163 366zM605.998 -120.998h269.999v-196c0 -72 -14.833 -128.833 -44.5 -170.5s-81.167 -78.5 -154.5 -110.5l-71 104c80.667 36 121.334 81.667 122.001 137h-122v236z" />
    <glyph glyph-name="uni0219" unicode="&#x219;" horiz-adv-x="1251" 
d="M51 294l404 37.999c16.667 -48 40 -82.333 70 -103s70 -31 120 -31c54.667 0 97 11.667 127 35c23.333 17.333 35 39 35 65c0 29.333 -15.333 52 -46 68c-22 11.333 -80.333 25.333 -175 42c-141.333 24.667 -239.5 47.5 -294.5 68.5s-101.333 56.5 -139 106.5
s-56.5 107 -56.5 171c0 70 20.333 130.333 61 181s96.667 88.5 168 113.5s167 37.5 287 37.5c126.667 0 220.167 -9.66699 280.5 -29s110.666 -49.333 150.999 -90s73.833 -95.667 100.5 -165l-386 -38c-10 34 -26.667 59 -50 75c-32 21.333 -70.667 32 -116 32
c-46 0 -79.5 -8.16699 -100.5 -24.5s-31.5 -36.166 -31.5 -59.499c0 -26 13.333 -45.667 40 -59s84.667 -25.333 174 -36c135.333 -15.333 236 -36.666 302 -63.999s116.5 -66.333 151.5 -117s52.5 -106.334 52.5 -167.001c0 -61.333 -18.5 -121 -55.5 -179
s-95.333 -104.167 -175 -138.5s-188.167 -51.5 -325.5 -51.5c-194 0 -332.167 27.667 -414.5 83s-135.166 134 -158.499 236zM481 -121.001h269.999v-196c0 -72 -14.833 -128.833 -44.5 -170.5s-81.167 -78.5 -154.5 -110.5l-71 104c80.667 36 121.334 81.667 122.001 137
h-122v236z" />
    <glyph glyph-name="uni021A" unicode="&#x21a;" horiz-adv-x="1479" 
d="M47 1466h1377v-362h-462v-1104h-453v1104h-462v362zM597 -121h269.999v-196c0 -72 -14.833 -128.833 -44.5 -170.5s-81.167 -78.5 -154.5 -110.5l-71 104c80.667 36 121.334 81.667 122.001 137h-122v236z" />
    <glyph glyph-name="uni021B" unicode="&#x21b;" horiz-adv-x="909" 
d="M614 1466l0.000976562 -404h224v-297h-224v-377c0 -45.333 4.33301 -75.333 13 -90c13.333 -22.667 36.666 -34 69.999 -34c30 0 72 8.66699 126 26l30 -281c-100.667 -22 -194.667 -33 -282 -33c-101.333 0 -176 13 -224 39s-83.5 65.5 -106.5 118.5
s-34.5 138.833 -34.5 257.5v374h-150v297h150v195zM352.001 -121h269.999v-196c0 -72 -14.833 -128.833 -44.5 -170.5s-81.167 -78.5 -154.5 -110.5l-71 104c80.667 36 121.334 81.667 122.001 137h-122v236z" />
    <glyph glyph-name="circumflex" unicode="&#x2c6;" horiz-adv-x="682" 
d="M201 1478h289l222 -286h-248l-122 153l-122 -153h-248z" />
    <glyph glyph-name="caron" unicode="&#x2c7;" horiz-adv-x="682" 
d="M482 1192h-288l-222 286h247l122 -153l122 153h249z" />
    <glyph glyph-name="macron" unicode="&#x2c9;" horiz-adv-x="682" 
d="M18 1446h647v-217h-647v217z" />
    <glyph glyph-name="breve" unicode="&#x2d8;" horiz-adv-x="682" 
d="M518 1491h165c-4 -63.333 -19 -116.5 -45 -159.5s-65.333 -77.5 -118 -103.5s-109.667 -39 -171 -39c-101.333 0 -182.333 26.5 -243 79.5s-96 127.167 -106 222.5h172c13.333 -38.667 32.333 -66.167 57 -82.5s61.667 -24.5 111 -24.5c58 0 99.5 8.16699 124.5 24.5
s42.833 43.833 53.5 82.5z" />
    <glyph glyph-name="dotaccent" unicode="&#x2d9;" horiz-adv-x="683" 
d="M184 1496h314v-300h-314v300z" />
    <glyph glyph-name="ring" unicode="&#x2da;" horiz-adv-x="682" 
d="M581 1403c0 -66.667 -23.5 -123.334 -70.5 -170.001s-103.5 -70 -169.5 -70c-66.667 0 -123.5 23.333 -170.5 70s-70.5 103.334 -70.5 170.001s23.5 123.5 70.5 170.5s103.833 70.5 170.5 70.5c66 0 122.5 -23.5 169.5 -70.5s70.5 -103.833 70.5 -170.5zM443 1404
c0 28.667 -10 53 -30 73s-44.333 30 -73 30s-53 -10 -73 -30s-30 -44.333 -30 -73s10 -53 30 -73s44.333 -30 73 -30s53 10 73 30s30 44.333 30 73z" />
    <glyph glyph-name="ogonek" unicode="&#x2db;" horiz-adv-x="682" 
d="M200 26l169.001 -0.000976562c-13.333 -58 -20 -106 -20 -144c0 -50.667 12.333 -89 37 -115s59 -39 103 -39c31.333 0 74 8.66699 128 26v-155c-82.667 -30.667 -153.334 -46 -212.001 -46c-80 0 -142.167 21.333 -186.5 64s-66.5 99.334 -66.5 170.001
c0 59.333 16 139 48 239z" />
    <glyph glyph-name="tilde" unicode="&#x2dc;" horiz-adv-x="682" 
d="M543 1466l158.001 -0.000976562c0.666992 -17.333 1 -32.333 1 -45c0 -74 -18.667 -131.333 -56 -172s-85.333 -61 -144 -61c-42.667 0 -107.334 17.667 -194.001 53c-52.667 21.333 -89 32 -109 32c-19.333 0 -34.333 -6 -45 -18s-16.334 -33.333 -17.001 -64h-156
c-0.666992 16 -1 30 -1 42c0 71.333 19.667 128 59 170s86 63 140 63c23.333 0 45.333 -2.66699 66 -8s58.834 -19.666 114.501 -42.999s96.167 -35 121.5 -35c18 0 32.5 6.16699 43.5 18.5s17.167 34.833 18.5 67.5z" />
    <glyph glyph-name="hungarumlaut" unicode="&#x2dd;" horiz-adv-x="682" 
d="M214 1491h325l-296 -295h-197zM611 1491h328l-302 -295h-191z" />
    <glyph glyph-name="tonos" unicode="&#x384;" horiz-adv-x="389" 
d="M381 1466l-180 -299h-195l66 299h309z" />
    <glyph glyph-name="dieresistonos" unicode="&#x385;" horiz-adv-x="682" 
d="M557 1819l-180 -299h-195l66 299h309zM684 1196h-262v250h262v-250zM260 1196h-262v250h262v-250z" />
    <glyph glyph-name="Alphatonos" unicode="&#x386;" horiz-adv-x="1593" 
d="M1052 242h-516l-71 -242h-463l551 1466h494l551 -1466h-474zM957 559l-162 527l-161 -527h323zM381 1466l-180 -299h-195l66 299h309z" />
    <glyph glyph-name="anoteleia" unicode="&#x387;" horiz-adv-x="1024" 
d="M184 932h314v-300h-314v300z" />
    <glyph glyph-name="Epsilontonos" unicode="&#x388;" horiz-adv-x="1733" 
d="M405 1466h1214v-313h-760v-233h705v-299h-705v-289h782v-332h-1236v1466zM381 1466l-180 -299h-195l66 299h309z" />
    <glyph glyph-name="Etatonos" unicode="&#x389;" horiz-adv-x="1960" 
d="M404 1466h453v-513h495v513h455v-1466h-455v593h-495v-593h-453v1466zM381 1466l-180 -299h-195l66 299h309z" />
    <glyph glyph-name="Iotatonos" unicode="&#x38a;" horiz-adv-x="1026" 
d="M400 1466h454v-1466h-454v1466zM381 1466l-180 -299h-195l66 299h309z" />
    <glyph glyph-name="Omicrontonos" unicode="&#x38c;" horiz-adv-x="1815" 
d="M201 732c0 239.333 66.665 425.667 199.998 559s319 200 557 200c244 0 432 -65.5 564 -196.5s198 -314.5 198 -550.5c0 -171.333 -28.833 -311.833 -86.5 -421.5s-141 -195 -250 -256s-244.833 -91.5 -407.5 -91.5c-165.333 0 -302.166 26.333 -410.499 79
s-196.166 136 -263.499 250s-101 256.667 -101 428zM653.998 730.001c0 -148 27.5 -254.333 82.5 -319s129.833 -97 224.5 -97c97.333 0 172.666 31.667 225.999 95s80 177 80 341c0 138 -27.833 238.833 -83.5 302.5s-131.167 95.5 -226.5 95.5
c-91.333 0 -164.666 -32.333 -219.999 -97s-83 -171.667 -83 -321zM380.998 1466l-180 -299h-195l66 299h309z" />
    <glyph glyph-name="Upsilontonos" unicode="&#x38e;" horiz-adv-x="1985" 
d="M390 1466h503l296 -495l296 495h500l-570 -852v-614h-454v614zM381 1466l-180 -299h-195l66 299h309z" />
    <glyph glyph-name="Omegatonos" unicode="&#x38f;" horiz-adv-x="1829" 
d="M448 319c-56.667 42 -109.168 111.834 -157.501 209.501s-72.5 195.167 -72.5 292.5c0 206 65.5 369.167 196.5 489.5s317.5 180.5 559.5 180.5c250 0 439.5 -57.667 568.5 -173s193.5 -281 193.5 -497c0 -97.333 -24.167 -194.833 -72.5 -292.5
s-100.833 -167.5 -157.5 -209.5h217v-319h-661v319c147.333 103.333 221 260.666 221 471.999c0 240 -103 360 -309 360c-99.333 0 -174.666 -32 -225.999 -96s-77 -152 -77 -264c0 -198 73.667 -355.333 221 -472v-319h-662v319h218zM380.999 1466l-180 -299h-195l66 299
h309z" />
    <glyph glyph-name="iotadieresistonos" unicode="&#x390;" horiz-adv-x="797" 
d="M138 1062h407v-1062h-407v1062zM557 1819l-180 -299h-195l66 299h309zM684 1196h-262v250h262v-250zM260 1196h-262v250h262v-250z" />
    <glyph glyph-name="Alpha" unicode="&#x391;" horiz-adv-x="1593" 
d="M1052 242h-516l-71 -242h-463l551 1466h494l551 -1466h-474zM957 559l-162 527l-161 -527h323z" />
    <glyph glyph-name="Beta" unicode="&#x392;" horiz-adv-x="1593" 
d="M151 1466h847.999c141.333 0 249.833 -35 325.5 -105s113.5 -156.667 113.5 -260c0 -86.667 -27 -161 -81 -223c-36 -41.333 -88.667 -74 -158 -98c105.333 -25.333 182.833 -68.833 232.5 -130.5s74.5 -139.167 74.5 -232.5c0 -76 -17.667 -144.333 -53 -205
s-83.666 -108.667 -144.999 -144c-38 -22 -95.333 -38 -172 -48c-102 -13.333 -169.667 -20 -203 -20h-782v1466zM607.999 891h197c70.667 0 119.834 12.167 147.501 36.5s41.5 59.5 41.5 105.5c0 42.667 -13.833 76 -41.5 100s-75.834 36 -144.501 36h-200v-278z
M607.999 315h231c78 0 133 13.833 165 41.5s48 64.834 48 111.501c0 43.333 -15.833 78.166 -47.5 104.499s-87.167 39.5 -166.5 39.5h-230v-297z" />
    <glyph glyph-name="Gamma" unicode="&#x393;" 
d="M1311 1106h-709v-1106h-452v1466h1161v-360z" />
    <glyph glyph-name="Delta" unicode="&#x394;" horiz-adv-x="1593" 
d="M1595 0h-1597l551 1466h495zM1030 315l-235 770l-242 -770h477z" />
    <glyph glyph-name="Epsilon" unicode="&#x395;" horiz-adv-x="1479" 
d="M149 1466h1214v-313h-760v-233h705v-299h-705v-289h782v-332h-1236v1466z" />
    <glyph glyph-name="Zeta" unicode="&#x396;" horiz-adv-x="1479" 
d="M113 1466h1282v-293l-822 -858h852v-315h-1391v304l813 849h-734v313z" />
    <glyph glyph-name="Eta" unicode="&#x397;" horiz-adv-x="1706" 
d="M152 1466h453v-513h495v513h455v-1466h-455v593h-495v-593h-453v1466z" />
    <glyph glyph-name="Theta" unicode="&#x398;" horiz-adv-x="1706" 
d="M850 1491c244.667 0 432.831 -65.333 564.498 -196s197.5 -314.667 197.5 -552c0 -247.333 -65.167 -437.166 -195.5 -569.499s-313.166 -198.5 -548.499 -198.5c-264 0 -459 69.667 -585 209s-189 321.666 -189 546.999c0 236.667 65.333 422.5 196 557.5
s317.334 202.5 560.001 202.5zM851.997 315c101.333 0 177.833 32.5 229.5 97.5s77.5 177.5 77.5 337.5c0 267.333 -103 401 -309 401c-202 0 -303 -140.667 -303 -422c0 -276 101.667 -414 305 -414zM1057 604h-400v277h400v-277z" />
    <glyph glyph-name="Iota" unicode="&#x399;" horiz-adv-x="797" 
d="M168 1466h454v-1466h-454v1466z" />
    <glyph glyph-name="Kappa" unicode="&#x39a;" horiz-adv-x="1706" 
d="M152 1466h453v-554l475 554h602l-534 -553l558 -913h-558l-309 603l-234 -245v-358h-453v1466z" />
    <glyph glyph-name="Lambda" unicode="&#x39b;" horiz-adv-x="1593" 
d="M1591 0h-473l-332 1057l-323 -1057h-461l545 1466h491z" />
    <glyph glyph-name="Mu" unicode="&#x39c;" horiz-adv-x="1933" 
d="M145 1466h596l230 -892l229 892h594v-1466h-370v1118l-287 -1118h-335l-286 1118v-1118h-371v1466z" />
    <glyph glyph-name="Nu" unicode="&#x39d;" horiz-adv-x="1706" 
d="M153 1466h423l552 -811v811h427v-1466h-427l-549 805v-805h-426v1466z" />
    <glyph glyph-name="Xi" unicode="&#x39e;" horiz-adv-x="1479" 
d="M1335 1151h-1194v315h1194v-315zM1174 621h-865v297h865v-297zM1358 0h-1237v332h1237v-332z" />
    <glyph glyph-name="Omicron" unicode="&#x39f;" horiz-adv-x="1706" 
d="M93 732c0 239.333 66.665 425.667 199.998 559s319 200 557 200c244 0 432 -65.5 564 -196.5s198 -314.5 198 -550.5c0 -171.333 -28.833 -311.833 -86.5 -421.5s-141 -195 -250 -256s-244.833 -91.5 -407.5 -91.5c-165.333 0 -302.166 26.333 -410.499 79
s-196.166 136 -263.499 250s-101 256.667 -101 428zM545.998 730.001c0 -148 27.5 -254.333 82.5 -319s129.833 -97 224.5 -97c97.333 0 172.666 31.667 225.999 95s80 177 80 341c0 138 -27.833 238.833 -83.5 302.5s-131.167 95.5 -226.5 95.5
c-91.333 0 -164.666 -32.333 -219.999 -97s-83 -171.667 -83 -321z" />
    <glyph glyph-name="Pi" unicode="&#x3a0;" horiz-adv-x="1706" 
d="M1554 0h-452v1106h-498v-1106h-452v1466h1402v-1466z" />
    <glyph glyph-name="Rho" unicode="&#x3a1;" horiz-adv-x="1479" 
d="M148 1466h753c164 0 286.833 -39 368.5 -117s122.5 -189 122.5 -333c0 -148 -44.5 -263.667 -133.5 -347s-224.833 -125 -407.5 -125h-248v-544h-455v1466zM603 841l111.002 0.000976562c87.333 0 148.666 15.167 183.999 45.5s53 69.166 53 116.499
c0 46 -15.333 85 -46 117s-88.334 48 -173.001 48h-129v-327z" />
    <glyph glyph-name="Sigma" unicode="&#x3a3;" horiz-adv-x="1479" 
d="M1389 0h-1237v317l434 441l-434 405v303h1214v-315h-725l430 -393l-430 -426h748v-332z" />
    <glyph glyph-name="Tau" unicode="&#x3a4;" horiz-adv-x="1479" 
d="M47 1466h1377v-362h-462v-1104h-453v1104h-462v362z" />
    <glyph glyph-name="Upsilon" unicode="&#x3a5;" horiz-adv-x="1593" 
d="M2 1466h503l296 -495l296 495h500l-570 -852v-614h-454v614z" />
    <glyph glyph-name="Phi" unicode="&#x3a6;" horiz-adv-x="1892" 
d="M1153 1354c445.333 -46.667 668 -246.666 668 -599.999c0 -360.667 -222.667 -561.334 -668 -602.001v-172h-412v176c-444.667 38 -667 237.333 -667 598c0 354 222.333 554 667 600v133h412v-133zM1153 459.001c71.333 20.667 126.666 57.5 165.999 110.5
s59 116.5 59 190.5c0 70.667 -20.167 134.167 -60.5 190.5s-95.166 95.833 -164.499 118.5v-610zM741 455.001l-0.000976562 606c-67.333 -19.333 -121.666 -57.5 -162.999 -114.5s-62 -121.833 -62 -194.5c0 -68 20.5 -129 61.5 -183s95.5 -92 163.5 -114z" />
    <glyph glyph-name="Chi" unicode="&#x3a7;" horiz-adv-x="1593" 
d="M49 1466h499l260 -451l252 451h494l-456 -710l499 -756h-509l-289 471l-290 -471h-506l506 764z" />
    <glyph glyph-name="Psi" unicode="&#x3a8;" horiz-adv-x="1937" 
d="M1853 1001c0 -182.667 -54.166 -331 -162.499 -445s-273.833 -171 -496.5 -171v-385h-453v381c-222.667 0 -388.167 57 -496.5 171s-162.5 262.333 -162.5 445v465h453v-485c0 -52.667 3.5 -95.834 10.5 -129.501s25.5 -63.167 55.5 -88.5s76.667 -38 140 -38v745h453
v-741c63.333 0 110.166 12.667 140.499 38s49 54.833 56 88.5s10.5 76.834 10.5 129.501v485h452v-465z" />
    <glyph glyph-name="Omega" unicode="&#x3a9;" horiz-adv-x="1706" 
d="M324 319c-56.667 42 -109.168 111.834 -157.501 209.501s-72.5 195.167 -72.5 292.5c0 206 65.5 369.167 196.5 489.5s317.5 180.5 559.5 180.5c250 0 439.5 -57.667 568.5 -173s193.5 -281 193.5 -497c0 -97.333 -24.167 -194.833 -72.5 -292.5
s-100.833 -167.5 -157.5 -209.5h217v-319h-661v319c147.333 103.333 221 260.666 221 471.999c0 240 -103 360 -309 360c-99.333 0 -174.666 -32 -225.999 -96s-77 -152 -77 -264c0 -198 73.667 -355.333 221 -472v-319h-662v319h218z" />
    <glyph glyph-name="Iotadieresis" unicode="&#x3aa;" horiz-adv-x="797" 
d="M168 1466h454v-1466h-454v1466zM56 1809h260v-250h-260v250zM480 1809h263v-250h-263v250z" />
    <glyph glyph-name="Upsilondieresis" unicode="&#x3ab;" horiz-adv-x="1593" 
d="M2 1466h503l296 -495l296 495h500l-570 -852v-614h-454v614zM454 1809h260v-250h-260v250zM878 1809h263v-250h-263v250z" />
    <glyph glyph-name="alphatonos" unicode="&#x3ac;" horiz-adv-x="1389" 
d="M1352 1063c-48 -84 -82.998 -175.833 -104.998 -275.5s-33 -189.5 -33 -269.5c0 -58 10.167 -137 30.5 -237s51.166 -193.667 92.499 -281h-372c-17.333 34.667 -33 74.334 -47 119.001c-66 -96 -172 -144 -318 -144c-160 0 -287 58.5 -381 175.5
s-141 249.833 -141 398.5c0 156.667 48.5 285.167 145.5 385.5s223.833 150.5 380.5 150.5c128.667 0 236.667 -45.667 324 -137c7.33301 35.333 21.666 73.666 42.999 114.999h381zM653.002 240c53.333 0 92.667 22.832 118 68.499s38 118.834 38 219.501
c0 195.333 -53.333 293 -160 293c-54.667 0 -95 -23.833 -121 -71.5s-39 -121.5 -39 -221.5c0 -192 54.667 -288 164 -288zM909.003 1466l-180 -299h-195l66 299h309z" />
    <glyph glyph-name="epsilontonos" unicode="&#x3ad;" horiz-adv-x="1122" 
d="M1114 104c-109.333 -86 -259.999 -129 -451.999 -129c-184.667 0 -328.834 30.5 -432.501 91.5s-155.5 142.5 -155.5 244.5c0 105.333 62.667 185.333 188 240c-98 47.333 -147 125 -147 233c0 94 48.333 167.667 145 221s232 80 406 80c168 0 303 -25.667 405 -77
l-153 -222c-74 38.667 -154.667 58 -242 58c-105.333 0 -158 -26.667 -158 -80c0 -34.667 17.667 -60.334 53 -77.001s99.666 -25 192.999 -25v-228c-98 0 -169 -9.66699 -213 -29s-66 -50.666 -66 -93.999c0 -62.667 64.333 -94 193 -94
c96.667 0 179.334 27.333 248.001 82zM837.001 1466l-180 -299h-195l66 299h309z" />
    <glyph glyph-name="etatonos" unicode="&#x3ae;" 
d="M1247 -406h-407v990c0 122.667 -48 184 -144 184c-52.667 0 -93.5 -19.5 -122.5 -58.5s-43.5 -105.5 -43.5 -199.5v-510h-407v1061h381v-172h4c91.333 130.667 217.666 196 378.999 196c118.667 0 208.334 -35.167 269.001 -105.5s91 -171.5 91 -303.5v-1082zM917 1466
l-180 -299h-195l66 299h309z" />
    <glyph glyph-name="iotatonos" unicode="&#x3af;" horiz-adv-x="682" 
d="M138 1062h407v-1062h-407v1062zM561 1466l-180 -299h-195l66 299h309z" />
    <glyph glyph-name="upsilondieresistonos" unicode="&#x3b0;" 
d="M1243 430c0 -139.333 -49.668 -250 -149.001 -332s-238.666 -123 -417.999 -123c-176.667 0 -313.667 40.833 -411 122.5s-146 192.5 -146 332.5v631h407v-572c0 -130.667 51.333 -196 154 -196c50 0 88.5 14.667 115.5 44s40.5 80 40.5 152v572h407v-631zM900.999 1819
l-180 -299h-195l66 299h309zM1028 1196h-262v250h262v-250zM603.999 1196h-262v250h262v-250z" />
    <glyph glyph-name="alpha" unicode="&#x3b1;" horiz-adv-x="1389" 
d="M1352 1063c-48 -84 -82.998 -175.833 -104.998 -275.5s-33 -189.5 -33 -269.5c0 -58 10.167 -137 30.5 -237s51.166 -193.667 92.499 -281h-372c-17.333 34.667 -33 74.334 -47 119.001c-66 -96 -172 -144 -318 -144c-160 0 -287 58.5 -381 175.5
s-141 249.833 -141 398.5c0 156.667 48.5 285.167 145.5 385.5s223.833 150.5 380.5 150.5c128.667 0 236.667 -45.667 324 -137c7.33301 35.333 21.666 73.666 42.999 114.999h381zM653.002 240c53.333 0 92.667 22.832 118 68.499s38 118.834 38 219.501
c0 195.333 -53.333 293 -160 293c-54.667 0 -95 -23.833 -121 -71.5s-39 -121.5 -39 -221.5c0 -192 54.667 -288 164 -288z" />
    <glyph glyph-name="beta" unicode="&#x3b2;" horiz-adv-x="1319" 
d="M942 838c86.667 -20 158.168 -69.5 214.501 -148.5s84.5 -168.833 84.5 -269.5c0 -142.667 -37.5 -252.5 -112.5 -329.5s-178.167 -115.5 -309.5 -115.5c-135.333 0 -238.333 41 -309 123v-504h-391v1422c0 154.667 45.833 272.5 137.5 353.5s218.5 121.5 380.5 121.5
c155.333 0 277.166 -32.5 365.499 -97.5s132.5 -157.5 132.5 -277.5c0 -62 -17.667 -117.333 -53 -166s-82 -86 -140 -112zM592.001 891c50.667 8.66699 92.667 30.501 126 65.501s50 77.833 50 128.5c0 100 -42.333 150 -127 150c-42.667 0 -75.167 -17.5 -97.5 -52.5
s-33.5 -83.833 -33.5 -146.5v-639c45.333 -103.333 112.333 -155 201 -155c50 0 89.333 15.167 118 45.5s43 73.166 43 128.499c0 68 -22 126.167 -66 174.5s-115.333 76.833 -214 85.5v215z" />
    <glyph glyph-name="gamma" unicode="&#x3b3;" horiz-adv-x="1251" 
d="M1253 1061l-428 -1008v-459h-407v459l-420 1008h424l203 -672l217 672h411z" />
    <glyph glyph-name="delta" unicode="&#x3b4;" 
d="M655 1182l303 -165.996c108.667 -58.667 191.5 -130.667 248.5 -216s85.5 -179.333 85.5 -282c0 -152.667 -51.833 -281.334 -155.5 -386.001s-255.834 -157 -456.501 -157c-193.333 0 -342.666 51.667 -447.999 155s-158 230.666 -158 381.999
c0 117.333 31.333 221.166 94 311.499s154 155.166 274 194.499l-274 162v284h981v-282h-494zM682 254.004c65.333 0 115.501 22.334 150.501 67.001s52.5 109.667 52.5 195c0 172 -66.333 258 -199 258c-67.333 0 -118.333 -23.833 -153 -71.5s-52 -111.167 -52 -190.5
c0 -82.667 17.167 -146.334 51.5 -191.001s84.166 -67 149.499 -67zM680.001 1086z" />
    <glyph glyph-name="epsilon" unicode="&#x3b5;" horiz-adv-x="1122" 
d="M1114 104c-109.333 -86 -259.999 -129 -451.999 -129c-184.667 0 -328.834 30.5 -432.501 91.5s-155.5 142.5 -155.5 244.5c0 105.333 62.667 185.333 188 240c-98 47.333 -147 125 -147 233c0 94 48.333 167.667 145 221s232 80 406 80c168 0 303 -25.667 405 -77
l-153 -222c-74 38.667 -154.667 58 -242 58c-105.333 0 -158 -26.667 -158 -80c0 -34.667 17.667 -60.334 53 -77.001s99.666 -25 192.999 -25v-228c-98 0 -169 -9.66699 -213 -29s-66 -50.666 -66 -93.999c0 -62.667 64.333 -94 193 -94
c96.667 0 179.334 27.333 248.001 82z" />
    <glyph glyph-name="zeta" unicode="&#x3b6;" horiz-adv-x="942" 
d="M924 1229c-158.667 -172.667 -273.5 -312.833 -344.5 -420.5s-106.5 -210.5 -106.5 -308.5c0 -40 10.167 -76.833 30.5 -110.5s64.166 -66.167 131.499 -97.5s116.833 -58 148.5 -80s58.5 -53.833 80.5 -95.5s33 -96.167 33 -163.5
c0 -110.667 -39.5 -202.167 -118.5 -274.5s-181.5 -108.5 -307.5 -108.5h-113l70 264c113.333 0 170 25.333 170 76c0 21.333 -8.33301 40.333 -25 57s-61.167 36 -133.5 58s-132.666 46.333 -180.999 73s-90.5 70.667 -126.5 132s-54 145 -54 251
c0 106.667 36.333 216 109 328s188.667 237 348 375h-412v282h801v-237z" />
    <glyph glyph-name="eta" unicode="&#x3b7;" 
d="M1247 -406h-407v990c0 122.667 -48 184 -144 184c-52.667 0 -93.5 -19.5 -122.5 -58.5s-43.5 -105.5 -43.5 -199.5v-510h-407v1061h381v-172h4c91.333 130.667 217.666 196 378.999 196c118.667 0 208.334 -35.167 269.001 -105.5s91 -171.5 91 -303.5v-1082z" />
    <glyph glyph-name="theta" unicode="&#x3b8;" 
d="M692 1491c181.333 0 325.001 -64.334 431.001 -193.001s159 -313.667 159 -555c0 -249.333 -50.833 -439.666 -152.5 -570.999s-250.834 -197 -447.501 -197c-192 0 -339.667 66.167 -443 198.5s-155 320.833 -155 565.5c0 501.333 202.667 752 608 752zM870.001 890.999
c-6.66699 110.667 -24.498 191.834 -53.498 243.501s-74.5 77.5 -136.5 77.5c-60.667 0 -105.334 -25.333 -134.001 -76s-45.334 -132.334 -50.001 -245.001h374zM872.003 593.999h-376c5.33301 -118 22.833 -204.167 52.5 -258.5s74.167 -81.5 133.5 -81.5
c118 0 181.333 113.333 190 340z" />
    <glyph glyph-name="iota" unicode="&#x3b9;" horiz-adv-x="682" 
d="M138 1062h407v-1062h-407v1062z" />
    <glyph glyph-name="kappa" unicode="&#x3ba;" 
d="M1358 0h-459l-215 426l-154 -150v-276h-407v1061h407v-352l306 352h499l-379 -371z" />
    <glyph glyph-name="lambda" unicode="&#x3bb;" horiz-adv-x="1251" 
d="M1249 0h-399l-221 662l-203 -662h-430l473 1083l-164 383h393z" />
    <glyph glyph-name="mu" unicode="&#x3bc;" 
d="M1243 0h-382.999v84c-43.333 -72.667 -98 -109 -164 -109c-80.667 0 -137.334 33.667 -170.001 101v-477h-407v1462h407v-533c0 -48 2.83301 -87 8.5 -117s20 -56.833 43 -80.5s58.5 -35.5 106.5 -35.5c50 0 87.833 15.667 113.5 47s38.5 97 38.5 197v522h407v-1061z" />
    <glyph glyph-name="nu" unicode="&#x3bd;" horiz-adv-x="1251" 
d="M2 1062h424l206 -673l213 673h411l-451 -1062h-361z" />
    <glyph glyph-name="xi" unicode="&#x3be;" horiz-adv-x="942" 
d="M829 745c-109.333 -6.66699 -196.001 -35.668 -260.001 -87.001s-96 -120.333 -96 -207c0 -34 9.66699 -65 29 -93s61.833 -56.167 127.5 -84.5s115 -53.166 148 -74.499s61.167 -52.833 84.5 -94.5s35 -96.167 35 -163.5c0 -109.333 -39.167 -198.5 -117.5 -267.5
s-181.166 -103.5 -308.499 -103.5h-113l70 264c51.333 0 91.5 7 120.5 21s43.5 32.333 43.5 55c0 20 -8.33301 37.667 -25 53s-60.667 32.833 -132 52.5s-131 41.5 -179 65.5s-89.667 63.667 -125 119s-53 131.333 -53 228c0 106 31.5 195 94.5 267
s148.833 119.667 257.5 143c-93.333 20.667 -164.833 58 -214.5 112s-74.5 120.333 -74.5 199c0 104 45 185.667 135 245s220 89 390 89h161v-271c-52.667 3.33301 -97 5 -133 5c-134.667 0 -202 -37 -202 -111c0 -34.667 20.833 -62.5 62.5 -83.5s97.167 -31.5 166.5 -31.5
h108v-246z" />
    <glyph glyph-name="omicron" unicode="&#x3bf;" 
d="M73 528c0 162 54.665 295.498 163.998 400.498s257 157.5 443 157.5c212.667 0 373.334 -61.667 482.001 -185c87.333 -99.333 131 -221.666 131 -366.999c0 -163.333 -54.167 -297.166 -162.5 -401.499s-258.166 -156.5 -449.499 -156.5
c-170.667 0 -308.667 43.333 -414 130c-129.333 107.333 -194 248 -194 422zM480.998 528.998c0 -94.667 19.166 -164.668 57.499 -210.001s86.5 -68 144.5 -68c58.667 0 106.834 22.333 144.501 67s56.5 116.334 56.5 215.001c0 92 -19 160.5 -57 205.5s-85 67.5 -141 67.5
c-59.333 0 -108.333 -22.833 -147 -68.5s-58 -115.167 -58 -208.5z" />
    <glyph glyph-name="pi" unicode="&#x3c0;" horiz-adv-x="1448" 
d="M1430 764h-134v-764h-407v764h-309v-764h-408v764h-152v297h1410v-297z" />
    <glyph glyph-name="rho" unicode="&#x3c1;" 
d="M125 -406l0.000976562 917.999c0 174.667 52.167 313.834 156.5 417.501s246.166 155.5 425.499 155.5c181.333 0 323.833 -52.333 427.5 -157s155.5 -242.667 155.5 -414c0 -164 -40.333 -294.833 -121 -392.5s-189.667 -146.5 -327 -146.5c-136 0 -239.333 39 -310 117
v-498h-407zM717.001 275.999c53.333 0 94.332 22.333 122.999 67s43 104.334 43 179.001c0 174.667 -57.333 262 -172 262c-57.333 0 -102.166 -21.833 -134.499 -65.5s-48.5 -107.834 -48.5 -192.501c0 -71.333 16 -130.833 48 -178.5s79 -71.5 141 -71.5z" />
    <glyph glyph-name="sigma1" unicode="&#x3c2;" horiz-adv-x="1081" 
d="M1069 1044l-85.999 -294.001c-95.333 22.667 -169.666 34 -222.999 34c-79.333 0 -147 -26.5 -203 -79.5s-84 -118.5 -84 -196.5c0 -32.667 14.333 -65 43 -97s106.834 -79.333 234.501 -142s211 -118.334 250 -167.001s58.5 -99.667 58.5 -153
c0 -120 -45.333 -213.167 -136 -279.5s-215.334 -99.5 -374.001 -99.5c-54.667 0 -126.334 2.66699 -215.001 8l51 266c64 -6.66699 114 -10 150 -10c108.667 0 163 22.667 163 68c0 22.667 -11.5 44.667 -34.5 66s-79.5 49.833 -169.5 85.5s-162 68.5 -216 98.5
s-100.833 71.333 -140.5 124s-59.5 118.334 -59.5 197.001c0 178.667 64 325.334 192 440.001s294 172 498 172c113.333 0 213.666 -13.667 300.999 -41z" />
    <glyph glyph-name="sigma" unicode="&#x3c3;" horiz-adv-x="1532" 
d="M1487 764h-239.997c30 -72 45 -148.333 45 -229c0 -155.333 -51.833 -287.5 -155.5 -396.5s-255.834 -163.5 -456.501 -163.5c-192.667 0 -341.834 53.833 -447.501 161.5s-158.5 238.167 -158.5 391.5c0 158.667 53.167 291.167 159.5 397.5
s255.166 159.5 446.499 159.5c45.333 0 94 -4 146 -12l65 -12h596v-297zM682.003 254c65.333 0 115.501 24.001 150.501 72.001s52.5 116.667 52.5 206c0 88.667 -18 156.667 -54 204s-84.333 71 -145 71c-67.333 0 -118.333 -25.833 -153 -77.5s-52 -118.834 -52 -201.501
c0 -86 17.167 -153.167 51.5 -201.5s84.166 -72.5 149.499 -72.5z" />
    <glyph glyph-name="tau" unicode="&#x3c4;" horiz-adv-x="1040" 
d="M1018 764h-295v-764h-408v764h-295v297h998v-297z" />
    <glyph glyph-name="upsilon" unicode="&#x3c5;" 
d="M1243 430c0 -139.333 -49.668 -250 -149.001 -332s-238.666 -123 -417.999 -123c-176.667 0 -313.667 40.833 -411 122.5s-146 192.5 -146 332.5v631h407v-572c0 -130.667 51.333 -196 154 -196c50 0 88.5 14.667 115.5 44s40.5 80 40.5 152v572h407v-631z" />
    <glyph glyph-name="phi" unicode="&#x3c6;" horiz-adv-x="1819" 
d="M700 281l-0.000976562 345.998c0 172 36.167 291.333 108.5 358s187.833 100 346.5 100c185.333 0 328.333 -48 429 -144s151 -234.333 151 -415c0 -155.333 -58.333 -283.666 -175 -384.999s-272.667 -156 -468 -164v-383h-392v386
c-185.333 8.66699 -336.333 63.334 -453 164.001s-175 228 -175 382c0 173.333 47.167 306.5 141.5 399.5s247.833 146.167 460.5 159.5l-64 -301c-42 -9.33301 -77 -35 -105 -77s-42 -93.333 -42 -154c0 -78 22.833 -141 68.5 -189s101.834 -75.667 168.501 -83z
M1092 275.998c72 9.33301 131.832 36 179.499 80s71.5 100.667 71.5 170c0 80 -14.667 143 -44 189s-63.666 69 -102.999 69c-37.333 0 -64 -15 -80 -45s-24 -76.333 -24 -139v-324z" />
    <glyph glyph-name="chi" unicode="&#x3c7;" horiz-adv-x="1327" 
d="M1313 -406h-445l-200 523l-244 -523h-410l379 766l-358 701h448l181 -488l202 488h420l-354 -701z" />
    <glyph glyph-name="psi" unicode="&#x3c8;" horiz-adv-x="1876" 
d="M1757 596c0 -198 -51.667 -350.167 -155 -456.5s-256.333 -159.5 -459 -159.5v-386h-408v383c-203.333 0 -356.833 53.167 -460.5 159.5s-155.5 259.5 -155.5 459.5v465h407v-486c0 -188 69.667 -282 209 -282v768h408v-768c138 0 207 94 207 282v486h407v-465z" />
    <glyph glyph-name="omega" unicode="&#x3c9;" horiz-adv-x="1937" 
d="M1743 1061c82 -149.333 123.001 -317.999 123.001 -505.999c0 -176 -46 -316.667 -138 -422s-218 -158 -378 -158c-80.667 0 -157.667 21.167 -231 63.5s-124 99.166 -152 170.499c-26.667 -72 -75 -129 -145 -171s-148 -63 -234 -63c-160 0 -286 52.667 -378 158
s-138 246 -138 422c0 188 41 356.667 123 506h409c-24 -61.333 -46.667 -143.5 -68 -246.5s-32 -192.167 -32 -267.5c0 -168 48.333 -252 145 -252c28 0 54.5 18.833 79.5 56.5s37.5 86.5 37.5 146.5v336h408v-336c0 -60 12.167 -108.833 36.5 -146.5
s50.166 -56.5 77.499 -56.5c97.333 0 146 84 146 252c0 75.333 -10.667 164.5 -32 267.5s-44.333 185.167 -69 246.5h410z" />
    <glyph glyph-name="iotadieresis" unicode="&#x3ca;" horiz-adv-x="682" 
d="M138 1062h407v-1062h-407v1062zM-2 1446h260v-250h-260v250zM422 1446h263v-250h-263v250z" />
    <glyph glyph-name="upsilondieresis" unicode="&#x3cb;" 
d="M1243 430c0 -139.333 -49.668 -250 -149.001 -332s-238.666 -123 -417.999 -123c-176.667 0 -313.667 40.833 -411 122.5s-146 192.5 -146 332.5v631h407v-572c0 -130.667 51.333 -196 154 -196c50 0 88.5 14.667 115.5 44s40.5 80 40.5 152v572h407v-631zM341.999 1446
h260v-250h-260v250zM765.999 1446h263v-250h-263v250z" />
    <glyph glyph-name="omicrontonos" unicode="&#x3cc;" 
d="M73 528c0 162 54.665 295.498 163.998 400.498s257 157.5 443 157.5c212.667 0 373.334 -61.667 482.001 -185c87.333 -99.333 131 -221.666 131 -366.999c0 -163.333 -54.167 -297.166 -162.5 -401.499s-258.166 -156.5 -449.499 -156.5
c-170.667 0 -308.667 43.333 -414 130c-129.333 107.333 -194 248 -194 422zM480.998 528.998c0 -94.667 19.166 -164.668 57.499 -210.001s86.5 -68 144.5 -68c58.667 0 106.834 22.333 144.501 67s56.5 116.334 56.5 215.001c0 92 -19 160.5 -57 205.5s-85 67.5 -141 67.5
c-59.333 0 -108.333 -22.833 -147 -68.5s-58 -115.167 -58 -208.5zM920.997 1466l-180 -299h-195l66 299h309z" />
    <glyph glyph-name="upsilontonos" unicode="&#x3cd;" 
d="M1243 430c0 -139.333 -49.668 -250 -149.001 -332s-238.666 -123 -417.999 -123c-176.667 0 -313.667 40.833 -411 122.5s-146 192.5 -146 332.5v631h407v-572c0 -130.667 51.333 -196 154 -196c50 0 88.5 14.667 115.5 44s40.5 80 40.5 152v572h407v-631zM924.999 1466
l-180 -299h-195l66 299h309z" />
    <glyph glyph-name="omegatonos" unicode="&#x3ce;" horiz-adv-x="1937" 
d="M1743 1061c82 -149.333 123.001 -317.999 123.001 -505.999c0 -176 -46 -316.667 -138 -422s-218 -158 -378 -158c-80.667 0 -157.667 21.167 -231 63.5s-124 99.166 -152 170.499c-26.667 -72 -75 -129 -145 -171s-148 -63 -234 -63c-160 0 -286 52.667 -378 158
s-138 246 -138 422c0 188 41 356.667 123 506h409c-24 -61.333 -46.667 -143.5 -68 -246.5s-32 -192.167 -32 -267.5c0 -168 48.333 -252 145 -252c28 0 54.5 18.833 79.5 56.5s37.5 86.5 37.5 146.5v336h408v-336c0 -60 12.167 -108.833 36.5 -146.5
s50.166 -56.5 77.499 -56.5c97.333 0 146 84 146 252c0 75.333 -10.667 164.5 -32 267.5s-44.333 185.167 -69 246.5h410zM1193 1466l-180 -299h-195l66 299h309z" />
    <glyph glyph-name="afii10023" unicode="&#x401;" horiz-adv-x="1479" 
d="M149 1466h1214v-313h-760v-233h705v-299h-705v-289h782v-332h-1236v1466zM397 1809h260v-250h-260v250zM821 1809h263v-250h-263v250z" />
    <glyph glyph-name="afii10051" unicode="&#x402;" horiz-adv-x="2056" 
d="M967 901c133.333 48 254.666 72 363.999 72c209.333 0 369.166 -43.667 479.499 -131s165.5 -212.333 165.5 -375c0 -155.333 -53.833 -274 -161.5 -356s-264.834 -123 -471.501 -123c-38 0 -95.333 5.33301 -172 16l62 309c48 -9.33301 84.667 -14 110 -14
c50.667 0 93.834 13.5 129.501 40.5s53.5 64.167 53.5 111.5c0 50 -20.667 88.333 -62 115s-96.666 40 -165.999 40c-101.333 0 -211.666 -24.667 -330.999 -74v-532h-453v1106h-461v360h1374v-360h-460v-205z" />
    <glyph glyph-name="afii10052" unicode="&#x403;" 
d="M1311 1106h-709v-1106h-452v1466h1161v-360zM663 1875h350l-323 -299h-195z" />
    <glyph glyph-name="afii10053" unicode="&#x404;" horiz-adv-x="1630" 
d="M1565 426c-45.333 -133.333 -124.834 -241.832 -238.501 -325.499s-276.5 -125.5 -488.5 -125.5c-235.333 0 -418.166 66.167 -548.499 198.5s-195.5 322.166 -195.5 569.499c0 237.333 65.833 421.333 197.5 552s319.834 196 564.501 196
c329.333 0 554.666 -123 675.999 -369l-408 -155c-44.667 122.667 -134 184 -268 184c-172 0 -272.333 -94.333 -301 -283h444v-272h-442c24.667 -187.333 123.667 -281 297 -281c148.667 0 243.667 75.333 285 226z" />
    </font>
</defs>
</svg>
