<?xml version="1.0" standalone="no"?>
<!DOCTYPE svg PUBLIC "-//W3C//DTD SVG 1.1//EN" "http://www.w3.org/Graphics/SVG/1.1/DTD/svg11.dtd" >
<svg xmlns="http://www.w3.org/2000/svg">
<metadata></metadata>
<defs>
<font id="swis721_btbold" horiz-adv-x="1024" >
<font-face units-per-em="2048" ascent="1556" descent="-492" />
<missing-glyph horiz-adv-x="582" />
<glyph horiz-adv-x="2048" />
<glyph horiz-adv-x="2048" />
<glyph unicode="&#xd;" horiz-adv-x="582" />
<glyph unicode=" "  horiz-adv-x="582" />
<glyph unicode="&#x09;" horiz-adv-x="582" />
<glyph unicode="&#xa0;" horiz-adv-x="582" />
<glyph unicode="!" horiz-adv-x="676" d="M184 1073v400h308v-400l-78 -663h-152zM188 0v295h297v-295h-297z" />
<glyph unicode="&#x22;" horiz-adv-x="678" d="M80 879v559h192v-559h-192zM406 879v559h192v-559h-192z" />
<glyph unicode="#" horiz-adv-x="1575" d="M45 406l76 200h282l86 242h-299l74 201h297l148 415h221l-146 -415h242l148 415h221l-148 -415h283l-74 -201h-280l-84 -242h290l-71 -200h-291l-148 -416h-221l148 416h-244l-149 -416h-220l146 416h-287zM621 604h251l86 244h-249z" />
<glyph unicode="$" horiz-adv-x="1161" d="M72 436h268q5 -108 50.5 -170.5t131.5 -79.5v414q-232 59 -330 154t-98 260q0 183 116.5 295t311.5 117v128h119v-128q195 -10 304 -117.5t120 -302.5h-272q-7 93 -44.5 142.5t-107.5 55.5v-364q247 -77 348 -176t101 -261q0 -191 -117.5 -305t-331.5 -133v-190h-119v192 q-226 14 -338 131t-112 338zM362 1040q0 -61 38.5 -102t121.5 -68v340q-78 -10 -119 -53.5t-41 -116.5zM641 186q82 11 125 59t43 128q0 71 -40.5 117.5t-127.5 72.5v-377z" />
<glyph unicode="%" horiz-adv-x="1761" d="M66 1059q0 156 108 264.5t264 108.5q154 0 262.5 -109.5t108.5 -263.5t-108.5 -262.5t-262.5 -108.5q-157 0 -264.5 107t-107.5 264zM283 1059q0 -66 44.5 -111t110.5 -45q65 0 110.5 45.5t45.5 110.5q0 64 -45.5 109.5t-110.5 45.5q-66 0 -110.5 -44.5t-44.5 -110.5z M371 -41l854 1473h161l-854 -1473h-161zM952 332q0 156 108 263t265 107q154 0 262.5 -108.5t108.5 -261.5q0 -154 -109 -263.5t-262 -109.5q-157 0 -265 108t-108 265zM1169 332q0 -67 45 -112.5t111 -45.5q64 0 110 46.5t46 111.5q0 64 -45.5 109.5t-110.5 45.5 q-66 0 -111 -44.5t-45 -110.5z" />
<glyph unicode="&#x26;" horiz-adv-x="1436" d="M96 389q0 140 72 241t240 195l-58 76q-45 60 -64.5 112.5t-19.5 110.5q0 160 102.5 254.5t278.5 94.5q169 0 267 -87t98 -235q0 -112 -57.5 -200.5t-180.5 -166.5l211 -260q30 49 47.5 110t24.5 136h260q-11 -130 -54 -241t-118 -203l268 -326h-340l-100 123 q-88 -81 -193.5 -122.5t-220.5 -41.5q-204 0 -333.5 121t-129.5 309zM385 410q0 -85 58 -143t145 -58q64 0 122.5 26.5t108.5 77.5l-266 330l-76 -55q-46 -32 -69 -77t-23 -101zM526 1149q0 -28 15.5 -61t44.5 -70l47 -60l35 25q48 33 71 74t23 94q0 51 -31.5 81t-85.5 30 q-55 0 -87 -30.5t-32 -82.5z" />
<glyph unicode="'" horiz-adv-x="352" d="M80 879v559h192v-559h-192z" />
<glyph unicode="(" horiz-adv-x="758" d="M172 522q0 228 90.5 470t265.5 481h211q-138 -226 -205 -460t-67 -491q0 -256 67 -490t205 -460h-211q-175 239 -265.5 480.5t-90.5 469.5z" />
<glyph unicode=")" horiz-adv-x="758" d="M23 -428q139 227 206.5 461.5t67.5 488.5q0 255 -67.5 489t-206.5 462h213q174 -238 264 -479.5t90 -471.5q0 -229 -90 -471t-264 -479h-213z" />
<glyph unicode="*" d="M78 1079l65 203l269 -96v287h198v-287l269 94l67 -203l-280 -76l190 -239l-174 -125l-170 252l-176 -248l-170 119l192 241z" />
<glyph unicode="+" horiz-adv-x="1706" d="M254 512v199h498v510h202v-510h498v-199h-498v-512h-202v512h-498z" />
<glyph unicode="," horiz-adv-x="582" d="M139 0v301h303v-289q0 -149 -76.5 -240t-226.5 -118v117q84 24 124 74t40 130v25h-164z" />
<glyph unicode="-" horiz-adv-x="684" d="M61 408v274h562v-274h-562z" />
<glyph unicode="." horiz-adv-x="582" d="M139 0v301h301v-301h-301z" />
<glyph unicode="/" horiz-adv-x="649" d="M8 -190l496 1701h137l-498 -1701h-135z" />
<glyph unicode="0" horiz-adv-x="1161" d="M63 696q0 369 128.5 552.5t388.5 183.5q259 0 388.5 -184.5t129.5 -553.5t-128.5 -551t-389.5 -182q-260 0 -388.5 183t-128.5 552zM360 696q0 -261 52.5 -379t167.5 -118t168 119t53 378q0 260 -53 378t-168 118t-167.5 -117.5t-52.5 -378.5z" />
<glyph unicode="1" horiz-adv-x="1161" d="M162 979v201h22q187 0 272.5 58t100.5 194h229v-1432h-282v979h-342z" />
<glyph unicode="2" horiz-adv-x="1161" d="M48 0q2 192 82 325.5t284 270.5q31 21 90 58q270 173 270 333q0 95 -57 150t-156 55q-108 0 -166.5 -67.5t-58.5 -192.5v-12h-264q0 246 132 379t376 133q221 0 353 -120.5t132 -320.5q0 -143 -69 -248t-267 -239q-42 -29 -116 -76q-188 -121 -212 -184h650v-244h-1003z " />
<glyph unicode="3" horiz-adv-x="1161" d="M57 430v6h275q1 -120 58 -180.5t169 -60.5q108 0 166.5 56.5t58.5 162.5t-68.5 160.5t-203.5 54.5q-7 0 -21.5 -1t-21.5 -1v198h31q124 0 183.5 48.5t59.5 148.5q0 83 -50.5 131.5t-137.5 48.5q-95 0 -147 -56t-52 -159v-12h-270q5 220 129.5 337.5t351.5 117.5 q215 0 341 -105t126 -283q0 -94 -43 -165t-129 -117q110 -48 166.5 -132.5t56.5 -201.5q0 -215 -141 -341t-385 -126q-241 0 -371.5 122.5t-130.5 348.5z" />
<glyph unicode="4" horiz-adv-x="1161" d="M47 309v252l528 830h355v-854h166v-228h-166v-309h-279v309h-604zM268 530h389v613z" />
<glyph unicode="5" horiz-adv-x="1161" d="M52 385h280q7 -94 63 -145.5t150 -51.5q116 0 177.5 68t61.5 195q0 119 -63 187.5t-174 68.5q-62 0 -109 -25t-80 -74l-258 15l93 768h823v-242h-621l-37 -287q47 37 108 55.5t136 18.5q214 0 345.5 -130t131.5 -341q0 -231 -145 -368.5t-389 -137.5q-222 0 -353.5 113.5 t-139.5 312.5z" />
<glyph unicode="6" horiz-adv-x="1161" d="M66 664q0 373 145 570.5t418 197.5q190 0 306.5 -99t127.5 -268h-290q-10 69 -54 104t-123 35q-108 0 -166 -93.5t-65 -281.5q49 50 118 75.5t154 25.5q210 0 336.5 -128t126.5 -341q0 -226 -138 -365t-364 -139q-261 0 -396.5 180t-135.5 527zM369 455q0 -123 61.5 -195 t167.5 -72q99 0 155 70t56 195q0 115 -58 179t-163 64q-103 0 -161 -64t-58 -177z" />
<glyph unicode="7" horiz-adv-x="1161" d="M66 1147v244h1015v-215q-236 -260 -362.5 -550t-149.5 -626h-299q16 293 141.5 581t358.5 566h-704z" />
<glyph unicode="8" horiz-adv-x="1161" d="M66 406q0 123 50.5 206.5t159.5 139.5q-90 50 -130 117t-40 171q0 184 126 289t348 105q224 0 350.5 -104.5t126.5 -289.5q0 -99 -43 -171.5t-129 -116.5q105 -49 158 -135.5t53 -210.5q0 -209 -137.5 -328t-378.5 -119q-244 0 -379 118t-135 329zM356 416 q0 -105 58.5 -162t167.5 -57q104 0 163.5 58t59.5 161q0 99 -61 159t-162 60t-163.5 -61t-62.5 -158zM379 1030q0 -83 52 -127.5t149 -44.5t149.5 45t52.5 127q0 80 -54 126t-148 46q-92 0 -146.5 -47t-54.5 -125z" />
<glyph unicode="9" horiz-adv-x="1161" d="M55 928q0 226 138 365t364 139q262 0 398.5 -180.5t136.5 -526.5q0 -372 -146 -570t-420 -198q-189 0 -305 98.5t-127 268.5l289 -1q10 -69 54 -103t124 -34q108 0 165 94t65 281q-50 -50 -118 -75t-153 -25q-211 0 -338 127t-127 340zM346 938q0 -116 58 -181t163 -65 q103 0 161 64t58 178q0 123 -61.5 194.5t-167.5 71.5q-100 0 -155.5 -69t-55.5 -193z" />
<glyph unicode=":" horiz-adv-x="629" d="M162 0v301h303v-301h-303zM162 766v303h303v-303h-303z" />
<glyph unicode=";" horiz-adv-x="629" d="M162 0v301h303v-289q0 -150 -76 -240.5t-225 -117.5v117q84 24 124 74t40 130v25h-166zM164 766v303h301v-303h-301z" />
<glyph unicode="&#x3c;" horiz-adv-x="1706" d="M264 512v199l1178 483v-219l-893 -365l893 -364v-219z" />
<glyph unicode="=" horiz-adv-x="1706" d="M254 297v199h1198v-199h-1198zM254 727v199h1198v-199h-1198z" />
<glyph unicode="&#x3e;" horiz-adv-x="1706" d="M264 27v219l895 364l-895 365v219l1178 -483v-199z" />
<glyph unicode="?" horiz-adv-x="1143" d="M72 1018v31q0 211 133.5 336.5t359.5 125.5q231 0 367.5 -118.5t136.5 -317.5q0 -70 -15.5 -125.5t-47.5 -101.5q-41 -58 -126.5 -125.5t-103.5 -83.5q-38 -37 -54.5 -78t-16.5 -98q0 -5 1 -17t1 -18h-269q0 11 -1 29.5t-1 27.5q0 88 19 146.5t61 109.5q32 38 95.5 87 t82.5 71q40 45 55 81t15 79q0 95 -53 148t-148 53t-149.5 -63.5t-59.5 -178.5h-282zM424 0v293h295v-293h-295z" />
<glyph unicode="@" horiz-adv-x="2048" d="M90 520q0 167 52.5 318.5t154.5 275.5q148 181 356 274t463 93q169 0 317.5 -45.5t258.5 -128.5q135 -105 201.5 -239.5t66.5 -303.5q0 -165 -65.5 -304.5t-188.5 -238.5q-70 -56 -152.5 -85.5t-171.5 -29.5q-106 0 -159.5 42t-55.5 124q-55 -84 -127 -123.5t-170 -39.5 q-158 0 -240.5 86t-82.5 254q0 239 139.5 401t343.5 162q80 0 139 -33t97 -98l53 98h178l-147 -598q-3 -11 -5 -22.5t-2 -18.5q0 -35 24 -52.5t71 -17.5q39 0 81.5 20t79.5 56q86 80 130.5 187t44.5 235q0 240 -185.5 394.5t-478.5 154.5q-141 0 -262.5 -34t-220.5 -101 q-170 -114 -261.5 -285t-91.5 -375q0 -307 207 -490.5t553 -183.5q162 0 316.5 49t287.5 142l82 -117q-153 -115 -324.5 -173t-357.5 -58q-192 0 -353 48.5t-286 143.5q-155 121 -232 279t-77 358zM760 444q0 -92 40.5 -140t117.5 -48q83 0 151.5 63t93.5 164l54 217 q-13 81 -57.5 123.5t-117.5 42.5q-114 0 -198 -124t-84 -298z" />
<glyph unicode="A" horiz-adv-x="1405" d="M0 0l524 1473h350l531 -1473h-318l-100 303h-571l-97 -303h-319zM496 551h409l-205 627z" />
<glyph unicode="B" horiz-adv-x="1442" d="M152 0v1473h694q226 0 344.5 -95.5t118.5 -277.5q0 -112 -44 -187t-132 -116q114 -46 170.5 -132.5t56.5 -215.5q0 -215 -140 -332t-397 -117h-671zM442 266h359q127 0 185 46t58 145q0 103 -57 148.5t-188 45.5h-357v-385zM442 903h346q112 0 164 38.5t52 121.5 q0 81 -50.5 117.5t-167.5 36.5h-344v-314z" />
<glyph unicode="C" horiz-adv-x="1524" d="M90 735q0 376 185 576t532 200q282 0 445.5 -137.5t179.5 -388.5h-299q-19 125 -102 190.5t-224 65.5q-200 0 -304 -129t-104 -377q0 -240 103.5 -371t294.5 -131q138 0 226 70.5t114 202.5h297q-17 -251 -193.5 -399t-460.5 -148q-327 0 -508.5 204t-181.5 572z" />
<glyph unicode="D" horiz-adv-x="1489" d="M152 0v1473h577q339 0 505.5 -183t166.5 -555q0 -202 -61.5 -356t-178.5 -248q-88 -70 -200 -100.5t-314 -30.5h-495zM449 266h243q211 0 305.5 110.5t94.5 358.5q0 247 -88 363t-275 116h-280v-948z" />
<glyph unicode="E" horiz-adv-x="1337" d="M152 0v1473h1069v-256h-770v-314h704v-252h-704v-379h806v-272h-1105z" />
<glyph unicode="F" horiz-adv-x="1225" d="M152 0v1473h1028v-256h-729v-334h639v-256h-639v-627h-299z" />
<glyph unicode="G" horiz-adv-x="1591" d="M88 737q0 352 191 563t509 211q277 0 452 -132.5t208 -364.5h-309q-28 115 -114.5 175t-225.5 60q-185 0 -290.5 -135.5t-105.5 -374.5q0 -240 110 -376t302 -136q144 0 241 85t120 233h-334v252h610v-797h-203l-37 174q-82 -111 -186.5 -163t-245.5 -52 q-309 0 -500.5 214.5t-191.5 563.5z" />
<glyph unicode="H" horiz-adv-x="1522" d="M152 0v1473h305v-549h608v549h305v-1473h-305v653h-608v-653h-305z" />
<glyph unicode="I" horiz-adv-x="629" d="M162 0v1473h303v-1473h-303z" />
<glyph unicode="J" horiz-adv-x="1133" d="M49 434v115h293v-178q0 -77 46 -117.5t132 -40.5q94 0 131 49t37 184v1027h303v-1041q0 -140 -16.5 -205.5t-54.5 -115.5q-58 -74 -159 -113t-237 -39q-125 0 -221 34t-160 101q-51 54 -72.5 120.5t-21.5 219.5z" />
<glyph unicode="K" horiz-adv-x="1440" d="M152 0v1473h303v-605l575 605h379l-588 -596l641 -877h-370l-480 674l-157 -156v-518h-303z" />
<glyph unicode="L" horiz-adv-x="1188" d="M152 0v1473h303v-1201h719v-272h-1022z" />
<glyph unicode="M" horiz-adv-x="1786" d="M152 0v1473h448l293 -1121l289 1121h450v-1473h-284v1188l-299 -1188h-310l-303 1188v-1188h-284z" />
<glyph unicode="N" horiz-adv-x="1518" d="M152 0v1473h317l598 -1012v1012h299v-1473h-313l-602 1012v-1012h-299z" />
<glyph unicode="O" horiz-adv-x="1616" d="M88 735q0 357 194.5 566.5t524.5 209.5t525.5 -210t195.5 -566t-195.5 -566t-525.5 -210t-524.5 210t-194.5 566zM397 735q0 -243 108 -377.5t302 -134.5q196 0 305 134.5t109 377.5t-109 377.5t-305 134.5q-194 0 -302 -134t-108 -378z" />
<glyph unicode="P" horiz-adv-x="1366" d="M152 0v1473h655q232 0 351.5 -120.5t119.5 -353.5q0 -228 -117 -351.5t-334 -123.5h-372v-524h-303zM457 791h293q119 0 173 50.5t54 162.5q0 105 -53 159t-158 54h-309v-426z" />
<glyph unicode="Q" horiz-adv-x="1616" d="M88 735q0 357 194.5 566.5t524.5 209.5t525.5 -210t195.5 -566q0 -156 -40 -285.5t-118 -226.5l160 -153l-164 -172l-168 163q-75 -50 -174.5 -76t-216.5 -26q-330 0 -524.5 210t-194.5 566zM397 735q0 -243 108 -377.5t302 -134.5q50 0 94.5 10t83.5 29l-156 152 l166 172l160 -156q32 60 49 137t17 168q0 243 -109 377.5t-305 134.5q-194 0 -302 -134t-108 -378z" />
<glyph unicode="R" horiz-adv-x="1462" d="M152 0v1473h714q241 0 357 -103t116 -315q0 -135 -56.5 -225t-162.5 -123q96 -34 136.5 -104t46.5 -218l6 -174v-6q3 -132 57 -160v-45h-332q-16 31 -24.5 76.5t-10.5 108.5l-4 155q-5 137 -51.5 185t-167.5 48h-321v-573h-303zM455 829h356q116 0 170.5 47t54.5 148 q0 96 -53 145.5t-158 49.5h-370v-390z" />
<glyph unicode="S" horiz-adv-x="1366" d="M84 455h299q17 -121 99 -179.5t237 -58.5q132 0 199 47t67 139q0 134 -385 222l-9 2q-10 2 -31 7q-206 45 -294 101q-78 50 -119 134.5t-41 199.5q0 215 146 329.5t422 114.5q258 0 403.5 -122t153.5 -344h-291q-8 107 -82 163t-211 56q-119 0 -183.5 -46.5t-64.5 -132.5 q0 -117 251 -175q68 -16 106 -25q161 -41 228.5 -64t117.5 -51q90 -50 135 -132.5t45 -197.5q0 -230 -155 -356.5t-437 -126.5q-278 0 -436 129t-170 367z" />
<glyph unicode="T" horiz-adv-x="1217" d="M20 1210v263h1174v-263h-434v-1210h-303v1210h-437z" />
<glyph unicode="U" horiz-adv-x="1468" d="M143 520v957h306v-924q0 -171 68 -249.5t216 -78.5q150 0 218.5 78t68.5 250v924h303v-957q0 -271 -151.5 -416t-436.5 -145q-287 0 -439.5 144.5t-152.5 416.5z" />
<glyph unicode="V" horiz-adv-x="1280" d="M-10 1473h336l313 -1102l319 1102h332l-502 -1473h-290z" />
<glyph unicode="W" horiz-adv-x="1913" d="M16 1473h314l252 -1039l213 1039h323l213 -1039l252 1039h311l-421 -1473h-289l-228 1128l-229 -1128h-289z" />
<glyph unicode="X" horiz-adv-x="1282" d="M-10 0l463 752l-463 721h350l301 -515l299 515h352l-463 -719l463 -754h-350l-301 510l-301 -510h-350z" />
<glyph unicode="Y" horiz-adv-x="1274" d="M-27 1473h371l315 -635l291 635h346l-485 -924v-549h-303v549z" />
<glyph unicode="Z" horiz-adv-x="1231" d="M37 0v256l801 950h-785v267h1153v-256l-803 -951h785v-266h-1151z" />
<glyph unicode="[" horiz-adv-x="782" d="M238 -436v1909h505v-213h-235v-1483h235v-213h-505z" />
<glyph unicode="\" horiz-adv-x="649" d="M8 1511h135l498 -1701h-137z" />
<glyph unicode="]" horiz-adv-x="782" d="M51 -223h236v1483h-236v213h506v-1909h-506v213z" />
<glyph unicode="^" horiz-adv-x="2048" d="M416 899l481 561h252l481 -561h-235l-371 371l-373 -371h-235z" />
<glyph unicode="_" d="M0 -279h1024v-204h-1024v204z" />
<glyph unicode="`" d="M219 1587h258l197 -370h-142z" />
<glyph unicode="a" horiz-adv-x="1151" d="M70 307q0 154 85.5 235t282.5 111q45 7 118 16q185 24 185 107q0 66 -41 94.5t-137 28.5q-88 0 -135 -35t-47 -100v-16h-272v20q0 167 118 262.5t326 95.5q228 0 349.5 -79t121.5 -228v-618q0 -68 14 -101.5t47 -50.5v-49h-303q-15 28 -23 62t-9 73q-55 -85 -144 -129.5 t-207 -44.5q-158 0 -243.5 90t-85.5 256zM348 315q0 -60 39 -95.5t105 -35.5q118 0 185.5 66.5t67.5 181.5v103q-71 -33 -163.5 -53t-95.5 -21q-77 -22 -107.5 -55t-30.5 -91z" />
<glyph unicode="b" horiz-adv-x="1255" d="M133 0v1473h283v-521q54 85 135.5 128.5t185.5 43.5q197 0 322 -162.5t125 -422.5q0 -258 -125 -417t-326 -159q-105 0 -182.5 44t-140.5 140v-147h-277zM416 551q0 -166 60.5 -252t176.5 -86q118 0 180 86.5t62 251.5q0 150 -63 235.5t-173 85.5q-116 0 -179.5 -83.5 t-63.5 -237.5z" />
<glyph unicode="c" horiz-adv-x="1128" d="M72 545q0 272 137.5 426.5t378.5 154.5q211 0 338.5 -112t142.5 -312h-289q-12 87 -61 133t-129 46q-108 0 -161.5 -85t-53.5 -255q0 -157 55.5 -241.5t159.5 -84.5q81 0 130 49t64 146h287q-18 -207 -151 -327t-342 -120q-237 0 -371.5 154.5t-134.5 427.5z" />
<glyph unicode="d" horiz-adv-x="1260" d="M74 539q0 260 124.5 422.5t321.5 162.5q105 0 187.5 -44t136.5 -128v521h282v-1473h-276v147q-63 -95 -141.5 -139.5t-184.5 -44.5q-201 0 -325.5 159t-124.5 417zM365 551q0 -165 62 -251.5t179 -86.5q116 0 177 86t61 252q0 154 -64 237.5t-180 83.5q-109 0 -172 -85.5 t-63 -235.5z" />
<glyph unicode="e" horiz-adv-x="1167" d="M72 551q0 267 136 421t372 154q250 0 386 -151.5t136 -431.5q0 -31 -0.5 -46.5t-2.5 -29.5h-726q6 -128 62.5 -193t162.5 -65q75 0 123 29.5t76 91.5h290q-44 -172 -177.5 -269.5t-325.5 -97.5q-236 0 -374 158.5t-138 429.5zM373 658h428q-4 110 -58.5 167.5 t-156.5 57.5q-95 0 -149.5 -58t-63.5 -167z" />
<glyph unicode="f" horiz-adv-x="664" d="M23 883v204h155v101q0 152 78.5 223.5t247.5 71.5q31 0 65.5 -1.5t73.5 -5.5v-231h-76q-65 0 -85.5 -17t-20.5 -65v-76h182v-204h-180v-883h-285v883h-155z" />
<glyph unicode="g" horiz-adv-x="1249" d="M70 551q0 264 124.5 419.5t335.5 155.5q110 0 187.5 -42t126.5 -128v131h276v-1015q0 -171 -32 -261t-109 -151q-66 -51 -167.5 -77.5t-231.5 -26.5q-218 0 -343 89t-135 250l318 1q14 -55 57.5 -82t116.5 -27q136 0 190 57.5t54 212.5v97q-46 -79 -119.5 -116.5 t-183.5 -37.5q-211 0 -338 150.5t-127 400.5zM365 561q0 -153 61.5 -235t175.5 -82q115 0 175.5 82t60.5 239q0 149 -62.5 230.5t-177.5 81.5q-111 0 -172 -83t-61 -233z" />
<glyph unicode="h" horiz-adv-x="1233" d="M133 0v1473h289v-506q59 74 140.5 111.5t182.5 37.5q96 0 173.5 -33t125.5 -94q33 -41 46.5 -94t13.5 -170v-20v-705h-289v569q0 202 -37 253.5t-133 51.5q-103 0 -163 -61.5t-60 -167.5v-645h-289z" />
<glyph unicode="i" horiz-adv-x="557" d="M133 0v1087h291v-1087h-291zM133 1208v265h291v-265h-291z" />
<glyph unicode="j" horiz-adv-x="555" d="M6 -201h57q37 0 53.5 17.5t16.5 56.5v1214h291v-1261q0 -146 -82 -208t-281 -62h-55v243zM133 1208v262h291v-262h-291z" />
<glyph unicode="k" horiz-adv-x="1135" d="M133 0v1473h283v-773l346 387h350l-379 -403l402 -684h-349l-260 463l-110 -119v-344h-283z" />
<glyph unicode="l" horiz-adv-x="563" d="M137 0v1473h291v-1473h-291z" />
<glyph unicode="m" horiz-adv-x="1796" d="M127 0v1087h276v-120q61 75 136 113t166 38q103 0 176 -38.5t127 -121.5q57 80 135 120t174 40q164 0 260 -96t96 -262v-760h-287v700q0 79 -42.5 122.5t-118.5 43.5q-85 0 -135 -55.5t-50 -151.5v-659h-284v698q0 80 -41.5 124t-116.5 44q-85 0 -134.5 -56t-49.5 -153 v-657h-287z" />
<glyph unicode="n" horiz-adv-x="1223" d="M127 0v1087h285v-129q61 79 144 118.5t185 39.5q180 0 269.5 -93.5t89.5 -281.5v-741h-291v657q0 117 -39.5 167t-128.5 50q-103 0 -163 -61.5t-60 -167.5v-645h-291z" />
<glyph unicode="o" horiz-adv-x="1245" d="M72 545q0 271 147 426t404 155q256 0 403.5 -155t147.5 -426q0 -272 -147.5 -427t-403.5 -155q-257 0 -404 155t-147 427zM367 545q0 -162 66.5 -250t189.5 -88q121 0 187.5 88t66.5 250q0 161 -66 248.5t-188 87.5q-123 0 -189.5 -87.5t-66.5 -248.5z" />
<glyph unicode="p" horiz-adv-x="1255" d="M133 -436v1523h277v-147q63 96 140.5 140t182.5 44q201 0 326 -158.5t125 -416.5q0 -261 -125 -423.5t-322 -162.5q-104 0 -185.5 44t-135.5 128v-571h-283zM416 537q0 -154 63.5 -238t179.5 -84q110 0 173 86t63 236q0 164 -62 250.5t-180 86.5q-116 0 -176.5 -86 t-60.5 -251z" />
<glyph unicode="q" horiz-adv-x="1255" d="M72 539q0 260 124.5 422.5t321.5 162.5q106 0 188.5 -44.5t137.5 -131.5v139h280v-1523h-284v577q-61 -91 -138.5 -134.5t-179.5 -43.5q-201 0 -325.5 159t-124.5 417zM360 551q0 -165 62 -251.5t180 -86.5q116 0 177 86t61 252q0 154 -64 237.5t-180 83.5 q-109 0 -172.5 -85.5t-63.5 -235.5z" />
<glyph unicode="r" horiz-adv-x="786" d="M127 0v1087h270v-186q57 112 133 164.5t181 52.5q17 0 26.5 -0.5t15.5 -1.5l1 -295h-97q-119 0 -179 -62t-60 -184v-575h-291z" />
<glyph unicode="s" horiz-adv-x="1118" d="M66 342v12h290q4 -83 60 -123.5t168 -40.5q85 0 131.5 28.5t46.5 80.5q0 74 -174 111q-71 15 -113 26q-212 54 -294.5 128t-82.5 200q0 167 120.5 264.5t326.5 97.5q218 0 342.5 -97t132.5 -273h-283q-3 69 -52.5 107t-137.5 38q-83 0 -123.5 -25t-40.5 -75 q0 -65 217 -115q50 -11 79 -18q217 -51 296.5 -123t79.5 -203q0 -185 -130.5 -282t-379.5 -97q-225 0 -352 101t-127 278z" />
<glyph unicode="t" horiz-adv-x="651" d="M10 883v204h144v297h288v-297h168v-204h-168v-602q0 -43 19 -56.5t78 -14.5h71v-218q-40 -1 -95.5 -3.5t-70.5 -2.5q-167 0 -228.5 62.5t-61.5 246.5v588h-144z" />
<glyph unicode="u" horiz-adv-x="1223" d="M123 346v741h291v-657q0 -116 39 -165.5t129 -49.5q102 0 162.5 61.5t60.5 167.5v643h291v-1087h-285v129q-62 -79 -144.5 -118.5t-185.5 -39.5q-179 0 -268.5 94t-89.5 281z" />
<glyph unicode="v" horiz-adv-x="1085" d="M4 1087h322l223 -780l225 780h307l-389 -1087h-297z" />
<glyph unicode="w" horiz-adv-x="1567" d="M14 1087h295l178 -753l150 753h297l158 -753l178 753h282l-305 -1087h-291l-174 778l-168 -778h-292z" />
<glyph unicode="x" horiz-adv-x="1057" d="M-8 0l366 555l-350 532h332l192 -327l191 327h321l-342 -528l363 -559h-340l-201 344l-198 -344h-334z" />
<glyph unicode="y" horiz-adv-x="1100" d="M12 1087h320l229 -784l223 784h306l-447 -1282q-50 -144 -125 -196.5t-225 -52.5q-27 0 -58 2t-65 6v235q14 -2 29 -3t39 -1q86 0 129 40.5t43 121.5q0 6 -2 15t-4 15z" />
<glyph unicode="z" horiz-adv-x="1036" d="M35 0v223l596 633h-561v231h909v-237l-588 -608h608v-242h-964z" />
<glyph unicode="{" d="M158 426v209q7 0 21 -1t20 -1q120 0 171.5 58t51.5 196v250q0 143 23.5 201t80.5 92q47 25 114 37t167 12q12 0 37 -1t39 -1v-209q-9 0 -25 1t-22 1q-101 0 -136.5 -38.5t-35.5 -162.5v-240q0 -148 -45 -210t-162 -89q117 -27 162 -88t45 -209v-241q0 -123 35 -161 t137 -38q6 0 22 1t25 1v-209q-14 0 -39 -1t-37 -1q-100 0 -167 12t-114 37q-57 34 -80.5 91.5t-23.5 199.5v252q0 137 -51 194.5t-172 57.5q-6 0 -20 -1t-21 -1z" />
<glyph unicode="|" d="M410 -483v2048h206v-2048h-206z" />
<glyph unicode="}" d="M143 -205q9 0 25 -1t22 -1q101 0 136.5 38.5t35.5 160.5v239q0 150 45 211.5t162 87.5q-117 27 -162 89t-45 210v242q0 122 -35.5 160.5t-136.5 38.5q-6 0 -22 -1t-25 -1v209h68q110 0 177 -12t112 -38q57 -32 80.5 -91.5t23.5 -198.5v-252q0 -137 51 -194.5t172 -57.5 q6 0 20 1t21 1v-209h-37q-125 0 -176 -56t-51 -194v-252q0 -143 -23.5 -201t-80.5 -90q-47 -25 -114 -37t-167 -12q-12 0 -37 1t-39 1v209z" />
<glyph unicode="~" horiz-adv-x="1706" d="M178 418v221q107 72 204 107.5t183 35.5q117 0 291 -58l4 -1q18 -6 55 -19q155 -55 240 -55t175 37t200 117v-221q-104 -71 -196.5 -104.5t-182.5 -33.5q-46 0 -92 8t-92 23q-24 8 -71 25q-219 75 -333 75q-85 0 -177.5 -37.5t-207.5 -119.5z" />
<glyph unicode="&#xa1;" horiz-adv-x="676" d="M184 0v397l78 666h152l78 -666v-397h-308zM188 1178v295h297v-295h-297z" />
<glyph unicode="&#xa2;" horiz-adv-x="1161" d="M61 543q0 273 137.5 428t376.5 155q27 0 53 -2t52 -6l45 166h109l-54 -190q126 -39 197 -138.5t82 -253.5l-281 1q-5 49 -22.5 84.5t-50.5 62.5l-179 -639q2 0 6 -1q30 -3 46 -3q88 0 137.5 49t66.5 154h281q-15 -207 -146.5 -328t-338.5 -121q-27 0 -55 2t-58 6 l-59 -215h-109l68 244q-150 63 -227 201t-77 344zM354 541q0 -99 22.5 -171t65.5 -116l178 631q-19 2 -29.5 3t-19.5 1q-107 0 -162 -88t-55 -260z" />
<glyph unicode="&#xa3;" horiz-adv-x="1161" d="M68 639v111h108q-44 87 -64 155t-20 127q0 178 130.5 288t344.5 110q232 0 364 -119t144 -338h-276q-8 113 -65 173t-156 60q-94 0 -144.5 -49t-50.5 -141q0 -53 63 -192q22 -48 33 -74h285v-111h-244q9 -38 13 -70t4 -59q0 -72 -44.5 -143.5t-150.5 -167.5 q65 30 117.5 44.5t95.5 14.5q52 0 142 -23.5t128 -23.5q50 0 98.5 16t96.5 49l88 -217q-83 -49 -159 -74.5t-142 -25.5q-76 0 -205.5 40t-187.5 40q-61 0 -118.5 -20t-111.5 -60l-114 207q120 83 170.5 153t50.5 150q0 38 -12 80.5t-35 89.5h-176z" />
<glyph unicode="&#xa4;" horiz-adv-x="1161" d="M-45 795l47 104h113q26 303 164 457.5t385 154.5q212 0 334.5 -129t144.5 -376h-283q-3 125 -56.5 196.5t-144.5 71.5q-109 0 -172 -97t-69 -278h373l-48 -104h-333v-60v-59h280l-47 -105h-225q7 -179 68.5 -275.5t168.5 -96.5q95 0 147 72t58 212h283 q-22 -259 -144.5 -391.5t-341.5 -132.5q-239 0 -377 155t-165 457h-131l47 105h82q0 14 -1 37t-1 32v7q2 24 2 43h-158z" />
<glyph unicode="&#xa5;" horiz-adv-x="1229" d="M-16 1391h325l322 -631l299 631h305l-256 -486h233v-112h-292l-68 -127h360v-113h-419l-17 -35v-518h-289v518l-20 35h-449v113h383l-73 127h-310v112h244z" />
<glyph unicode="&#xa6;" d="M410 -350v758h206v-758h-206zM410 674v758h206v-758h-206z" />
<glyph unicode="&#xa7;" d="M53 692q0 89 43.5 156.5t128.5 112.5q-50 45 -74 98.5t-24 118.5q0 150 103 241.5t274 91.5q176 0 276 -90t103 -249h-236q-2 67 -39.5 102t-107.5 35q-62 0 -95.5 -27t-33.5 -76q0 -40 39.5 -74.5t142.5 -82.5l168 -78q128 -61 189 -135.5t61 -171.5q0 -91 -45.5 -158.5 t-130.5 -104.5q58 -51 87 -113t29 -136q0 -154 -110 -254.5t-283 -100.5q-190 0 -292 92t-111 271h247q8 -78 46.5 -116t109.5 -38q66 0 105 31.5t39 85.5q0 44 -29 76.5t-115 74.5l-239 121q-114 57 -170 131t-56 166zM276 752q0 -39 29.5 -68.5t130.5 -81.5l223 -115 q40 23 60 51t20 60q0 39 -23 66.5t-95 64.5l-265 137q-39 -23 -59.5 -52t-20.5 -62z" />
<glyph unicode="&#xa8;" d="M225 1276v246h226v-246h-226zM573 1276v246h226v-246h-226z" />
<glyph unicode="&#xa9;" horiz-adv-x="1706" d="M111 733q0 149 56 284.5t163 244.5q105 106 238 161.5t284 55.5q152 0 287.5 -56t242.5 -163q105 -105 160 -240.5t55 -286.5q0 -152 -54.5 -284t-160.5 -236q-111 -108 -248 -165.5t-282 -57.5q-147 0 -280.5 56.5t-241.5 164.5q-107 106 -163 240.5t-56 281.5zM233 735 q0 -125 47 -237t136 -201q88 -88 201 -135t237 -47t237.5 47t204.5 137q88 86 133.5 197t45.5 239q0 126 -46.5 238.5t-134.5 200.5q-89 89 -201 135.5t-239 46.5q-128 0 -239.5 -46t-198.5 -134q-89 -90 -136 -203.5t-47 -237.5zM453 729q0 206 109.5 328.5t293.5 122.5 q152 0 250.5 -78t105.5 -205h-188q-8 70 -53 108.5t-119 38.5q-91 0 -143 -81.5t-52 -227.5q0 -147 52 -224t151 -77q73 0 117 42t53 119l193 1q-8 -139 -109 -223t-260 -84q-186 0 -293.5 118t-107.5 322z" />
<glyph unicode="&#xaa;" horiz-adv-x="864" d="M43 932q0 108 65 168.5t202 79.5q38 5 100 12q137 14 137 68q0 42 -27 59.5t-96 17.5q-63 0 -95 -22t-32 -66v-16h-225v18q0 123 91 191.5t253 68.5q176 0 269 -56.5t93 -164.5v-432q0 -45 11 -68t36 -34v-45h-243q-12 19 -18.5 38.5t-8.5 40.5q-36 -51 -101.5 -78.5 t-152.5 -27.5q-124 0 -191 64.5t-67 183.5zM100 424v125h668v-125h-668zM272 938q0 -40 25.5 -62t73.5 -22q84 0 132 44.5t48 121.5v59q-53 -18 -139 -37q-140 -32 -140 -104z" />
<glyph unicode="&#xab;" horiz-adv-x="915" d="M72 416v256l336 289v-238l-205 -178l205 -178v-240zM504 416v256l334 289v-238l-205 -178l205 -178v-240z" />
<glyph unicode="&#xac;" horiz-adv-x="1706" d="M254 668v196h1198v-502h-199v306h-999z" />
<glyph unicode="&#xad;" horiz-adv-x="684" d="M61 408v274h562v-274h-562z" />
<glyph unicode="&#xae;" horiz-adv-x="1706" d="M111 733q0 102 27 198.5t81 188.5q101 170 267 264.5t366 94.5q154 0 290.5 -57.5t243.5 -166.5q103 -104 157 -238t54 -284q0 -152 -56 -287.5t-163 -238.5q-107 -105 -243.5 -161t-282.5 -56q-149 0 -285 58t-243 167q-104 105 -158.5 238.5t-54.5 279.5zM233 735 q0 -124 46 -235.5t133 -198.5q89 -91 203 -139.5t237 -48.5q120 0 233.5 47t206.5 135q87 84 135 196t48 232q0 133 -44.5 245t-132.5 201q-90 93 -202.5 140t-241.5 47q-127 0 -236 -44.5t-196 -131.5q-91 -91 -140 -206.5t-49 -238.5zM545 336v825h323q176 0 264.5 -59.5 t88.5 -177.5q0 -82 -48 -140t-133 -79l185 -369h-224l-157 338h-99v-338h-200zM745 795h99q88 0 129 28t41 88q0 63 -44 93t-136 30h-89v-239z" />
<glyph unicode="&#xaf;" d="M225 1321v156h574v-156h-574z" />
<glyph unicode="&#xb0;" horiz-adv-x="674" d="M35 1159q0 127 88.5 216t214.5 89t214.5 -89.5t88.5 -215.5q0 -125 -89 -214t-216 -89q-126 0 -213.5 88t-87.5 215zM162 1161q0 -74 51 -125t125 -51q72 0 123 52t51 124t-51 123t-123 51q-73 0 -124.5 -51t-51.5 -123z" />
<glyph unicode="&#xb1;" horiz-adv-x="1706" d="M254 -2v199h1198v-199h-1198zM254 698v199h498v326h202v-326h498v-199h-498v-325h-202v325h-498z" />
<glyph unicode="&#xb2;" horiz-adv-x="766" d="M31 557q3 116 55.5 196t185.5 162q19 11 53 31q185 105 185 203q0 57 -37 90t-102 33q-72 0 -111 -40.5t-39 -115.5v-8h-174q0 148 87.5 227.5t248.5 79.5q145 0 232 -72t87 -192q0 -86 -45 -148t-176 -143q-30 -19 -84 -51q-118 -69 -133 -107h430v-145h-663z" />
<glyph unicode="&#xb3;" horiz-adv-x="766" d="M37 815v4h182q2 -73 39 -109t111 -36q71 0 110 34t39 97q0 64 -45 96.5t-135 32.5h-29v119h21q83 0 122.5 28.5t39.5 87.5q0 50 -34 79.5t-91 29.5q-63 0 -97 -33.5t-34 -95.5v-6h-178q2 130 84.5 201t232.5 71q142 0 224.5 -63t82.5 -170q0 -56 -28.5 -98.5t-84.5 -69.5 q73 -29 110.5 -80.5t37.5 -120.5q0 -130 -93.5 -205.5t-254.5 -75.5q-159 0 -245.5 74t-86.5 209z" />
<glyph unicode="&#xb4;" d="M350 1217l197 370h258l-313 -370h-142z" />
<glyph unicode="&#xb5;" horiz-adv-x="1249" d="M-63 -438l268 1530h289l-76 -435q-15 -80 -23 -151.5t-8 -116.5q0 -93 42 -138.5t128 -45.5q100 0 155.5 82t92.5 291l90 514h289l-193 -1092h-268l18 117q-42 -78 -93.5 -114t-121.5 -36q-67 0 -119 29.5t-94 91.5l-90 -526h-286z" />
<glyph unicode="&#xb6;" d="M41 1130q0 158 107 253.5t284 95.5h551v-111h-113v-1368h-151v1368h-158v-1368h-153v784q-167 6 -267 101t-100 245z" />
<glyph unicode="&#xb7;" horiz-adv-x="582" d="M135 702q0 65 45.5 110.5t110.5 45.5t110 -45t45 -111q0 -65 -45 -110t-110 -45q-66 0 -111 44.5t-45 110.5z" />
<glyph unicode="&#xb8;" d="M283 -309q80 -21 145 -32t111 -11q52 0 76 17.5t24 55.5t-28 54t-93 16q-23 0 -35 -0.5t-22 -1.5v211h102v-90h15q117 0 176 -48t59 -143q0 -100 -66 -150t-198 -50q-51 0 -119.5 11t-146.5 32v129z" />
<glyph unicode="&#xb9;" horiz-adv-x="766" d="M106 1145v121h17q122 0 178.5 34.5t67.5 114.5h151v-858h-186v588h-228z" />
<glyph unicode="&#xba;" horiz-adv-x="934" d="M45 1098q0 193 112.5 303t309.5 110t310.5 -110.5t113.5 -302.5q0 -194 -113 -304t-311 -110t-310 110t-112 304zM106 424v125h723v-125h-723zM287 1098q0 -111 46 -169.5t134 -58.5q87 0 134.5 59.5t47.5 168.5q0 108 -48 167.5t-134 59.5q-87 0 -133.5 -59t-46.5 -168z " />
<glyph unicode="&#xbb;" horiz-adv-x="915" d="M72 127v238l204 180l-204 176v240l336 -289v-256zM504 127v238l205 180l-205 176v240l334 -289v-256z" />
<glyph unicode="&#xbc;" horiz-adv-x="1806" d="M102 1161v113h15q118 0 171.5 32t63.5 107h144v-801h-179v549h-215zM385 -41l870 1493h164l-872 -1493h-162zM1102 174v139l334 465h223v-477h104v-127h-104v-174h-176v174h-381zM1243 297h244v342z" />
<glyph unicode="&#xbd;" horiz-adv-x="1806" d="M102 1161v113h15q118 0 171.5 32t63.5 107h144v-801h-179v549h-215zM385 -41l870 1493h164l-872 -1493h-162zM1102 0q3 109 53.5 183.5t177.5 150.5q20 11 55 31q173 97 173 188q0 53 -36 84t-98 31q-68 0 -105.5 -38t-37.5 -108v-8h-166q0 138 83 212.5t237 74.5 q140 0 223.5 -67t83.5 -179q0 -80 -43.5 -138.5t-169.5 -133.5q-27 -16 -74 -43q-117 -67 -132 -103h409v-137h-633z" />
<glyph unicode="&#xbe;" horiz-adv-x="1804" d="M37 854v2h171q3 -68 38.5 -101.5t105.5 -33.5q68 0 105 31.5t37 91.5t-43 90.5t-127 30.5q-6 0 -15 -1t-14 -1v112h20q79 0 116.5 26.5t37.5 82.5q0 47 -32 74.5t-87 27.5q-60 0 -92.5 -31.5t-32.5 -89.5v-6h-171q2 123 81 188.5t223 65.5q135 0 214 -58.5t79 -158.5 q0 -53 -27 -92.5t-81 -65.5q70 -27 105.5 -74.5t35.5 -113.5q0 -120 -89.5 -190t-242.5 -70q-152 0 -233.5 68.5t-81.5 195.5zM385 -41l870 1493h164l-872 -1493h-162zM1102 174v139l334 465h223v-477h104v-127h-104v-174h-176v174h-381zM1243 297h244v342z" />
<glyph unicode="&#xbf;" horiz-adv-x="1143" d="M74 397q0 73 15 128t46 100q40 56 126 122t106 84q38 37 54.5 78.5t16.5 100.5q0 5 -1 16.5t-1 17.5h269q0 -10 1 -29t1 -28q0 -87 -19 -146t-61 -110q-33 -38 -96.5 -87t-81.5 -71q-39 -44 -54.5 -81t-15.5 -80q0 -96 52 -148.5t147 -52.5q94 0 149 63.5t60 178.5h284 v-31q0 -212 -133.5 -337.5t-359.5 -125.5q-231 0 -367.5 119.5t-136.5 318.5zM422 1178v295h297v-295h-297z" />
<glyph unicode="&#xc0;" horiz-adv-x="1405" d="M0 0l524 1473h350l531 -1473h-318l-100 303h-571l-97 -303h-319zM409 1972h258l197 -370h-142zM496 551h409l-205 627z" />
<glyph unicode="&#xc1;" horiz-adv-x="1405" d="M0 0l524 1473h350l531 -1473h-318l-100 303h-571l-97 -303h-319zM496 551h409l-205 627zM540 1602l197 370h258l-313 -370h-142z" />
<glyph unicode="&#xc2;" horiz-adv-x="1405" d="M0 0l524 1473h350l531 -1473h-318l-100 303h-571l-97 -303h-319zM387 1602l196 370h238l196 -370h-141l-174 217l-176 -217h-139zM496 551h409l-205 627z" />
<glyph unicode="&#xc3;" horiz-adv-x="1405" d="M0 0l524 1473h350l531 -1473h-318l-100 303h-571l-97 -303h-319zM385 1649q24 121 74 178t130 57q21 0 42 -3.5t44 -10.5l93 -25q12 -4 25.5 -6t29.5 -2q32 0 53.5 21.5t32.5 64.5h110q-26 -125 -77 -184.5t-131 -59.5q-21 0 -39 2.5t-36 8.5l-87 26q-19 5 -35 7.5 t-31 2.5q-34 0 -55 -18t-33 -59h-110zM496 551h409l-205 627z" />
<glyph unicode="&#xc4;" horiz-adv-x="1405" d="M0 0l524 1473h350l531 -1473h-318l-100 303h-571l-97 -303h-319zM415 1661v246h226v-246h-226zM496 551h409l-205 627zM763 1661v246h226v-246h-226z" />
<glyph unicode="&#xc5;" horiz-adv-x="1405" d="M0 0l508 1413h385l512 -1413h-318l-100 303h-571l-97 -303h-319zM446 1716q0 108 73.5 182t180.5 74q108 0 183 -74.5t75 -181.5t-75 -181.5t-183 -74.5q-107 0 -180.5 74t-73.5 182zM496 551h409l-205 627zM584 1714q0 -49 33.5 -83t82.5 -34q50 0 85.5 34.5t35.5 82.5 q0 49 -35.5 85t-85.5 36q-48 0 -82 -35.5t-34 -85.5z" />
<glyph unicode="&#xc6;" horiz-adv-x="2052" d="M-14 0l581 1473h1366v-256h-723v-314h658v-252h-658v-379h760v-272h-1052v303h-500l-111 -303h-321zM504 541h414v682h-166z" />
<glyph unicode="&#xc7;" horiz-adv-x="1524" d="M90 735q0 375 185 575.5t532 200.5q282 0 446.5 -138.5t178.5 -387.5h-299q-19 124 -102.5 190t-223.5 66q-200 0 -304 -129t-104 -377q0 -236 102.5 -369t284.5 -133q147 0 235 68.5t116 204.5h297q-14 -241 -174 -386t-429 -159v-51h15q117 0 176 -48t59 -143 q0 -97 -65 -148.5t-189 -51.5q-59 0 -129.5 11t-148.5 32v129q79 -21 146 -32t112 -11q52 0 76 17.5t24 55.5q0 37 -26 52.5t-88 15.5h-41h-23v172q-301 16 -470 220t-169 554z" />
<glyph unicode="&#xc8;" horiz-adv-x="1337" d="M152 0v1473h1069v-256h-770v-314h704v-252h-704v-379h806v-272h-1105zM395 1972h258l197 -370h-142z" />
<glyph unicode="&#xc9;" horiz-adv-x="1337" d="M152 0v1473h1069v-256h-770v-314h704v-252h-704v-379h806v-272h-1105zM526 1602l197 370h258l-313 -370h-142z" />
<glyph unicode="&#xca;" horiz-adv-x="1337" d="M152 0v1473h1069v-256h-770v-314h704v-252h-704v-379h806v-272h-1105zM373 1602l196 370h238l196 -370h-141l-174 217l-176 -217h-139z" />
<glyph unicode="&#xcb;" horiz-adv-x="1337" d="M152 0v1473h1069v-256h-770v-314h704v-252h-704v-379h806v-272h-1105zM401 1661v246h226v-246h-226zM749 1661v246h226v-246h-226z" />
<glyph unicode="&#xcc;" horiz-adv-x="629" d="M22 1972h258l197 -370h-142zM162 0v1473h303v-1473h-303z" />
<glyph unicode="&#xcd;" horiz-adv-x="629" d="M153 1602l197 370h258l-313 -370h-142zM162 0v1473h303v-1473h-303z" />
<glyph unicode="&#xce;" horiz-adv-x="629" d="M0 1602l196 370h238l196 -370h-141l-174 217l-176 -217h-139zM162 0v1473h303v-1473h-303z" />
<glyph unicode="&#xcf;" horiz-adv-x="629" d="M28 1661v246h226v-246h-226zM162 0v1473h303v-1473h-303zM376 1661v246h226v-246h-226z" />
<glyph unicode="&#xd0;" horiz-adv-x="1497" d="M-2 696v191h160v586h579q338 0 504 -182.5t166 -555.5q0 -203 -60.5 -357t-177.5 -247q-88 -70 -200.5 -100.5t-315.5 -30.5h-495v696h-160zM455 266h243q212 0 307 111t95 358q0 246 -88.5 362.5t-276.5 116.5h-280v-327h323v-191h-323v-430z" />
<glyph unicode="&#xd1;" horiz-adv-x="1518" d="M152 0v1473h317l598 -1012v1012h299v-1473h-313l-602 1012v-1012h-299zM451 1649q24 121 74 178t130 57q21 0 42 -3.5t44 -10.5l93 -25q12 -4 25.5 -6t29.5 -2q32 0 53.5 21.5t32.5 64.5h110q-26 -125 -77 -184.5t-131 -59.5q-21 0 -39 2.5t-36 8.5l-87 26q-19 5 -35 7.5 t-31 2.5q-34 0 -55 -18t-33 -59h-110z" />
<glyph unicode="&#xd2;" horiz-adv-x="1616" d="M88 735q0 357 194.5 566.5t524.5 209.5t525.5 -210t195.5 -566t-195.5 -566t-525.5 -210t-524.5 210t-194.5 566zM397 735q0 -243 108 -377.5t302 -134.5q196 0 305 134.5t109 377.5t-109 377.5t-305 134.5q-194 0 -302 -134t-108 -378zM516 1972h258l197 -370h-142z" />
<glyph unicode="&#xd3;" horiz-adv-x="1616" d="M88 735q0 357 194.5 566.5t524.5 209.5t525.5 -210t195.5 -566t-195.5 -566t-525.5 -210t-524.5 210t-194.5 566zM397 735q0 -243 108 -377.5t302 -134.5q196 0 305 134.5t109 377.5t-109 377.5t-305 134.5q-194 0 -302 -134t-108 -378zM647 1602l197 370h258l-313 -370 h-142z" />
<glyph unicode="&#xd4;" horiz-adv-x="1616" d="M88 735q0 357 194.5 566.5t524.5 209.5t525.5 -210t195.5 -566t-195.5 -566t-525.5 -210t-524.5 210t-194.5 566zM397 735q0 -243 108 -377.5t302 -134.5q196 0 305 134.5t109 377.5t-109 377.5t-305 134.5q-194 0 -302 -134t-108 -378zM494 1602l196 370h238l196 -370 h-141l-174 217l-176 -217h-139z" />
<glyph unicode="&#xd5;" horiz-adv-x="1616" d="M88 735q0 357 194.5 566.5t524.5 209.5t525.5 -210t195.5 -566t-195.5 -566t-525.5 -210t-524.5 210t-194.5 566zM397 735q0 -243 108 -377.5t302 -134.5q196 0 305 134.5t109 377.5t-109 377.5t-305 134.5q-194 0 -302 -134t-108 -378zM492 1649q24 121 74 178t130 57 q21 0 42 -3.5t44 -10.5l93 -25q12 -4 25.5 -6t29.5 -2q32 0 53.5 21.5t32.5 64.5h110q-26 -125 -77 -184.5t-131 -59.5q-21 0 -39 2.5t-36 8.5l-87 26q-19 5 -35 7.5t-31 2.5q-34 0 -55 -18t-33 -59h-110z" />
<glyph unicode="&#xd6;" horiz-adv-x="1616" d="M88 735q0 357 194.5 566.5t524.5 209.5t525.5 -210t195.5 -566t-195.5 -566t-525.5 -210t-524.5 210t-194.5 566zM397 735q0 -243 108 -377.5t302 -134.5q196 0 305 134.5t109 377.5t-109 377.5t-305 134.5q-194 0 -302 -134t-108 -378zM522 1661v246h226v-246h-226z M870 1661v246h226v-246h-226z" />
<glyph unicode="&#xd7;" horiz-adv-x="1706" d="M276 160l451 450l-451 453l140 139l450 -450l451 450l141 -139l-450 -453l450 -450l-141 -140l-451 451l-450 -451z" />
<glyph unicode="&#xd8;" horiz-adv-x="1616" d="M55 23l183 204q-76 103 -113 229.5t-37 278.5q0 357 194.5 566.5t524.5 209.5q141 0 253.5 -36t207.5 -111l147 166l98 -88l-155 -168q85 -105 127.5 -239t42.5 -300q0 -356 -195 -566t-526 -210q-149 0 -268.5 42t-214.5 128l-172 -195zM397 735q0 -90 12.5 -160 t39.5 -126l632 696q-53 51 -121 76.5t-153 25.5q-194 0 -302 -134t-108 -378zM512 348q58 -63 131 -94t164 -31q196 0 305 134.5t109 377.5q0 99 -18 179.5t-52 140.5z" />
<glyph unicode="&#xd9;" horiz-adv-x="1468" d="M143 520v957h306v-924q0 -171 68 -249.5t216 -78.5q150 0 218.5 78t68.5 250v924h303v-957q0 -271 -151.5 -416t-436.5 -145q-287 0 -439.5 144.5t-152.5 416.5zM442 1972h258l197 -370h-142z" />
<glyph unicode="&#xda;" horiz-adv-x="1468" d="M143 520v957h306v-924q0 -171 68 -249.5t216 -78.5q150 0 218.5 78t68.5 250v924h303v-957q0 -271 -151.5 -416t-436.5 -145q-287 0 -439.5 144.5t-152.5 416.5zM573 1602l197 370h258l-313 -370h-142z" />
<glyph unicode="&#xdb;" horiz-adv-x="1468" d="M143 520v957h306v-924q0 -171 68 -249.5t216 -78.5q150 0 218.5 78t68.5 250v924h303v-957q0 -271 -151.5 -416t-436.5 -145q-287 0 -439.5 144.5t-152.5 416.5zM420 1602l196 370h238l196 -370h-141l-174 217l-176 -217h-139z" />
<glyph unicode="&#xdc;" horiz-adv-x="1468" d="M143 520v957h306v-924q0 -171 68 -249.5t216 -78.5q150 0 218.5 78t68.5 250v924h303v-957q0 -271 -151.5 -416t-436.5 -145q-287 0 -439.5 144.5t-152.5 416.5zM448 1661v246h226v-246h-226zM796 1661v246h226v-246h-226z" />
<glyph unicode="&#xdd;" horiz-adv-x="1274" d="M-27 1473h371l315 -635l291 635h346l-485 -924v-549h-303v549zM475 1602l197 370h258l-313 -370h-142z" />
<glyph unicode="&#xde;" horiz-adv-x="1346" d="M152 0v1473h299v-230h344q228 0 345 -112.5t117 -331.5q0 -214 -114.5 -329.5t-327.5 -115.5h-364v-354h-299zM453 600h292q120 0 174 47.5t54 151.5q0 97 -54 146.5t-159 49.5h-307v-395z" />
<glyph unicode="&#xdf;" horiz-adv-x="1229" d="M127 0v1112q0 166 129 268.5t344 102.5q219 0 343 -100t124 -275q0 -108 -36.5 -177t-112.5 -106q118 -47 177.5 -138t59.5 -224q0 -224 -129 -362t-338 -138q-29 0 -64.5 3t-76.5 9v234q13 -2 26.5 -3t40.5 -1q118 0 182 65.5t64 186.5q0 117 -69.5 178t-202.5 61h-27 l1 205q6 -1 13 -1.5t21 -0.5q89 0 135.5 44.5t46.5 129.5t-48.5 129.5t-141.5 44.5q-86 0 -131 -49.5t-45 -144.5v-1053h-285z" />
<glyph unicode="&#xe0;" horiz-adv-x="1151" d="M70 307q0 154 85.5 235t282.5 111q45 7 118 16q185 24 185 107q0 66 -41 94.5t-137 28.5q-88 0 -135 -35t-47 -100v-16h-272v20q0 167 118 262.5t326 95.5q228 0 349.5 -79t121.5 -228v-618q0 -68 14 -101.5t47 -50.5v-49h-303q-15 28 -23 62t-9 73q-55 -85 -144 -129.5 t-207 -44.5q-158 0 -243.5 90t-85.5 256zM268 1587h258l197 -370h-142zM348 315q0 -60 39 -95.5t105 -35.5q118 0 185.5 66.5t67.5 181.5v103q-71 -33 -163.5 -53t-95.5 -21q-77 -22 -107.5 -55t-30.5 -91z" />
<glyph unicode="&#xe1;" horiz-adv-x="1151" d="M70 307q0 154 85.5 235t282.5 111q45 7 118 16q185 24 185 107q0 66 -41 94.5t-137 28.5q-88 0 -135 -35t-47 -100v-16h-272v20q0 167 118 262.5t326 95.5q228 0 349.5 -79t121.5 -228v-618q0 -68 14 -101.5t47 -50.5v-49h-303q-15 28 -23 62t-9 73q-55 -85 -144 -129.5 t-207 -44.5q-158 0 -243.5 90t-85.5 256zM348 315q0 -60 39 -95.5t105 -35.5q118 0 185.5 66.5t67.5 181.5v103q-71 -33 -163.5 -53t-95.5 -21q-77 -22 -107.5 -55t-30.5 -91zM399 1217l197 370h258l-313 -370h-142z" />
<glyph unicode="&#xe2;" horiz-adv-x="1151" d="M70 307q0 154 85.5 235t282.5 111q45 7 118 16q185 24 185 107q0 66 -41 94.5t-137 28.5q-88 0 -135 -35t-47 -100v-16h-272v20q0 167 118 262.5t326 95.5q228 0 349.5 -79t121.5 -228v-618q0 -68 14 -101.5t47 -50.5v-49h-303q-15 28 -23 62t-9 73q-55 -85 -144 -129.5 t-207 -44.5q-158 0 -243.5 90t-85.5 256zM246 1217l196 370h238l196 -370h-141l-174 217l-176 -217h-139zM348 315q0 -60 39 -95.5t105 -35.5q118 0 185.5 66.5t67.5 181.5v103q-71 -33 -163.5 -53t-95.5 -21q-77 -22 -107.5 -55t-30.5 -91z" />
<glyph unicode="&#xe3;" horiz-adv-x="1151" d="M70 307q0 154 85.5 235t282.5 111q45 7 118 16q185 24 185 107q0 66 -41 94.5t-137 28.5q-88 0 -135 -35t-47 -100v-16h-272v20q0 167 118 262.5t326 95.5q228 0 349.5 -79t121.5 -228v-618q0 -68 14 -101.5t47 -50.5v-49h-303q-15 28 -23 62t-9 73q-55 -85 -144 -129.5 t-207 -44.5q-158 0 -243.5 90t-85.5 256zM244 1264q24 121 74 178t130 57q21 0 42 -3.5t44 -10.5l93 -25q12 -4 25.5 -6t29.5 -2q32 0 53.5 21.5t32.5 64.5h110q-26 -125 -77 -184.5t-131 -59.5q-21 0 -39 2.5t-36 8.5l-87 26q-19 5 -35 7.5t-31 2.5q-34 0 -55 -18t-33 -59 h-110zM348 315q0 -60 39 -95.5t105 -35.5q118 0 185.5 66.5t67.5 181.5v103q-71 -33 -163.5 -53t-95.5 -21q-77 -22 -107.5 -55t-30.5 -91z" />
<glyph unicode="&#xe4;" horiz-adv-x="1151" d="M70 307q0 154 85.5 235t282.5 111q45 7 118 16q185 24 185 107q0 66 -41 94.5t-137 28.5q-88 0 -135 -35t-47 -100v-16h-272v20q0 167 118 262.5t326 95.5q228 0 349.5 -79t121.5 -228v-618q0 -68 14 -101.5t47 -50.5v-49h-303q-15 28 -23 62t-9 73q-55 -85 -144 -129.5 t-207 -44.5q-158 0 -243.5 90t-85.5 256zM274 1276v246h226v-246h-226zM348 315q0 -60 39 -95.5t105 -35.5q118 0 185.5 66.5t67.5 181.5v103q-71 -33 -163.5 -53t-95.5 -21q-77 -22 -107.5 -55t-30.5 -91zM622 1276v246h226v-246h-226z" />
<glyph unicode="&#xe5;" horiz-adv-x="1151" d="M70 307q0 154 85.5 235t282.5 111q45 7 118 16q185 24 185 107q0 66 -41 94.5t-137 28.5q-88 0 -135 -35t-47 -100v-16h-272v20q0 167 118 262.5t326 95.5q228 0 349.5 -79t121.5 -228v-618q0 -68 14 -101.5t47 -50.5v-49h-303q-15 28 -23 62t-9 73q-55 -85 -144 -129.5 t-207 -44.5q-158 0 -243.5 90t-85.5 256zM311 1430q0 107 74.5 181.5t181.5 74.5q108 0 182 -74.5t74 -181.5q0 -108 -74 -182t-182 -74q-107 0 -181.5 74t-74.5 182zM348 315q0 -60 39 -95.5t105 -35.5q118 0 185.5 66.5t67.5 181.5v103q-71 -33 -163.5 -53t-95.5 -21 q-77 -22 -107.5 -55t-30.5 -91zM449 1427q0 -48 34.5 -82t83.5 -34q50 0 84.5 34t34.5 82q0 50 -35 85.5t-84 35.5t-83.5 -35.5t-34.5 -85.5z" />
<glyph unicode="&#xe6;" horiz-adv-x="1810" d="M70 307q0 147 82.5 231t250.5 109q44 6 118 16q212 26 212 111q0 70 -38 95.5t-142 25.5q-83 0 -126.5 -35.5t-43.5 -103.5v-8h-274v22q0 167 120.5 261.5t335.5 94.5q111 0 201 -30t147 -86q62 60 140 88t182 28q242 0 375 -152.5t133 -430.5q0 -31 -0.5 -46.5 t-2.5 -29.5h-738q1 -128 62 -198t171 -70q70 0 121 33t84 100h291q-41 -174 -177.5 -271.5t-339.5 -97.5q-124 0 -216.5 48.5t-147.5 142.5q-68 -97 -176 -144t-264 -47q-165 0 -252.5 88.5t-87.5 255.5zM352 311q0 -62 40.5 -95.5t115.5 -33.5q96 0 163.5 62t67.5 147v139 q-72 -32 -177.5 -54t-132.5 -35q-38 -18 -57.5 -51t-19.5 -79zM1002 659h440v7q0 107 -59.5 168t-163.5 61q-97 0 -155.5 -63.5t-61.5 -172.5z" />
<glyph unicode="&#xe7;" horiz-adv-x="1128" d="M72 543q0 274 137 428.5t379 154.5q210 0 338 -112.5t143 -311.5h-289q-12 87 -61 133t-129 46q-107 0 -161 -85.5t-54 -254.5q0 -156 54.5 -241t154.5 -85q86 0 135.5 48t64.5 147h287q-20 -207 -140 -320t-327 -119v-61h14q118 0 177 -48t59 -143q0 -97 -65 -148.5 t-189 -51.5q-59 0 -128.5 10.5t-147.5 32.5v129q96 -24 156.5 -34.5t97.5 -10.5q52 0 77 18.5t25 56.5q0 37 -26.5 52.5t-88.5 15.5h-41h-22v180q-205 23 -317.5 173.5t-112.5 400.5z" />
<glyph unicode="&#xe8;" horiz-adv-x="1167" d="M72 551q0 267 136 421t372 154q250 0 386 -151.5t136 -431.5q0 -31 -0.5 -46.5t-2.5 -29.5h-726q6 -128 62.5 -193t162.5 -65q75 0 123 29.5t76 91.5h290q-44 -172 -177.5 -269.5t-325.5 -97.5q-236 0 -374 158.5t-138 429.5zM291 1587h258l197 -370h-142zM373 658h428 q-4 110 -58.5 167.5t-156.5 57.5q-95 0 -149.5 -58t-63.5 -167z" />
<glyph unicode="&#xe9;" horiz-adv-x="1167" d="M72 551q0 267 136 421t372 154q250 0 386 -151.5t136 -431.5q0 -31 -0.5 -46.5t-2.5 -29.5h-726q6 -128 62.5 -193t162.5 -65q75 0 123 29.5t76 91.5h290q-44 -172 -177.5 -269.5t-325.5 -97.5q-236 0 -374 158.5t-138 429.5zM373 658h428q-4 110 -58.5 167.5 t-156.5 57.5q-95 0 -149.5 -58t-63.5 -167zM422 1217l197 370h258l-313 -370h-142z" />
<glyph unicode="&#xea;" horiz-adv-x="1167" d="M72 551q0 267 136 421t372 154q250 0 386 -151.5t136 -431.5q0 -31 -0.5 -46.5t-2.5 -29.5h-726q6 -128 62.5 -193t162.5 -65q75 0 123 29.5t76 91.5h290q-44 -172 -177.5 -269.5t-325.5 -97.5q-236 0 -374 158.5t-138 429.5zM269 1217l196 370h238l196 -370h-141 l-174 217l-176 -217h-139zM373 658h428q-4 110 -58.5 167.5t-156.5 57.5q-95 0 -149.5 -58t-63.5 -167z" />
<glyph unicode="&#xeb;" horiz-adv-x="1167" d="M72 551q0 267 136 421t372 154q250 0 386 -151.5t136 -431.5q0 -31 -0.5 -46.5t-2.5 -29.5h-726q6 -128 62.5 -193t162.5 -65q75 0 123 29.5t76 91.5h290q-44 -172 -177.5 -269.5t-325.5 -97.5q-236 0 -374 158.5t-138 429.5zM297 1276v246h226v-246h-226zM373 658h428 q-4 110 -58.5 167.5t-156.5 57.5q-95 0 -149.5 -58t-63.5 -167zM645 1276v246h226v-246h-226z" />
<glyph unicode="&#xec;" horiz-adv-x="557" d="M-14 1587h258l197 -370h-142zM133 0v1087h291v-1087h-291z" />
<glyph unicode="&#xed;" horiz-adv-x="557" d="M117 1217l197 370h258l-313 -370h-142zM133 0v1087h291v-1087h-291z" />
<glyph unicode="&#xee;" horiz-adv-x="557" d="M-36 1217l196 370h238l196 -370h-141l-174 217l-176 -217h-139zM133 0v1087h291v-1087h-291z" />
<glyph unicode="&#xef;" horiz-adv-x="557" d="M-8 1276v246h226v-246h-226zM133 0v1087h291v-1087h-291zM340 1276v246h226v-246h-226z" />
<glyph unicode="&#xf0;" horiz-adv-x="1247" d="M72 506q0 237 135.5 386.5t345.5 149.5q44 0 85.5 -9.5t82.5 -28.5q-37 47 -87 92t-114 88l-289 -144l-57 117l219 109q-56 34 -189 97l-3 1l80 145q79 -24 166.5 -60.5t185.5 -86.5l289 141l57 -114l-223 -111q212 -151 317 -339t105 -419q0 -261 -147.5 -409 t-407.5 -148q-259 0 -405 144t-146 399zM367 520q0 -150 66.5 -231.5t189.5 -81.5q122 0 188 81t66 232q0 150 -66 230.5t-188 80.5q-123 0 -189.5 -81t-66.5 -230z" />
<glyph unicode="&#xf1;" horiz-adv-x="1223" d="M127 0v1087h285v-129q61 79 144 118.5t185 39.5q180 0 269.5 -93.5t89.5 -281.5v-741h-291v657q0 117 -39.5 167t-128.5 50q-103 0 -163 -61.5t-60 -167.5v-645h-291zM310 1264q24 121 74 178t130 57q21 0 42 -3.5t44 -10.5l93 -25q12 -4 25.5 -6t29.5 -2q32 0 53.5 21.5 t32.5 64.5h110q-26 -125 -77 -184.5t-131 -59.5q-21 0 -39 2.5t-36 8.5l-87 26q-19 5 -35 7.5t-31 2.5q-34 0 -55 -18t-33 -59h-110z" />
<glyph unicode="&#xf2;" horiz-adv-x="1245" d="M72 545q0 271 147 426t404 155q256 0 403.5 -155t147.5 -426q0 -272 -147.5 -427t-403.5 -155q-257 0 -404 155t-147 427zM330 1587h258l197 -370h-142zM367 545q0 -162 66.5 -250t189.5 -88q121 0 187.5 88t66.5 250q0 161 -66 248.5t-188 87.5q-123 0 -189.5 -87.5 t-66.5 -248.5z" />
<glyph unicode="&#xf3;" horiz-adv-x="1245" d="M72 545q0 271 147 426t404 155q256 0 403.5 -155t147.5 -426q0 -272 -147.5 -427t-403.5 -155q-257 0 -404 155t-147 427zM367 545q0 -162 66.5 -250t189.5 -88q121 0 187.5 88t66.5 250q0 161 -66 248.5t-188 87.5q-123 0 -189.5 -87.5t-66.5 -248.5zM461 1217l197 370 h258l-313 -370h-142z" />
<glyph unicode="&#xf4;" horiz-adv-x="1245" d="M72 545q0 271 147 426t404 155q256 0 403.5 -155t147.5 -426q0 -272 -147.5 -427t-403.5 -155q-257 0 -404 155t-147 427zM308 1217l196 370h238l196 -370h-141l-174 217l-176 -217h-139zM367 545q0 -162 66.5 -250t189.5 -88q121 0 187.5 88t66.5 250q0 161 -66 248.5 t-188 87.5q-123 0 -189.5 -87.5t-66.5 -248.5z" />
<glyph unicode="&#xf5;" horiz-adv-x="1245" d="M72 545q0 271 147 426t404 155q256 0 403.5 -155t147.5 -426q0 -272 -147.5 -427t-403.5 -155q-257 0 -404 155t-147 427zM306 1264q24 121 74 178t130 57q21 0 42 -3.5t44 -10.5l93 -25q12 -4 25.5 -6t29.5 -2q32 0 53.5 21.5t32.5 64.5h110q-26 -125 -77 -184.5 t-131 -59.5q-21 0 -39 2.5t-36 8.5l-87 26q-19 5 -35 7.5t-31 2.5q-34 0 -55 -18t-33 -59h-110zM367 545q0 -162 66.5 -250t189.5 -88q121 0 187.5 88t66.5 250q0 161 -66 248.5t-188 87.5q-123 0 -189.5 -87.5t-66.5 -248.5z" />
<glyph unicode="&#xf6;" horiz-adv-x="1245" d="M72 545q0 271 147 426t404 155q256 0 403.5 -155t147.5 -426q0 -272 -147.5 -427t-403.5 -155q-257 0 -404 155t-147 427zM336 1276v246h226v-246h-226zM367 545q0 -162 66.5 -250t189.5 -88q121 0 187.5 88t66.5 250q0 161 -66 248.5t-188 87.5q-123 0 -189.5 -87.5 t-66.5 -248.5zM684 1276v246h226v-246h-226z" />
<glyph unicode="&#xf7;" horiz-adv-x="1706" d="M254 512v199h1198v-199h-1198zM702 217q0 63 44.5 107.5t107.5 44.5q62 0 107 -45t45 -107q0 -61 -45 -105t-107 -44q-63 0 -107.5 43t-44.5 106zM702 1004q0 63 44.5 107t107.5 44q62 0 107 -44.5t45 -106.5q0 -63 -44.5 -107.5t-107.5 -44.5t-107.5 44.5t-44.5 107.5z " />
<glyph unicode="&#xf8;" horiz-adv-x="1245" d="M39 10l145 152q-58 79 -86 172.5t-28 210.5q0 270 150 426.5t409 156.5q104 0 193 -30t167 -92l135 145l78 -74l-141 -149q57 -74 85 -168.5t28 -218.5q0 -268 -149.5 -424t-403.5 -156q-115 0 -204 29.5t-161 91.5l-139 -148zM358 537q0 -44 7.5 -86.5t21.5 -83.5 l422 444q-38 39 -81.5 58.5t-94.5 19.5q-136 0 -205.5 -89t-69.5 -263zM434 281q37 -43 81 -62.5t103 -19.5q130 0 198.5 89.5t68.5 260.5q0 47 -6.5 90.5t-20.5 83.5z" />
<glyph unicode="&#xf9;" horiz-adv-x="1223" d="M123 346v741h291v-657q0 -116 39 -165.5t129 -49.5q102 0 162.5 61.5t60.5 167.5v643h291v-1087h-285v129q-62 -79 -144.5 -118.5t-185.5 -39.5q-179 0 -268.5 94t-89.5 281zM319 1587h258l197 -370h-142z" />
<glyph unicode="&#xfa;" horiz-adv-x="1223" d="M123 346v741h291v-657q0 -116 39 -165.5t129 -49.5q102 0 162.5 61.5t60.5 167.5v643h291v-1087h-285v129q-62 -79 -144.5 -118.5t-185.5 -39.5q-179 0 -268.5 94t-89.5 281zM450 1217l197 370h258l-313 -370h-142z" />
<glyph unicode="&#xfb;" horiz-adv-x="1223" d="M123 346v741h291v-657q0 -116 39 -165.5t129 -49.5q102 0 162.5 61.5t60.5 167.5v643h291v-1087h-285v129q-62 -79 -144.5 -118.5t-185.5 -39.5q-179 0 -268.5 94t-89.5 281zM297 1217l196 370h238l196 -370h-141l-174 217l-176 -217h-139z" />
<glyph unicode="&#xfc;" horiz-adv-x="1223" d="M123 346v741h291v-657q0 -116 39 -165.5t129 -49.5q102 0 162.5 61.5t60.5 167.5v643h291v-1087h-285v129q-62 -79 -144.5 -118.5t-185.5 -39.5q-179 0 -268.5 94t-89.5 281zM325 1276v246h226v-246h-226zM673 1276v246h226v-246h-226z" />
<glyph unicode="&#xfd;" horiz-adv-x="1100" d="M12 1087h320l229 -784l223 784h306l-447 -1282q-50 -144 -125 -196.5t-225 -52.5q-27 0 -58 2t-65 6v235q14 -2 29 -3t39 -1q86 0 129 40.5t43 121.5q0 6 -2 15t-4 15zM389 1217l197 370h258l-313 -370h-142z" />
<glyph unicode="&#xfe;" horiz-adv-x="1255" d="M133 -436v1909h283v-527q60 91 137.5 134.5t179.5 43.5q201 0 326 -158.5t125 -416.5q0 -261 -125 -423.5t-322 -162.5q-104 0 -185.5 44t-135.5 128v-571h-283zM416 537q0 -154 63.5 -238t179.5 -84q110 0 173 86t63 236q0 164 -62 250.5t-180 86.5q-116 0 -176.5 -86 t-60.5 -251z" />
<glyph unicode="&#xff;" horiz-adv-x="1100" d="M12 1087h320l229 -784l223 784h306l-447 -1282q-50 -144 -125 -196.5t-225 -52.5q-27 0 -58 2t-65 6v235q14 -2 29 -3t39 -1q86 0 129 40.5t43 121.5q0 6 -2 15t-4 15zM264 1276v246h226v-246h-226zM612 1276v246h226v-246h-226z" />
<glyph unicode="&#x152;" horiz-adv-x="2310" d="M88 735q0 351 179.5 564.5t471.5 213.5q111 0 207.5 -35t183.5 -108v103h1063v-256h-770v-314h705v-252h-705v-379h807v-272h-1100v102q-88 -72 -184.5 -107.5t-208.5 -35.5q-290 0 -469.5 213.5t-179.5 562.5zM397 735q0 -258 103.5 -390t306.5 -132q95 0 173.5 32.5 t149.5 100.5v778q-73 70 -151 103t-172 33q-204 0 -307 -132t-103 -393z" />
<glyph unicode="&#x153;" horiz-adv-x="1948" d="M74 553q0 268 144.5 420.5t397.5 152.5q133 0 230 -40t162 -121q60 83 150 122t220 39q237 0 367.5 -153t130.5 -430q0 -31 -0.5 -46.5t-2.5 -29.5h-736q0 -125 58.5 -194.5t162.5 -69.5q79 0 132.5 30t82.5 91h289q-31 -162 -171.5 -261.5t-338.5 -99.5 q-116 0 -202 38.5t-155 121.5q-67 -81 -161.5 -120.5t-221.5 -39.5q-255 0 -396.5 155t-141.5 435zM362 553q0 -166 67.5 -260t184.5 -94q129 0 199 92t70 264q0 159 -68.5 248.5t-189.5 89.5q-127 0 -195 -88t-68 -252zM1137 660h444q-3 113 -61.5 175t-163.5 62 q-96 0 -156.5 -65t-62.5 -172z" />
<glyph unicode="&#x178;" horiz-adv-x="1274" d="M-27 1473h371l315 -635l291 635h346l-485 -924v-549h-303v549zM350 1661v246h226v-246h-226zM698 1661v246h226v-246h-226z" />
<glyph unicode="&#x2c6;" d="M197 1217l196 370h238l196 -370h-141l-174 217l-176 -217h-139z" />
<glyph unicode="&#x2dc;" d="M195 1264q24 121 74 178t130 57q21 0 42 -3.5t44 -10.5l93 -25q12 -4 25.5 -6t29.5 -2q32 0 53.5 21.5t32.5 64.5h110q-26 -125 -77 -184.5t-131 -59.5q-21 0 -39 2.5t-36 8.5l-87 26q-19 5 -35 7.5t-31 2.5q-34 0 -55 -18t-33 -59h-110z" />
<glyph unicode="&#x2000;" horiz-adv-x="986" />
<glyph unicode="&#x2001;" horiz-adv-x="1972" />
<glyph unicode="&#x2002;" horiz-adv-x="986" />
<glyph unicode="&#x2003;" horiz-adv-x="1972" />
<glyph unicode="&#x2004;" horiz-adv-x="657" />
<glyph unicode="&#x2005;" horiz-adv-x="493" />
<glyph unicode="&#x2006;" horiz-adv-x="328" />
<glyph unicode="&#x2007;" horiz-adv-x="328" />
<glyph unicode="&#x2008;" horiz-adv-x="246" />
<glyph unicode="&#x2009;" horiz-adv-x="394" />
<glyph unicode="&#x200a;" horiz-adv-x="109" />
<glyph unicode="&#x2010;" horiz-adv-x="684" d="M61 408v274h562v-274h-562z" />
<glyph unicode="&#x2011;" horiz-adv-x="684" d="M61 408v274h562v-274h-562z" />
<glyph unicode="&#x2012;" horiz-adv-x="684" d="M61 408v274h562v-274h-562z" />
<glyph unicode="&#x2013;" d="M0 434v221h1024v-221h-1024z" />
<glyph unicode="&#x2014;" horiz-adv-x="2048" d="M0 434v221h2048v-221h-2048z" />
<glyph unicode="&#x2018;" horiz-adv-x="532" d="M127 950v258q0 127 78 212t201 91v-102q-76 -18 -113 -63.5t-37 -118.5v-13h150v-264h-279z" />
<glyph unicode="&#x2019;" horiz-adv-x="532" d="M127 909v103q76 18 112.5 63.5t36.5 120.5v12h-149v265h279v-261q0 -126 -78 -211.5t-201 -91.5z" />
<glyph unicode="&#x201a;" horiz-adv-x="532" d="M127 0v264h279v-258q0 -126 -78 -211.5t-201 -91.5v102q75 20 112 65.5t37 117.5v12h-149z" />
<glyph unicode="&#x201c;" horiz-adv-x="901" d="M90 950v258q0 127 78 212t201 91v-102q-76 -18 -113 -63.5t-37 -118.5v-13h150v-264h-279zM530 950v258q0 127 78 212t201 91v-102q-75 -18 -112.5 -62.5t-37.5 -115.5v-17h150v-264h-279z" />
<glyph unicode="&#x201d;" horiz-adv-x="901" d="M90 909v103q76 18 113 63.5t37 120.5v12h-150v265h279v-261q0 -126 -78 -211.5t-201 -91.5zM530 909v103q75 18 112.5 63t37.5 117v16h-150v265h279v-261q0 -126 -78 -211.5t-201 -91.5z" />
<glyph unicode="&#x201e;" horiz-adv-x="901" d="M90 0v264h279v-258q0 -126 -78 -211.5t-201 -91.5v102q76 20 113 65.5t37 117.5v12h-150zM530 0v264h279v-258q0 -126 -78 -211.5t-201 -91.5v102q76 19 113 64t37 119v12h-150z" />
<glyph unicode="&#x2022;" horiz-adv-x="1208" d="M307 762q0 123 87 209t210 86q122 0 208.5 -86.5t86.5 -208.5t-87.5 -209.5t-209.5 -87.5q-123 0 -209 87t-86 210z" />
<glyph unicode="&#x2026;" horiz-adv-x="2048" d="M190 0v301h301v-301h-301zM872 0v301h301v-301h-301zM1556 0v301h301v-301h-301z" />
<glyph unicode="&#x202f;" horiz-adv-x="394" />
<glyph unicode="&#x2039;" horiz-adv-x="485" d="M72 416v256l336 289v-238l-205 -178l205 -178v-240z" />
<glyph unicode="&#x203a;" horiz-adv-x="485" d="M78 127v238l205 180l-205 176v240l334 -289v-256z" />
<glyph unicode="&#x205f;" horiz-adv-x="493" />
<glyph unicode="&#x20ac;" horiz-adv-x="1161" d="M-45 795l47 104h113q26 303 164 457.5t385 154.5q212 0 334.5 -129t144.5 -376h-283q-3 125 -56.5 196.5t-144.5 71.5q-109 0 -172 -97t-69 -278h373l-48 -104h-333v-60v-59h280l-47 -105h-225q7 -179 68.5 -275.5t168.5 -96.5q95 0 147 72t58 212h283 q-22 -259 -144.5 -391.5t-341.5 -132.5q-239 0 -377 155t-165 457h-131l47 105h82q0 14 -1 37t-1 32v7q2 24 2 43h-158z" />
<glyph unicode="&#x2122;" horiz-adv-x="1706" d="M207 1350v112h485v-112h-168v-435h-149v435h-168zM803 915v547h196l127 -332l123 332h197v-547h-135v410l-154 -410h-61l-158 410v-410h-135z" />
<glyph unicode="&#xe000;" horiz-adv-x="1085" d="M0 0v1085h1085v-1085h-1085z" />
<glyph unicode="&#xfb01;" horiz-adv-x="1196" d="M23 883v204h155v101q0 152 78.5 223.5t247.5 71.5q31 0 65.5 -1.5t73.5 -5.5v-231h-76q-65 0 -85.5 -17t-20.5 -65v-76h182v-204h-180v-883h-285v883h-155zM776 0v1087h285v-1087h-285zM776 1208v265h285v-265h-285z" />
<glyph unicode="&#xfb02;" horiz-adv-x="1194" d="M23 883v204h155v101q0 152 78.5 223.5t247.5 71.5q31 0 65.5 -1.5t73.5 -5.5v-231h-76q-65 0 -85.5 -17t-20.5 -65v-76h182v-204h-180v-883h-285v883h-155zM776 0v1473h285v-1473h-285z" />
</font>
</defs>
</svg>
