<?xml version="1.0" standalone="no"?>
<!DOCTYPE svg PUBLIC "-//W3C//DTD SVG 1.1//EN" "http://www.w3.org/Graphics/SVG/1.1/DTD/svg11.dtd" >
<svg xmlns="http://www.w3.org/2000/svg">
<metadata></metadata>
<defs>
<font id="swis721_btroman" horiz-adv-x="1024" >
<font-face units-per-em="2048" ascent="1556" descent="-492" />
<missing-glyph horiz-adv-x="561" />
<glyph horiz-adv-x="2048" />
<glyph horiz-adv-x="2048" />
<glyph unicode="&#xd;" horiz-adv-x="561" />
<glyph unicode=" "  horiz-adv-x="561" />
<glyph unicode="&#x09;" horiz-adv-x="561" />
<glyph unicode="&#xa0;" horiz-adv-x="561" />
<glyph unicode="!" horiz-adv-x="657" d="M227 0v219h201v-219h-201zM227 993v480h201v-480l-47 -637h-105z" />
<glyph unicode="&#x22;" horiz-adv-x="614" d="M90 881v555h139v-555h-139zM385 881v555h139v-555h-139z" />
<glyph unicode="#" horiz-adv-x="1575" d="M88 449l53 147h310l92 262h-330l51 146h332l162 454h166l-162 -454h256l164 454h164l-160 -454h301l-51 -146h-303l-93 -262h322l-51 -147h-322l-162 -453h-165l161 453h-258l-162 -453h-165l159 453h-309zM616 594h261l92 264h-260z" />
<glyph unicode="$" horiz-adv-x="1124" d="M63 410v22h177v-16q0 -134 70 -212t198 -85v522q-207 34 -311.5 131.5t-104.5 257.5q0 172 112 278.5t304 116.5v140h104v-140q199 -16 304.5 -114t107.5 -267h-178q-12 105 -70.5 160.5t-163.5 61.5v-463q250 -55 349.5 -148.5t99.5 -267.5q0 -181 -116 -291t-333 -133 v-186h-104v184q-222 17 -333.5 129t-111.5 320zM270 1044q0 -95 58 -150t180 -75v449q-109 0 -173.5 -61t-64.5 -163zM612 111q126 12 194 78t68 176q0 98 -61.5 157t-200.5 92v-503z" />
<glyph unicode="%" horiz-adv-x="1731" d="M72 1036q0 149 102.5 252t251.5 103q147 0 250.5 -104t103.5 -251t-103.5 -251.5t-250.5 -104.5q-149 0 -251.5 103.5t-102.5 252.5zM221 1036q0 -87 59 -146t146 -59q85 0 145 60t60 145q0 86 -60 145.5t-145 59.5q-86 0 -145.5 -59.5t-59.5 -145.5zM365 -41l876 1473 h125l-877 -1473h-124zM948 356q0 149 103 252t252 103q146 0 251 -104t105 -251t-104.5 -251.5t-251.5 -104.5q-149 0 -252 103.5t-103 252.5zM1098 356q0 -87 59 -146.5t146 -59.5q84 0 144 60.5t60 145.5q0 86 -59.5 145.5t-144.5 59.5q-86 0 -145.5 -59.5t-59.5 -145.5z " />
<glyph unicode="&#x26;" horiz-adv-x="1399" d="M109 391q0 140 80.5 247t265.5 210q-85 91 -124.5 172t-39.5 164q0 144 98.5 236.5t253.5 92.5q162 0 257 -84.5t95 -228.5q0 -117 -66.5 -211.5t-209.5 -177.5l276 -336q26 46 40.5 106t19.5 138h173q-1 -108 -29 -204t-83 -183l275 -332h-246l-144 178 q-89 -106 -202.5 -159.5t-249.5 -53.5q-195 0 -317.5 120t-122.5 306zM299 403q0 -115 77 -190.5t197 -75.5q90 0 172 43t156 127l-348 420q-136 -78 -195 -153.5t-59 -170.5zM465 1190q0 -60 37.5 -126.5t120.5 -150.5q105 65 154.5 133t49.5 146t-48.5 126t-127.5 48 q-87 0 -136.5 -47t-49.5 -129z" />
<glyph unicode="'" horiz-adv-x="317" d="M90 881v555h139v-555h-139z" />
<glyph unicode="(" horiz-adv-x="688" d="M201 530q0 258 81.5 492t252.5 463h129q-142 -242 -211.5 -478t-69.5 -477q0 -240 69.5 -476t211.5 -478h-129q-171 229 -252.5 463t-81.5 491z" />
<glyph unicode=")" horiz-adv-x="688" d="M25 -424q141 242 210.5 478t69.5 476q0 241 -69.5 477t-210.5 478h129q169 -228 250 -461.5t81 -493.5q0 -259 -81 -492.5t-250 -461.5h-129z" />
<glyph unicode="*" d="M109 1114l51 158l274 -94v295h154v-295l272 94l55 -158l-288 -78l198 -243l-137 -101l-178 258l-174 -252l-139 93l196 245z" />
<glyph unicode="+" horiz-adv-x="1706" d="M254 541v139h528v541h142v-541h528v-139h-528v-541h-142v541h-528z" />
<glyph unicode="," horiz-adv-x="561" d="M178 0v221h205v-239q0 -113 -53.5 -187t-151.5 -98v102q48 10 74.5 54.5t26.5 115.5v31h-101z" />
<glyph unicode="-" horiz-adv-x="639" d="M72 461v162h495v-162h-495z" />
<glyph unicode="." horiz-adv-x="561" d="M178 0v223h205v-223h-205z" />
<glyph unicode="/" horiz-adv-x="616" d="M-2 -190l494 1701h126l-497 -1701h-123z" />
<glyph unicode="0" horiz-adv-x="1124" d="M70 694q0 362 125 550t366 188q242 0 368 -187.5t126 -550.5q0 -361 -125.5 -548t-368.5 -187q-241 0 -366 187t-125 548zM266 694q0 -296 71 -431.5t224 -135.5q154 0 224.5 134.5t70.5 432.5q0 299 -70.5 434.5t-224.5 135.5q-153 0 -224 -136.5t-71 -433.5z" />
<glyph unicode="1" horiz-adv-x="1124" d="M193 1012v145q180 2 271 68t107 207h140v-1432h-187v1012h-331z" />
<glyph unicode="2" horiz-adv-x="1124" d="M63 0v12q0 207 100.5 348.5t350.5 278.5l121 66q108 59 158.5 133t50.5 172q0 114 -77 183t-206 69q-131 0 -205.5 -88t-74.5 -242v-17h-187v25q0 228 128 360t347 132q212 0 340.5 -117t128.5 -307q0 -148 -75 -257.5t-232 -191.5l-121 -61q-164 -86 -240.5 -159.5 t-101.5 -162.5h770v-176h-975z" />
<glyph unicode="3" horiz-adv-x="1124" d="M47 436v10h186q4 -151 83 -233t223 -82q140 0 220.5 75t80.5 206q0 120 -79 186t-222 66q-29 0 -96 -4l-7 -1l1 162q13 -1 26.5 -1.5t34.5 -0.5q154 0 222 52.5t68 168.5q0 108 -65 166t-186 58q-136 0 -205.5 -76.5t-69.5 -226.5h-182v10q0 211 121 336t325 125 q218 0 338.5 -101t120.5 -282q0 -104 -45 -176.5t-133 -110.5q114 -42 172.5 -130.5t58.5 -219.5q0 -206 -139 -329.5t-373 -123.5q-219 0 -349 129.5t-130 347.5z" />
<glyph unicode="4" horiz-adv-x="1124" d="M51 352v180l621 859h186v-875h203v-164h-203v-352h-184v352h-623zM223 516h451v637z" />
<glyph unicode="5" horiz-adv-x="1124" d="M55 371h189q17 -111 92.5 -173.5t191.5 -62.5q143 0 230.5 87t87.5 229q0 146 -85 231.5t-231 85.5q-82 0 -150.5 -33t-119.5 -98h-164l113 754h758v-168h-623l-57 -383q53 45 122.5 68.5t151.5 23.5q219 0 351 -129t132 -342q0 -225 -140 -363.5t-367 -138.5 q-202 0 -333.5 112.5t-148.5 299.5z" />
<glyph unicode="6" horiz-adv-x="1124" d="M68 631q0 383 141 592t397 209q202 0 318 -102.5t129 -291.5h-189q-10 112 -75 170t-181 58q-156 0 -239 -128t-97 -388q61 77 146.5 117t191.5 40q204 0 329.5 -129.5t125.5 -341.5q0 -213 -133.5 -345t-349.5 -132q-249 0 -381.5 173.5t-132.5 498.5zM289 432 q0 -143 79.5 -227t213.5 -84q128 0 206 86t78 227q0 139 -76.5 222t-201.5 83q-140 0 -219.5 -82t-79.5 -225z" />
<glyph unicode="7" horiz-adv-x="1124" d="M82 1204v187h975v-170q-242 -262 -384.5 -566.5t-187.5 -654.5h-209q45 341 189 638.5t395 565.5h-778z" />
<glyph unicode="8" horiz-adv-x="1124" d="M72 408q0 131 60 221.5t177 136.5q-95 43 -141.5 117t-46.5 182q0 164 121 265.5t319 101.5q199 0 321 -102t122 -265q0 -108 -47 -182t-142 -117q118 -46 178 -136.5t60 -221.5q0 -205 -133.5 -327t-358.5 -122t-357 122t-132 327zM270 412q0 -131 78 -206t213 -75 q136 0 214.5 75.5t78.5 205.5q0 121 -78.5 191.5t-214.5 70.5t-213.5 -70t-77.5 -192zM313 1049q0 -102 68 -164t180 -62t180 62t68 164q0 103 -65.5 161t-182.5 58q-116 0 -182 -58t-66 -161z" />
<glyph unicode="9" horiz-adv-x="1124" d="M59 954q0 214 132.5 346t349.5 132q249 0 382.5 -173t133.5 -499q0 -386 -141 -593.5t-402 -207.5q-203 0 -322 106.5t-120 286.5h188q3 -106 71 -166.5t185 -60.5q156 0 239 127.5t97 388.5q-60 -77 -146.5 -117.5t-193.5 -40.5q-203 0 -328 129.5t-125 341.5zM258 956 q0 -138 75.5 -220.5t201.5 -82.5q139 0 219 81.5t80 223.5q0 143 -79 227.5t-212 84.5q-129 0 -207 -86t-78 -228z" />
<glyph unicode=":" horiz-adv-x="608" d="M201 0v223h207v-223h-207zM201 850v221h207v-221h-207z" />
<glyph unicode=";" horiz-adv-x="608" d="M201 0v221h207v-239q0 -112 -54 -186t-153 -99v102q48 10 75 55t27 115v31h-102zM201 850v221h207v-221h-207z" />
<glyph unicode="&#x3c;" horiz-adv-x="1706" d="M264 547v129l1178 483v-153l-969 -396l969 -393v-154z" />
<glyph unicode="=" horiz-adv-x="1706" d="M254 342v139h1198v-139h-1198zM254 739v140h1198v-140h-1198z" />
<glyph unicode="&#x3e;" horiz-adv-x="1706" d="M264 63v154l971 393l-971 396v153l1178 -483v-129z" />
<glyph unicode="?" horiz-adv-x="1075" d="M74 1026v27q0 218 120 338t338 120q192 0 307 -105.5t115 -279.5q0 -95 -37 -176.5t-112 -152.5l-84 -80q-78 -74 -103.5 -131t-25.5 -140q0 -20 0.5 -31t1.5 -19l-180 -1q0 7 -1 21.5t-1 21.5q0 110 37 195.5t122 169.5l78 78q61 60 87 117t26 128q0 101 -65.5 162.5 t-172.5 61.5q-132 0 -199.5 -80.5t-73.5 -243.5h-177zM408 0v219h200v-219h-200z" />
<glyph unicode="@" horiz-adv-x="2048" d="M106 522q0 165 52 313t151 269q146 178 351.5 270t455.5 92q163 0 310 -45t253 -127q130 -100 197.5 -231t67.5 -283q0 -175 -63.5 -315t-184.5 -236q-68 -54 -149.5 -83t-166.5 -29q-99 0 -149.5 39.5t-50.5 117.5v19q-55 -89 -129 -131.5t-172 -42.5q-153 0 -233.5 85 t-80.5 247q0 235 138 394t339 159q85 0 145.5 -37.5t96.5 -112.5l57 115h132l-146 -576q-4 -16 -6 -31t-2 -28q0 -46 25.5 -70t74.5 -24q48 0 102.5 26.5t106.5 75.5q80 76 125 186.5t45 233.5q0 259 -190.5 420t-499.5 161q-133 0 -246 -28t-211 -86q-191 -114 -296 -299.5 t-105 -409.5q0 -177 61.5 -308t192.5 -230q100 -77 236.5 -118.5t287.5 -41.5q169 0 328.5 49t292.5 141l55 -82q-148 -111 -314.5 -167t-349.5 -56q-190 0 -348 47t-280 140q-154 118 -230 274t-76 354zM725 446q0 -105 48.5 -162t137.5 -57q97 0 174.5 69t104.5 179 l59 236q-17 88 -68.5 136t-129.5 48q-138 0 -232 -130t-94 -319z" />
<glyph unicode="A" horiz-adv-x="1305" d="M-6 0l547 1473h221l549 -1473h-217l-156 440h-580l-157 -440h-207zM420 612h459l-228 650z" />
<glyph unicode="B" horiz-adv-x="1356" d="M158 0v1473h594q229 0 343.5 -90t114.5 -269q0 -115 -53 -195.5t-158 -123.5q133 -25 207 -118.5t74 -236.5q0 -202 -134 -321t-364 -119h-624zM358 178h406q153 0 232 67.5t79 196.5q0 128 -80.5 188t-253.5 60h-383v-512zM358 854h351q155 0 228 56t73 175 q0 112 -70 166t-215 54h-367v-451z" />
<glyph unicode="C" horiz-adv-x="1460" d="M94 758q0 346 185 549.5t499 203.5q250 0 409.5 -129t184.5 -352h-196q-28 146 -133 224.5t-273 78.5q-224 0 -347.5 -157t-123.5 -443q0 -270 128.5 -433t340.5 -163q181 0 296.5 112.5t123.5 297.5h194q-13 -269 -183.5 -428.5t-440.5 -159.5q-311 0 -487.5 212 t-176.5 587z" />
<glyph unicode="D" horiz-adv-x="1448" d="M158 0v1473h561q308 0 471.5 -184t163.5 -531q0 -359 -169.5 -558.5t-473.5 -199.5h-553zM358 180h344q221 0 334 143.5t113 424.5q0 269 -115 412t-332 143h-344v-1123z" />
<glyph unicode="E" horiz-adv-x="1309" d="M158 0v1473h1050v-183h-852v-440h787v-172h-787v-494h869v-184h-1067z" />
<glyph unicode="F" horiz-adv-x="1194" d="M158 0v1473h989v-185h-789v-442h689v-180h-689v-666h-200z" />
<glyph unicode="G" horiz-adv-x="1565" d="M94 733q0 361 192 569.5t521 208.5q252 0 411 -127.5t191 -355.5h-195q-27 149 -133.5 230t-273.5 81q-241 0 -373.5 -156.5t-132.5 -441.5q0 -282 131 -441t361 -159q208 0 332 127t124 342v19h-461v166h646v-795h-131l-43 197q-90 -119 -214 -178.5t-282 -59.5 q-299 0 -484.5 213.5t-185.5 560.5z" />
<glyph unicode="H" horiz-adv-x="1481" d="M158 0v1473h200v-605h764v605h201v-1473h-201v690h-764v-690h-200z" />
<glyph unicode="I" horiz-adv-x="526" d="M162 0v1473h200v-1473h-200z" />
<glyph unicode="J" horiz-adv-x="1034" d="M37 414q0 25 0.5 38.5t1.5 24.5h192q-1 -11 -1.5 -23.5t-0.5 -37.5q0 -146 55 -211.5t177 -65.5q76 0 126 27t79 84q13 27 18.5 75.5t5.5 163.5v984h201v-1065q0 -228 -104 -337.5t-322 -109.5q-214 0 -321 113t-107 340z" />
<glyph unicode="K" horiz-adv-x="1307" d="M158 0v1473h198v-711l709 711h266l-602 -590l619 -883h-248l-516 739l-228 -223v-516h-198z" />
<glyph unicode="L" horiz-adv-x="1096" d="M158 0v1473h202v-1287h734v-186h-936z" />
<glyph unicode="M" horiz-adv-x="1700" d="M158 0v1473h286l365 -1127q16 -48 23.5 -74.5t11.5 -46.5q8 37 16 66t17 55l378 1127h287v-1473h-194v1255q-7 -32 -16 -64.5t-19 -64.5l-379 -1126h-189l-370 1126q-10 28 -18 60t-15 69v-1255h-184z" />
<glyph unicode="N" horiz-adv-x="1477" d="M156 0v1473h219l688 -1070q23 -35 40 -66t27 -58v1194h191v-1473h-217l-703 1085q-16 25 -29.5 52t-25.5 57v-1194h-190z" />
<glyph unicode="O" horiz-adv-x="1583" d="M94 735q0 365 185.5 570.5t513.5 205.5q327 0 511.5 -205t184.5 -571q0 -365 -184.5 -570.5t-511.5 -205.5q-328 0 -513.5 205.5t-185.5 570.5zM301 735q0 -283 130.5 -442.5t361.5 -159.5q230 0 359.5 159.5t129.5 442.5q0 284 -129.5 443t-359.5 159 q-231 0 -361.5 -159t-130.5 -443z" />
<glyph unicode="P" horiz-adv-x="1290" d="M158 0v1473h542q132 0 201 -13t123 -43q90 -49 138 -145t48 -225q0 -123 -48 -217t-140 -150q-53 -32 -124.5 -45.5t-235.5 -13.5h-304v-621h-200zM358 799h336q175 0 244.5 56t69.5 192q0 131 -69 188t-230 57h-351v-493z" />
<glyph unicode="Q" horiz-adv-x="1583" d="M94 735q0 365 185.5 570.5t513.5 205.5q325 0 510.5 -206.5t185.5 -569.5q0 -179 -47 -321.5t-144 -257.5l177 -148l-99 -125l-207 170q-86 -47 -179 -70.5t-197 -23.5q-328 0 -513.5 205.5t-185.5 570.5zM301 735q0 -283 130.5 -442.5t361.5 -159.5q61 0 114 11.5 t101 35.5l-162 135l98 125l197 -161q69 75 105 192t36 264q0 284 -129.5 443t-359.5 159q-231 0 -361.5 -159t-130.5 -443z" />
<glyph unicode="R" horiz-adv-x="1360" d="M158 0v1473h571q139 0 204.5 -12t117.5 -40q93 -51 141.5 -142t48.5 -214q0 -119 -51 -203.5t-152 -132.5q86 -24 122.5 -81t45.5 -193l17 -243q5 -78 20.5 -116.5t46.5 -54.5v-41h-231q-28 46 -39 197v6l-12 192q-10 148 -63 192t-265 44h-324v-631h-198zM354 801h342 q185 0 261.5 60t76.5 200q0 131 -72 185t-266 54h-342v-499z" />
<glyph unicode="S" horiz-adv-x="1323" d="M90 485h193q3 -160 106.5 -255t276.5 -95q171 0 269.5 72t98.5 196q0 169 -370 257q-22 5 -34 8q-300 71 -396.5 158.5t-96.5 248.5q0 197 144 316.5t383 119.5q244 0 384 -125.5t142 -344.5l-191 -1q-10 148 -100.5 227t-247.5 79q-147 0 -235 -64.5t-88 -171.5 q0 -171 364 -255q54 -13 83 -20l21 -5q238 -57 316 -123q59 -50 90 -121.5t31 -159.5q0 -213 -152.5 -339t-412.5 -126q-268 0 -417.5 135.5t-160.5 388.5z" />
<glyph unicode="T" horiz-adv-x="1169" d="M18 1294v179h1131v-179h-465v-1294h-201v1294h-465z" />
<glyph unicode="U" horiz-adv-x="1452" d="M150 559v914h200v-916q0 -207 91.5 -306t283.5 -99q190 0 283.5 100.5t93.5 304.5v916h201v-914q0 -296 -152.5 -448t-448.5 -152q-276 0 -414 150t-138 450z" />
<glyph unicode="V" horiz-adv-x="1251" d="M0 1473h207l424 -1233l411 1233h209l-518 -1473h-209z" />
<glyph unicode="W" horiz-adv-x="1851" d="M10 1473h195l301 -1178l311 1178h209l322 -1170l305 1170h190l-391 -1473h-197l-335 1214l-322 -1214h-205z" />
<glyph unicode="X" horiz-adv-x="1239" d="M0 0l506 754l-479 719h245l351 -545l356 545h233l-479 -715l506 -758h-246l-379 596l-370 -596h-244z" />
<glyph unicode="Y" horiz-adv-x="1235" d="M-18 1473h251l394 -697l391 697h235l-524 -869v-604h-201v590z" />
<glyph unicode="Z" horiz-adv-x="1225" d="M57 0v166l901 1132h-841v175h1073v-185l-883 -1108h883v-180h-1133z" />
<glyph unicode="[" horiz-adv-x="725" d="M248 -410v1883h399v-140h-219v-1603h219v-140h-399z" />
<glyph unicode="\" horiz-adv-x="616" d="M-2 1511h123l497 -1701h-126z" />
<glyph unicode="]" horiz-adv-x="725" d="M78 -270h219v1603h-219v140h399v-1883h-399v140z" />
<glyph unicode="^" horiz-adv-x="2048" d="M420 901l510 557h186l510 -557h-180l-422 420l-424 -420h-180z" />
<glyph unicode="_" d="M0 -340h1024v-143h-1024v143z" />
<glyph unicode="`" d="M250 1565h201l204 -348h-120z" />
<glyph unicode="a" horiz-adv-x="1112" d="M72 289q0 146 90.5 229t275.5 107q47 5 127 14q137 14 168 27q31 12 41 31.5t10 84.5q0 82 -60 123t-181 41q-125 0 -188.5 -50t-63.5 -148h-170v8q0 162 114 256t314 94q215 0 316.5 -80.5t101.5 -251.5v-536q0 -69 15 -89t54 -20q8 0 19.5 1.5t27.5 4.5v-139 q-33 -9 -57.5 -12.5t-46.5 -3.5q-90 0 -135 39t-45 118v6q-84 -88 -178.5 -132t-200.5 -44q-164 0 -256 85.5t-92 236.5zM258 291q0 -80 50 -123t143 -43q145 0 238 73t93 187v160q-72 -39 -247 -61q-62 -8 -93 -13q-98 -16 -141 -58t-43 -122z" />
<glyph unicode="b" horiz-adv-x="1217" d="M141 0v1473h176v-551q62 91 149.5 137.5t197.5 46.5q213 0 342 -156t129 -418q0 -258 -127.5 -411.5t-341.5 -153.5q-113 0 -197.5 41t-151.5 127v-135h-176zM311 543q0 -200 82 -308t234 -108q148 0 233.5 105t85.5 288q0 203 -82.5 313.5t-234.5 110.5 q-159 0 -238.5 -100.5t-79.5 -300.5z" />
<glyph unicode="c" horiz-adv-x="1075" d="M82 532q0 269 131 421.5t360 152.5q202 0 323.5 -105.5t129.5 -285.5h-178q-8 110 -79.5 169.5t-195.5 59.5q-146 0 -225.5 -105t-79.5 -300q0 -196 76.5 -302t216.5 -106q126 0 201.5 65t93.5 189h172q-14 -197 -139 -307.5t-336 -110.5q-220 0 -345.5 151t-125.5 414z " />
<glyph unicode="d" horiz-adv-x="1217" d="M82 532q0 263 128 418.5t341 155.5q112 0 198.5 -41.5t149.5 -124.5v533h174v-1473h-174v135q-69 -84 -156 -126t-192 -42q-214 0 -341.5 153.5t-127.5 411.5zM268 520q0 -183 85.5 -288t234.5 -105q151 0 234 108t83 308q0 199 -80.5 300t-238.5 101q-152 0 -235 -110.5 t-83 -313.5z" />
<glyph unicode="e" horiz-adv-x="1120" d="M86 524q0 274 128 428t353 154q231 0 357.5 -142t126.5 -401q0 -33 -0.5 -49t-2.5 -31h-773q3 -169 84 -261.5t225 -92.5q110 0 181.5 56.5t92.5 160.5h178q-29 -177 -154 -279t-315 -102q-223 0 -352 150t-129 409zM274 633h588q-1 150 -76 231.5t-213 81.5 q-133 0 -209.5 -80t-89.5 -233z" />
<glyph unicode="f" horiz-adv-x="541" d="M0 928v143h176v158q0 133 60.5 199.5t181.5 66.5q19 0 48 -3t85 -11v-162q-29 5 -48.5 7.5t-31.5 2.5q-63 0 -88 -35t-25 -133v-90h193v-143h-193v-928h-182v928h-176z" />
<glyph unicode="g" horiz-adv-x="1219" d="M86 539q0 256 132.5 411.5t350.5 155.5q106 0 186.5 -40.5t149.5 -129.5v135h176v-1048q0 -248 -118 -358.5t-381 -110.5q-213 0 -333 83t-120 230v8h176v-4q0 -83 70.5 -124.5t212.5 -41.5q170 0 244.5 65t74.5 214v147q-63 -83 -147.5 -124.5t-192.5 -41.5 q-217 0 -349 157.5t-132 416.5zM274 535q0 -193 84 -300.5t234 -107.5q164 0 242.5 98.5t78.5 302.5q0 206 -81.5 311t-241.5 105q-152 0 -234 -106t-82 -303z" />
<glyph unicode="h" horiz-adv-x="1165" d="M137 0v1473h180v-553q49 87 135 132.5t201 45.5q121 0 204 -36.5t128 -109.5q25 -39 36 -91.5t11 -166.5v-51v-643h-182v659q0 159 -48.5 219t-166.5 60q-146 0 -232 -82.5t-86 -222.5v-633h-180z" />
<glyph unicode="i" horiz-adv-x="455" d="M137 0v1071h180v-1071h-180zM137 1268v205h180v-205h-180z" />
<glyph unicode="j" horiz-adv-x="471" d="M-25 -444l1 165q12 -1 24 -1.5t35 -0.5q69 0 92 24.5t23 119.5v1208h180v-1233q0 -158 -62 -222.5t-211 -64.5q-22 1 -70 4q-8 0 -12 1zM150 1264v209h180v-209h-180z" />
<glyph unicode="k" horiz-adv-x="1059" d="M137 0v1473h180v-883l484 481h227l-401 -391l395 -680h-203l-313 555l-189 -182v-373h-180z" />
<glyph unicode="l" horiz-adv-x="463" d="M139 0v1473h183v-1473h-183z" />
<glyph unicode="m" horiz-adv-x="1757" d="M137 0v1071h172v-151q60 90 142 134t192 44q100 0 171 -40.5t122 -127.5q70 87 153 127.5t191 40.5q104 0 181 -37.5t118 -108.5q23 -41 33 -98t10 -180v-31v-643h-180v659q0 162 -44 221.5t-153 59.5q-130 0 -202 -80.5t-72 -226.5v-633h-183v659q0 162 -44 221.5 t-152 59.5q-129 0 -202 -81.5t-73 -225.5v-633h-180z" />
<glyph unicode="n" horiz-adv-x="1165" d="M137 0v1071h172v-156q62 93 147 138t197 45q121 0 204 -36.5t128 -109.5q25 -39 36 -91.5t11 -166.5v-51v-643h-182v659q0 158 -48.5 218.5t-166.5 60.5q-151 0 -234.5 -85.5t-83.5 -242.5v-610h-180z" />
<glyph unicode="o" horiz-adv-x="1190" d="M82 537q0 269 134.5 419t377.5 150q244 0 379 -149.5t135 -419.5t-134.5 -420t-377.5 -150q-244 0 -379 149.5t-135 420.5zM266 537q0 -199 85.5 -304.5t244.5 -105.5q158 0 242 105.5t84 304.5q0 198 -84 303.5t-242 105.5q-160 0 -245 -105t-85 -304z" />
<glyph unicode="p" horiz-adv-x="1217" d="M141 -428v1499h176v-151q67 96 150.5 141t198.5 45q214 0 341.5 -154t127.5 -413q0 -262 -129 -417t-342 -155q-113 0 -198.5 40.5t-148.5 123.5v-559h-176zM311 528q0 -200 79.5 -300.5t238.5 -100.5q152 0 234.5 110.5t82.5 313.5q0 183 -85.5 288t-233.5 105 q-152 0 -234 -108t-82 -308z" />
<glyph unicode="q" horiz-adv-x="1217" d="M82 539q0 259 127.5 413t341.5 154q114 0 199 -44t149 -136v145h174v-1499h-174v569q-52 -85 -140.5 -129.5t-207.5 -44.5q-214 0 -341.5 155t-127.5 417zM268 551q0 -205 85.5 -315.5t242.5 -110.5q148 0 228.5 107t80.5 305q0 193 -83 300t-232 107t-235.5 -105 t-86.5 -288z" />
<glyph unicode="r" horiz-adv-x="680" d="M137 0v1071h174v-192q43 108 116.5 161.5t180.5 53.5q20 0 29 -0.5t18 -2.5v-190q-7 1 -16 1.5t-27 0.5q-144 0 -219.5 -78.5t-75.5 -228.5v-596h-180z" />
<glyph unicode="s" horiz-adv-x="1016" d="M64 348h173q10 -109 78.5 -165t194.5 -56q116 0 183 45.5t67 124.5q0 59 -33.5 90.5t-130.5 54.5l-201 52q-170 41 -236.5 108.5t-66.5 192.5q0 142 107.5 225.5t294.5 83.5q191 0 304 -89t113 -239v-4h-175q-6 85 -69.5 131.5t-172.5 46.5t-165.5 -38t-56.5 -111 q0 -52 35.5 -81.5t132.5 -51.5l174 -41q186 -44 256 -112.5t70 -195.5q0 -167 -117.5 -259.5t-328.5 -92.5q-206 0 -316.5 98t-113.5 283z" />
<glyph unicode="t" horiz-adv-x="575" d="M8 928v143h160v299h180v-299h193v-143h-193v-658q0 -72 20.5 -96t75.5 -24q16 0 38.5 1t58.5 4v-153q-45 -8 -80.5 -12t-63.5 -4q-127 0 -178 49t-51 174v719h-160z" />
<glyph unicode="u" horiz-adv-x="1165" d="M133 377v51v643h182v-657q0 -158 49.5 -219.5t167.5 -61.5q156 0 236 91.5t80 269.5v577h180v-1071h-172v160q-56 -93 -145 -140t-209 -47q-112 0 -195 38t-127 108q-25 39 -36 91.5t-11 166.5z" />
<glyph unicode="v" horiz-adv-x="985" d="M2 1071h193l299 -858l292 858h193l-391 -1071h-191z" />
<glyph unicode="w" horiz-adv-x="1491" d="M14 1071h187l227 -819l211 819h209l209 -819l235 819h185l-326 -1071h-182l-226 825l-227 -825h-182z" />
<glyph unicode="x" horiz-adv-x="981" d="M0 0l373 551l-355 520h211l263 -385l258 385h208l-360 -518l383 -553h-217l-281 414l-272 -414h-211z" />
<glyph unicode="y" horiz-adv-x="1038" d="M20 1071h201l297 -866l297 866h201l-451 -1237q-64 -175 -129 -229t-188 -54q-27 0 -53.5 4.5t-53.5 12.5v172q27 -8 53 -12t52 -4q52 0 84 21t49 67l47 127z" />
<glyph unicode="z" horiz-adv-x="985" d="M51 0v147l633 766h-600v158h831v-145l-626 -764h655v-162h-893z" />
<glyph unicode="{" d="M168 457v149q8 0 23 -1t22 -1q130 0 184 60.5t54 207.5v246q0 148 22.5 210.5t77.5 96.5q45 28 108.5 40t169.5 12h37v-150h-41q-120 0 -161 -44.5t-41 -184.5v-242q0 -160 -44.5 -228t-156.5 -98q113 -28 157 -96t44 -229v-242q0 -141 41.5 -185t162.5 -44h39v-148h-43 q-108 0 -169 11.5t-103 37.5q-55 34 -77.5 97t-22.5 211v245q0 149 -54.5 210t-185.5 61q-7 0 -21.5 -1t-21.5 -1z" />
<glyph unicode="|" d="M438 -483v2048h150v-2048h-150z" />
<glyph unicode="}" d="M160 -266h39q120 0 162 45t42 186v240q0 160 44.5 228t156.5 97q-112 30 -156.5 98t-44.5 228v242q0 140 -42 184.5t-162 44.5h-39v150h37q107 0 171 -12.5t107 -39.5q55 -34 77.5 -96.5t22.5 -210.5v-246q0 -147 54 -207.5t184 -60.5q7 0 22 1t23 1v-149q-7 0 -22 1 t-21 1q-132 0 -186 -60.5t-54 -210.5v-245q0 -148 -22.5 -211t-77.5 -97q-42 -26 -103 -37.5t-169 -11.5h-43v148z" />
<glyph unicode="~" horiz-adv-x="1706" d="M178 451v155q106 72 202 108t185 36q62 0 127.5 -13.5t163.5 -48.5q16 -5 47 -17q159 -57 240 -57q88 0 179.5 37t207.5 119v-156q-104 -72 -199 -106.5t-190 -34.5q-93 0 -256 58q-22 8 -34 12l-15 5q-176 60 -273 60q-84 0 -175 -37t-210 -120z" />
<glyph unicode="&#xa1;" horiz-adv-x="657" d="M227 0v477l49 639h105l47 -639v-477h-201zM227 1251v222h201v-222h-201z" />
<glyph unicode="&#xa2;" horiz-adv-x="1124" d="M84 532q0 259 130 415.5t343 156.5q24 0 49.5 -2t52.5 -6l54 184h94l-59 -207q113 -44 175.5 -135t69.5 -223h-180q-3 66 -30.5 114t-82.5 80l-218 -772q17 -3 33.5 -4.5t33.5 -1.5q105 0 175 66t93 188h178q-15 -189 -136 -302.5t-308 -113.5q-33 0 -60.5 2.5t-54.5 7.5 l-59 -212h-94l67 243q-133 68 -199.5 198t-66.5 324zM274 539q0 -133 30 -218.5t95 -142.5l217 762q-23 3 -33.5 3.5t-19.5 0.5q-134 0 -211.5 -107.5t-77.5 -297.5z" />
<glyph unicode="&#xa3;" horiz-adv-x="1124" d="M53 645v103h158q-55 92 -80 165t-25 140q0 173 134.5 293t334.5 120q213 0 339 -117.5t126 -316.5q0 -6 -1 -19.5t-1 -19.5h-182v17q0 138 -73.5 213t-207.5 75q-119 0 -196.5 -71.5t-77.5 -179.5q0 -79 97 -268q10 -20 15 -31h322v-103h-274q10 -37 15 -68t5 -53 q0 -86 -51 -177t-154 -189q48 26 105 38.5t129 12.5q70 0 175 -36t142 -36q39 0 80 15.5t88 48.5l82 -140q-64 -54 -125 -79t-129 -25q-42 0 -83 8.5t-91 28.5l-94 37q-33 12 -65.5 18t-63.5 6q-73 0 -138.5 -21.5t-125.5 -66.5l-99 146q126 102 187 195t61 181 q0 36 -11 75.5t-32 80.5h-215z" />
<glyph unicode="&#xa4;" horiz-adv-x="1124" d="M-29 793l39 92h99q16 307 145 466.5t360 159.5q194 0 314.5 -127t140.5 -354h-197q-17 155 -86 234t-186 79q-140 0 -212.5 -112.5t-82.5 -345.5h449l-39 -92h-414v-115h361l-39 -92h-318q8 -232 80.5 -345.5t212.5 -113.5q127 0 202 109.5t81 306.5l196 -1 q-7 -266 -140.5 -424.5t-350.5 -158.5q-213 0 -337 162.5t-140 464.5h-111l39 92h65v115h-131z" />
<glyph unicode="&#xa5;" horiz-adv-x="1235" d="M16 563v92h461l-84 127h-377v92h322l-322 517h228l383 -656l385 656h207l-314 -517h314v-92h-371l-78 -127h449v-92h-500v-563h-184v563h-519z" />
<glyph unicode="&#xa6;" d="M438 -350v758h150v-758h-150zM438 674v758h150v-758h-150z" />
<glyph unicode="&#xa7;" d="M80 711q0 84 44.5 156.5t133.5 131.5q-46 39 -69 89t-23 112q0 138 93.5 225.5t242.5 87.5q161 0 253.5 -86t92.5 -235v-10h-170q-4 83 -51.5 131.5t-124.5 48.5q-73 0 -115.5 -37.5t-42.5 -101.5q0 -51 33.5 -91t116.5 -83l247 -134q108 -58 155.5 -128.5t47.5 -172.5 q0 -88 -51 -163.5t-133 -110.5q52 -44 77 -98.5t25 -120.5q0 -139 -101.5 -228.5t-260.5 -89.5t-254.5 91.5t-95.5 244.5h174v-4q0 -84 50 -130t142 -46q79 0 125.5 38t46.5 103q0 59 -45.5 107t-179.5 121l-182 100q-103 56 -152 125t-49 158zM258 766q0 -56 34 -98 t144 -105l221 -129q48 29 75.5 72t27.5 90q0 55 -36 97.5t-142 101.5l-217 120q-54 -31 -80.5 -68t-26.5 -81z" />
<glyph unicode="&#xa8;" d="M256 1274v211h182v-211h-182zM586 1274v211h182v-211h-182z" />
<glyph unicode="&#xa9;" horiz-adv-x="1706" d="M117 727q0 147 56 281.5t163 242.5q104 104 236 158.5t280 54.5q152 0 285.5 -54.5t238.5 -160.5q104 -103 159.5 -238.5t55.5 -283.5q0 -149 -54.5 -281.5t-158.5 -234.5q-110 -107 -245.5 -164t-280.5 -57t-278.5 56t-239.5 163q-106 105 -161.5 238.5t-55.5 279.5z M213 727q0 -126 49 -242t141 -209q92 -91 207.5 -139.5t243.5 -48.5q125 0 242 49t213 142q90 88 137 202.5t47 245.5q0 130 -47.5 246.5t-136.5 206.5q-93 92 -209 140t-246 48q-129 0 -243.5 -47t-204.5 -137q-93 -93 -143 -211.5t-50 -245.5zM463 733q0 200 109 322.5 t286 122.5q142 0 236.5 -75t105.5 -196h-147q-13 77 -66 118.5t-139 41.5q-105 0 -165 -90.5t-60 -249.5q0 -157 62 -244.5t173 -87.5q82 0 136.5 47t68.5 129h145q-9 -130 -107.5 -211t-248.5 -81q-182 0 -285.5 120t-103.5 334z" />
<glyph unicode="&#xaa;" horiz-adv-x="834" d="M45 934q0 104 69.5 164.5t211.5 77.5q45 5 112 11q142 13 142 93q0 52 -43 78t-129 26q-92 0 -136.5 -33.5t-44.5 -103.5h-145v13q0 117 88 184t242 67q165 0 244 -57.5t79 -179.5v-377q0 -45 9.5 -56.5t35.5 -11.5q7 0 18.5 2t24.5 4v-112q-22 -7 -42 -10.5t-36 -3.5 q-75 0 -114 26t-39 78q-60 -56 -129 -84.5t-148 -28.5q-127 0 -198.5 62.5t-71.5 171.5zM102 457v112h664v-112h-664zM203 934q0 -53 35 -81t102 -28q104 0 172 50t68 126v99q-48 -23 -172 -38l-72 -9q-74 -12 -103.5 -39t-29.5 -80z" />
<glyph unicode="&#xab;" horiz-adv-x="909" d="M80 442v199l323 242v-174l-213 -168l213 -166v-176zM489 442v199l324 242v-174l-213 -168l213 -166v-176z" />
<glyph unicode="&#xac;" horiz-adv-x="1706" d="M254 721v139h1198v-502h-137v363h-1061z" />
<glyph unicode="&#xad;" horiz-adv-x="639" d="M72 461v162h495v-162h-495z" />
<glyph unicode="&#xae;" horiz-adv-x="1706" d="M117 727q0 146 57.5 282.5t165.5 245.5q101 103 231.5 156t280.5 53q151 0 286 -56t240 -163q103 -104 158 -238t55 -280q0 -151 -55 -283.5t-160 -234.5q-109 -106 -244.5 -162.5t-279.5 -56.5q-147 0 -280.5 56.5t-239.5 164.5q-105 106 -160 238.5t-55 277.5zM213 727 q0 -125 48.5 -240.5t139.5 -207.5q90 -92 206.5 -141.5t240.5 -49.5q130 0 246.5 48t212.5 140q90 88 138 202.5t48 242.5q0 134 -46.5 251t-135.5 206q-92 93 -208.5 141.5t-248.5 48.5q-130 0 -245 -47t-201 -135q-94 -95 -144.5 -214t-50.5 -245zM557 324v835h315 q174 0 261.5 -57.5t87.5 -171.5q0 -89 -50 -148t-141 -77l187 -381h-177l-170 356h-155v-356h-158zM715 780h133q113 0 162 31.5t49 101.5q0 76 -51 110t-164 34h-129v-277z" />
<glyph unicode="&#xaf;" d="M242 1309v141h540v-141h-540z" />
<glyph unicode="&#xb0;" horiz-adv-x="674" d="M49 1167q0 120 84.5 204.5t204.5 84.5q118 0 202.5 -84.5t84.5 -204.5q0 -119 -84 -202.5t-205 -83.5t-204 83t-83 203zM143 1169q0 -81 57 -138.5t138 -57.5t136.5 57.5t55.5 138.5t-55.5 137t-136.5 56t-138 -56t-57 -137z" />
<glyph unicode="&#xb1;" horiz-adv-x="1706" d="M254 29v141h1198v-141h-1198zM254 713v139h528v340h142v-340h528v-139h-528v-340h-142v340h-528z" />
<glyph unicode="&#xb2;" horiz-adv-x="741" d="M41 557v8q0 123 66.5 208t232.5 167l80 39q71 36 104 81t33 103q0 69 -50.5 110.5t-135.5 41.5q-87 0 -137 -53t-50 -146v-10h-123v14q0 137 84.5 216t229.5 79q141 0 226 -69.5t85 -184.5q0 -87 -49.5 -153t-153.5 -115l-80 -37q-108 -52 -159.5 -96t-67.5 -96h510v-107 h-645z" />
<glyph unicode="&#xb3;" horiz-adv-x="741" d="M31 819v6h122q4 -92 56 -141t147 -49q92 0 145.5 45.5t53.5 124.5q0 71 -52 110t-147 39q-27 0 -41.5 -0.5t-25.5 -0.5v97q8 0 17 -0.5t22 -0.5q102 0 147 31t45 102q0 64 -43 98.5t-123 34.5q-90 0 -136 -46t-46 -136h-119v6q0 127 80 201.5t215 74.5q144 0 222.5 -60 t78.5 -169q0 -62 -29.5 -105.5t-87.5 -66.5q76 -25 115 -78t39 -131q0 -124 -92 -198.5t-246 -74.5q-145 0 -231 78t-86 209z" />
<glyph unicode="&#xb4;" d="M369 1217l204 348h201l-285 -348h-120z" />
<glyph unicode="&#xb5;" horiz-adv-x="1151" d="M-113 -428l318 1499h180l-129 -600q-7 -32 -10.5 -64.5t-3.5 -68.5q0 -99 52 -153t148 -54q132 0 208.5 92.5t123.5 311.5l115 536h178l-156 -732q-1 -6 -4 -20q-18 -87 -18 -112q0 -37 16.5 -52.5t55.5 -15.5q12 0 18.5 0.5t13.5 1.5l-31 -143q-24 -5 -50 -7.5t-58 -2.5 q-63 0 -97 29t-52 100q-45 -66 -112.5 -98.5t-158.5 -32.5q-82 0 -143 27.5t-113 88.5l-110 -530h-181z" />
<glyph unicode="&#xb6;" d="M66 1130q0 157 107.5 253t285.5 96h499v-86h-120v-1393h-111v1393h-176v-1393h-113v782q-170 8 -271 102.5t-101 245.5z" />
<glyph unicode="&#xb7;" horiz-adv-x="561" d="M158 702q0 52 35.5 87.5t87.5 35.5t88.5 -35.5t36.5 -87.5q0 -51 -36.5 -86.5t-88.5 -35.5t-87.5 35.5t-35.5 86.5z" />
<glyph unicode="&#xb8;" d="M287 -313q75 -18 139 -27.5t106 -9.5q51 0 78 19t27 55q0 41 -31 60t-96 19q-19 0 -29.5 -0.5t-19.5 -0.5v180h74v-93h28q102 0 156.5 -40.5t54.5 -116.5q0 -88 -60 -132t-179 -44q-49 0 -111.5 9.5t-134.5 28.5z" />
<glyph unicode="&#xb9;" horiz-adv-x="741" d="M127 1163v88q118 2 178.5 41.5t71.5 122.5h92v-858h-123v606h-219z" />
<glyph unicode="&#xba;" horiz-adv-x="893" d="M51 1106q0 190 105 297.5t290 107.5q187 0 291.5 -107t104.5 -298t-104 -298.5t-289 -107.5q-189 0 -293.5 106.5t-104.5 299.5zM111 457v112h671v-112h-671zM211 1108q0 -137 61 -209t177 -72q114 0 174.5 72.5t60.5 208.5q0 135 -60 205.5t-175 70.5 q-117 0 -177.5 -70.5t-60.5 -205.5z" />
<glyph unicode="&#xbb;" horiz-adv-x="909" d="M96 199v176l215 166l-215 166v176l324 -242v-199zM508 199v176l213 166l-213 166v176l323 -242v-199z" />
<glyph unicode="&#xbc;" horiz-adv-x="1757" d="M121 1180v79q114 2 171.5 39t67.5 115h89v-801h-119v568h-209zM367 -41l899 1473h125l-899 -1473h-125zM1083 197v102l392 479h116v-489h127v-92h-127v-197h-116v197h-392zM1192 289h283v356z" />
<glyph unicode="&#xbd;" horiz-adv-x="1757" d="M121 1180v79q114 2 171.5 39t67.5 115h89v-801h-119v568h-209zM367 -41l899 1473h125l-899 -1473h-125zM1092 0v6q0 117 62.5 196t219.5 156l76 37q68 33 100.5 74.5t32.5 95.5q0 64 -48.5 103t-129.5 39q-83 0 -130.5 -49.5t-47.5 -135.5v-10h-117v14q0 128 80.5 201.5 t218.5 73.5q133 0 214 -64.5t81 -171.5q0 -82 -47 -143.5t-146 -108.5l-75 -34q-105 -49 -153 -90t-62 -91h483v-98h-612z" />
<glyph unicode="&#xbe;" horiz-adv-x="1759" d="M29 856v6h118q2 -84 52 -130t141 -46q89 0 138.5 42t49.5 116q0 67 -48.5 103t-139.5 36q-25 0 -39 -0.5t-27 -1.5l1 92q8 -1 17 -1.5t21 -0.5q98 0 141.5 29t43.5 94q0 61 -41.5 94t-118.5 33q-85 0 -128.5 -43t-43.5 -127h-115v4q0 119 76 188.5t205 69.5 q137 0 213 -55.5t76 -157.5q0 -59 -28.5 -99.5t-84.5 -62.5q72 -23 108.5 -72t36.5 -122q0 -116 -87.5 -185t-233.5 -69q-138 0 -220.5 72.5t-82.5 193.5zM367 -41l899 1473h125l-899 -1473h-125zM1083 197v102l392 479h116v-489h127v-92h-127v-197h-116v197h-392zM1192 289 h283v356z" />
<glyph unicode="&#xbf;" horiz-adv-x="1075" d="M121 346q0 94 37.5 175t113.5 153l84 80q78 74 103.5 131t25.5 139q0 20 -0.5 31t-0.5 20h178q0 -8 1 -23t1 -22q0 -110 -37 -195t-121 -167l-78 -78q-61 -61 -87 -118t-26 -128q0 -100 65.5 -161.5t172.5 -61.5q131 0 198 80.5t72 244.5h178v-26q0 -219 -119 -339 t-337 -120q-192 0 -308 105.5t-116 279.5zM467 1251v222h201v-222h-201z" />
<glyph unicode="&#xc0;" horiz-adv-x="1305" d="M-6 0l547 1473h221l549 -1473h-217l-156 440h-580l-157 -440h-207zM391 1950h201l204 -348h-120zM420 612h459l-228 650z" />
<glyph unicode="&#xc1;" horiz-adv-x="1305" d="M-6 0l547 1473h221l549 -1473h-217l-156 440h-580l-157 -440h-207zM420 612h459l-228 650zM510 1602l204 348h201l-285 -348h-120z" />
<glyph unicode="&#xc2;" horiz-adv-x="1305" d="M-6 0l547 1473h221l549 -1473h-217l-156 440h-580l-157 -440h-207zM358 1602l197 348h196l197 -348h-123l-172 227l-174 -227h-121zM420 612h459l-228 650z" />
<glyph unicode="&#xc3;" horiz-adv-x="1305" d="M-6 0l547 1473h221l549 -1473h-217l-156 440h-580l-157 -440h-207zM360 1647q18 98 68 151t125 53q17 0 32 -2t27 -6l99 -29q15 -4 28 -6t25 -2q34 0 57 18t37 54h88q-20 -101 -70 -154t-127 -53q-13 0 -29.5 2.5t-35.5 7.5l-97 27q-13 4 -25.5 6t-23.5 2 q-30 0 -53 -17.5t-37 -51.5h-88zM420 612h459l-228 650z" />
<glyph unicode="&#xc4;" horiz-adv-x="1305" d="M-6 0l547 1473h221l549 -1473h-217l-156 440h-580l-157 -440h-207zM397 1659v211h182v-211h-182zM420 612h459l-228 650zM727 1659v211h182v-211h-182z" />
<glyph unicode="&#xc5;" horiz-adv-x="1305" d="M-6 0l547 1473h221l549 -1473h-217l-156 440h-573l-154 -440h-217zM424 612h455l-228 650zM426 1747q0 95 66 160t161 65q96 0 161 -65t65 -160q0 -96 -65.5 -161.5t-160.5 -65.5q-94 0 -160.5 66.5t-66.5 160.5zM543 1747q0 -46 32 -78.5t78 -32.5t78.5 33t32.5 78 t-33 78t-78 33t-77.5 -33t-32.5 -78z" />
<glyph unicode="&#xc6;" horiz-adv-x="1942" d="M-31 0l609 1473h1267v-183h-805v-440h740v-172h-740v-494h815v-184h-1011v440h-484l-172 -440h-219zM428 612h416v691h-148z" />
<glyph unicode="&#xc7;" horiz-adv-x="1460" d="M94 758q0 344 185.5 548.5t500.5 204.5q250 0 410 -130.5t182 -350.5h-196q-27 146 -131.5 224.5t-272.5 78.5q-225 0 -349 -157t-124 -443q0 -270 129 -433t342 -163q181 0 296.5 113t121.5 297h194q-9 -250 -170 -410t-424 -178v-70h27q102 0 157.5 -41t55.5 -116 q0 -89 -59.5 -132.5t-177.5 -43.5q-52 0 -115 9.5t-131 28.5l-2 93q78 -18 143 -27.5t102 -9.5q51 0 78 19t27 55q0 40 -29.5 59.5t-89.5 19.5q-18 0 -31 -0.5t-26 -0.5v157q-294 19 -458.5 229t-164.5 570z" />
<glyph unicode="&#xc8;" horiz-adv-x="1309" d="M158 0v1473h1050v-183h-852v-440h787v-172h-787v-494h869v-184h-1067zM412 1950h201l204 -348h-120z" />
<glyph unicode="&#xc9;" horiz-adv-x="1309" d="M158 0v1473h1050v-183h-852v-440h787v-172h-787v-494h869v-184h-1067zM531 1602l204 348h201l-285 -348h-120z" />
<glyph unicode="&#xca;" horiz-adv-x="1309" d="M158 0v1473h1050v-183h-852v-440h787v-172h-787v-494h869v-184h-1067zM379 1602l197 348h196l197 -348h-123l-172 227l-174 -227h-121z" />
<glyph unicode="&#xcb;" horiz-adv-x="1309" d="M158 0v1473h1050v-183h-852v-440h787v-172h-787v-494h869v-184h-1067zM418 1659v211h182v-211h-182zM748 1659v211h182v-211h-182z" />
<glyph unicode="&#xcc;" horiz-adv-x="526" d="M2 1950h201l204 -348h-120zM162 0v1473h200v-1473h-200z" />
<glyph unicode="&#xcd;" horiz-adv-x="526" d="M121 1602l204 348h201l-285 -348h-120zM162 0v1473h200v-1473h-200z" />
<glyph unicode="&#xce;" horiz-adv-x="526" d="M-31 1602l197 348h196l197 -348h-123l-172 227l-174 -227h-121zM162 0v1473h200v-1473h-200z" />
<glyph unicode="&#xcf;" horiz-adv-x="526" d="M8 1659v211h182v-211h-182zM162 0v1473h200v-1473h-200zM338 1659v211h182v-211h-182z" />
<glyph unicode="&#xd0;" horiz-adv-x="1458" d="M0 719v127h166v627h563q308 0 470.5 -184t162.5 -531q0 -360 -168.5 -559t-472.5 -199h-555v719h-166zM367 180h346q220 0 333 143.5t113 424.5q0 269 -115 412t-331 143h-346v-457h395v-127h-395v-539z" />
<glyph unicode="&#xd1;" horiz-adv-x="1477" d="M156 0v1473h219l688 -1070q23 -35 40 -66t27 -58v1194h191v-1473h-217l-703 1085q-16 25 -29.5 52t-25.5 57v-1194h-190zM446 1647q18 98 68 151t125 53q17 0 32 -2t27 -6l99 -29q15 -4 28 -6t25 -2q34 0 57 18t37 54h88q-20 -101 -70 -154t-127 -53q-13 0 -29.5 2.5 t-35.5 7.5l-97 27q-13 4 -25.5 6t-23.5 2q-30 0 -53 -17.5t-37 -51.5h-88z" />
<glyph unicode="&#xd2;" horiz-adv-x="1583" d="M94 735q0 365 185.5 570.5t513.5 205.5q327 0 511.5 -205t184.5 -571q0 -365 -184.5 -570.5t-511.5 -205.5q-328 0 -513.5 205.5t-185.5 570.5zM301 735q0 -283 130.5 -442.5t361.5 -159.5q230 0 359.5 159.5t129.5 442.5q0 284 -129.5 443t-359.5 159 q-231 0 -361.5 -159t-130.5 -443zM531 1950h201l204 -348h-120z" />
<glyph unicode="&#xd3;" horiz-adv-x="1583" d="M94 735q0 365 185.5 570.5t513.5 205.5q327 0 511.5 -205t184.5 -571q0 -365 -184.5 -570.5t-511.5 -205.5q-328 0 -513.5 205.5t-185.5 570.5zM301 735q0 -283 130.5 -442.5t361.5 -159.5q230 0 359.5 159.5t129.5 442.5q0 284 -129.5 443t-359.5 159 q-231 0 -361.5 -159t-130.5 -443zM650 1602l204 348h201l-285 -348h-120z" />
<glyph unicode="&#xd4;" horiz-adv-x="1583" d="M94 735q0 365 185.5 570.5t513.5 205.5q327 0 511.5 -205t184.5 -571q0 -365 -184.5 -570.5t-511.5 -205.5q-328 0 -513.5 205.5t-185.5 570.5zM301 735q0 -283 130.5 -442.5t361.5 -159.5q230 0 359.5 159.5t129.5 442.5q0 284 -129.5 443t-359.5 159 q-231 0 -361.5 -159t-130.5 -443zM498 1602l197 348h196l197 -348h-123l-172 227l-174 -227h-121z" />
<glyph unicode="&#xd5;" horiz-adv-x="1583" d="M94 735q0 365 185.5 570.5t513.5 205.5q327 0 511.5 -205t184.5 -571q0 -365 -184.5 -570.5t-511.5 -205.5q-328 0 -513.5 205.5t-185.5 570.5zM301 735q0 -283 130.5 -442.5t361.5 -159.5q230 0 359.5 159.5t129.5 442.5q0 284 -129.5 443t-359.5 159 q-231 0 -361.5 -159t-130.5 -443zM500 1647q18 98 68 151t125 53q17 0 32 -2t27 -6l99 -29q15 -4 28 -6t25 -2q34 0 57 18t37 54h88q-20 -101 -70 -154t-127 -53q-13 0 -29.5 2.5t-35.5 7.5l-97 27q-13 4 -25.5 6t-23.5 2q-30 0 -53 -17.5t-37 -51.5h-88z" />
<glyph unicode="&#xd6;" horiz-adv-x="1583" d="M94 735q0 365 185.5 570.5t513.5 205.5q327 0 511.5 -205t184.5 -571q0 -365 -184.5 -570.5t-511.5 -205.5q-328 0 -513.5 205.5t-185.5 570.5zM301 735q0 -283 130.5 -442.5t361.5 -159.5q230 0 359.5 159.5t129.5 442.5q0 284 -129.5 443t-359.5 159 q-231 0 -361.5 -159t-130.5 -443zM537 1659v211h182v-211h-182zM867 1659v211h182v-211h-182z" />
<glyph unicode="&#xd7;" horiz-adv-x="1706" d="M293 141l469 469l-469 469l98 99l469 -469l469 469l98 -99l-469 -469l469 -469l-98 -96l-469 467l-469 -467z" />
<glyph unicode="&#xd8;" horiz-adv-x="1583" d="M84 25l162 182q-76 97 -114 228.5t-38 299.5q0 365 185.5 570.5t513.5 205.5q144 0 262 -42t215 -128l151 170l72 -67l-156 -176q76 -97 114 -230.5t38 -302.5q0 -365 -184.5 -570.5t-511.5 -205.5q-149 0 -267.5 43t-214.5 131l-153 -174zM301 725q0 -116 21 -206.5 t65 -164.5l756 840q-67 75 -151 109t-199 34q-233 0 -362.5 -161t-129.5 -451zM440 281q69 -74 157.5 -111t195.5 -37q230 0 359.5 159.5t129.5 442.5q0 114 -21.5 210.5t-64.5 172.5z" />
<glyph unicode="&#xd9;" horiz-adv-x="1452" d="M150 559v914h200v-916q0 -207 91.5 -306t283.5 -99q190 0 283.5 100.5t93.5 304.5v916h201v-914q0 -296 -152.5 -448t-448.5 -152q-276 0 -414 150t-138 450zM465 1950h201l204 -348h-120z" />
<glyph unicode="&#xda;" horiz-adv-x="1452" d="M150 559v914h200v-916q0 -207 91.5 -306t283.5 -99q190 0 283.5 100.5t93.5 304.5v916h201v-914q0 -296 -152.5 -448t-448.5 -152q-276 0 -414 150t-138 450zM584 1602l204 348h201l-285 -348h-120z" />
<glyph unicode="&#xdb;" horiz-adv-x="1452" d="M150 559v914h200v-916q0 -207 91.5 -306t283.5 -99q190 0 283.5 100.5t93.5 304.5v916h201v-914q0 -296 -152.5 -448t-448.5 -152q-276 0 -414 150t-138 450zM432 1602l197 348h196l197 -348h-123l-172 227l-174 -227h-121z" />
<glyph unicode="&#xdc;" horiz-adv-x="1452" d="M150 559v914h200v-916q0 -207 91.5 -306t283.5 -99q190 0 283.5 100.5t93.5 304.5v916h201v-914q0 -296 -152.5 -448t-448.5 -152q-276 0 -414 150t-138 450zM471 1659v211h182v-211h-182zM801 1659v211h182v-211h-182z" />
<glyph unicode="&#xdd;" horiz-adv-x="1235" d="M-18 1473h251l394 -697l391 697h235l-524 -869v-604h-201v590zM475 1602l204 348h201l-285 -348h-120z" />
<glyph unicode="&#xde;" horiz-adv-x="1290" d="M158 0v1473h200v-287h344q138 0 204.5 -12t117.5 -39q90 -47 138 -136.5t48 -210.5q0 -115 -48 -202t-140 -140q-53 -29 -125 -42t-235 -13h-304v-391h-200zM358 565h336q173 0 243.5 51.5t70.5 171.5q0 119 -69 171.5t-230 52.5h-351v-447z" />
<glyph unicode="&#xdf;" horiz-adv-x="1104" d="M137 0v1049q0 217 107 330.5t311 113.5q183 0 293 -101.5t110 -269.5q0 -111 -40 -187.5t-119 -113.5q106 -35 165.5 -129.5t59.5 -226.5q0 -220 -123.5 -360t-314.5 -140q-20 0 -48 3.5t-73 11.5v167q24 -6 45.5 -9t40.5 -3q126 0 205.5 85.5t79.5 223.5 q0 142 -80 210.5t-246 68.5h-31v149h31q131 0 198.5 59.5t67.5 174.5q0 105 -61 167t-164 62q-122 0 -179 -75t-57 -238v-1022h-178z" />
<glyph unicode="&#xe0;" horiz-adv-x="1112" d="M72 289q0 146 90.5 229t275.5 107q47 5 127 14q137 14 168 27q31 12 41 31.5t10 84.5q0 82 -60 123t-181 41q-125 0 -188.5 -50t-63.5 -148h-170v8q0 162 114 256t314 94q215 0 316.5 -80.5t101.5 -251.5v-536q0 -69 15 -89t54 -20q8 0 19.5 1.5t27.5 4.5v-139 q-33 -9 -57.5 -12.5t-46.5 -3.5q-90 0 -135 39t-45 118v6q-84 -88 -178.5 -132t-200.5 -44q-164 0 -256 85.5t-92 236.5zM258 291q0 -80 50 -123t143 -43q145 0 238 73t93 187v160q-72 -39 -247 -61q-62 -8 -93 -13q-98 -16 -141 -58t-43 -122zM295 1565h201l204 -348h-120z " />
<glyph unicode="&#xe1;" horiz-adv-x="1112" d="M72 289q0 146 90.5 229t275.5 107q47 5 127 14q137 14 168 27q31 12 41 31.5t10 84.5q0 82 -60 123t-181 41q-125 0 -188.5 -50t-63.5 -148h-170v8q0 162 114 256t314 94q215 0 316.5 -80.5t101.5 -251.5v-536q0 -69 15 -89t54 -20q8 0 19.5 1.5t27.5 4.5v-139 q-33 -9 -57.5 -12.5t-46.5 -3.5q-90 0 -135 39t-45 118v6q-84 -88 -178.5 -132t-200.5 -44q-164 0 -256 85.5t-92 236.5zM258 291q0 -80 50 -123t143 -43q145 0 238 73t93 187v160q-72 -39 -247 -61q-62 -8 -93 -13q-98 -16 -141 -58t-43 -122zM414 1217l204 348h201 l-285 -348h-120z" />
<glyph unicode="&#xe2;" horiz-adv-x="1112" d="M72 289q0 146 90.5 229t275.5 107q47 5 127 14q137 14 168 27q31 12 41 31.5t10 84.5q0 82 -60 123t-181 41q-125 0 -188.5 -50t-63.5 -148h-170v8q0 162 114 256t314 94q215 0 316.5 -80.5t101.5 -251.5v-536q0 -69 15 -89t54 -20q8 0 19.5 1.5t27.5 4.5v-139 q-33 -9 -57.5 -12.5t-46.5 -3.5q-90 0 -135 39t-45 118v6q-84 -88 -178.5 -132t-200.5 -44q-164 0 -256 85.5t-92 236.5zM258 291q0 -80 50 -123t143 -43q145 0 238 73t93 187v160q-72 -39 -247 -61q-62 -8 -93 -13q-98 -16 -141 -58t-43 -122zM262 1217l197 348h196 l197 -348h-123l-172 227l-174 -227h-121z" />
<glyph unicode="&#xe3;" horiz-adv-x="1112" d="M72 289q0 146 90.5 229t275.5 107q47 5 127 14q137 14 168 27q31 12 41 31.5t10 84.5q0 82 -60 123t-181 41q-125 0 -188.5 -50t-63.5 -148h-170v8q0 162 114 256t314 94q215 0 316.5 -80.5t101.5 -251.5v-536q0 -69 15 -89t54 -20q8 0 19.5 1.5t27.5 4.5v-139 q-33 -9 -57.5 -12.5t-46.5 -3.5q-90 0 -135 39t-45 118v6q-84 -88 -178.5 -132t-200.5 -44q-164 0 -256 85.5t-92 236.5zM258 291q0 -80 50 -123t143 -43q145 0 238 73t93 187v160q-72 -39 -247 -61q-62 -8 -93 -13q-98 -16 -141 -58t-43 -122zM264 1262q18 98 68 151 t125 53q17 0 32 -2t27 -6l99 -29q15 -4 28 -6t25 -2q34 0 57 18t37 54h88q-20 -101 -70 -154t-127 -53q-13 0 -29.5 2.5t-35.5 7.5l-97 27q-13 4 -25.5 6t-23.5 2q-30 0 -53 -17.5t-37 -51.5h-88z" />
<glyph unicode="&#xe4;" horiz-adv-x="1112" d="M72 289q0 146 90.5 229t275.5 107q47 5 127 14q137 14 168 27q31 12 41 31.5t10 84.5q0 82 -60 123t-181 41q-125 0 -188.5 -50t-63.5 -148h-170v8q0 162 114 256t314 94q215 0 316.5 -80.5t101.5 -251.5v-536q0 -69 15 -89t54 -20q8 0 19.5 1.5t27.5 4.5v-139 q-33 -9 -57.5 -12.5t-46.5 -3.5q-90 0 -135 39t-45 118v6q-84 -88 -178.5 -132t-200.5 -44q-164 0 -256 85.5t-92 236.5zM258 291q0 -80 50 -123t143 -43q145 0 238 73t93 187v160q-72 -39 -247 -61q-62 -8 -93 -13q-98 -16 -141 -58t-43 -122zM301 1274v211h182v-211h-182z M631 1274v211h182v-211h-182z" />
<glyph unicode="&#xe5;" horiz-adv-x="1112" d="M72 289q0 146 90.5 229t275.5 107q47 5 127 14q137 14 168 27q31 12 41 31.5t10 84.5q0 82 -60 123t-181 41q-125 0 -188.5 -50t-63.5 -148h-170v8q0 162 114 256t314 94q215 0 316.5 -80.5t101.5 -251.5v-536q0 -69 15 -89t54 -20q8 0 19.5 1.5t27.5 4.5v-139 q-33 -9 -57.5 -12.5t-46.5 -3.5q-90 0 -135 39t-45 118v6q-84 -88 -178.5 -132t-200.5 -44q-164 0 -256 85.5t-92 236.5zM258 291q0 -80 50 -123t143 -43q145 0 238 73t93 187v160q-72 -39 -247 -61q-62 -8 -93 -13q-98 -16 -141 -58t-43 -122zM324 1382q0 96 65 161t160 65 t160 -65t65 -161q0 -95 -65 -161t-160 -66q-94 0 -159.5 66.5t-65.5 160.5zM438 1382q0 -46 32.5 -78t78.5 -32q45 0 77.5 32.5t32.5 77.5q0 46 -32.5 78.5t-77.5 32.5t-78 -32.5t-33 -78.5z" />
<glyph unicode="&#xe6;" horiz-adv-x="1806" d="M76 274q0 152 88 241.5t258 109.5q43 5 116 12q246 24 246 129q0 96 -56.5 139t-182.5 43q-120 0 -183 -49t-63 -141v-8h-170v8q0 159 112.5 252.5t305.5 93.5q133 0 227 -39t144 -115q62 78 148.5 116t201.5 38q213 0 338 -150t125 -407q0 -26 -0.5 -38t-2.5 -24h-771 q3 -181 75 -268.5t217 -87.5q122 0 193 54t94 163h178q-32 -184 -158.5 -282.5t-330.5 -98.5q-141 0 -234.5 49t-146.5 150q-93 -104 -187.5 -151.5t-207.5 -47.5q-175 0 -274 82.5t-99 226.5zM264 293q0 -80 54 -124t151 -44q131 0 221 73.5t90 178.5v162 q-90 -34 -208.5 -51.5t-131.5 -20.5q-94 -25 -135 -65.5t-41 -108.5zM952 633h590q-1 150 -76 231.5t-213 81.5q-134 0 -211 -80.5t-90 -232.5z" />
<glyph unicode="&#xe7;" horiz-adv-x="1075" d="M80 532q0 267 132.5 420.5t360.5 153.5q202 0 323.5 -106.5t125.5 -284.5h-174q-8 110 -79.5 169.5t-195.5 59.5q-147 0 -226 -104.5t-79 -300.5q0 -197 76 -302.5t217 -105.5q125 0 200.5 65t94.5 189h172q-8 -182 -127 -295t-313 -123v-78h26q102 0 157.5 -41 t55.5 -116q0 -88 -60 -132t-179 -44q-51 0 -113.5 9.5t-132.5 28.5v93q79 -18 142.5 -27.5t101.5 -9.5q51 0 78.5 19t27.5 55q0 39 -30 59t-91 20q-17 0 -30.5 -0.5t-26.5 -0.5v165q-202 19 -318 170t-116 395z" />
<glyph unicode="&#xe8;" horiz-adv-x="1120" d="M86 524q0 274 128 428t353 154q231 0 357.5 -142t126.5 -401q0 -33 -0.5 -49t-2.5 -31h-773q3 -169 84 -261.5t225 -92.5q110 0 181.5 56.5t92.5 160.5h178q-29 -177 -154 -279t-315 -102q-223 0 -352 150t-129 409zM274 633h588q-1 150 -76 231.5t-213 81.5 q-133 0 -209.5 -80t-89.5 -233zM311 1565h201l204 -348h-120z" />
<glyph unicode="&#xe9;" horiz-adv-x="1120" d="M86 524q0 274 128 428t353 154q231 0 357.5 -142t126.5 -401q0 -33 -0.5 -49t-2.5 -31h-773q3 -169 84 -261.5t225 -92.5q110 0 181.5 56.5t92.5 160.5h178q-29 -177 -154 -279t-315 -102q-223 0 -352 150t-129 409zM274 633h588q-1 150 -76 231.5t-213 81.5 q-133 0 -209.5 -80t-89.5 -233zM430 1217l204 348h201l-285 -348h-120z" />
<glyph unicode="&#xea;" horiz-adv-x="1120" d="M86 524q0 274 128 428t353 154q231 0 357.5 -142t126.5 -401q0 -33 -0.5 -49t-2.5 -31h-773q3 -169 84 -261.5t225 -92.5q110 0 181.5 56.5t92.5 160.5h178q-29 -177 -154 -279t-315 -102q-223 0 -352 150t-129 409zM274 633h588q-1 150 -76 231.5t-213 81.5 q-133 0 -209.5 -80t-89.5 -233zM278 1217l197 348h196l197 -348h-123l-172 227l-174 -227h-121z" />
<glyph unicode="&#xeb;" horiz-adv-x="1120" d="M86 524q0 274 128 428t353 154q231 0 357.5 -142t126.5 -401q0 -33 -0.5 -49t-2.5 -31h-773q3 -169 84 -261.5t225 -92.5q110 0 181.5 56.5t92.5 160.5h178q-29 -177 -154 -279t-315 -102q-223 0 -352 150t-129 409zM274 633h588q-1 150 -76 231.5t-213 81.5 q-133 0 -209.5 -80t-89.5 -233zM317 1274v211h182v-211h-182zM647 1274v211h182v-211h-182z" />
<glyph unicode="&#xec;" horiz-adv-x="455" d="M-35 1565h201l204 -348h-120zM137 0v1071h180v-1071h-180z" />
<glyph unicode="&#xed;" horiz-adv-x="455" d="M84 1217l204 348h201l-285 -348h-120zM137 0v1071h180v-1071h-180z" />
<glyph unicode="&#xee;" horiz-adv-x="455" d="M-68 1217l197 348h196l197 -348h-123l-172 227l-174 -227h-121zM137 0v1071h180v-1071h-180z" />
<glyph unicode="&#xef;" horiz-adv-x="455" d="M-29 1274v211h182v-211h-182zM137 0v1071h180v-1071h-180zM301 1274v211h182v-211h-182z" />
<glyph unicode="&#xf0;" horiz-adv-x="1194" d="M86 518q0 242 134 387.5t355 145.5q42 0 82 -8t80 -23q-44 55 -96.5 101.5t-116.5 86.5l-270 -141l-39 82l221 117q-51 29 -110 57t-131 57l43 123q98 -30 189.5 -71t176.5 -93l268 142l39 -84l-221 -115q210 -159 316 -351t106 -413q0 -261 -135 -406t-377 -145 q-244 0 -379 145t-135 406zM270 522q0 -192 85.5 -293.5t246.5 -101.5q158 0 242 101.5t84 293.5q0 190 -85 293t-241 103q-154 0 -243 -106t-89 -290z" />
<glyph unicode="&#xf1;" horiz-adv-x="1165" d="M137 0v1071h172v-156q62 93 147 138t197 45q121 0 204 -36.5t128 -109.5q25 -39 36 -91.5t11 -166.5v-51v-643h-182v659q0 158 -48.5 218.5t-166.5 60.5q-151 0 -234.5 -85.5t-83.5 -242.5v-610h-180zM303 1262q18 98 68 151t125 53q17 0 32 -2t27 -6l99 -29q15 -4 28 -6 t25 -2q34 0 57 18t37 54h88q-20 -101 -70 -154t-127 -53q-13 0 -29.5 2.5t-35.5 7.5l-97 27q-13 4 -25.5 6t-23.5 2q-30 0 -53 -17.5t-37 -51.5h-88z" />
<glyph unicode="&#xf2;" horiz-adv-x="1190" d="M82 537q0 269 134.5 419t377.5 150q244 0 379 -149.5t135 -419.5t-134.5 -420t-377.5 -150q-244 0 -379 149.5t-135 420.5zM266 537q0 -199 85.5 -304.5t244.5 -105.5q158 0 242 105.5t84 304.5q0 198 -84 303.5t-242 105.5q-160 0 -245 -105t-85 -304zM334 1565h201 l204 -348h-120z" />
<glyph unicode="&#xf3;" horiz-adv-x="1190" d="M82 537q0 269 134.5 419t377.5 150q244 0 379 -149.5t135 -419.5t-134.5 -420t-377.5 -150q-244 0 -379 149.5t-135 420.5zM266 537q0 -199 85.5 -304.5t244.5 -105.5q158 0 242 105.5t84 304.5q0 198 -84 303.5t-242 105.5q-160 0 -245 -105t-85 -304zM453 1217l204 348 h201l-285 -348h-120z" />
<glyph unicode="&#xf4;" horiz-adv-x="1190" d="M82 537q0 269 134.5 419t377.5 150q244 0 379 -149.5t135 -419.5t-134.5 -420t-377.5 -150q-244 0 -379 149.5t-135 420.5zM266 537q0 -199 85.5 -304.5t244.5 -105.5q158 0 242 105.5t84 304.5q0 198 -84 303.5t-242 105.5q-160 0 -245 -105t-85 -304zM301 1217l197 348 h196l197 -348h-123l-172 227l-174 -227h-121z" />
<glyph unicode="&#xf5;" horiz-adv-x="1190" d="M82 537q0 269 134.5 419t377.5 150q244 0 379 -149.5t135 -419.5t-134.5 -420t-377.5 -150q-244 0 -379 149.5t-135 420.5zM266 537q0 -199 85.5 -304.5t244.5 -105.5q158 0 242 105.5t84 304.5q0 198 -84 303.5t-242 105.5q-160 0 -245 -105t-85 -304zM303 1262 q18 98 68 151t125 53q17 0 32 -2t27 -6l99 -29q15 -4 28 -6t25 -2q34 0 57 18t37 54h88q-20 -101 -70 -154t-127 -53q-13 0 -29.5 2.5t-35.5 7.5l-97 27q-13 4 -25.5 6t-23.5 2q-30 0 -53 -17.5t-37 -51.5h-88z" />
<glyph unicode="&#xf6;" horiz-adv-x="1190" d="M82 537q0 269 134.5 419t377.5 150q244 0 379 -149.5t135 -419.5t-134.5 -420t-377.5 -150q-244 0 -379 149.5t-135 420.5zM266 537q0 -199 85.5 -304.5t244.5 -105.5q158 0 242 105.5t84 304.5q0 198 -84 303.5t-242 105.5q-160 0 -245 -105t-85 -304zM340 1274v211h182 v-211h-182zM670 1274v211h182v-211h-182z" />
<glyph unicode="&#xf7;" horiz-adv-x="1706" d="M254 541v139h1198v-139h-1198zM729 242q0 51 37 88t88 37t88 -37t37 -88q0 -52 -36.5 -88.5t-88.5 -36.5q-53 0 -89 36t-36 89zM729 979q0 52 37 89.5t88 37.5t88 -37.5t37 -89.5q0 -51 -36.5 -88t-88.5 -37t-88.5 36.5t-36.5 88.5z" />
<glyph unicode="&#xf8;" horiz-adv-x="1190" d="M53 8l133 148q-53 71 -78.5 163.5t-25.5 215.5q0 270 135 420.5t377 150.5q110 0 195 -31t155 -96l123 135l66 -57l-127 -142q53 -76 77.5 -165t24.5 -213q0 -270 -135 -420t-377 -150q-114 0 -197 29.5t-153 93.5l-127 -137zM258 537q0 -86 10 -144t33 -104l530 563 q-44 50 -105 76t-136 26q-166 0 -249 -104.5t-83 -312.5zM346 217q46 -50 105 -74t137 -24q162 0 247 103.5t85 301.5q0 83 -10.5 148t-30.5 110z" />
<glyph unicode="&#xf9;" horiz-adv-x="1165" d="M133 377v51v643h182v-657q0 -158 49.5 -219.5t167.5 -61.5q156 0 236 91.5t80 269.5v577h180v-1071h-172v160q-56 -93 -145 -140t-209 -47q-112 0 -195 38t-127 108q-25 39 -36 91.5t-11 166.5zM322 1565h201l204 -348h-120z" />
<glyph unicode="&#xfa;" horiz-adv-x="1165" d="M133 377v51v643h182v-657q0 -158 49.5 -219.5t167.5 -61.5q156 0 236 91.5t80 269.5v577h180v-1071h-172v160q-56 -93 -145 -140t-209 -47q-112 0 -195 38t-127 108q-25 39 -36 91.5t-11 166.5zM441 1217l204 348h201l-285 -348h-120z" />
<glyph unicode="&#xfb;" horiz-adv-x="1165" d="M133 377v51v643h182v-657q0 -158 49.5 -219.5t167.5 -61.5q156 0 236 91.5t80 269.5v577h180v-1071h-172v160q-56 -93 -145 -140t-209 -47q-112 0 -195 38t-127 108q-25 39 -36 91.5t-11 166.5zM289 1217l197 348h196l197 -348h-123l-172 227l-174 -227h-121z" />
<glyph unicode="&#xfc;" horiz-adv-x="1165" d="M133 377v51v643h182v-657q0 -158 49.5 -219.5t167.5 -61.5q156 0 236 91.5t80 269.5v577h180v-1071h-172v160q-56 -93 -145 -140t-209 -47q-112 0 -195 38t-127 108q-25 39 -36 91.5t-11 166.5zM328 1274v211h182v-211h-182zM658 1274v211h182v-211h-182z" />
<glyph unicode="&#xfd;" horiz-adv-x="1038" d="M20 1071h201l297 -866l297 866h201l-451 -1237q-64 -175 -129 -229t-188 -54q-27 0 -53.5 4.5t-53.5 12.5v172q27 -8 53 -12t52 -4q52 0 84 21t49 67l47 127zM377 1217l204 348h201l-285 -348h-120z" />
<glyph unicode="&#xfe;" horiz-adv-x="1214" d="M137 -428v1901h176v-553q68 97 151 141.5t195 44.5q215 0 343 -154t128 -413q0 -262 -128.5 -417t-342.5 -155q-112 0 -197.5 40.5t-148.5 123.5v-559h-176zM307 528q0 -199 80 -300t238 -101q152 0 234.5 110.5t82.5 313.5q0 183 -85.5 288t-233.5 105q-152 0 -234 -108 t-82 -308z" />
<glyph unicode="&#xff;" horiz-adv-x="1038" d="M20 1071h201l297 -866l297 866h201l-451 -1237q-64 -175 -129 -229t-188 -54q-27 0 -53.5 4.5t-53.5 12.5v172q27 -8 53 -12t52 -4q52 0 84 21t49 67l47 127zM264 1274v211h182v-211h-182zM594 1274v211h182v-211h-182z" />
<glyph unicode="&#x152;" horiz-adv-x="2363" d="M92 735q0 366 180.5 571t499.5 205q145 0 253.5 -42.5t182.5 -129.5v134h1051v-183h-854v-440h790v-172h-790v-494h872v-184h-1069v133q-77 -89 -180 -131.5t-246 -42.5q-327 0 -508.5 204t-181.5 572zM297 735q0 -286 133 -444t373 -158q134 0 235.5 51.5t169.5 153.5 v797q-72 101 -172 151.5t-229 50.5q-243 0 -376.5 -157t-133.5 -445z" />
<glyph unicode="&#x153;" horiz-adv-x="1903" d="M82 520q0 280 130 433t368 153q133 0 229.5 -50.5t157.5 -152.5q73 101 170.5 152t216.5 51q225 0 353 -143.5t128 -397.5q0 -22 -4 -74v-6h-776q3 -167 85 -261.5t224 -94.5q108 0 179.5 57t92.5 160h179q-30 -176 -155 -278.5t-310 -102.5q-138 0 -240 55.5t-158 161.5 q-60 -109 -155 -163t-228 -54q-229 0 -358 147.5t-129 407.5zM272 537q0 -196 79 -303t222 -107q140 0 222 116.5t82 317.5q0 178 -80 281.5t-215 103.5q-148 0 -229 -107t-81 -302zM1057 633h585v6q0 143 -77 225t-211 82q-127 0 -207.5 -85t-89.5 -228z" />
<glyph unicode="&#x178;" horiz-adv-x="1235" d="M-18 1473h251l394 -697l391 697h235l-524 -869v-604h-201v590zM362 1659v211h182v-211h-182zM692 1659v211h182v-211h-182z" />
<glyph unicode="&#x2c6;" d="M217 1217l197 348h196l197 -348h-123l-172 227l-174 -227h-121z" />
<glyph unicode="&#x2dc;" d="M219 1262q18 98 68 151t125 53q17 0 32 -2t27 -6l99 -29q15 -4 28 -6t25 -2q34 0 57 18t37 54h88q-20 -101 -70 -154t-127 -53q-13 0 -29.5 2.5t-35.5 7.5l-97 27q-13 4 -25.5 6t-23.5 2q-30 0 -53 -17.5t-37 -51.5h-88z" />
<glyph unicode="&#x2000;" horiz-adv-x="986" />
<glyph unicode="&#x2001;" horiz-adv-x="1972" />
<glyph unicode="&#x2002;" horiz-adv-x="986" />
<glyph unicode="&#x2003;" horiz-adv-x="1972" />
<glyph unicode="&#x2004;" horiz-adv-x="657" />
<glyph unicode="&#x2005;" horiz-adv-x="493" />
<glyph unicode="&#x2006;" horiz-adv-x="328" />
<glyph unicode="&#x2007;" horiz-adv-x="328" />
<glyph unicode="&#x2008;" horiz-adv-x="246" />
<glyph unicode="&#x2009;" horiz-adv-x="394" />
<glyph unicode="&#x200a;" horiz-adv-x="109" />
<glyph unicode="&#x2010;" horiz-adv-x="639" d="M72 461v162h495v-162h-495z" />
<glyph unicode="&#x2011;" horiz-adv-x="639" d="M72 461v162h495v-162h-495z" />
<glyph unicode="&#x2012;" horiz-adv-x="639" d="M72 461v162h495v-162h-495z" />
<glyph unicode="&#x2013;" d="M0 487v109h1024v-109h-1024z" />
<glyph unicode="&#x2014;" horiz-adv-x="2048" d="M0 487v109h2048v-109h-2048z" />
<glyph unicode="&#x2018;" horiz-adv-x="514" d="M158 1014v235q0 107 51 175t147 87v-92q-46 -6 -73 -48t-27 -109v-43h100v-205h-198z" />
<glyph unicode="&#x2019;" horiz-adv-x="514" d="M158 975v92q46 6 73 48.5t27 109.5v43h-100v205h198v-236q0 -107 -51 -174.5t-147 -87.5z" />
<glyph unicode="&#x201a;" horiz-adv-x="514" d="M158 0v203h198v-236q0 -107 -51 -174.5t-147 -87.5v94q46 6 73 48.5t27 109.5v43h-100z" />
<glyph unicode="&#x201c;" horiz-adv-x="846" d="M158 1014v235q0 107 51 175t147 87v-92q-46 -6 -73 -48t-27 -109v-43h100v-205h-198zM487 1014v235q0 106 52 174t149 88v-92q-46 -6 -73 -48t-27 -109v-43h100v-205h-201z" />
<glyph unicode="&#x201d;" horiz-adv-x="846" d="M156 975v92q47 6 74.5 48.5t27.5 109.5v43h-102v205h200v-236q0 -106 -52 -174t-148 -88zM487 975v92q47 6 75 48.5t28 109.5v43h-103v205h201v-236q0 -106 -52 -174t-149 -88z" />
<glyph unicode="&#x201e;" horiz-adv-x="846" d="M156 0v203h200v-236q0 -106 -52 -174t-148 -88v94q47 7 74.5 49.5t27.5 108.5v43h-102zM487 0v203h201v-236q0 -106 -52 -174t-149 -88v94q47 7 75 49.5t28 108.5v43h-103z" />
<glyph unicode="&#x2022;" horiz-adv-x="1208" d="M307 762q0 123 87 209t210 86q122 0 208.5 -86.5t86.5 -208.5t-87.5 -209.5t-209.5 -87.5q-123 0 -209 87t-86 210z" />
<glyph unicode="&#x2026;" horiz-adv-x="2048" d="M239 0v223h205v-223h-205zM921 0v223h205v-223h-205zM1605 0v223h205v-223h-205z" />
<glyph unicode="&#x202f;" horiz-adv-x="394" />
<glyph unicode="&#x2039;" horiz-adv-x="500" d="M80 442v199l323 242v-174l-213 -168l213 -166v-176z" />
<glyph unicode="&#x203a;" horiz-adv-x="500" d="M96 199v176l215 168l-215 166v174l324 -242v-199z" />
<glyph unicode="&#x205f;" horiz-adv-x="493" />
<glyph unicode="&#x20ac;" horiz-adv-x="1124" d="M-29 793l39 92h99q16 307 145 466.5t360 159.5q194 0 314.5 -127t140.5 -354h-197q-17 155 -86 234t-186 79q-140 0 -212.5 -112.5t-82.5 -345.5h449l-39 -92h-414v-115h361l-39 -92h-318q8 -232 80.5 -345.5t212.5 -113.5q127 0 202 109.5t81 306.5l196 -1 q-7 -266 -140.5 -424.5t-350.5 -158.5q-213 0 -337 162.5t-140 464.5h-111l39 92h65v115h-131z" />
<glyph unicode="&#x2122;" horiz-adv-x="1706" d="M242 1378v80h452v-80h-172v-458h-108v458h-172zM813 920v538h150l151 -385l141 385h150v-538h-98v444l-166 -444h-56l-174 444v-444h-98z" />
<glyph unicode="&#xe000;" horiz-adv-x="1070" d="M0 0v1070h1070v-1070h-1070z" />
<glyph unicode="&#xfb01;" horiz-adv-x="989" d="M0 928v143h176v158q0 132 61 199t181 67q20 0 49.5 -3t81.5 -11v-162q-29 5 -48.5 7.5t-31.5 2.5q-63 0 -88 -35t-25 -133v-90h193v-143h-193v-928h-180v928h-176zM678 0v1071h180v-1071h-180zM678 1270v203h180v-203h-180z" />
<glyph unicode="&#xfb02;" horiz-adv-x="997" d="M0 928v143h176v158q0 132 61 199t181 67q20 0 49.5 -3t81.5 -11v-162q-29 5 -48.5 7.5t-31.5 2.5q-63 0 -88 -35t-25 -133v-90h193v-143h-193v-928h-180v928h-176zM686 0v1473h180v-1473h-180z" />
</font>
</defs>
</svg>
