<?xml version="1.0" standalone="no"?>
<!DOCTYPE svg PUBLIC "-//W3C//DTD SVG 1.1//EN" "http://www.w3.org/Graphics/SVG/1.1/DTD/svg11.dtd" >
<svg>
<metadata>
Created by FontForge 20090914 at Wed May 29 21:03:06 2013
 By www-data
&#194;&#169; Graham Meade. All rights reserved. gem@c031.aone.net.au
</metadata>
<defs>
<font id="Lane-Narrow" horiz-adv-x="521" >
  <font-face 
    font-family="Lane - Narrow"
    font-weight="400"
    font-stretch="normal"
    units-per-em="1000"
    panose-1="2 0 5 6 2 0 0 2 0 4"
    ascent="800"
    descent="-200"
    x-height="519"
    cap-height="719"
    bbox="-178 -235 1000 963"
    underline-thickness="21"
    underline-position="-93"
    unicode-range="U+0020-U+2212"
  />
<missing-glyph horiz-adv-x="500" 
 />
    <glyph glyph-name=".notdef" horiz-adv-x="500" 
 />
    <glyph glyph-name="space" unicode=" " horiz-adv-x="260" 
 />
    <glyph glyph-name="exclam" unicode="!" horiz-adv-x="307" 
d="M143 179h24l9 539h-42zM133 47c0 -31.333 7 -47 21 -47c14.667 0 22 15.667 22 47s-7.33301 47 -22 47c-14 0 -21 -15.667 -21 -47z" />
    <glyph glyph-name="quotedbl" unicode="&#x22;" horiz-adv-x="259" 
d="M175 700v-221h34v221h-34zM50 700v-221h34v221h-34z" />
    <glyph glyph-name="numbersign" unicode="#" horiz-adv-x="534" 
d="M240 570l-40 -109l-86 -1l-11 -36l85 1l-52 -142h-75l-11 -36h74l-40 -111h46l41 111h135l-40 -111h47l39 111h84l10 36h-82l50 142l70 -1l12 36l-68 1l39 109h-46l-40 -109h-134l40 109h-47zM234 425h133l-49 -142h-133z" />
    <glyph glyph-name="dollar" unicode="$" horiz-adv-x="573" 
d="M297 292v-277.996h-6c-12 0 -24 1 -36 3v300l-36 10v-303c-30.667 9.33301 -56.334 24.333 -77.001 45c-38.667 36.667 -60 86.667 -64 150h-33c5.33301 -73.333 30 -131 74 -173c27.333 -26 60.666 -43.667 99.999 -53v-98h36v92c6 -0.666992 12 -1.16699 18 -1.5
s11.667 -0.5 17 -0.5h7v-90h36v92c53.333 7.33301 97 25.333 131 54c43.333 37.333 65 87.333 65 150c0 60 -25.333 106.333 -76 139c-15.333 9.33301 -36 19 -62 29s-58 19.667 -96 29c-3.33301 1.33301 -6.16602 2.16602 -8.49902 2.49902s-4.16602 0.833008 -5.49902 1.5
c-72.667 18.667 -120 38 -142 58c-29.333 27.333 -44 59.666 -44 96.999c0 49.333 16.333 88.333 49 117c19.333 17.333 44.333 29.666 75 36.999v-245l36 -10v260c3.33301 0.666992 7 1 11 1h11h20v-276l36 -10v280c34 -6.66699 63.333 -21.334 88 -44.001
c36 -32.667 54.667 -77 56 -133h32c-3.33301 66 -25.333 117.333 -66 154c-30 28 -66.667 45.333 -110 52v109h-36v-105c-3.33301 0.666992 -6.33301 1 -9 1h-9h-12c-4 0 -8 -0.333008 -12 -1v105h-36v-110c-37.333 -6.66699 -69.666 -21.667 -96.999 -45
c-39.333 -35.333 -59 -81 -59 -137c0 -48.667 17 -88.334 51 -119.001c21.333 -20 73.666 -41.667 156.999 -65l13 -4c74 -21.333 122 -38.666 144 -51.999c44.667 -28 67 -69.667 67 -125c0 -50 -19 -90.333 -57 -121c-28.667 -23.333 -63.667 -38 -105 -44v266z" />
    <glyph glyph-name="percent" unicode="%" horiz-adv-x="727" 
d="M406 175c0 -43.333 11.665 -81.667 34.998 -115c26.667 -38 61 -57 103 -57s76.667 18.667 104 56c23.333 33.333 35 72 35 116c0 43.333 -12 82 -36 116c-27.333 38 -61.666 57 -102.999 57s-75.666 -18.667 -102.999 -56c-23.333 -34.667 -35 -73.667 -35 -117z
M44.998 546.999c0 -44.667 12 -83.334 36 -116.001c27.333 -37.333 61.666 -56 102.999 -56c42.667 0 77 18.667 103 56c23.333 32.667 35 71.334 35 116.001c0 43.333 -12 82 -36 116c-27.333 37.333 -61.333 56 -102 56c-41.333 0 -75.666 -18.667 -102.999 -56
c-24 -33.333 -36 -72 -36 -116zM75.998 546.999c0 35.333 9 66.666 27 93.999c20 31.333 47 47 81 47c32 0 58.667 -15.667 80 -47c18 -27.333 27 -58.666 27 -93.999c0 -36 -9 -67.333 -27 -94c-21.333 -32 -48 -48 -80 -48c-34 0 -61 16 -81 48c-18 26.667 -27 58 -27 94z
M436.998 174.999c0 36 8.66699 67.667 26 95c20.667 30.667 47.667 46 81 46c32.667 0 59.667 -15.667 81 -47c17.333 -27.333 26 -58.666 26 -93.999c0 -34.667 -8.66699 -65.667 -26 -93c-21.333 -32 -48.333 -48 -81 -48s-59.667 15.667 -81 47
c-17.333 27.333 -26 58.666 -26 93.999zM515.998 751.999l-347 -752h35l346 752h-34z" />
    <glyph glyph-name="ampersand" unicode="&#x26;" horiz-adv-x="609" 
d="M528 324c0 -70.667 -12 -128.331 -36 -172.998c-22.667 -44 -56.334 -79 -101.001 -105c-39.333 -24 -80.666 -36 -123.999 -36c-52 0 -95 17.333 -129 52c-33.333 35.333 -50 79.333 -50 132c0 44 19 85.667 57 125c28.667 30.667 75 59.667 139 87
c96.667 40.667 145 100 145 178c0 42 -12.5 75 -37.5 99s-58.5 36 -100.5 36c-40.667 0 -74.667 -11.667 -102 -35c-28 -25.333 -42 -61 -42 -107c0 -26 11 -54 33 -84c24.667 -36 51 -54 79 -54c3.33301 0 7.66602 0.666992 12.999 2
c-142 -52.667 -214.333 -135.334 -217 -248.001c-1.33301 -63.333 19.667 -115 63 -155c40.667 -38 93.334 -57 158.001 -57c82 0 154 38.333 216 115l79 -96h41l-101 125c31.333 53.333 47.333 119.666 48 198.999h-31zM304 469.003
c-6.66699 -1.33301 -11.668 -2 -15.001 -2c-31.333 0 -58 15.333 -80 46c-18.667 25.333 -28 51.333 -28 78c0 30 10.167 54.167 30.5 72.5s45.5 27.5 75.5 27.5c32.667 0 59.334 -9.66699 80.001 -29s31 -45.333 31 -78c0 -29.333 -12 -56.333 -36 -81
c-20.667 -22 -40 -33.333 -58 -34z" />
    <glyph glyph-name="quotesingle" unicode="'" horiz-adv-x="134" 
d="M50 700v-221h34v221h-34z" />
    <glyph glyph-name="parenleft" unicode="(" horiz-adv-x="288" 
d="M285 -219c-103.333 153.333 -155 313.667 -155 481c0 166 48.333 317.333 145 454h-35c-95.333 -141.333 -143 -294 -143 -458c0 -165.333 51.333 -324.333 154 -477h34z" />
    <glyph glyph-name="parenright" unicode=")" horiz-adv-x="288" 
d="M6 -219h34c103.333 154.667 155 313.667 155 477c0 164 -47.667 316.667 -143 458h-35c96.667 -136.667 145 -288 145 -454c0 -166.667 -52 -327 -156 -481z" />
    <glyph glyph-name="asterisk" unicode="*" horiz-adv-x="500" 
d="M173 559c-38 -22 -57 -38.333 -57 -49c0 -5.33301 3.33301 -8 10 -8c12 0 33.667 9 65 27c10.667 5.33301 19.667 10.666 27 15.999s13.666 10.333 18.999 15c-3.33301 -14.667 -5 -33 -5 -55c0 -50.667 6 -76 18 -76s18 25.333 18 76c0 22 -1.66699 40.333 -5 55
c5.33301 -4.66699 11.666 -9.66699 18.999 -15s16.333 -10.666 27 -15.999c30.667 -18 52.334 -27 65.001 -27c6.66699 0 10 2.66699 10 8c0 10.667 -19 27 -57 49c-21.333 12 -38.333 20 -51 24c12.667 4 29.667 12 51 24c38 22 57 38.333 57 49
c0 5.33301 -3.33301 8 -10 8c-12.667 0 -34.334 -9 -65.001 -27c-10.667 -5.33301 -19.667 -10.666 -27 -15.999s-13.666 -10.333 -18.999 -15c3.33301 14.667 5 33 5 55c0 50.667 -6 76 -18 76s-18 -25.333 -18 -76c0 -22 1.66699 -40.333 5 -55
c-5.33301 4.66699 -11.666 9.66699 -18.999 15s-16.333 10.666 -27 15.999c-31.333 18 -53 27 -65 27c-6.66699 0 -10 -2.66699 -10 -8c0 -10.667 19 -27 57 -49c20.667 -12 37.667 -20 51 -24c-13.333 -4 -30.333 -12 -51 -24zM247 583l2 2h2l2 -2l-2 -2h-2z" />
    <glyph glyph-name="plus" unicode="+" horiz-adv-x="833" 
d="M402 596v-283h-278v-30h278v-283h30v283h277v30h-277v283h-30z" />
    <glyph glyph-name="comma" unicode="," horiz-adv-x="260" 
d="M85 51c0 -12 4.33301 -22.999 13 -32.999s19 -15 31 -15v-122h35v221h-35v-3c-12 0 -22.333 -4.83301 -31 -14.5s-13 -20.834 -13 -33.501z" />
    <glyph glyph-name="hyphen" unicode="-" horiz-adv-x="343" 
d="M38 244h266v28h-266v-28z" />
    <glyph glyph-name="hyphen" unicode="&#xad;" horiz-adv-x="343" 
d="M38 244h266v28h-266v-28z" />
    <glyph glyph-name="period" unicode="." horiz-adv-x="260" 
d="M108 41v-8.99902c0 -4.66699 0.333008 -8 1 -10c1.33301 -7.33301 2.66602 -12.333 3.99902 -15c0 -1.33301 0.333008 -2.33301 1 -3c0.666992 -2.66699 2.66699 -5 6 -7c1.33301 -1.33301 2.66602 -2 3.99902 -2c1.33301 -0.666992 3.33301 -1 6 -1
s4.33398 0.333008 5.00098 1c2.66699 0.666992 5.33398 2.33398 8.00098 5.00098l2 2c0.666992 1.33301 1.16699 2.5 1.5 3.5s0.833008 2.16699 1.5 3.5c1.33301 4 2 7.33301 2 10c0.666992 1.33301 1 3.66602 1 6.99902c0 1.33301 0.166992 2.33301 0.5 3
s0.5 1.66699 0.5 3v9c0 4 -0.166992 7.83301 -0.5 11.5s-0.833008 7.16699 -1.5 10.5c0 2 -0.666992 5 -2 9l-3 6c-0.666992 1.33301 -2 3 -4 5c-1.33301 1.33301 -2.83301 2.16602 -4.5 2.49902s-3.16699 0.833008 -4.5 1.5h-2c-2.66699 0 -4.66699 -0.333008 -6 -1
c-3.33301 -1.33301 -5.66602 -3 -6.99902 -5c-2.66699 -2.66699 -4.33398 -5.66699 -5.00098 -9c-0.666992 -1.33301 -1 -2.33301 -1 -3l-1 -2c0 -2 -0.333008 -3.33301 -1 -4v-4c-0.666992 -3.33301 -1 -9.33301 -1 -18z" />
    <glyph glyph-name="slash" unicode="/" horiz-adv-x="292" 
d="M299 738l-315 -821h34l315 821h-34z" />
    <glyph glyph-name="zero" unicode="0" 
d="M39 340c0 -94 13.666 -172 40.999 -234c37.333 -83.333 97.333 -125 180 -125c84 0 144.333 41.333 181 124c27.333 62 41 140.333 41 235c0 94 -13.667 172 -41 234c-37.333 83.333 -97.666 125 -180.999 125c-82.667 0 -142.667 -41.667 -180 -125
c-27.333 -62 -41 -140 -41 -234zM72.999 340c0 84.667 10.667 154.999 32 210.999c30.667 78.667 82.667 118 156 118c72.667 0 124.667 -39.667 156 -119c20.667 -53.333 31 -123.333 31 -210c0 -87.333 -10.333 -157.666 -31 -210.999
c-31.333 -79.333 -83.333 -119 -156 -119s-124.667 39.667 -156 119c-21.333 56 -32 126.333 -32 211zM200.999 212.999l137 228l-24 15l-137 -228z" />
    <glyph glyph-name="one" unicode="1" 
d="M158 497l116 133l1 -630h33v679h-33l-1 1l-116 -138v-45z" />
    <glyph glyph-name="two" unicode="2" 
d="M391 396l-359 -396.001h432v30h-358l318 353h-1c30 34.667 45 77.334 45 128.001c0 58.667 -17.833 104.5 -53.5 137.5s-82.834 49.5 -141.501 49.5c-64 0 -113.833 -17.833 -149.5 -53.5s-53.5 -85.5 -53.5 -149.5v-9h35v11c0 52.667 15 94.167 45 124.5
s71 45.5 123 45.5c48.667 0 87.334 -14.333 116.001 -43s43 -67.334 43 -116.001c0 -43.333 -13.667 -80.666 -41 -111.999z" />
    <glyph glyph-name="three" unicode="3" 
d="M253 14c-99.333 0 -156.668 48.667 -172.001 146l-30 -14c20 -108.667 87.667 -163 203 -163c65.333 0 118.333 18.333 159 55c42 38.667 63 90.667 63 156c0 45.333 -12 86 -36 122c-25.333 40 -59 64.333 -101 73c77.333 7.33301 116 58.333 116 153
c0 52 -18.667 91.667 -56 119c-33.333 24 -77 36 -131 36c-101.333 0 -165 -41 -191 -123l29 -14c21.333 71.333 73 107 155 107c106 0 159 -42 159 -126c0 -96 -62 -141.333 -186 -136l-23 1l5 -32c5.33301 0.666992 10.333 1 15 1h16c58 0 104.667 -16 140 -48
c36 -33.333 54 -79 54 -137c0 -53.333 -18.333 -96.333 -55 -129c-35.333 -31.333 -79.666 -47 -132.999 -47z" />
    <glyph glyph-name="four" unicode="4" 
d="M366 0h32v181h77v30h-77v468l-35 -1l-326 -475l10 -22h319v-181zM367 210h-286l286 413v-413z" />
    <glyph glyph-name="five" unicode="5" 
d="M48 175c6 -60.667 26.333 -107.999 61 -141.999c36.667 -35.333 84.667 -53 144 -53c34 0 64.5 5.33301 91.5 16s50 25.667 69 45s33.667 42.833 44 70.5s15.5 58.5 15.5 92.5c0 65.333 -18.667 118.333 -56 159c-38 41.333 -89.667 62 -155 62
c-66.667 0 -119.334 -19 -158.001 -57v281h341v30h-374l1 -355h27c36.667 48 89 72 157 72c56.667 0 101.334 -16.833 134.001 -50.5s49 -79.5 49 -137.5c0 -60.667 -16.333 -108.334 -49 -143.001c-32.667 -36.667 -79 -55 -139 -55c-103.333 0 -160.333 55 -171 165h-32z
" />
    <glyph glyph-name="six" unicode="6" 
d="M466 529c-5.33301 52.667 -23.332 93.668 -53.999 123.001c-32 30 -74.333 45 -127 45c-158.667 0 -238 -124.667 -238 -374c0 -228 75.333 -342 226 -342c63.333 0 113.666 22.667 150.999 68c34 42.667 51 96.667 51 162c0 67.333 -16.667 121.666 -50 162.999
c-36 44.667 -87 67 -153 67c-100.667 0 -164 -53.333 -190 -160c-0.666992 5.33301 -1 12 -1 20v30c0 223.333 66 335 198 335c90 0 141.667 -45.667 155 -137h32zM440.001 211.001c0 -58 -14.333 -104.665 -43 -139.998c-31.333 -39.333 -75 -59 -131 -59
c-55.333 0 -97.333 20.333 -126 61c-26.667 35.333 -40 81.666 -40 138.999c0 56 14 102.667 42 140c31.333 39.333 74.333 59 129 59c56 0 99 -20 129 -60c26.667 -34.667 40 -81.334 40 -140.001z" />
    <glyph glyph-name="seven" unicode="7" 
d="M440 680v-1h-382v-32l371 -1l-227 -646h34l239 680h-35z" />
    <glyph glyph-name="eight" unicode="8" 
d="M176 373c-88 -31.333 -132 -92.668 -132 -184.001c0 -63.333 20 -114 60 -152c38.667 -36.667 89.667 -55 153 -55c67.333 0 120.333 18.333 159 55c40.667 36.667 61 88.667 61 156c0 90.667 -44 150.667 -132 180c68.667 30.667 103 81 103 151
c0 54.667 -17.667 97.667 -53 129c-34 30 -79 45 -135 45c-55.333 0 -100 -15 -134 -45c-36 -32 -54 -75 -54 -129c0 -71.333 34.667 -121.666 104 -150.999zM79 193.998c0 52.667 17.334 93.332 52.001 121.999c31.333 26.667 74.333 40 129 40
c53.333 0 96.666 -13.667 129.999 -41c34.667 -28.667 52 -69.667 52 -123c0 -27.333 -4.5 -51.833 -13.5 -73.5s-21.5 -40.167 -37.5 -55.5s-35.167 -27.166 -57.5 -35.499s-46.833 -12.5 -73.5 -12.5c-54.667 0 -98.5 16.167 -131.5 48.5s-49.5 75.833 -49.5 130.5z
M108.001 526.996c0 44 14.334 79 43.001 105c27.333 24.667 63.666 37 108.999 37s81.666 -12.333 108.999 -37c29.333 -26 44 -61 44 -105s-14.667 -78.667 -44 -104c-27.333 -24.667 -63.666 -37 -108.999 -37c-46 0 -82.333 12 -109 36
c-28.667 24.667 -43 59.667 -43 105z" />
    <glyph glyph-name="nine" unicode="9" 
d="M55 148c4.66699 -53.333 22.665 -94.334 53.998 -123.001c32.667 -29.333 75 -44 127 -44c159.333 0 239 124.333 239 373c0 228.667 -75.667 343 -227 343c-64.667 0 -115 -23 -151 -69c-33.333 -42.667 -50 -96.667 -50 -162c0 -67.333 16.667 -121.666 50 -162.999
c34.667 -44.667 85.334 -67 152.001 -67c48.667 0 90.334 14.667 125.001 44c31.333 28 53 66.667 65 116c0.666992 -6 1 -13.333 1 -22v-28c0 -223.333 -66 -335 -198 -335c-90 0 -141.667 45.667 -155 137h-32zM80.998 465.999c0 58.667 14.333 105.331 43 139.998
c31.333 39.333 75 59 131 59c54.667 0 97 -20.333 127 -61c26.667 -35.333 40 -81.666 40 -138.999c0 -58 -14.333 -104.333 -43 -139c-31.333 -40 -74.333 -60 -129 -60c-55.333 0 -98 20 -128 60c-27.333 36.667 -41 83.334 -41 140.001z" />
    <glyph glyph-name="colon" unicode=":" horiz-adv-x="284" 
d="M113 436c0 -31.333 7.33301 -47 22 -47s22 15.667 22 47s-7.33301 47 -22 47s-22 -15.667 -22 -47zM113 41c0 -31.333 7.33301 -47 22 -47s22 15.667 22 47c0 30.667 -7.33301 46 -22 46s-22 -15.333 -22 -46z" />
    <glyph glyph-name="semicolon" unicode=";" horiz-adv-x="284" 
d="M85 51c0 -12 4.33301 -22.999 13 -32.999s19 -15 31 -15v-122h35v221h-35v-3c-12 0 -22.333 -4.83301 -31 -14.5s-13 -20.834 -13 -33.501zM113 436.001c0 -31.333 7.33301 -47 22 -47s22 15.667 22 47s-7.33301 47 -22 47s-22 -15.667 -22 -47z" />
    <glyph glyph-name="semicolon" unicode="&#x37e;" horiz-adv-x="284" 
d="M85 51c0 -12 4.33301 -22.999 13 -32.999s19 -15 31 -15v-122h35v221h-35v-3c-12 0 -22.333 -4.83301 -31 -14.5s-13 -20.834 -13 -33.501zM113 436.001c0 -31.333 7.33301 -47 22 -47s22 15.667 22 47s-7.33301 47 -22 47s-22 -15.667 -22 -47z" />
    <glyph glyph-name="less" unicode="&#x3c;" horiz-adv-x="532" 
d="M462 492l-393 -184v-20l393 -188v34l-339 164l339 160v34z" />
    <glyph glyph-name="equal" unicode="=" horiz-adv-x="833" 
d="M124 237v-31h585v31h-585zM124 395v-31h585v31h-585z" />
    <glyph glyph-name="greater" unicode="&#x3e;" horiz-adv-x="532" 
d="M69 492v-34l340 -160l-340 -164v-34l393 188v20z" />
    <glyph glyph-name="question" unicode="?" horiz-adv-x="463" 
d="M36 576l32.001 -9.99902c16 90.667 70.667 136 164 136c111.333 0 167 -48.333 167 -145c0 -38 -17 -69.333 -51 -94c-60 -44 -92 -68 -96 -72c-34 -39.333 -51 -92.333 -51 -159c0 -16.667 1 -35 3 -55h32c-1.33301 10.667 -2.5 20.834 -3.5 30.501
s-1.5 19.167 -1.5 28.5c0 58.667 17.667 105 53 139l70 53.5c16 12.333 25 19.166 27 20.499c34.667 26.667 52 64 52 112c0 55.333 -19.333 98.333 -58 129c-35.333 29.333 -81 44 -137 44c-66.667 0 -118.334 -20 -155.001 -60c-23.333 -26.667 -39 -59.334 -47 -98.001z
M196.001 47.001c0 -31.333 7 -47 21 -47c14.667 0 22 15.667 22 47s-7.33301 47 -22 47c-14 0 -21 -15.667 -21 -47z" />
    <glyph glyph-name="at" unicode="@" horiz-adv-x="1000" 
d="M440 63c78.667 2 137.334 35.335 176.001 100.002l-13 -85h1c-0.666992 -2 -1 -5.33301 -1 -10c0 -23.333 14.667 -35 44 -35c3.33301 0 7.16602 0.166992 11.499 0.5s9.16602 0.833008 14.499 1.5c18.667 2.66699 35.834 6.33398 51.501 11.001s29.834 10.667 42.501 18
c2.66699 1.33301 9.16699 6.16602 19.5 14.499l44.5 34.5c71.333 57.333 107 146 107 266c0 99.333 -42 181 -126 245c-71.333 54 -160.666 81 -267.999 81c-162 0 -290.667 -57.667 -386 -173c-64 -78 -96 -170 -96 -276c0 -126 48.667 -226 146 -300
c76.667 -58.667 177 -88 301 -88c115.333 0 220 35 314 105l-11 17c-93.333 -62.667 -196 -94 -308 -94c-116.667 0 -210.667 29.333 -282 88c-77.333 63.333 -116 151.333 -116 264c0 140 52.333 252 157 336c76.667 61.333 169 92 277 92c98.667 0 181 -24 247 -72
c74 -55.333 111 -130 111 -224c0 -100.667 -24.667 -177.334 -74 -230.001c-14 -14.667 -25.5 -26.334 -34.5 -35.001s-15.5 -14.334 -19.5 -17.001c-21.333 -15.333 -50.333 -26.333 -87 -33c-4.66699 -0.666992 -8.66699 -1.16699 -12 -1.5s-6.33301 -0.5 -9 -0.5
c-11.333 0 -18.333 3 -21 9c-0.666992 1.33301 -1.33398 3.83301 -2.00098 7.5s-1.33398 8.83398 -2.00098 15.501l67 428l-32 -1l-14 -88c-20 64 -68.667 95 -146 93c-65.333 -1.33301 -118.333 -25.333 -159 -72c-36 -40 -59.667 -95 -71 -165l-3.5 -29
c-1 -8.66699 -1.5 -16.667 -1.5 -24c0 -32.667 8.66699 -63.667 26 -93c33.333 -55.333 79 -82.333 137 -81zM330 151.002c-13.333 24.667 -20 54.0029 -20 88.0029c0 7.33301 0.333008 15.5 1 24.5s1.66699 18.167 3 27.5c9.33301 58 29.333 105.333 60 142
c35.333 42.667 80 64.334 134 65.001c54.667 1.33301 92.667 -18.334 114 -59.001c13.333 -24.667 20 -54 20 -88c0 -8.66699 -0.333008 -17.334 -1 -26.001s-1.66699 -17.334 -3 -26.001c-9.33301 -58.667 -29 -105.667 -59 -141c-35.333 -42.667 -80 -64.334 -134 -65.001
c-54.667 -2 -93 17.333 -115 58z" />
    <glyph glyph-name="A" unicode="A" horiz-adv-x="574" 
d="M-5 0h33l94 245h335l93 -245h33l-273 719h-38zM134 275l157 405l154 -405h-311z" />
    <glyph glyph-name="B" unicode="B" horiz-adv-x="618" 
d="M82 0l219 -0.00195312c92 0 157.333 11.667 196 35c54.667 34 82 86.333 82 157c0 102.667 -53.333 164.334 -160 185.001c82 28.667 123 83.334 123 164.001c0 68 -25.667 117 -77 147c-34.667 20.667 -96.667 31 -186 31h-197v-719zM116 29.998v330.999h179
c74 0 130 -9 168 -27c54 -25.333 81 -70.666 81 -135.999c0 -76 -29.333 -126 -88 -150c-29.333 -12 -83.333 -18 -162 -18h-178zM116 386.997v302h165c70.667 0 122 -7.33301 154 -22c48.667 -22 73 -63.333 73 -124c0 -104 -75 -156 -225 -156h-167z" />
    <glyph glyph-name="C" unicode="C" horiz-adv-x="681" 
d="M618 173l-29.002 14.998c-11.333 -47.333 -34.333 -86 -69 -116c-44.667 -38.667 -103 -58 -175 -58c-89.333 0 -156.666 36.667 -201.999 110c-38 60.667 -57 138.667 -57 234c0 94.667 19.667 173.334 59 236.001c46.667 74 115 111 205 111
c121.333 0 198.333 -49.333 231 -148l31 16c-14.667 40.667 -39.667 75 -75 103c-49.333 39.333 -109.666 59 -180.999 59c-104.667 0 -183.334 -38 -236.001 -114c-46 -67.333 -69 -155 -69 -263s22.333 -194.333 67 -259c52 -75.333 129.333 -113 232 -113
c80 0 144.667 21.667 194 65c36.667 32.667 61.334 73.334 74.001 122.001z" />
    <glyph glyph-name="D" unicode="D" horiz-adv-x="689" 
d="M82 0l165 0.000976562c103.333 0 180.333 11.667 231 35c106 50 159 158 159 324c0 163.333 -53 271.666 -159 324.999c-48 23.333 -125 35 -231 35h-165v-719zM116 30.001v658.001h139c29.333 0 55 -0.666992 77 -2s40.667 -3.33301 56 -6
c49.333 -9.33301 89 -27.333 119 -54c63.333 -57.333 95 -146.333 95 -267c0 -148.667 -44.333 -246.334 -133 -293.001c-46 -24 -117.333 -36 -214 -36h-139z" />
    <glyph glyph-name="E" unicode="E" horiz-adv-x="567" 
d="M82 0h449v32h-415v327h321v31h-321v297h405v32h-439v-719z" />
    <glyph glyph-name="F" unicode="F" horiz-adv-x="523" 
d="M82 0h34v359h307v31h-307v297h386v32h-420v-719z" />
    <glyph glyph-name="G" unicode="G" horiz-adv-x="709" 
d="M603 546l31.002 14.998c-18 58.667 -52.333 103 -103 133c-46.667 27.333 -102.334 41 -167.001 41c-104.667 0 -184.334 -38 -239.001 -114c-48.667 -66.667 -73 -154 -73 -262c0 -107.333 24.667 -194.666 74 -261.999c54.667 -74.667 134 -112 238 -112
c47.333 0 92 8.66699 134 26c104.667 44.667 157 143.334 157 296.001v18c0 6 -0.333008 12.333 -1 19h-269v-30h237v-31c0 -82.667 -22.333 -147.667 -67 -195c-46 -49.333 -109.667 -74 -191 -74c-92.667 0 -163.667 35.667 -213 107c-42.667 60.667 -64 140 -64 238
s21.333 177.667 64 239c49.333 71.333 120.333 107 213 107c127.333 0 207 -53 239 -159z" />
    <glyph glyph-name="H" unicode="H" horiz-adv-x="686" 
d="M82 0h34v369h455v-369h33v719h-33v-320h-455v320h-34v-719z" />
    <glyph glyph-name="I" unicode="I" horiz-adv-x="207" 
d="M87 0h33v719h-33v-719z" />
    <glyph glyph-name="J" unicode="J" horiz-adv-x="473" 
d="M217 13c-66 0 -110 26.999 -132 80.999l-15.5 -7.5c-5 -2.33301 -10.167 -4.16602 -15.5 -5.49902c26 -64.667 79.333 -97 160 -97c122.667 0 184 75 184 225v510h-33v-500c0 -66.667 -8.33301 -114.667 -25 -144c-22 -41.333 -63 -62 -123 -62z" />
    <glyph glyph-name="K" unicode="K" horiz-adv-x="582" 
d="M82 0h34v270l136 138l309 -408h40l-327 431l284 288h-43l-399 -405v405h-34v-719z" />
    <glyph glyph-name="L" unicode="L" horiz-adv-x="509" 
d="M83 0h415v32h-381v687h-34v-719z" />
    <glyph glyph-name="M" unicode="M" horiz-adv-x="773" 
d="M82 0h30v677l269 -505h20l260 505v-677h30v719h-47l-252 -506l-262 506h-48v-719z" />
    <glyph glyph-name="N" unicode="N" horiz-adv-x="682" 
d="M82 0h33v661l452 -661h33v719h-33v-662l-451 662h-34v-719z" />
    <glyph glyph-name="O" unicode="O" horiz-adv-x="741" 
d="M52 359c0 -110 25 -197.999 75 -263.999c55.333 -73.333 136.333 -110 243 -110s188 36.667 244 110c50 66 75 154 75 264c0 109.333 -25 197.666 -75 264.999c-56 74 -137.333 111 -244 111c-106 0 -187 -37.333 -243 -112c-50 -67.333 -75 -155.333 -75 -264z
M87 359.001c0 99.333 21.667 179.667 65 241c50 70 122.667 105 218 105s168 -35 218 -105c44 -61.333 66 -141.666 66 -240.999c0 -100 -21.667 -180.333 -65 -241c-49.333 -69.333 -122.333 -104 -219 -104c-96 0 -168.667 34.667 -218 104
c-43.333 61.333 -65 141.666 -65 240.999z" />
    <glyph glyph-name="P" unicode="P" horiz-adv-x="575" 
d="M278 719h-196v-719h34v332h159c50.667 0 87.667 2.33301 111 7c40.667 8 73 24 97 48c36 36.667 54 84 54 142c0 126.667 -86.333 190 -259 190zM254 689c52.667 0 91 -2 115 -6c88.667 -14 133 -64.333 133 -151c0 -76.667 -27.333 -127 -82 -151
c-28 -12.667 -83.667 -19 -167 -19h-137v327h138z" />
    <glyph glyph-name="Q" unicode="Q" horiz-adv-x="741" 
d="M696 -79c-76 6 -125.334 22.333 -148.001 49c-10 10.667 -18.667 26.667 -26 48c30.667 16 58 38 82 66c56.667 66.667 85 158.334 85 275.001c0 109.333 -25 197.666 -75 264.999c-56 74 -137.333 111 -244 111c-106 0 -187 -37.333 -243 -112
c-50 -67.333 -75 -155.333 -75 -264c0 -110 25 -198 75 -264c55.333 -73.333 136.333 -110 243 -110c46.667 0 89 7 127 21c6.66699 -22 16.334 -40.333 29.001 -55c27.333 -32 82 -50.667 164 -56zM488.999 37c-36 -15.333 -75.667 -23 -119 -23
c-96 0 -168.667 34.667 -218 104c-43.333 61.333 -65 141.666 -65 240.999s21.667 179.666 65 240.999c50 70 122.667 105 218 105s168 -35 218 -105c44 -61.333 66 -141.666 66 -240.999c0 -108 -25.333 -192.333 -76 -253c-20 -24 -41.667 -42.667 -65 -56
c-12.667 52.667 -24 87.334 -34 104.001c-16 25.333 -45.333 44.333 -88 57c-32 9.33301 -62.333 15 -91 17l-2 -32c76 -4.66699 125.667 -21 149 -49c10.667 -12 19.667 -28.667 27 -50c2.66699 -9.33301 7.66699 -29.333 15 -60z" />
    <glyph glyph-name="R" unicode="R" horiz-adv-x="622" 
d="M333 340c50 0 86.667 -5.99902 110 -17.999c30 -15.333 48.667 -45 56 -89c0.666992 -5.33301 1.16699 -13.833 1.5 -25.5s0.5 -27.167 0.5 -46.5v-161h39l-1 137c0 58.667 -0.333008 89.667 -1 93c-6.66699 70.667 -40.334 112 -101.001 124
c86.667 26.667 130 85.667 130 177c0 73.333 -23.667 124.666 -71 153.999c-37.333 22.667 -95.666 34 -174.999 34h-239v-719h34v340h217zM116 370.001l0.000976562 318.001h205c20.667 0 38.667 -0.5 54 -1.5s27.666 -2.16699 36.999 -3.5
c80.667 -14.667 121 -66.334 121 -155.001c0 -105.333 -65 -158 -195 -158h-222z" />
    <glyph glyph-name="S" unicode="S" horiz-adv-x="573" 
d="M45 219c4.66699 -73.333 28.665 -130.33 71.998 -170.997c42.667 -42 100.334 -63 173.001 -63c68.667 0 124.667 16.667 168 50c47.333 37.333 71 89.333 71 156c0 60 -25.333 106.333 -76 139c-28.667 18 -81.334 37.333 -158.001 58
c-3.33301 1.33301 -6.16602 2.16602 -8.49902 2.49902s-4.16602 0.833008 -5.49902 1.5c-72.667 18.667 -120 38 -142 58c-29.333 27.333 -44 59.666 -44 96.999c0 52 17.667 92 53 120c32.667 26.667 75.667 40 129 40c57.333 0 104.333 -15.667 141 -47
c38 -32.667 57.667 -78 59 -136h32c-3.33301 67.333 -26 119.333 -68 156c-40.667 36.667 -94.667 55 -162 55c-62 0 -112.667 -15.667 -152 -47c-42.667 -32.667 -64 -79.667 -64 -141c0 -48.667 17 -88.334 51 -119.001c22 -20 74.333 -41.667 157 -65
c8 -2 12.333 -3.33301 13 -4c74 -20 122 -37.333 144 -52c44.667 -28 67 -69.667 67 -125c0 -53.333 -21.333 -95.333 -64 -126c-37.333 -28 -84 -42 -140 -42c-64 0 -114.5 18.5 -151.5 55.5s-57.5 86.833 -61.5 149.5h-33z" />
    <glyph glyph-name="T" unicode="T" horiz-adv-x="509" 
d="M240 0h34v688h224v31h-482v-31h224v-688z" />
    <glyph glyph-name="U" unicode="U" horiz-adv-x="671" 
d="M77 719l0.000976562 -468c0 -84.667 22.333 -149.667 67 -195c45.333 -47.333 109.333 -71 192 -71c82 0 146 23.667 192 71c44.667 46.667 67 111.667 67 195v468h-33v-452c0 -78.667 -17.667 -139.667 -53 -183c-38.667 -46.667 -96.334 -70 -173.001 -70
c-150.667 0 -226 84.333 -226 253v452h-33z" />
    <glyph glyph-name="V" unicode="V" horiz-adv-x="525" 
d="M246 0h32l250 719h-35l-230 -670l-231 670h-34z" />
    <glyph glyph-name="W" unicode="W" horiz-adv-x="824" 
d="M200 0h34l178 501l178 -501h34l192 719h-34l-175 -659l-179 488h-32l-178 -488l-176 659h-34z" />
    <glyph glyph-name="X" unicode="X" horiz-adv-x="530" 
d="M1 0h37l225 339l228 -339h38l-244 369l230 350h-37l-213 -323l-214 323h-39l233 -351z" />
    <glyph glyph-name="Y" unicode="Y" horiz-adv-x="530" 
d="M248 0h33v316l247 403h-38l-224 -367l-227 367h-38l247 -401v-318z" />
    <glyph glyph-name="Z" unicode="Z" horiz-adv-x="529" 
d="M9 0h510v30h-474l462 655v34h-459v-31h423l-462 -655v-33z" />
    <glyph glyph-name="bracketleft" unicode="[" horiz-adv-x="302" 
d="M284 -205v30h-134v862h134v31h-169v-923h169z" />
    <glyph glyph-name="backslash" unicode="\" horiz-adv-x="292" 
d="M-36 738l308 -821h35l-308 821h-35z" />
    <glyph glyph-name="bracketright" unicode="]" horiz-adv-x="302" 
d="M22 -205h169v923h-169v-31h134v-862h-134v-30z" />
    <glyph glyph-name="asciicircum" unicode="^" horiz-adv-x="542" 
d="M248 711l-145 -245h53l115 196l116 -196h53l-145 245h-47z" />
    <glyph glyph-name="underscore" unicode="_" horiz-adv-x="500" 
d="M0 -205v-30h500v30h-500z" />
    <glyph glyph-name="grave" unicode="`" horiz-adv-x="500" 
d="M306 584l-102 160h-53l102 -160h53z" />
    <glyph glyph-name="a" unicode="a" horiz-adv-x="572" 
d="M471 112l0.00195312 -111.999h31v519h-31v-119c-34 86.667 -99.333 130 -196 130c-76.667 0 -135 -27 -175 -81c-36 -48 -54 -111.667 -54 -191c0 -78.667 18 -142.334 54 -191.001c41.333 -53.333 99.666 -80 174.999 -80c97.333 0 162.666 41.667 195.999 125z
M78.002 258.001c0 70 15.334 126.332 46.001 168.999c34 50 84.333 75 151 75s117 -25 151 -75c30 -43.333 45 -99.666 45 -168.999c0 -70 -15 -126.333 -45 -169c-34 -50 -84.333 -75 -151 -75s-117.334 25 -152.001 75c-30 42.667 -45 99 -45 169z" />
    <glyph glyph-name="b" unicode="b" horiz-adv-x="572" 
d="M69 0h32v110c40 -82 105.333 -123 196 -123c76.667 0 135 26.667 175 80c36 48 54 111.667 54 191c0 78.667 -18 142 -54 190c-40.667 54.667 -99 82 -175 82c-94.667 0 -160 -43 -196 -129v317h-32v-718zM101 258c0 69.333 15 125.666 45 168.999
c34 50 84.333 75 151 75c66 0 116.667 -25 152 -75c30 -43.333 45 -99.666 45 -168.999c0 -70 -15 -126.333 -45 -169c-35.333 -50 -86 -75 -152 -75s-116.333 25 -151 75c-30 42.667 -45 99 -45 169z" />
    <glyph glyph-name="c" unicode="c" horiz-adv-x="519" 
d="M466 125l-27 16.001c-10 -40 -30.167 -71.167 -60.5 -93.5s-65.833 -33.5 -106.5 -33.5c-66 0 -116.333 25 -151 75c-30 42.667 -45 99 -45 169c0 69.333 15 125.666 45 168.999c34 50 84.333 75 151 75c43.333 0 80 -12 110 -36
c23.333 -19.333 39.333 -41.666 48 -66.999l27 18c-29.333 75.333 -91 113 -185 113c-76 0 -134 -27.333 -174 -82c-36 -48 -54 -111.333 -54 -190c0 -76.667 17.667 -139.667 53 -189c40 -54.667 97.333 -82 172 -82c56.667 0 103.667 15.667 141 47
c26 23.333 44.667 53.666 56 90.999z" />
    <glyph glyph-name="d" unicode="d" horiz-adv-x="572" 
d="M502 718h-31v-313c-32 83.333 -97.333 125 -196 125c-76 0 -134.333 -27.333 -175 -82c-36 -48 -54 -111.333 -54 -190c0 -79.333 18 -143 54 -191c40 -53.333 98.333 -80 175 -80c96.667 0 162 42.667 196 128v-115h31v718zM471 258
c0 -70 -14.999 -126.334 -44.999 -169.001c-34 -50 -84.333 -75 -151 -75s-117.334 25 -152.001 75c-30 42.667 -45 99 -45 169s15.333 126.333 46 169c34 50 84.333 75 151 75s117 -25 151 -75c30 -43.333 45 -99.666 45 -168.999z" />
    <glyph glyph-name="e" unicode="e" horiz-adv-x="523" 
d="M397 31c28.667 22.667 49.667 51.667 63 87l-26 14c-30 -78.667 -87 -118 -171 -118c-60.667 0 -108 24.667 -142 74c-30 42.667 -45 96 -45 160v8h405v19c0 75.333 -17.333 135.333 -52 180c-38 50 -93.333 75 -166 75c-74 0 -130.333 -28 -169 -84
c-34 -48 -51 -110.667 -51 -188s17 -140.333 51 -189c38.667 -54.667 95 -82 169 -82c52 0 96.667 14.667 134 44zM77 285c4 62 21 112.667 51 152c34 43.333 81 65 141 65c58 0 103 -22.333 135 -67c28.667 -39.333 43 -89.333 43 -150h-370z" />
    <glyph glyph-name="f" unicode="f" horiz-adv-x="211" 
d="M48 592v-592h31v490h102v29h-102v74c0 36 3 60.667 9 74c10 20 30.667 30 62 30h87v27l-92 -1c-42 0 -69.333 -12 -82 -36c-10 -18 -15 -49.667 -15 -95z" />
    <glyph glyph-name="g" unicode="g" horiz-adv-x="572" 
d="M471 111l0.00292969 -53.001c0 -72.667 -7.66699 -122.667 -23 -150c-32.667 -58.667 -92.334 -88 -179.001 -88c-46.667 0 -85 9 -115 27c-34.667 20.667 -53.667 53.334 -57 98.001h-30c1.33301 -52 21.666 -91.333 60.999 -118c35.333 -23.333 79.666 -35 132.999 -35
c97.333 0 166.666 30 207.999 90c22 32 33 80.667 33 146v491h-31v-116c-15.333 42 -40.666 73.667 -75.999 95s-75.333 32 -120 32c-76.667 0 -135 -27 -175 -81c-36 -48 -54 -111.667 -54 -191c0 -78 17.667 -141.667 53 -191c40 -54 98 -81 174 -81
c96 0 162 41.667 198 125zM471.003 257.999c0 -70 -14.999 -126.334 -44.999 -169.001c-34 -50 -84.333 -75 -151 -75s-117.334 25 -152.001 75c-30 42.667 -45 99 -45 169s15.333 126.333 46 169c34 50 84.333 75 151 75s117 -25 151 -75
c30 -43.333 45 -99.666 45 -168.999z" />
    <glyph glyph-name="h" unicode="h" 
d="M69 0h32.001v278c0 20 0.5 37.5 1.5 52.5s2.16699 27.5 3.5 37.5c16 88.667 73 133 171 133c53.333 0 91.666 -15 114.999 -45c20 -26 30 -66.667 30 -122v-334h32v344c0 124 -59.333 186 -178 186c-84 0 -142.333 -32 -175 -96v284h-32v-718z" />
    <glyph glyph-name="i" unicode="i" horiz-adv-x="175" 
d="M72 0h31v519h-31v-519zM66 680c0 -32 7 -48 21 -48c14.667 0 22 16 22 48c0 31.333 -7.33301 47 -22 47c-14 0 -21 -15.667 -21 -47z" />
    <glyph glyph-name="j" unicode="j" horiz-adv-x="175" 
d="M73 519l-0.000976562 -588c0 -41.333 -2.33301 -67 -7 -77c-8 -20 -28.667 -30 -62 -30h-54v-30h61c40.667 0 67.334 11.333 80.001 34c8.66699 15.333 13 46 13 92v599h-31zM63.999 680c0 -32 7 -48 21 -48c14.667 0 22 16 22 48c0 31.333 -7.33301 47 -22 47
c-14 0 -21 -15.667 -21 -47z" />
    <glyph glyph-name="k" unicode="k" horiz-adv-x="458" 
d="M69 0h32v185l127 123l205 -308h36l-219 330l189 189h-39l-299 -296v495h-32v-718z" />
    <glyph glyph-name="l" unicode="l" horiz-adv-x="175" 
d="M72 0h31v718h-31v-718z" />
    <glyph glyph-name="m" unicode="m" horiz-adv-x="817" 
d="M69 0h31.999v280c0 19.333 0.5 36.5 1.5 51.5s2.16699 27.5 3.5 37.5c14.667 88 66.334 132 155.001 132c60 0 99.333 -22.333 118 -67c10 -23.333 15 -64 15 -122v-312h31v280c0 66.667 9.66699 117.667 29 153c25.333 45.333 69 68 131 68c60 0 99.333 -22.333 118 -67
c10 -23.333 15 -64 15 -122v-312h32v344c0 124 -54.667 186 -164 186c-76.667 0 -133 -35.333 -169 -106c-18.667 70.667 -70 106 -154 106c-74 0 -128 -32 -162 -96v85h-32v-519z" />
    <glyph glyph-name="n" unicode="n" 
d="M69 0h32.001v278c0 20 0.5 37.5 1.5 52.5s2.16699 27.5 3.5 37.5c16 88.667 73 133 171 133c53.333 0 91.666 -15 114.999 -45c20 -26 30 -66.667 30 -122v-334h32v344c0 124 -59.333 186 -178 186c-84 0 -142.333 -32 -175 -96v85h-32v-519z" />
    <glyph glyph-name="o" unicode="o" horiz-adv-x="545" 
d="M44 258c0 -78.667 18.001 -142.334 54.001 -191.001c40 -53.333 98 -80 174 -80c75.333 0 133.666 26.667 174.999 80c36 48.667 54 112.334 54 191.001s-18 142 -54 190c-40.667 54.667 -99 82 -175 82s-134 -27.333 -174 -82c-36 -48 -54 -111.333 -54 -190z
M76.001 258c0 69.333 15 125.666 45 168.999c34 50 84.333 75 151 75c66 0 116.667 -25 152 -75c30 -43.333 45 -99.666 45 -168.999c0 -70 -15 -126.333 -45 -169c-35.333 -50 -86 -75 -152 -75s-116.333 25 -151 75c-30 42.667 -45 99 -45 169z" />
    <glyph glyph-name="p" unicode="p" horiz-adv-x="572" 
d="M69 -205l32.002 -0.000976562v317c33.333 -83.333 98.666 -125 195.999 -125c75.333 0 133.666 26.667 174.999 80c36 48.667 54 112.334 54 191.001c0 79.333 -18 143 -54 191c-40 54 -98.333 81 -175 81c-96.667 0 -162 -43.333 -196 -130v119h-32v-724z
M101.002 257.999c0 69.333 15 125.666 45 168.999c34 50 84.333 75 151 75c66 0 116.667 -25 152 -75c30 -43.333 45 -99.666 45 -168.999c0 -70 -15 -126.333 -45 -169c-35.333 -50 -86 -75 -152 -75s-116.333 25 -151 75c-30 42.667 -45 99 -45 169z" />
    <glyph glyph-name="q" unicode="q" horiz-adv-x="572" 
d="M471 112l0.00195312 -316.999h31v724h-31v-119c-34 86.667 -99.333 130 -196 130c-76.667 0 -135 -27 -175 -81c-36 -48 -54 -111.667 -54 -191c0 -78.667 18 -142.334 54 -191.001c41.333 -53.333 99.666 -80 174.999 -80c97.333 0 162.666 41.667 195.999 125z
M78.002 258.001c0 70 15.334 126.332 46.001 168.999c34 50 84.333 75 151 75s117 -25 151 -75c30 -43.333 45 -99.666 45 -168.999c0 -70 -15 -126.333 -45 -169c-34 -50 -84.333 -75 -151 -75s-117.334 25 -152.001 75c-30 42.667 -45 99 -45 169z" />
    <glyph glyph-name="r" unicode="r" horiz-adv-x="263" 
d="M69 0h31.999v345c0 35.333 9.66699 64.333 29 87c24 27.333 47.333 44.333 70 51c10.667 4 28.334 6 53.001 6l20 28c-88 0.666992 -145.333 -27.333 -172 -84v86h-32v-519z" />
    <glyph glyph-name="s" unicode="s" horiz-adv-x="481" 
d="M81 154h-31.001c4.66699 -54.667 25.334 -96.667 62.001 -126c35.333 -27.333 80.666 -41 135.999 -41c48.667 0 90.667 11.667 126 35c39.333 27.333 59 64.333 59 111c0 43.333 -17.667 76.666 -53 99.999c-21.333 14.667 -59.333 29 -114 43
c-5.33301 0.666992 -8.66602 1.66699 -9.99902 3c-106 26.667 -159 66 -159 118c0 34.667 15.667 61.667 47 81c26 16 57.333 24 94 24c88 0 137.333 -40.333 148 -121h31c-5.33301 47.333 -24 84.333 -56 111c-31.333 25.333 -71 38 -119 38
c-46.667 0 -86.667 -10.667 -120 -32c-38.667 -24.667 -58 -59.667 -58 -105c0 -38 14 -68 42 -90c24.667 -19.333 79.334 -40 164.001 -62c7.33301 -1.33301 13.166 -2.66602 17.499 -3.99902s7.5 -2.33301 9.5 -3c68.667 -18.667 103 -52 103 -100
c0 -40 -16.333 -70.333 -49 -91c-27.333 -18 -62 -27 -104 -27c-94 0 -149.333 46 -166 138z" />
    <glyph glyph-name="t" unicode="t" horiz-adv-x="187" 
d="M47 661v-661h32v491h104v28h-104v142h-32z" />
    <glyph glyph-name="u" unicode="u" 
d="M451 519h-31v-281c0 -20.667 -0.5 -38.5 -1.5 -53.5s-2.16699 -27.5 -3.5 -37.5c-16 -88 -73 -132 -171 -132c-54 0 -92.333 15 -115 45c-20.667 25.333 -31 66 -31 122v337h-31v-347c0 -123.333 59.333 -185 178 -185c84 0 142.333 31.333 175 94v-81h31v519z" />
    <glyph glyph-name="v" unicode="v" horiz-adv-x="444" 
d="M201 0h36l200 519h-33l-185 -482l-178 482h-33z" />
    <glyph glyph-name="w" unicode="w" horiz-adv-x="669" 
d="M178 0h32l122 355l126 -355h32l166 519h-32l-150 -470l-127 363h-29l-124 -363l-148 470h-33z" />
    <glyph glyph-name="x" unicode="x" horiz-adv-x="410" 
d="M32 0l172 243l174 -243h37l-192 268l179 251h-37l-160 -225l-164 225h-38l182 -251l-189 -268h36z" />
    <glyph glyph-name="y" unicode="y" 
d="M444 -59c3.33301 13.333 5.66797 25.6689 7.00098 37.002s2.33301 22.333 3 33v519h-32v-278c0 -20.667 -0.5 -38.5 -1.5 -53.5s-2.16699 -27.167 -3.5 -36.5c-16 -88.667 -73 -133 -171 -133c-54 0 -92.333 15 -115 45c-20 26 -30 66.667 -30 122v334h-32v-344
c0 -124 59.333 -186 178 -186c83.333 0 141.666 32 174.999 96v-80c0 -24 -1 -42 -3 -54c-1.33301 -10 -3.5 -19.167 -6.5 -27.5s-6.16699 -15.833 -9.5 -22.5c-30 -58 -83.333 -87 -160 -87c-42.667 0 -77.667 9.66699 -105 29c-30.667 20.667 -47 52 -49 94h-27
c0.666992 -48.667 18 -86.334 52 -113.001c30.667 -24.667 71.334 -37 122.001 -37c43.333 0 80.666 7.33301 111.999 22c51.333 25.333 83.333 65.666 96 120.999z" />
    <glyph glyph-name="z" unicode="z" horiz-adv-x="437" 
d="M17 0h403v31h-369l358 451v37h-372v-31h338l-358 -451v-37z" />
    <glyph glyph-name="braceleft" unicode="{" horiz-adv-x="500" 
d="M366 721l-15.999 0.00195312c-92.667 0 -139 -35 -139 -105c0 -28.667 8 -71 24 -127c16.667 -54 25 -96 25 -126c0 -62.667 -42 -91.334 -126 -86.001v-36l22 1c70 2.66699 105 -23 105 -77c0 -27.333 -8.66699 -70 -26 -128c-17.333 -57.333 -26 -100 -26 -128
c0 -75.333 52.333 -112 157 -110v34c-78.667 -0.666992 -118 28.666 -118 87.999c0 27.333 8.66699 69 26 125s26 98 26 126c0 47.333 -23.333 76.333 -70 87c47.333 8 71 37.667 71 89c0 29.333 -8 72 -24 128c-16 56.667 -24 99.667 -24 129c0 55.333 31 83 93 83h10
c3.33301 0 6.66602 -0.333008 9.99902 -1v34z" />
    <glyph glyph-name="bar" unicode="|" horiz-adv-x="500" 
d="M232 764v-999h36v999h-36z" />
    <glyph glyph-name="braceright" unicode="}" horiz-adv-x="500" 
d="M89 721l0.000976562 -34.0029c3.33301 0.666992 6.66602 1 9.99902 1h10c62 0 93 -27.667 93 -83c0 -29.333 -8 -72.333 -24 -129c-16 -56 -24 -98.667 -24 -128c0 -51.333 23.333 -81 70 -89c-46.667 -10.667 -70 -39.667 -70 -87c0 -28 8.66699 -70 26 -126
c18 -55.333 27 -97 27 -125c0 -59.333 -39.333 -88.666 -118 -87.999v-34c104 -2 156 34.667 156 110c0 28 -8.66699 70.667 -26 128c-16.667 56 -25 98.667 -25 128c0 54.667 34.667 80.334 104 77.001l22 -1v36c-83.333 -5.33301 -125 23.334 -125 86.001
c0 28.667 8 70.667 24 126c16 56 24 98.333 24 127c0 70 -46 105 -138 105h-16z" />
    <glyph glyph-name="asciitilde" unicode="~" horiz-adv-x="602" 
d="M536 357c-53.333 -52.667 -98.3359 -79 -135.003 -79c-21.333 0 -54.666 11.667 -99.999 35c-45.333 24 -78.666 36 -99.999 36c-42.667 0 -87.667 -24.667 -135 -74v-37c52.667 54 97.667 81 135 81c20.667 0 53.667 -11.667 99 -35
c46.667 -23.333 80.334 -35 101.001 -35c41.333 0 86.333 24.333 135 73v35z" />
    <glyph glyph-name="quotesinglbase" horiz-adv-x="237" 
d="M125 105c-7.33301 0 -14.334 -1.83203 -21.001 -5.49902s-12.667 -8.33398 -18 -14.001s-9.66602 -12 -12.999 -19s-5 -14.167 -5 -21.5c0 -24 11.333 -36 34 -36l-31 -122h34l56 220h-35v-2h-1z" />
    <glyph glyph-name="quotesinglbase" unicode="&#x201a;" horiz-adv-x="237" 
d="M125 105c-7.33301 0 -14.334 -1.83203 -21.001 -5.49902s-12.667 -8.33398 -18 -14.001s-9.66602 -12 -12.999 -19s-5 -14.167 -5 -21.5c0 -24 11.333 -36 34 -36l-31 -122h34l56 220h-35v-2h-1z" />
    <glyph glyph-name="florin" horiz-adv-x="244" 
d="M129 593c7.33301 37.333 14.668 61.999 22.001 73.999c12.667 20 35 30.333 67 31l86 1l5 27l-93 -2c-41.333 -1.33301 -70.333 -14 -87 -38c-12 -16 -21.667 -45.667 -29 -89l-100 -597c-4.66699 -32 -11.334 -55 -20.001 -69c-12.667 -19.333 -35 -29.666 -67 -30.999
l-87 -2l-4 -26l92 2c41.333 1.33301 70.333 14 87 38c12 16 21.667 45.333 29 88l82 490l102 2l5 29l-102 -2z" />
    <glyph glyph-name="florin" unicode="&#x192;" horiz-adv-x="244" 
d="M129 593c7.33301 37.333 14.668 61.999 22.001 73.999c12.667 20 35 30.333 67 31l86 1l5 27l-93 -2c-41.333 -1.33301 -70.333 -14 -87 -38c-12 -16 -21.667 -45.667 -29 -89l-100 -597c-4.66699 -32 -11.334 -55 -20.001 -69c-12.667 -19.333 -35 -29.666 -67 -30.999
l-87 -2l-4 -26l92 2c41.333 1.33301 70.333 14 87 38c12 16 21.667 45.333 29 88l82 490l102 2l5 29l-102 -2z" />
    <glyph glyph-name="quotedblbase" horiz-adv-x="381" 
d="M263 104c-14.667 0 -27.833 -6.33203 -39.5 -18.999s-17.5 -26.334 -17.5 -41.001c0 -24.667 11 -37 33 -37l-31 -121l35 -1l55 220l-34 1zM116.001 104.001c-14.667 0 -27.833 -6.33203 -39.5 -18.999s-17.5 -26.334 -17.5 -41.001c0 -24.667 11 -37 33 -37h1l-31 -121
l34 -1l55 220l-34 1v-2h-1z" />
    <glyph glyph-name="quotedblbase" unicode="&#x201e;" horiz-adv-x="381" 
d="M263 104c-14.667 0 -27.833 -6.33203 -39.5 -18.999s-17.5 -26.334 -17.5 -41.001c0 -24.667 11 -37 33 -37l-31 -121l35 -1l55 220l-34 1zM116.001 104.001c-14.667 0 -27.833 -6.33203 -39.5 -18.999s-17.5 -26.334 -17.5 -41.001c0 -24.667 11 -37 33 -37h1l-31 -121
l34 -1l55 220l-34 1v-2h-1z" />
    <glyph glyph-name="ellipsis" unicode="&#x85;" horiz-adv-x="1000" 
d="M145 41v-9c0 -2.66699 0.166992 -5 0.5 -7s0.5 -4 0.5 -6c0.666992 -2.66699 1.66699 -6 3 -10c0 -0.666992 0.666992 -2.33398 2 -5.00098c3.33301 -6.66699 8.66602 -10 15.999 -10c6 0 11 2.66699 15 8c4 6.66699 6.33301 16.667 7 30v9v9
c0 1.33301 -0.166992 2.33301 -0.5 3s-0.5 1.66699 -0.5 3c-1.33301 13.333 -4.66602 22.333 -9.99902 27h-1v1c-1.33301 0.666992 -4 1.66699 -8 3h-2c-4 0 -8 -1.33301 -12 -4c0 -0.666992 -0.333008 -1 -1 -1v-1c-6 -7.33301 -9 -20.666 -9 -39.999zM812 41
l0.00195312 -8.99609v-6c0 -1.33301 0.166992 -2.5 0.5 -3.5s0.5 -2.16699 0.5 -3.5c0 -0.666992 0.166992 -1.16699 0.5 -1.5l0.5 -0.5v-3c0.666992 -2 1.66699 -4.33301 3 -7c0 -1.33301 0.333008 -2.33301 1 -3c0.666992 -2.66699 2.66699 -5 6 -7
c1.33301 -0.666992 4 -1.66699 8 -3h2c3.33301 0 6.66602 1 9.99902 3l3 3c2.66699 4 4.33398 7 5.00098 9c1.33301 5.33301 2.33301 9.66602 3 12.999c0 1.33301 0.166992 2.83301 0.5 4.5s0.5 3.5 0.5 5.5v9c0 3.33301 -0.166992 6.5 -0.5 9.5s-0.5 5.83301 -0.5 8.5
c-0.666992 1.33301 -1 2.66602 -1 3.99902s-0.333008 2.66602 -1 3.99902c0 1.33301 -0.166992 2.16602 -0.5 2.49902s-0.5 1.16602 -0.5 2.49902l-3 6v1l-2 2l-3 3c-2.66699 1.33301 -4.33398 2 -5.00098 2c-0.666992 0.666992 -2.33398 1 -5.00098 1h-2
c-2 0 -3.33301 -0.333008 -4 -1c-4 -0.666992 -7.66699 -4.66699 -11 -12c-0.666992 -0.666992 -1 -1.33398 -1 -2.00098c-0.666992 -1.33301 -1 -2.33301 -1 -3l-1 -2c0 -1.33301 -0.166992 -2.66602 -0.5 -3.99902s-0.5 -2.66602 -0.5 -3.99902
c0 -0.666992 -0.166992 -1.16699 -0.5 -1.5s-0.5 -0.833008 -0.5 -1.5v-15zM478.002 41.0039l0.00585938 -12.002c0 -3.33301 0.333008 -6.66602 1 -9.99902c0.666992 -1.33301 1 -3 1 -5c0.666992 -1.33301 1 -2.33301 1 -3l1 -2c0 -0.666992 0.333008 -1.33398 1 -2.00098
c0 -1.33301 0.333008 -2.33301 1 -3c2.66699 -4.66699 6 -7.66699 10 -9c0.666992 -0.666992 2 -1 4 -1h2c3.33301 0 6.66602 1 9.99902 3c1.33301 1.33301 2.66602 2.83301 3.99902 4.5s2.66602 4.16699 3.99902 7.5c1.33301 4 2.33301 8.66699 3 14s1 11.333 1 18v9
c0 1.33301 -0.166992 2.83301 -0.5 4.5s-0.5 3.16699 -0.5 4.5c0 0.666992 -0.166992 1.33398 -0.5 2.00098s-0.5 1.33398 -0.5 2.00098c-0.666992 4.66699 -2.33398 9.66699 -5.00098 15l-1 1c0 0.666992 -0.333008 1.33398 -1 2.00098l-3 3
c-2.66699 1.33301 -4.33398 2 -5.00098 2c-0.666992 0.666992 -2.33398 1 -5.00098 1h-2c-2 0 -3.33301 -0.333008 -4 -1c-1.33301 0 -2.33301 -0.333008 -3 -1s-1.66699 -1.33398 -3 -2.00098c0 -0.666992 -0.333008 -1 -1 -1v-1l-2 -2c0 -0.666992 -0.333008 -1 -1 -1v0
c0 -0.666992 -0.166992 -1.33398 -0.5 -2.00098s-0.5 -1.33398 -0.5 -2.00098c-1.33301 -2.66699 -2.33301 -5 -3 -7c0 -1.33301 -0.166992 -2.66602 -0.5 -3.99902s-0.5 -2.66602 -0.5 -3.99902c-0.666992 -3.33301 -1 -9.33301 -1 -18z" />
    <glyph glyph-name="ellipsis" unicode="&#x2026;" horiz-adv-x="1000" 
d="M145 41v-9c0 -2.66699 0.166992 -5 0.5 -7s0.5 -4 0.5 -6c0.666992 -2.66699 1.66699 -6 3 -10c0 -0.666992 0.666992 -2.33398 2 -5.00098c3.33301 -6.66699 8.66602 -10 15.999 -10c6 0 11 2.66699 15 8c4 6.66699 6.33301 16.667 7 30v9v9
c0 1.33301 -0.166992 2.33301 -0.5 3s-0.5 1.66699 -0.5 3c-1.33301 13.333 -4.66602 22.333 -9.99902 27h-1v1c-1.33301 0.666992 -4 1.66699 -8 3h-2c-4 0 -8 -1.33301 -12 -4c0 -0.666992 -0.333008 -1 -1 -1v-1c-6 -7.33301 -9 -20.666 -9 -39.999zM812 41
l0.00195312 -8.99609v-6c0 -1.33301 0.166992 -2.5 0.5 -3.5s0.5 -2.16699 0.5 -3.5c0 -0.666992 0.166992 -1.16699 0.5 -1.5l0.5 -0.5v-3c0.666992 -2 1.66699 -4.33301 3 -7c0 -1.33301 0.333008 -2.33301 1 -3c0.666992 -2.66699 2.66699 -5 6 -7
c1.33301 -0.666992 4 -1.66699 8 -3h2c3.33301 0 6.66602 1 9.99902 3l3 3c2.66699 4 4.33398 7 5.00098 9c1.33301 5.33301 2.33301 9.66602 3 12.999c0 1.33301 0.166992 2.83301 0.5 4.5s0.5 3.5 0.5 5.5v9c0 3.33301 -0.166992 6.5 -0.5 9.5s-0.5 5.83301 -0.5 8.5
c-0.666992 1.33301 -1 2.66602 -1 3.99902s-0.333008 2.66602 -1 3.99902c0 1.33301 -0.166992 2.16602 -0.5 2.49902s-0.5 1.16602 -0.5 2.49902l-3 6v1l-2 2l-3 3c-2.66699 1.33301 -4.33398 2 -5.00098 2c-0.666992 0.666992 -2.33398 1 -5.00098 1h-2
c-2 0 -3.33301 -0.333008 -4 -1c-4 -0.666992 -7.66699 -4.66699 -11 -12c-0.666992 -0.666992 -1 -1.33398 -1 -2.00098c-0.666992 -1.33301 -1 -2.33301 -1 -3l-1 -2c0 -1.33301 -0.166992 -2.66602 -0.5 -3.99902s-0.5 -2.66602 -0.5 -3.99902
c0 -0.666992 -0.166992 -1.16699 -0.5 -1.5s-0.5 -0.833008 -0.5 -1.5v-15zM478.002 41.0039l0.00585938 -12.002c0 -3.33301 0.333008 -6.66602 1 -9.99902c0.666992 -1.33301 1 -3 1 -5c0.666992 -1.33301 1 -2.33301 1 -3l1 -2c0 -0.666992 0.333008 -1.33398 1 -2.00098
c0 -1.33301 0.333008 -2.33301 1 -3c2.66699 -4.66699 6 -7.66699 10 -9c0.666992 -0.666992 2 -1 4 -1h2c3.33301 0 6.66602 1 9.99902 3c1.33301 1.33301 2.66602 2.83301 3.99902 4.5s2.66602 4.16699 3.99902 7.5c1.33301 4 2.33301 8.66699 3 14s1 11.333 1 18v9
c0 1.33301 -0.166992 2.83301 -0.5 4.5s-0.5 3.16699 -0.5 4.5c0 0.666992 -0.166992 1.33398 -0.5 2.00098s-0.5 1.33398 -0.5 2.00098c-0.666992 4.66699 -2.33398 9.66699 -5.00098 15l-1 1c0 0.666992 -0.333008 1.33398 -1 2.00098l-3 3
c-2.66699 1.33301 -4.33398 2 -5.00098 2c-0.666992 0.666992 -2.33398 1 -5.00098 1h-2c-2 0 -3.33301 -0.333008 -4 -1c-1.33301 0 -2.33301 -0.333008 -3 -1s-1.66699 -1.33398 -3 -2.00098c0 -0.666992 -0.333008 -1 -1 -1v-1l-2 -2c0 -0.666992 -0.333008 -1 -1 -1v0
c0 -0.666992 -0.166992 -1.33398 -0.5 -2.00098s-0.5 -1.33398 -0.5 -2.00098c-1.33301 -2.66699 -2.33301 -5 -3 -7c0 -1.33301 -0.166992 -2.66602 -0.5 -3.99902s-0.5 -2.66602 -0.5 -3.99902c-0.666992 -3.33301 -1 -9.33301 -1 -18z" />
    <glyph glyph-name="dagger" horiz-adv-x="500" 
d="M234 -104h31v630h148v29h-148v164h-31v-164h-147v-29h147v-630z" />
    <glyph glyph-name="dagger" unicode="&#x2020;" horiz-adv-x="500" 
d="M234 -104h31v630h148v29h-148v164h-31v-164h-147v-29h147v-630z" />
    <glyph glyph-name="daggerdbl" horiz-adv-x="500" 
d="M265 87v439h148v29h-148v164h-31v-164h-147v-29h147v-439h-147v-29h147v-162h31v162h148v29h-148z" />
    <glyph glyph-name="daggerdbl" unicode="&#x2021;" horiz-adv-x="500" 
d="M265 87v439h148v29h-148v164h-31v-164h-147v-29h147v-439h-147v-29h147v-162h31v162h148v29h-148z" />
    <glyph glyph-name="circumflex" horiz-adv-x="500" 
d="M126 584h38l86 132l87 -136l36 4l-99 160h-48z" />
    <glyph glyph-name="circumflex" unicode="&#x2c6;" horiz-adv-x="500" 
d="M126 584h38l86 132l87 -136l36 4l-99 160h-48z" />
    <glyph glyph-name="perthousand" horiz-adv-x="1028" 
d="M406 175c0 -43.333 11.665 -81.667 34.998 -115c26.667 -38 61 -57 103 -57s76.667 18.667 104 56c23.333 33.333 35 72 35 116c0 43.333 -12 82 -36 116c-27.333 38 -61.666 57 -102.999 57s-75.666 -18.667 -102.999 -56c-23.333 -34.667 -35 -73.667 -35 -117z
M722.998 174.999c0 -44 11.999 -82.333 35.999 -115c26.667 -38 61 -57 103 -57c42.667 0 77 18.667 103 56c23.333 33.333 35 72 35 116c0 43.333 -12 82 -36 116c-27.333 38 -61.333 57 -102 57c-41.333 0 -75.666 -18.667 -102.999 -56c-24 -34 -36 -73 -36 -117z
M44.9971 546.999c0 -44.667 12 -83.334 36 -116.001c27.333 -37.333 61.666 -56 102.999 -56c42.667 0 77 18.667 103 56c23.333 32.667 35 71.334 35 116.001c0 43.333 -12 82 -36 116c-27.333 37.333 -61.333 56 -102 56c-41.333 0 -75.666 -18.667 -102.999 -56
c-24 -33.333 -36 -72 -36 -116zM75.9971 546.999c0 35.333 9 66.666 27 93.999c20 31.333 47 47 81 47c32 0 58.667 -15.667 80 -47c18 -27.333 27 -58.666 27 -93.999c0 -36 -9 -67.333 -27 -94c-21.333 -32 -48 -48 -80 -48c-34 0 -61 16 -81 48c-18 26.667 -27 58 -27 94
zM753.997 174.999c0 36 9 67.666 27 94.999c20 30.667 47 46 81 46c33.333 0 60 -15.667 80 -47c18 -27.333 27 -58.666 27 -93.999s-9 -66.333 -27 -93c-20 -32 -46.667 -48 -80 -48c-34 0 -61 15.667 -81 47c-18 26.667 -27 58 -27 94zM436.997 174.998
c0 36 8.66699 67.667 26 95c20.667 30.667 47.667 46 81 46c32.667 0 59.667 -15.667 81 -47c17.333 -27.333 26 -58.666 26 -93.999c0 -34.667 -8.66699 -65.667 -26 -93c-21.333 -32 -48.333 -48 -81 -48s-59.667 15.667 -81 47c-17.333 27.333 -26 58.666 -26 93.999z
M515.997 751.998l-347 -752h35l346 752h-34z" />
    <glyph glyph-name="perthousand" unicode="&#x2030;" horiz-adv-x="1028" 
d="M406 175c0 -43.333 11.665 -81.667 34.998 -115c26.667 -38 61 -57 103 -57s76.667 18.667 104 56c23.333 33.333 35 72 35 116c0 43.333 -12 82 -36 116c-27.333 38 -61.666 57 -102.999 57s-75.666 -18.667 -102.999 -56c-23.333 -34.667 -35 -73.667 -35 -117z
M722.998 174.999c0 -44 11.999 -82.333 35.999 -115c26.667 -38 61 -57 103 -57c42.667 0 77 18.667 103 56c23.333 33.333 35 72 35 116c0 43.333 -12 82 -36 116c-27.333 38 -61.333 57 -102 57c-41.333 0 -75.666 -18.667 -102.999 -56c-24 -34 -36 -73 -36 -117z
M44.9971 546.999c0 -44.667 12 -83.334 36 -116.001c27.333 -37.333 61.666 -56 102.999 -56c42.667 0 77 18.667 103 56c23.333 32.667 35 71.334 35 116.001c0 43.333 -12 82 -36 116c-27.333 37.333 -61.333 56 -102 56c-41.333 0 -75.666 -18.667 -102.999 -56
c-24 -33.333 -36 -72 -36 -116zM75.9971 546.999c0 35.333 9 66.666 27 93.999c20 31.333 47 47 81 47c32 0 58.667 -15.667 80 -47c18 -27.333 27 -58.666 27 -93.999c0 -36 -9 -67.333 -27 -94c-21.333 -32 -48 -48 -80 -48c-34 0 -61 16 -81 48c-18 26.667 -27 58 -27 94
zM753.997 174.999c0 36 9 67.666 27 94.999c20 30.667 47 46 81 46c33.333 0 60 -15.667 80 -47c18 -27.333 27 -58.666 27 -93.999s-9 -66.333 -27 -93c-20 -32 -46.667 -48 -80 -48c-34 0 -61 15.667 -81 47c-18 26.667 -27 58 -27 94zM436.997 174.998
c0 36 8.66699 67.667 26 95c20.667 30.667 47.667 46 81 46c32.667 0 59.667 -15.667 81 -47c17.333 -27.333 26 -58.666 26 -93.999c0 -34.667 -8.66699 -65.667 -26 -93c-21.333 -32 -48.333 -48 -81 -48s-59.667 15.667 -81 47c-17.333 27.333 -26 58.666 -26 93.999z
M515.997 751.998l-347 -752h35l346 752h-34z" />
    <glyph glyph-name="Scaron" horiz-adv-x="573" 
d="M45 219c4.66699 -73.333 28.665 -130.33 71.998 -170.997c42.667 -42 100.334 -63 173.001 -63c68.667 0 124.667 16.667 168 50c47.333 37.333 71 89.333 71 156c0 60 -25.333 106.333 -76 139c-28.667 18 -81.334 37.333 -158.001 58
c-3.33301 1.33301 -6.16602 2.16602 -8.49902 2.49902s-4.16602 0.833008 -5.49902 1.5c-72.667 18.667 -120 38 -142 58c-29.333 27.333 -44 59.666 -44 96.999c0 52 17.667 92 53 120c32.667 26.667 75.667 40 129 40c57.333 0 104.333 -15.667 141 -47
c38 -32.667 57.667 -78 59 -136h32c-3.33301 67.333 -26 119.333 -68 156c-40.667 36.667 -94.667 55 -162 55c-62 0 -112.667 -15.667 -152 -47c-42.667 -32.667 -64 -79.667 -64 -141c0 -48.667 17 -88.334 51 -119.001c22 -20 74.333 -41.667 157 -65
c8 -2 12.333 -3.33301 13 -4c74 -20 122 -37.333 144 -52c44.667 -28 67 -69.667 67 -125c0 -53.333 -21.333 -95.333 -64 -126c-37.333 -28 -84 -42 -140 -42c-64 0 -114.5 18.5 -151.5 55.5s-57.5 86.833 -61.5 149.5h-33zM173.998 945.003l100 -160h48l99 160l-36 4
l-87 -136l-87 131z" />
    <glyph glyph-name="Scaron" unicode="&#x160;" horiz-adv-x="573" 
d="M45 219c4.66699 -73.333 28.665 -130.33 71.998 -170.997c42.667 -42 100.334 -63 173.001 -63c68.667 0 124.667 16.667 168 50c47.333 37.333 71 89.333 71 156c0 60 -25.333 106.333 -76 139c-28.667 18 -81.334 37.333 -158.001 58
c-3.33301 1.33301 -6.16602 2.16602 -8.49902 2.49902s-4.16602 0.833008 -5.49902 1.5c-72.667 18.667 -120 38 -142 58c-29.333 27.333 -44 59.666 -44 96.999c0 52 17.667 92 53 120c32.667 26.667 75.667 40 129 40c57.333 0 104.333 -15.667 141 -47
c38 -32.667 57.667 -78 59 -136h32c-3.33301 67.333 -26 119.333 -68 156c-40.667 36.667 -94.667 55 -162 55c-62 0 -112.667 -15.667 -152 -47c-42.667 -32.667 -64 -79.667 -64 -141c0 -48.667 17 -88.334 51 -119.001c22 -20 74.333 -41.667 157 -65
c8 -2 12.333 -3.33301 13 -4c74 -20 122 -37.333 144 -52c44.667 -28 67 -69.667 67 -125c0 -53.333 -21.333 -95.333 -64 -126c-37.333 -28 -84 -42 -140 -42c-64 0 -114.5 18.5 -151.5 55.5s-57.5 86.833 -61.5 149.5h-33zM173.998 945.003l100 -160h48l99 160l-36 4
l-87 -136l-87 131z" />
    <glyph glyph-name="guilsinglleft" horiz-adv-x="248" 
d="M203 121l-107 135l109 135l-27 19l-125 -154l125 -154z" />
    <glyph glyph-name="guilsinglleft" unicode="&#x2039;" horiz-adv-x="248" 
d="M203 121l-107 135l109 135l-27 19l-125 -154l125 -154z" />
    <glyph glyph-name="OE" horiz-adv-x="957" 
d="M478 719c-32 10.667 -68 16 -108 16c-106 0 -187 -37.333 -243 -112c-50 -67.333 -75 -155.333 -75 -264c0 -110 25 -198 75 -264c55.333 -73.333 136.333 -110 243 -110c40.667 0 77.667 5 111 15h446v33h-379c24 16 45.667 36.667 65 62
c50.667 66.667 76 154.667 76 264h144v32h-145c-4 94.667 -29 172 -75 232c-19.333 26 -42 47.667 -68 65h372v32h-439v-1zM478 32c-32 -12 -68 -17.998 -108 -17.998c-96 0 -168.667 34.667 -218 104c-43.333 61.333 -65 141.666 -65 240.999s21.667 179.666 65 240.999
c50 70 122.667 105 218 105c40 0 76 -6 108 -18v-655zM654 359.002c0 -100 -22 -180.333 -66 -241c-20.667 -28 -46 -51 -76 -69v310h142zM512 670.002c14.667 -8.66699 28.332 -18.668 40.999 -30.001s24.334 -24.666 35.001 -39.999c38 -54 59.667 -123.667 65 -209h-141
v279z" />
    <glyph glyph-name="OE" unicode="&#x152;" horiz-adv-x="957" 
d="M478 719c-32 10.667 -68 16 -108 16c-106 0 -187 -37.333 -243 -112c-50 -67.333 -75 -155.333 -75 -264c0 -110 25 -198 75 -264c55.333 -73.333 136.333 -110 243 -110c40.667 0 77.667 5 111 15h446v33h-379c24 16 45.667 36.667 65 62
c50.667 66.667 76 154.667 76 264h144v32h-145c-4 94.667 -29 172 -75 232c-19.333 26 -42 47.667 -68 65h372v32h-439v-1zM478 32c-32 -12 -68 -17.998 -108 -17.998c-96 0 -168.667 34.667 -218 104c-43.333 61.333 -65 141.666 -65 240.999s21.667 179.666 65 240.999
c50 70 122.667 105 218 105c40 0 76 -6 108 -18v-655zM654 359.002c0 -100 -22 -180.333 -66 -241c-20.667 -28 -46 -51 -76 -69v310h142zM512 670.002c14.667 -8.66699 28.332 -18.668 40.999 -30.001s24.334 -24.666 35.001 -39.999c38 -54 59.667 -123.667 65 -209h-141
v279z" />
    <glyph glyph-name="quoteleft" horiz-adv-x="237" 
d="M119 508c14.667 0 27.833 6.33203 39.5 18.999s17.5 26.334 17.5 41.001c0 24 -11 36 -33 36l30 123l-34 1l-56 -222h35z" />
    <glyph glyph-name="quoteleft" unicode="&#x2018;" horiz-adv-x="237" 
d="M119 508c14.667 0 27.833 6.33203 39.5 18.999s17.5 26.334 17.5 41.001c0 24 -11 36 -33 36l30 123l-34 1l-56 -222h35z" />
    <glyph glyph-name="quoteright" horiz-adv-x="237" 
d="M141 725c-14.667 0 -28 -6.16699 -40 -18.5s-18 -25.833 -18 -40.5c0 -24.667 11.333 -37 34 -37l-31 -123h35l55 221l-34 1z" />
    <glyph glyph-name="quoteright" unicode="&#x2019;" horiz-adv-x="237" 
d="M141 725c-14.667 0 -28 -6.16699 -40 -18.5s-18 -25.833 -18 -40.5c0 -24.667 11.333 -37 34 -37l-31 -123h35l55 221l-34 1z" />
    <glyph glyph-name="quotedblleft" horiz-adv-x="354" 
d="M119 508c14.667 0 27.833 6.33203 39.5 18.999s17.5 26.334 17.5 41.001c0 24 -11 36 -33 36l30 123l-34 1l-56 -222h35zM265.999 507.999c14.667 0 27.667 6.33203 39 18.999s17 26.334 17 41.001c0 24 -10.667 36 -32 36h-1l31 123l-34 1l-56 -222h34l1 2h1z" />
    <glyph glyph-name="quotedblleft" unicode="&#x201c;" horiz-adv-x="354" 
d="M119 508c14.667 0 27.833 6.33203 39.5 18.999s17.5 26.334 17.5 41.001c0 24 -11 36 -33 36l30 123l-34 1l-56 -222h35zM265.999 507.999c14.667 0 27.667 6.33203 39 18.999s17 26.334 17 41.001c0 24 -10.667 36 -32 36h-1l31 123l-34 1l-56 -222h34l1 2h1z" />
    <glyph glyph-name="quotedblright" horiz-adv-x="354" 
d="M141 725c-14.667 0 -28 -6.16699 -40 -18.5s-18 -25.833 -18 -40.5c0 -24.667 11.333 -37 34 -37l-31 -123h35l55 221l-34 1zM287 725c-14.667 0 -27.833 -6.16699 -39.5 -18.5s-17.5 -25.833 -17.5 -40.5c0 -24.667 11 -37 33 -37h1l-31 -123h34l55 221l-34 1v-3h-1z
" />
    <glyph glyph-name="quotedblright" unicode="&#x201d;" horiz-adv-x="354" 
d="M141 725c-14.667 0 -28 -6.16699 -40 -18.5s-18 -25.833 -18 -40.5c0 -24.667 11.333 -37 34 -37l-31 -123h35l55 221l-34 1zM287 725c-14.667 0 -27.833 -6.16699 -39.5 -18.5s-17.5 -25.833 -17.5 -40.5c0 -24.667 11 -37 33 -37h1l-31 -123h34l55 221l-34 1v-3h-1z
" />
    <glyph glyph-name="bullet" horiz-adv-x="590" 
d="M439 372c0 41.333 -13.666 75.668 -40.999 103.001s-61.666 41 -102.999 41c-21.333 0 -40.833 -3.5 -58.5 -10.5s-32.834 -17 -45.501 -30s-22.667 -28.333 -30 -46s-11 -36.834 -11 -57.501c0 -42 13.333 -76.667 40 -104c27.333 -27.333 62 -41 104 -41
c41.333 0 75.666 13.667 102.999 41c28 28 42 62.667 42 104zM327.001 372.002c0 -21.333 -11 -32 -33 -32s-33 10.667 -33 32c0 22 11 33 33 33s33 -11 33 -33z" />
    <glyph glyph-name="bullet" unicode="&#x2022;" horiz-adv-x="590" 
d="M439 372c0 41.333 -13.666 75.668 -40.999 103.001s-61.666 41 -102.999 41c-21.333 0 -40.833 -3.5 -58.5 -10.5s-32.834 -17 -45.501 -30s-22.667 -28.333 -30 -46s-11 -36.834 -11 -57.501c0 -42 13.333 -76.667 40 -104c27.333 -27.333 62 -41 104 -41
c41.333 0 75.666 13.667 102.999 41c28 28 42 62.667 42 104zM327.001 372.002c0 -21.333 -11 -32 -33 -32s-33 10.667 -33 32c0 22 11 33 33 33s33 -11 33 -33z" />
    <glyph glyph-name="endash" horiz-adv-x="500" 
d="M0 248h500v21h-500v-21z" />
    <glyph glyph-name="endash" unicode="&#x2013;" horiz-adv-x="500" 
d="M0 248h500v21h-500v-21z" />
    <glyph glyph-name="emdash" horiz-adv-x="1000" 
d="M0 269v-21h1000v21h-1000z" />
    <glyph glyph-name="emdash" unicode="&#x2014;" horiz-adv-x="1000" 
d="M0 269v-21h1000v21h-1000z" />
    <glyph glyph-name="tilde" horiz-adv-x="500" 
d="M361 702c-3.33301 -6.66699 -6.33203 -13 -8.99902 -19s-5.33398 -12.333 -8.00098 -19c-10 -18 -23.333 -27 -40 -27c-9.33301 0 -27.333 11.667 -54 35c-25.333 24 -43.333 36 -54 36c-22.667 0 -46.667 -24.667 -72 -74l16 -16c20 38 38.667 57.667 56 59
c5.33301 0.666992 21.666 -11 48.999 -35c27.333 -23.333 47 -35 59 -35c18 0.666992 32.333 8 43 22c1.33301 1.33301 4.33301 6.5 9 15.5s11.334 21.167 20.001 36.5z" />
    <glyph glyph-name="tilde" unicode="&#x2dc;" horiz-adv-x="500" 
d="M361 702c-3.33301 -6.66699 -6.33203 -13 -8.99902 -19s-5.33398 -12.333 -8.00098 -19c-10 -18 -23.333 -27 -40 -27c-9.33301 0 -27.333 11.667 -54 35c-25.333 24 -43.333 36 -54 36c-22.667 0 -46.667 -24.667 -72 -74l16 -16c20 38 38.667 57.667 56 59
c5.33301 0.666992 21.666 -11 48.999 -35c27.333 -23.333 47 -35 59 -35c18 0.666992 32.333 8 43 22c1.33301 1.33301 4.33301 6.5 9 15.5s11.334 21.167 20.001 36.5z" />
    <glyph glyph-name="trademark" horiz-adv-x="833" 
d="M404 709v-257h24v239l104 -143l7 2l97 141v-239h23v257h-42l-82 -125l-88 125h-43zM139 709v-20h87v-237h28v237h85v20h-200z" />
    <glyph glyph-name="trademark" unicode="&#x2122;" horiz-adv-x="833" 
d="M404 709v-257h24v239l104 -143l7 2l97 141v-239h23v257h-42l-82 -125l-88 125h-43zM139 709v-20h87v-237h28v237h85v20h-200z" />
    <glyph glyph-name="scaron" horiz-adv-x="481" 
d="M81 154h-31.001c4.66699 -54.667 25.334 -96.667 62.001 -126c35.333 -27.333 80.666 -41 135.999 -41c48.667 0 90.667 11.667 126 35c39.333 27.333 59 64.333 59 111c0 43.333 -17.667 76.666 -53 99.999c-21.333 14.667 -59.333 29 -114 43
c-5.33301 0.666992 -8.66602 1.66699 -9.99902 3c-106 26.667 -159 66 -159 118c0 34.667 15.667 61.667 47 81c26 16 57.333 24 94 24c88 0 137.333 -40.333 148 -121h31c-5.33301 47.333 -24 84.333 -56 111c-31.333 25.333 -71 38 -119 38
c-46.667 0 -86.667 -10.667 -120 -32c-38.667 -24.667 -58 -59.667 -58 -105c0 -38 14 -68 42 -90c24.667 -19.333 79.334 -40 164.001 -62c7.33301 -1.33301 13.166 -2.66602 17.499 -3.99902s7.5 -2.33301 9.5 -3c68.667 -18.667 103 -52 103 -100
c0 -40 -16.333 -70.333 -49 -91c-27.333 -18 -62 -27 -104 -27c-94 0 -149.333 46 -166 138zM136.999 740l100 -160h48l99 160l-35 4l-88 -136l-86 131z" />
    <glyph glyph-name="scaron" unicode="&#x161;" horiz-adv-x="481" 
d="M81 154h-31.001c4.66699 -54.667 25.334 -96.667 62.001 -126c35.333 -27.333 80.666 -41 135.999 -41c48.667 0 90.667 11.667 126 35c39.333 27.333 59 64.333 59 111c0 43.333 -17.667 76.666 -53 99.999c-21.333 14.667 -59.333 29 -114 43
c-5.33301 0.666992 -8.66602 1.66699 -9.99902 3c-106 26.667 -159 66 -159 118c0 34.667 15.667 61.667 47 81c26 16 57.333 24 94 24c88 0 137.333 -40.333 148 -121h31c-5.33301 47.333 -24 84.333 -56 111c-31.333 25.333 -71 38 -119 38
c-46.667 0 -86.667 -10.667 -120 -32c-38.667 -24.667 -58 -59.667 -58 -105c0 -38 14 -68 42 -90c24.667 -19.333 79.334 -40 164.001 -62c7.33301 -1.33301 13.166 -2.66602 17.499 -3.99902s7.5 -2.33301 9.5 -3c68.667 -18.667 103 -52 103 -100
c0 -40 -16.333 -70.333 -49 -91c-27.333 -18 -62 -27 -104 -27c-94 0 -149.333 46 -166 138zM136.999 740l100 -160h48l99 160l-35 4l-88 -136l-86 131z" />
    <glyph glyph-name="guilsinglright" horiz-adv-x="248" 
d="M56 121l24 -19l125 154l-125 154l-27 -19l109 -135z" />
    <glyph glyph-name="guilsinglright" unicode="&#x203a;" horiz-adv-x="248" 
d="M56 121l24 -19l125 154l-125 154l-27 -19l109 -135z" />
    <glyph glyph-name="oe" horiz-adv-x="825" 
d="M715 31c28 22 48.668 51.001 62.001 87.001l-26 14c-28.667 -78.667 -85.334 -118 -170.001 -118c-54.667 0 -98.334 19.333 -131.001 58c34 48 51 109.333 51 184h297v19c0 74.667 -17 134.667 -51 180c-39.333 50 -94.666 75 -165.999 75
c-63.333 0 -114 -20.333 -152 -61c-38.667 40.667 -91 61 -157 61c-76 0 -134 -27.333 -174 -82c-36 -48 -54 -111.333 -54 -190s18 -142.334 54 -191.001c40 -53.333 98 -80 174 -80c65.333 0 117.666 20 156.999 60c38 -40 88.667 -60 152 -60
c50.667 0 95.334 14.667 134.001 44zM410.001 71.001c-34 -38 -80 -56.999 -138 -56.999c-66 0 -116.333 25 -151 75c-30 42.667 -45 99 -45 169c0 69.333 15 125.666 45 168.999c34 50 84.333 75 151 75c58 0 104 -19.333 138 -58c-33.333 -47.333 -50 -109.333 -50 -186
c0 -76 16.667 -138.333 50 -187zM500.001 285.002c-2.66699 62 -19 114.667 -49 158c33.333 39.333 78.333 59 135 59c58 0 103 -22.333 135 -67c28.667 -39.333 43 -89.333 43 -150h-264zM469.001 256.002c0 -62 -12.667 -114.334 -38 -157.001
c-24.667 40.667 -37 90.334 -37 149.001v8h75zM395.001 285.001c3.33301 52.667 15.333 96.333 36 131c22 -37.333 34.333 -81 37 -131h-73z" />
    <glyph glyph-name="oe" unicode="&#x153;" horiz-adv-x="825" 
d="M715 31c28 22 48.668 51.001 62.001 87.001l-26 14c-28.667 -78.667 -85.334 -118 -170.001 -118c-54.667 0 -98.334 19.333 -131.001 58c34 48 51 109.333 51 184h297v19c0 74.667 -17 134.667 -51 180c-39.333 50 -94.666 75 -165.999 75
c-63.333 0 -114 -20.333 -152 -61c-38.667 40.667 -91 61 -157 61c-76 0 -134 -27.333 -174 -82c-36 -48 -54 -111.333 -54 -190s18 -142.334 54 -191.001c40 -53.333 98 -80 174 -80c65.333 0 117.666 20 156.999 60c38 -40 88.667 -60 152 -60
c50.667 0 95.334 14.667 134.001 44zM410.001 71.001c-34 -38 -80 -56.999 -138 -56.999c-66 0 -116.333 25 -151 75c-30 42.667 -45 99 -45 169c0 69.333 15 125.666 45 168.999c34 50 84.333 75 151 75c58 0 104 -19.333 138 -58c-33.333 -47.333 -50 -109.333 -50 -186
c0 -76 16.667 -138.333 50 -187zM500.001 285.002c-2.66699 62 -19 114.667 -49 158c33.333 39.333 78.333 59 135 59c58 0 103 -22.333 135 -67c28.667 -39.333 43 -89.333 43 -150h-264zM469.001 256.002c0 -62 -12.667 -114.334 -38 -157.001
c-24.667 40.667 -37 90.334 -37 149.001v8h75zM395.001 285.001c3.33301 52.667 15.333 96.333 36 131c22 -37.333 34.333 -81 37 -131h-73z" />
    <glyph glyph-name="Ydieresis" horiz-adv-x="530" 
d="M248 0h33v316l247 403h-38l-224 -367l-227 367h-38l247 -401v-318zM321 868c0 -32 7.33301 -48 22 -48s22 16 22 48c0 30.667 -7.33301 46 -22 46s-22 -15.333 -22 -46zM167 866c0 -32 7 -48 21 -48c14.667 0 22 16 22 48c0 31.333 -7.33301 47 -22 47
c-14 0 -21 -15.667 -21 -47z" />
    <glyph glyph-name="Ydieresis" unicode="&#x178;" horiz-adv-x="530" 
d="M248 0h33v316l247 403h-38l-224 -367l-227 367h-38l247 -401v-318zM321 868c0 -32 7.33301 -48 22 -48s22 16 22 48c0 30.667 -7.33301 46 -22 46s-22 -15.333 -22 -46zM167 866c0 -32 7 -48 21 -48c14.667 0 22 16 22 48c0 31.333 -7.33301 47 -22 47
c-14 0 -21 -15.667 -21 -47z" />
    <glyph glyph-name="nonbreakingspace" unicode="&#xa0;" 
 />
    <glyph glyph-name="exclamdown" unicode="&#xa1;" horiz-adv-x="307" 
d="M163 416h-24l-9 -537h42zM129 553c0 -32 7 -48 21 -48c14.667 0 22 16 22 48c0 31.333 -7.33301 47 -22 47c-14 0 -21 -15.667 -21 -47z" />
    <glyph glyph-name="cent" unicode="&#xa2;" 
d="M292 159l-0.000976562 -143.998c-3.33301 -0.666992 -6.66602 -1 -9.99902 -1h-10h-12c-4 0 -7.66699 0.333008 -11 1v144h-36v-137c-33.333 10 -61.333 29.333 -84 58c-35.333 43.333 -53 102.666 -53 177.999c0 76 17.667 135.667 53 179c22.667 28 50.667 47 84 57
v-128h36v135c3.33301 0.666992 7 1 11 1h12h10c3.33301 0 6.66602 -0.333008 9.99902 -1v-135h36v128c20.667 -6 38.667 -15.333 54 -28c30 -26 48.333 -59 55 -99h32c-7.33301 50.667 -28.333 90.667 -63 120c-21.333 17.333 -47.333 29.666 -78 36.999v108h-36v-103
c-3.33301 0.666992 -6.66602 1 -9.99902 1h-10h-12c-4 0 -7.66699 -0.333008 -11 -1v103h-36v-109c-43.333 -10 -79.333 -32 -108 -66c-40.667 -48.667 -61 -115 -61 -199c0 -83.333 20.333 -149.333 61 -198c30 -36 66 -58.333 108 -67v-85h36v79h20h12
c4 0 7.66699 0.333008 11 1v-80h36v85c32 7.33301 59.333 21.333 82 42c36.667 32 58 76 64 132h-30c-6 -45.333 -24.667 -82.333 -56 -111c-19.333 -16 -39.333 -27.333 -60 -34v137h-36z" />
    <glyph glyph-name="currency" unicode="&#xa4;" horiz-adv-x="606" 
d="M215 601l-30.001 33.001l-26 -28l30 -32c-20 -28 -30 -59 -30 -93c0 -32.667 9.66699 -63.334 29 -92.001l-26 -28l26 -28l27 29c26.667 -20.667 56.334 -31 89.001 -31s62.334 10.333 89.001 31l24 -24l26 29l-24 22c19.333 27.333 29 58 29 92s-10 65 -30 93l27 27
l-27 27l-25 -27c-27.333 21.333 -57 32 -89 32c-32.667 0 -62.334 -10.667 -89.001 -32zM318.999 497.001v97c24.667 -3.33301 45.5 -14 62.5 -32s26.833 -39.667 29.5 -65h-92zM288.999 497.001l-92 0.000976562c2.66699 24.667 12.5 46.167 29.5 64.5
s37.833 29.166 62.5 32.499v-97zM288.999 466.002l0.000976562 -96c-24.667 3.33301 -45.334 14 -62.001 32s-26.667 39.333 -30 64h92zM319 466.002h92c-3.33301 -24.667 -13.5 -46 -30.5 -64s-37.5 -28.667 -61.5 -32v96z" />
    <glyph glyph-name="yen" unicode="&#xa5;" horiz-adv-x="530" 
d="M62 340v-31h186v-142h-186v-31h186v-136h33v136h185v31h-185v142h185v31h-171l233 379h-38l-224 -367l-227 367h-38l233 -379h-172z" />
    <glyph glyph-name="brokenbar" unicode="&#xa6;" horiz-adv-x="500" 
d="M232 699v-370h36v370h-36zM232 199v-369h36v369h-36z" />
    <glyph glyph-name="section" unicode="&#xa7;" horiz-adv-x="500" 
d="M84 71c-0.666992 -3.33301 -1.00195 -10.3301 -1.00195 -20.9971c0 -48 14.667 -85 44 -111c26.667 -24 65 -36 115 -36c44.667 0 81.667 11.667 111 35c31.333 25.333 47 59.666 47 102.999c0 30 -9.16699 56.667 -27.5 80s-42.5 39.333 -72.5 48
c3.33301 -0.666992 6.33301 -1 9 -1h9c36.667 0 67.334 13.333 92.001 40c22.667 23.333 34 50.333 34 81c0 62 -43.333 113.333 -130 154l-77 36c-16.667 7.33301 -31 14.666 -43 21.999s-21.667 14.333 -29 21c-21.333 20 -32 44.667 -32 74c0 32.667 12 59.667 36 81
c22.667 18.667 51.334 28 86.001 28c80 0 120 -45 120 -135h31c0 110 -51.667 165 -155 165c-44 0 -79.333 -12.333 -106 -37c-29.333 -26 -44 -60.333 -44 -103c0 -52.667 25.667 -91.667 77 -117c-82 -12 -123 -53.333 -123 -124c0 -58.667 34.333 -104.334 103 -137.001
l131 -64c54 -27.333 81 -63.333 81 -108c0 -37.333 -12.667 -66 -38 -86c-23.333 -18 -54.333 -27 -93 -27c-84 0 -126 42 -126 126v13h-29zM165.998 245.003c-53.333 26 -80 63.666 -80 112.999c0 30 12.667 54 38 72c20.667 14.667 47.667 23.667 81 27l104 -45
c70 -29.333 105 -72 105 -128c0 -32 -16.333 -56 -49 -72c-24 -11.333 -54.667 -17.666 -92 -18.999z" />
    <glyph glyph-name="dieresis" unicode="&#xa8;" horiz-adv-x="500" 
d="M306 663c0 -32 7.33301 -48 22 -48s22 16 22 48c0 30.667 -7.33301 46 -22 46s-22 -15.333 -22 -46zM152 661c0 -32 7 -48 21 -48c14.667 0 22 16 22 48c0 31.333 -7.33301 47 -22 47c-14 0 -21 -15.667 -21 -47z" />
    <glyph glyph-name="copyright" unicode="&#xa9;" horiz-adv-x="833" 
d="M666 351c0 71.333 -23.999 130.667 -71.999 178c-48.667 47.333 -108 71 -178 71c-68.667 0 -127.334 -24.333 -176.001 -73c-48.667 -48 -73 -106.667 -73 -176s24 -128.333 72 -177c48.667 -48 107.667 -72 177 -72c70 0 129 24 177 72c48.667 48 73 107 73 177z
M198.001 351.001c0 60 21.333 111 64 153c42.667 42.667 94 64 154 64c61.333 0 113.333 -20.667 156 -62c42 -41.333 63 -93 63 -155c0 -60 -21.667 -111.667 -65 -155c-42.667 -42.667 -94 -64 -154 -64c-26.667 0 -54 5.66699 -82 17c-42 18 -75.167 45 -99.5 81
s-36.5 76.333 -36.5 121zM418.001 172.001c39.333 0 71.334 11.333 96.001 34c19.333 16 32.333 38.333 39 67l-29 15c-13.333 -57.333 -49.333 -86 -108 -86c-40 0 -70 16.333 -90 49c-16 26.667 -24 61.667 -24 105s8.33301 78.333 25 105c20.667 34 51 51 91 51
c52.667 0 87 -24.667 103 -74l29 16c-20.667 58.667 -64 88 -130 88c-51.333 0 -90 -19 -116 -57c-22.667 -31.333 -34 -74.333 -34 -129c0 -53.333 11 -96 33 -128c25.333 -37.333 63.666 -56 114.999 -56z" />
    <glyph glyph-name="ordfeminine" unicode="&#xaa;" horiz-adv-x="380" 
d="M190 353c62 0 105.001 24.666 129.001 73.999v-65h26v355h-26v-69c-24.667 50.667 -67.667 76 -129 76c-52.667 0 -92.334 -18.333 -119.001 -55c-24 -33.333 -36 -76.666 -36 -129.999c0 -54 12 -97.333 36 -130c27.333 -37.333 67 -56 119 -56zM190.001 377.999
c-43.333 0 -76.332 16.333 -98.999 49c-19.333 28.667 -29 66 -29 112c0 44.667 9.66699 81.667 29 111c23.333 33.333 56.333 50 99 50c43.333 0 76.666 -16.667 99.999 -50c19.333 -29.333 29 -66.333 29 -111c0 -46 -9.66699 -83.333 -29 -112
c-22.667 -32.667 -56 -49 -100 -49z" />
    <glyph glyph-name="guillemotleft" unicode="&#xab;" horiz-adv-x="354" 
d="M325 121l-107 135l109 135l-27 19l-125 -154l125 -154zM203 121l-107 135l109 135l-27 19l-125 -154l125 -154z" />
    <glyph glyph-name="logicalnot" unicode="&#xac;" horiz-adv-x="703" 
d="M124 417v-31h463v-131h29v162h-492z" />
    <glyph glyph-name="registered" unicode="&#xae;" horiz-adv-x="708" 
d="M666 351c0 71.333 -24 130.667 -72 178c-47.333 47.333 -106.666 71 -177.999 71c-68.667 0 -127.334 -24.333 -176.001 -73c-48.667 -48 -73 -106.667 -73 -176s24 -128.333 72 -177c48.667 -48 107.667 -72 177 -72c68.667 0 127.667 24 177 72
c48.667 48.667 73 107.667 73 177zM198 351.001c0 61.333 20.999 112.668 62.999 154.001c42 42 93.667 63 155 63s113.333 -20.667 156 -62c42 -41.333 63 -93 63 -155c0 -32 -5.33301 -60 -16 -84c-17.333 -40.667 -44.666 -73.334 -81.999 -98.001
c-36.667 -24.667 -77 -37 -121 -37c-26.667 0 -54 5.66699 -82 17c-40.667 18 -73.5 45.167 -98.5 81.5s-37.5 76.5 -37.5 120.5zM344.999 179.003l-0.000976562 160h93c22.667 0 38.334 -2.33301 47.001 -7c15.333 -9.33301 23 -32.666 23 -69.999v-83h34v117
c-2.66699 27.333 -13.667 46.666 -33 57.999c30.667 16 46 43.667 46 83c0 64.667 -41 97 -123 97h-119v-355h32zM522.998 436.003c0 -44.667 -27.667 -67 -83 -67h-95v134h87c18 0 31.667 -1 41 -3c33.333 -6 50 -27.333 50 -64z" />
    <glyph glyph-name="macron" unicode="&#xaf;" horiz-adv-x="500" 
d="M141 637h218v35h-218v-35z" />
    <glyph glyph-name="macron" unicode="&#x2c9;" horiz-adv-x="500" 
d="M141 637h218v35h-218v-35z" />
    <glyph glyph-name="degree" unicode="&#xb0;" horiz-adv-x="329" 
d="M165 707c-19.333 0 -36.999 -3.33008 -52.999 -9.99707s-29.833 -15.834 -41.5 -27.501s-20.834 -25.667 -27.501 -42s-10 -33.833 -10 -52.5c0 -19.333 3.16699 -37 9.5 -53s15.333 -29.667 27 -41s25.5 -20.333 41.5 -27s33.667 -10 53 -10c38 0 69.333 12.333 94 37
c25.333 25.333 38 56.666 38 93.999s-12.667 68.666 -38 93.999s-56.333 38 -93 38zM165.001 682.003c14.667 0 28.5 -2.66699 41.5 -8s24.333 -12.833 34 -22.5s17.167 -21 22.5 -34s8 -27.167 8 -42.5c0 -30.667 -10 -56.167 -30 -76.5s-45.333 -30.5 -76 -30.5
s-56.167 10.167 -76.5 30.5s-30.5 45.833 -30.5 76.5c0 32 10.167 57.833 30.5 77.5s45.833 29.5 76.5 29.5z" />
    <glyph glyph-name="plusminus" unicode="&#xb1;" horiz-adv-x="614" 
d="M295 562v-174h-185v-31h185v-174h30v174h179v31h-179v174h-30zM110 65v-31h394v31h-394z" />
    <glyph glyph-name="twosuperior" unicode="&#xb2;" horiz-adv-x="344" 
d="M247 516l-217 -239.001h262v17h-217l192 214c17.333 21.333 26 47 26 77c0 36 -10.5 63.833 -31.5 83.5s-49.5 29.5 -85.5 29.5c-38 0 -67.833 -11 -89.5 -33s-32.5 -52 -32.5 -90v-5h21v7c0 32 8.83301 57 26.5 75s42.5 27 74.5 27c30 0 53.5 -8.5 70.5 -25.5
s25.5 -40.5 25.5 -70.5c0 -27.333 -8.33301 -49.666 -25 -66.999z" />
    <glyph glyph-name="threesuperior" unicode="&#xb3;" horiz-adv-x="344" 
d="M169 278c-70.667 0 -111.332 29.999 -121.999 89.999l-21 -9c14 -66.667 62 -100 144 -100c43.333 0 79.666 10.667 108.999 32c32.667 22.667 49 55.334 49 98.001c0 14 -2.5 27.667 -7.5 41s-11.833 25.333 -20.5 36s-19 19.667 -31 27s-25 12.333 -39 15
c55.333 4 83 35.333 83 94c0 63.333 -44.333 95 -133 95c-72 0 -117.333 -25 -136 -75l21 -9c14.667 44 51.334 66 110.001 66c75.333 0 113 -26 113 -78c0 -58 -44 -85.333 -132 -82h-16l4 -20c3.33301 0.666992 6.66602 1 9.99902 1h11c38.667 0 70.667 -9 96 -27
c28 -20 42 -49 42 -87c0 -35.333 -14 -62.333 -42 -81c-25.333 -18 -56 -27 -92 -27z" />
    <glyph glyph-name="acute" unicode="&#xb4;" horiz-adv-x="500" 
d="M194 584h54l101 160h-53z" />
    <glyph glyph-name="mu" unicode="&#xb5;" 
d="M486 -80l-0.00195312 27h-36c-46 0 -69 17 -69 51c0 12.667 3.66699 23.334 11 32.001c24.667 27.333 41 50.666 49 69.999c8.66699 20 13 48.667 13 86v344h-32v-334c0 -66 -14.667 -111.667 -44 -137c-1.33301 -0.666992 -2.66602 -1.66699 -3.99902 -3
c-23.333 -18 -55.666 -27 -96.999 -27c-98 0 -155 44.333 -171 133c-1.33301 9.33301 -2.5 21.5 -3.5 36.5s-1.5 32.833 -1.5 53.5v278h-32v-723h32v289c32.667 -64 91 -96 175 -96c28 0 53.667 3.66699 77 11v-9c0 -54.667 33 -82 99 -82h34z" />
    <glyph glyph-name="mu" unicode="&#x3bc;" 
d="M486 -80l-0.00195312 27h-36c-46 0 -69 17 -69 51c0 12.667 3.66699 23.334 11 32.001c24.667 27.333 41 50.666 49 69.999c8.66699 20 13 48.667 13 86v344h-32v-334c0 -66 -14.667 -111.667 -44 -137c-1.33301 -0.666992 -2.66602 -1.66699 -3.99902 -3
c-23.333 -18 -55.666 -27 -96.999 -27c-98 0 -155 44.333 -171 133c-1.33301 9.33301 -2.5 21.5 -3.5 36.5s-1.5 32.833 -1.5 53.5v278h-32v-723h32v289c32.667 -64 91 -96 175 -96c28 0 53.667 3.66699 77 11v-9c0 -54.667 33 -82 99 -82h34z" />
    <glyph glyph-name="paragraph" unicode="&#xb6;" horiz-adv-x="500" 
d="M430 694l0.000976562 28.001h-108c-66.667 0 -122 -11 -166 -33c-58.667 -29.333 -87.334 -75 -86.001 -137c0 -67.333 28 -114.333 84 -141c34.667 -16.667 88 -26.334 160 -29.001v-503h30v815h56v-815h29v815h1z" />
    <glyph glyph-name="periodcentered" unicode="&#xb7;" horiz-adv-x="260" 
d="M130 307c22 0 33 10.667 33 32c0 22 -11 33 -33 33s-33 -11 -33 -33c0 -21.333 11 -32 33 -32z" />
    <glyph glyph-name="cedilla" unicode="&#xb8;" horiz-adv-x="500" 
d="M233 -216h34c66 0 99 27.667 99 83c0 50 -32.667 75 -98 75h-12v58h-25v-82h28c52.667 0 79 -18.667 79 -56c0 -34 -23 -51 -69 -51h-36v-27z" />
    <glyph glyph-name="onesuperior" unicode="&#xb9;" horiz-adv-x="344" 
d="M85 576l93 82l1 -388h26v418h-27l-93 -84v-28z" />
    <glyph glyph-name="ordmasculine" unicode="&#xba;" horiz-adv-x="409" 
d="M33 537c0 -56.667 14 -102 42 -136c30 -36.667 73 -55 129 -55s99 18.333 129 55c28.667 33.333 43 78.666 43 135.999c0 58 -14.333 103.333 -43 136c-30 36 -73 54 -129 54s-99 -18 -129 -54c-28 -33.333 -42 -78.666 -42 -135.999zM57 537c0 48.667 12 88.667 36 120
c26 33.333 63 50 111 50c48.667 0 86 -16.667 112 -50c24 -30 36 -70 36 -120s-12 -90 -36 -120c-26 -34 -63.333 -51 -112 -51s-86 17 -112 51c-23.333 30.667 -35 70.667 -35 120z" />
    <glyph glyph-name="guillemotright" unicode="&#xbb;" horiz-adv-x="354" 
d="M56 121l24 -19l125 154l-125 154l-27 -19l109 -135zM178 121l24 -19l125 154l-125 154l-27 -19l109 -135z" />
    <glyph glyph-name="onequarter" unicode="&#xbc;" horiz-adv-x="823" 
d="M729 -3h24v109h59v18h-59v283h-26l-248 -288l8 -13h242v-109zM730 123h-217l217 251v-251zM160 -15h38l465 714h-38zM85 576l93 82l1 -388h26v418h-27l-93 -84v-28z" />
    <glyph glyph-name="onehalf" unicode="&#xbd;" horiz-adv-x="823" 
d="M160 -15h38l465 714h-38zM738 239l-216 -239h261v18h-216l192 213h-1c18 20.667 27 46.667 27 78c0 34.667 -10.667 62 -32 82s-50 30 -86 30c-38 0 -67.833 -10.833 -89.5 -32.5s-32.5 -51.5 -32.5 -89.5v-6h21v7c0 32 8.83301 57 26.5 75s42.5 27 74.5 27
c30 0 53.667 -8.33301 71 -25s26 -40 26 -70c0 -26 -8.66699 -48.667 -26 -68zM85 576l93 82l1 -388h26v418h-27l-93 -84v-28z" />
    <glyph glyph-name="threequarters" unicode="&#xbe;" horiz-adv-x="823" 
d="M729 0h24v110h59v18h-59v283h-26l-248 -288l8 -13h242v-110zM160 -15h38l465 714h-38zM730 127h-217l217 250v-250zM160 283c-71.333 0 -112 30 -122 90l-22 -9c14 -66.667 62 -100 144 -100c44 0 80.333 10.333 109 31c32.667 24 49 57 49 99c0 14 -2.5 27.667 -7.5 41
s-11.667 25.333 -20 36s-18.5 19.667 -30.5 27s-25 12.333 -39 15c54.667 4 82 35.333 82 94c0 63.333 -44.333 95 -133 95c-72 0 -117 -25 -135 -75l20 -9c14.667 44 51.667 66 111 66c74.667 0 112 -26 112 -78c0 -57.333 -44 -85 -132 -83l-16 1l4 -20
c3.33301 0.666992 6.66602 1 9.99902 1h11c38.667 0 70.667 -9 96 -27c28 -20 42 -49 42 -87c0 -35.333 -14 -62.333 -42 -81c-25.333 -18 -55.666 -27 -90.999 -27z" />
    <glyph glyph-name="questiondown" unicode="&#xbf;" horiz-adv-x="463" 
d="M427 25l-31 10.001c-16 -90 -71 -135 -165 -135c-111.333 0 -167 48 -167 144c0 38 17.333 69.333 52 94c60 44.667 91.667 68.667 95 72c34 38.667 51 91.667 51 159c0 17.333 -1 35.666 -3 54.999h-31c1.33301 -10.667 2.33301 -20.834 3 -30.501s1 -19.167 1 -28.5
c0 -58.667 -17.333 -105 -52 -139l-59.5 -44.5c-16.333 -12.333 -28.833 -22.166 -37.5 -29.499c-35.333 -27.333 -53 -64.666 -53 -111.999c0 -54.667 19.333 -97.334 58 -128.001c35.333 -29.333 81.333 -44 138 -44c65.333 0 116.666 20 153.999 60
c24.667 26.667 40.334 59 47.001 97zM268 554.001c0 31.333 -7.33301 47 -22 47s-22 -15.667 -22 -47s7.33301 -47 22 -47s22 15.667 22 47z" />
    <glyph glyph-name="Agrave" unicode="&#xc0;" horiz-adv-x="574" 
d="M-5 0h33l94 245h335l93 -245h33l-273 719h-38zM134 275l157 405l154 -405h-311zM354 789l-102 160h-53l102 -160h53z" />
    <glyph glyph-name="Aacute" unicode="&#xc1;" horiz-adv-x="574" 
d="M-5 0h33l94 245h335l93 -245h33l-273 719h-38zM134 275l157 405l154 -405h-311zM242 789h54l101 160h-53z" />
    <glyph glyph-name="Acircumflex" unicode="&#xc2;" horiz-adv-x="574" 
d="M-5 0h33l94 245h335l93 -245h33l-273 719h-38zM134 275l157 405l154 -405h-311zM174 789h38l86 132l87 -136l36 4l-99 160h-48z" />
    <glyph glyph-name="Atilde" unicode="&#xc3;" horiz-adv-x="574" 
d="M-5 0h33l94 245h335l93 -245h33l-273 719h-38zM134 275l157 405l154 -405h-311zM409 907c-3.33301 -6.66699 -6.33203 -13 -8.99902 -19s-5.33398 -12.333 -8.00098 -19c-10 -18 -23.333 -27 -40 -27c-9.33301 0 -27.333 11.667 -54 35c-25.333 24 -43.333 36 -54 36
c-22.667 0 -46.667 -24.667 -72 -74l16 -16c20 38 38.667 57.667 56 59c5.33301 0.666992 21.666 -11 48.999 -35c27.333 -23.333 47 -35 59 -35c18 0.666992 32.333 8 43 22c1.33301 1.33301 4.33301 6.5 9 15.5s11.334 21.167 20.001 36.5z" />
    <glyph glyph-name="Adieresis" unicode="&#xc4;" horiz-adv-x="574" 
d="M-5 0h33l94 245h335l93 -245h33l-273 719h-38zM134 275l157 405l154 -405h-311zM354 868c0 -32 7.33301 -48 22 -48s22 16 22 48c0 30.667 -7.33301 46 -22 46s-22 -15.333 -22 -46zM200 866c0 -32 7 -48 21 -48c14.667 0 22 16 22 48c0 31.333 -7.33301 47 -22 47
c-14 0 -21 -15.667 -21 -47z" />
    <glyph glyph-name="Aring" unicode="&#xc5;" horiz-adv-x="574" 
d="M-5 0h33l94 245h335l93 -245h33l-273 719h-38zM134 275l157 405l154 -405h-311zM181 853c0 -32 10.333 -58.167 31 -78.5s47 -30.5 79 -30.5s58.167 10.167 78.5 30.5s30.5 46.5 30.5 78.5s-10.167 58.333 -30.5 79s-46.5 31 -78.5 31s-58.333 -10.333 -79 -31
s-31 -47 -31 -79zM209 854c0 23.333 7.83301 42.666 23.5 57.999s35.167 23 58.5 23s42.666 -7.66699 57.999 -23s23 -34.666 23 -57.999s-7.66699 -42.666 -23 -57.999s-34.666 -23 -57.999 -23s-42.833 7.66699 -58.5 23s-23.5 34.666 -23.5 57.999z" />
    <glyph glyph-name="AE" unicode="&#xc6;" horiz-adv-x="804" 
d="M436 241v-241h319v31h-287v328h242v30h-242v300h277v30h-365l-331 -719h36l111 241h240zM436 271h-226l192 418h34v-418z" />
    <glyph glyph-name="Ccedilla" unicode="&#xc7;" horiz-adv-x="681" 
d="M618 173l-29.002 14.998c-11.333 -47.333 -34.333 -86 -69 -116c-44.667 -38.667 -103 -58 -175 -58c-89.333 0 -156.666 36.667 -201.999 110c-38 60.667 -57 138.667 -57 234c0 94.667 19.667 173.334 59 236.001c46.667 74 115 111 205 111
c121.333 0 198.333 -49.333 231 -148l31 16c-14.667 40.667 -39.667 75 -75 103c-49.333 39.333 -109.666 59 -180.999 59c-104.667 0 -183.334 -38 -236.001 -114c-46 -67.333 -69 -155 -69 -263s22.333 -194.333 67 -259c52 -75.333 129.333 -113 232 -113
c80 0 144.667 21.667 194 65c36.667 32.667 61.334 73.334 74.001 122.001zM334.998 -216.002h34c66 0 99 27.667 99 83c0 50 -32.667 75 -98 75h-12v58h-25v-82h28c52.667 0 79 -18.667 79 -56c0 -34 -23 -51 -69 -51h-36v-27z" />
    <glyph glyph-name="Egrave" unicode="&#xc8;" horiz-adv-x="567" 
d="M82 0h449v32h-415v327h321v31h-321v297h405v32h-439v-719zM364 789l-102 160h-53l102 -160h53z" />
    <glyph glyph-name="Eacute" unicode="&#xc9;" horiz-adv-x="567" 
d="M82 0h449v32h-415v327h321v31h-321v297h405v32h-439v-719zM252 789h54l101 160h-53z" />
    <glyph glyph-name="Ecircumflex" unicode="&#xca;" horiz-adv-x="567" 
d="M82 0h449v32h-415v327h321v31h-321v297h405v32h-439v-719zM184 789h38l86 132l87 -136l36 4l-99 160h-48z" />
    <glyph glyph-name="Edieresis" unicode="&#xcb;" horiz-adv-x="567" 
d="M82 0h449v32h-415v327h321v31h-321v297h405v32h-439v-719zM364 868c0 -32 7.33301 -48 22 -48s22 16 22 48c0 30.667 -7.33301 46 -22 46s-22 -15.333 -22 -46zM210 866c0 -32 7 -48 21 -48c14.667 0 22 16 22 48c0 31.333 -7.33301 47 -22 47c-14 0 -21 -15.667 -21 -47
z" />
    <glyph glyph-name="Igrave" unicode="&#xcc;" horiz-adv-x="207" 
d="M87 0h33v719h-33v-719zM161 789l-102 160h-53l102 -160h53z" />
    <glyph glyph-name="Iacute" unicode="&#xcd;" horiz-adv-x="207" 
d="M87 0h33v719h-33v-719zM49 789h54l101 160h-53z" />
    <glyph glyph-name="Icircumflex" unicode="&#xce;" horiz-adv-x="207" 
d="M87 0h33v719h-33v-719zM-19 789h38l86 132l87 -136l36 4l-99 160h-48z" />
    <glyph glyph-name="Idieresis" unicode="&#xcf;" horiz-adv-x="207" 
d="M87 0h33v719h-33v-719zM161 868c0 -32 7.33301 -48 22 -48s22 16 22 48c0 30.667 -7.33301 46 -22 46s-22 -15.333 -22 -46zM7 866c0 -32 7 -48 21 -48c14.667 0 22 16 22 48c0 31.333 -7.33301 47 -22 47c-14 0 -21 -15.667 -21 -47z" />
    <glyph glyph-name="Eth" unicode="&#xd0;" horiz-adv-x="689" 
d="M82 0l165 0.000976562c103.333 0 180.333 11.667 231 35c106 50 159 158 159 324c0 163.333 -53 271.666 -159 324.999c-48 23.333 -125 35 -231 35h-165v-320h-82v-27h82v-372zM116 30.001v342.001h243v27h-243v289h139c29.333 0 55 -0.666992 77 -2
s40.667 -3.33301 56 -6c49.333 -9.33301 89 -27.333 119 -54c63.333 -57.333 95 -146.333 95 -267c0 -148.667 -44.333 -246.334 -133 -293.001c-46 -24 -117.333 -36 -214 -36h-139z" />
    <glyph glyph-name="Ntilde" unicode="&#xd1;" horiz-adv-x="682" 
d="M82 0h33v661l452 -661h33v719h-33v-662l-451 662h-34v-719zM452 907c-3.33301 -6.66699 -6.33203 -13 -8.99902 -19s-5.33398 -12.333 -8.00098 -19c-10 -18 -23.333 -27 -40 -27c-9.33301 0 -27.333 11.667 -54 35c-25.333 24 -43.333 36 -54 36
c-22.667 0 -46.667 -24.667 -72 -74l16 -16c20 38 38.667 57.667 56 59c5.33301 0.666992 21.666 -11 48.999 -35c27.333 -23.333 47 -35 59 -35c18 0.666992 32.333 8 43 22c1.33301 1.33301 4.33301 6.5 9 15.5s11.334 21.167 20.001 36.5z" />
    <glyph glyph-name="Ograve" unicode="&#xd2;" horiz-adv-x="741" 
d="M52 359c0 -110 25 -197.999 75 -263.999c55.333 -73.333 136.333 -110 243 -110s188 36.667 244 110c50 66 75 154 75 264c0 109.333 -25 197.666 -75 264.999c-56 74 -137.333 111 -244 111c-106 0 -187 -37.333 -243 -112c-50 -67.333 -75 -155.333 -75 -264z
M87 359.001c0 99.333 21.667 179.667 65 241c50 70 122.667 105 218 105s168 -35 218 -105c44 -61.333 66 -141.666 66 -240.999c0 -100 -21.667 -180.333 -65 -241c-49.333 -69.333 -122.333 -104 -219 -104c-96 0 -168.667 34.667 -218 104
c-43.333 61.333 -65 141.666 -65 240.999zM427 789.002l-102 160h-53l102 -160h53z" />
    <glyph glyph-name="Oacute" unicode="&#xd3;" horiz-adv-x="741" 
d="M52 359c0 -110 25 -197.999 75 -263.999c55.333 -73.333 136.333 -110 243 -110s188 36.667 244 110c50 66 75 154 75 264c0 109.333 -25 197.666 -75 264.999c-56 74 -137.333 111 -244 111c-106 0 -187 -37.333 -243 -112c-50 -67.333 -75 -155.333 -75 -264z
M87 359.001c0 99.333 21.667 179.667 65 241c50 70 122.667 105 218 105s168 -35 218 -105c44 -61.333 66 -141.666 66 -240.999c0 -100 -21.667 -180.333 -65 -241c-49.333 -69.333 -122.333 -104 -219 -104c-96 0 -168.667 34.667 -218 104
c-43.333 61.333 -65 141.666 -65 240.999zM315 789.002h54l101 160h-53z" />
    <glyph glyph-name="Ocircumflex" unicode="&#xd4;" horiz-adv-x="741" 
d="M52 359c0 -110 25 -197.999 75 -263.999c55.333 -73.333 136.333 -110 243 -110s188 36.667 244 110c50 66 75 154 75 264c0 109.333 -25 197.666 -75 264.999c-56 74 -137.333 111 -244 111c-106 0 -187 -37.333 -243 -112c-50 -67.333 -75 -155.333 -75 -264z
M87 359.001c0 99.333 21.667 179.667 65 241c50 70 122.667 105 218 105s168 -35 218 -105c44 -61.333 66 -141.666 66 -240.999c0 -100 -21.667 -180.333 -65 -241c-49.333 -69.333 -122.333 -104 -219 -104c-96 0 -168.667 34.667 -218 104
c-43.333 61.333 -65 141.666 -65 240.999zM247 789.002h38l86 132l87 -136l36 4l-99 160h-48z" />
    <glyph glyph-name="Otilde" unicode="&#xd5;" horiz-adv-x="741" 
d="M52 359c0 -110 25 -197.999 75 -263.999c55.333 -73.333 136.333 -110 243 -110s188 36.667 244 110c50 66 75 154 75 264c0 109.333 -25 197.666 -75 264.999c-56 74 -137.333 111 -244 111c-106 0 -187 -37.333 -243 -112c-50 -67.333 -75 -155.333 -75 -264z
M87 359.001c0 99.333 21.667 179.667 65 241c50 70 122.667 105 218 105s168 -35 218 -105c44 -61.333 66 -141.666 66 -240.999c0 -100 -21.667 -180.333 -65 -241c-49.333 -69.333 -122.333 -104 -219 -104c-96 0 -168.667 34.667 -218 104
c-43.333 61.333 -65 141.666 -65 240.999zM482 907.002c-3.33301 -6.66699 -6.33203 -13 -8.99902 -19s-5.33398 -12.333 -8.00098 -19c-10 -18 -23.333 -27 -40 -27c-9.33301 0 -27.333 11.667 -54 35c-25.333 24 -43.333 36 -54 36c-22.667 0 -46.667 -24.667 -72 -74
l16 -16c20 38 38.667 57.667 56 59c5.33301 0.666992 21.666 -11 48.999 -35c27.333 -23.333 47 -35 59 -35c18 0.666992 32.333 8 43 22c1.33301 1.33301 4.33301 6.5 9 15.5s11.334 21.167 20.001 36.5z" />
    <glyph glyph-name="Odieresis" unicode="&#xd6;" horiz-adv-x="741" 
d="M52 359c0 -110 25 -197.999 75 -263.999c55.333 -73.333 136.333 -110 243 -110s188 36.667 244 110c50 66 75 154 75 264c0 109.333 -25 197.666 -75 264.999c-56 74 -137.333 111 -244 111c-106 0 -187 -37.333 -243 -112c-50 -67.333 -75 -155.333 -75 -264z
M87 359.001c0 99.333 21.667 179.667 65 241c50 70 122.667 105 218 105s168 -35 218 -105c44 -61.333 66 -141.666 66 -240.999c0 -100 -21.667 -180.333 -65 -241c-49.333 -69.333 -122.333 -104 -219 -104c-96 0 -168.667 34.667 -218 104
c-43.333 61.333 -65 141.666 -65 240.999zM427 868.002c0 -32 7.33301 -48 22 -48s22 16 22 48c0 30.667 -7.33301 46 -22 46s-22 -15.333 -22 -46zM273 866.002c0 -32 7 -48 21 -48c14.667 0 22 16 22 48c0 31.333 -7.33301 47 -22 47c-14 0 -21 -15.667 -21 -47z" />
    <glyph glyph-name="multiply" unicode="&#xd7;" horiz-adv-x="684" 
d="M342 319l-160 193h-36l178 -214l-176 -211h36l158 189l157 -189h37l-176 211l178 214h-36z" />
    <glyph glyph-name="Oslash" unicode="&#xd8;" horiz-adv-x="741" 
d="M36 -9l22.999 -19l86 102c60.667 -60 134.334 -90 221.001 -90c108 0 190.333 36.333 247 109c50.667 65.333 76 154 76 266c0 104 -24.667 191.667 -74 263l89 104l-23 22l-87 -100c-53.333 57.333 -127 86 -221 86c-108.667 0 -191 -36.333 -247 -109
c-49.333 -65.333 -74 -154 -74 -266c0 -106 24.667 -193.333 74 -262zM368.999 704c84.667 0 151.666 -27.999 200.999 -83.999c56 -65.333 84 -152.333 84 -261c0 -99.333 -22 -179.333 -66 -240c-49.333 -70 -121.666 -105 -216.999 -105
c-86.667 0 -160.667 36.667 -222 110c-41.333 61.333 -62 139.666 -62 234.999c0 100 21.333 180.333 64 241c49.333 69.333 122 104 218 104zM338.998 349.001c0 -15.333 7 -23 21 -23s21 7.66699 21 23c0 16 -7 24 -21 24s-21 -8 -21 -24z" />
    <glyph glyph-name="Ugrave" unicode="&#xd9;" horiz-adv-x="671" 
d="M77 719l0.000976562 -468c0 -84.667 22.333 -149.667 67 -195c45.333 -47.333 109.333 -71 192 -71c82 0 146 23.667 192 71c44.667 46.667 67 111.667 67 195v468h-33v-452c0 -78.667 -17.667 -139.667 -53 -183c-38.667 -46.667 -96.334 -70 -173.001 -70
c-150.667 0 -226 84.333 -226 253v452h-33zM392.001 789l-102 160h-53l102 -160h53z" />
    <glyph glyph-name="Uacute" unicode="&#xda;" horiz-adv-x="671" 
d="M77 719l0.000976562 -468c0 -84.667 22.333 -149.667 67 -195c45.333 -47.333 109.333 -71 192 -71c82 0 146 23.667 192 71c44.667 46.667 67 111.667 67 195v468h-33v-452c0 -78.667 -17.667 -139.667 -53 -183c-38.667 -46.667 -96.334 -70 -173.001 -70
c-150.667 0 -226 84.333 -226 253v452h-33zM280.001 789h54l101 160h-53z" />
    <glyph glyph-name="Ucircumflex" unicode="&#xdb;" horiz-adv-x="671" 
d="M77 719l0.000976562 -468c0 -84.667 22.333 -149.667 67 -195c45.333 -47.333 109.333 -71 192 -71c82 0 146 23.667 192 71c44.667 46.667 67 111.667 67 195v468h-33v-452c0 -78.667 -17.667 -139.667 -53 -183c-38.667 -46.667 -96.334 -70 -173.001 -70
c-150.667 0 -226 84.333 -226 253v452h-33zM212.001 789h38l86 132l87 -136l36 4l-99 160h-48z" />
    <glyph glyph-name="Udieresis" unicode="&#xdc;" horiz-adv-x="671" 
d="M77 719l0.000976562 -468c0 -84.667 22.333 -149.667 67 -195c45.333 -47.333 109.333 -71 192 -71c82 0 146 23.667 192 71c44.667 46.667 67 111.667 67 195v468h-33v-452c0 -78.667 -17.667 -139.667 -53 -183c-38.667 -46.667 -96.334 -70 -173.001 -70
c-150.667 0 -226 84.333 -226 253v452h-33zM392.001 868c0 -32 7.33301 -48 22 -48s22 16 22 48c0 30.667 -7.33301 46 -22 46s-22 -15.333 -22 -46zM238.001 866c0 -32 7 -48 21 -48c14.667 0 22 16 22 48c0 31.333 -7.33301 47 -22 47c-14 0 -21 -15.667 -21 -47z" />
    <glyph glyph-name="Yacute" unicode="&#xdd;" horiz-adv-x="530" 
d="M248 0h33v316l247 403h-38l-224 -367l-227 367h-38l247 -401v-318zM209 789h54l101 160h-53z" />
    <glyph glyph-name="Thorn" unicode="&#xde;" horiz-adv-x="527" 
d="M116 0v189h159c125.333 0 198.333 34.333 219 103c6 20.667 9 50.334 9 89.001c0 40.667 -2.33301 70 -7 88c-8.66699 31.333 -25.667 54.666 -51 69.999c-40 24 -95.667 36 -167 36h-162v144h-34v-719h34zM116 546l138 0.000976562c76.667 0 130.667 -8.66699 162 -26
c22 -13.333 36.333 -31 43 -53c6 -17.333 9 -43.333 9 -78c0 -39.333 -3 -68.333 -9 -87c-11.333 -38.667 -39.333 -63.334 -84 -74.001c-23.333 -6 -64 -9 -122 -9h-137v327z" />
    <glyph glyph-name="germandbls" unicode="&#xdf;" horiz-adv-x="488" 
d="M69 0h32.998v499v28c0 12 0.333008 25.667 1 41c0.666992 18 0.666992 33 0 45c-1.33301 29.333 13.667 52 45 68c24.667 12.667 54 19 88 19c95.333 0 143 -50.333 143 -151c0 -89.333 -47.667 -134 -143 -134c-7.33301 0 -18.166 0.166992 -32.499 0.5
s-25.166 0.5 -32.499 0.5v-28h61c60 0 107 -19.333 141 -58c32 -38 48 -87 48 -147c0 -59.333 -14.667 -108.333 -44 -147c-32 -42 -77.333 -63 -136 -63c-56.667 0 -84.334 -0.333008 -83.001 -1h-1v-32l86 1c66.667 0 117 20 151 60c19.333 23.333 34.333 52 45 86
c11.333 35.333 17 67.666 17 96.999c0 50.667 -11.333 95.334 -34 134.001c-25.333 45.333 -60.666 73.333 -105.999 84c65.333 24 98 73.667 98 149c0 56.667 -15.667 100.334 -47 131.001s-75.333 46 -132 46c-73.333 0 -124.333 -23.333 -153 -70
c-9.33301 -14.667 -14 -35.334 -14 -62.001z" />
    <glyph glyph-name="agrave" unicode="&#xe0;" horiz-adv-x="572" 
d="M471 112l0.00195312 -111.999h31v519h-31v-119c-34 86.667 -99.333 130 -196 130c-76.667 0 -135 -27 -175 -81c-36 -48 -54 -111.667 -54 -191c0 -78.667 18 -142.334 54 -191.001c41.333 -53.333 99.666 -80 174.999 -80c97.333 0 162.666 41.667 195.999 125z
M78.002 258.001c0 70 15.334 126.332 46.001 168.999c34 50 84.333 75 151 75s117 -25 151 -75c30 -43.333 45 -99.666 45 -168.999c0 -70 -15 -126.333 -45 -169c-34 -50 -84.333 -75 -151 -75s-117.334 25 -152.001 75c-30 42.667 -45 99 -45 169zM301.003 584l-102 160
h-53l102 -160h53z" />
    <glyph glyph-name="aacute" unicode="&#xe1;" horiz-adv-x="572" 
d="M471 112l0.00195312 -111.999h31v519h-31v-119c-34 86.667 -99.333 130 -196 130c-76.667 0 -135 -27 -175 -81c-36 -48 -54 -111.667 -54 -191c0 -78.667 18 -142.334 54 -191.001c41.333 -53.333 99.666 -80 174.999 -80c97.333 0 162.666 41.667 195.999 125z
M78.002 258.001c0 70 15.334 126.332 46.001 168.999c34 50 84.333 75 151 75s117 -25 151 -75c30 -43.333 45 -99.666 45 -168.999c0 -70 -15 -126.333 -45 -169c-34 -50 -84.333 -75 -151 -75s-117.334 25 -152.001 75c-30 42.667 -45 99 -45 169zM189.003 584h54l101 160
h-53z" />
    <glyph glyph-name="acircumflex" unicode="&#xe2;" horiz-adv-x="572" 
d="M471 112l0.00195312 -111.999h31v519h-31v-119c-34 86.667 -99.333 130 -196 130c-76.667 0 -135 -27 -175 -81c-36 -48 -54 -111.667 -54 -191c0 -78.667 18 -142.334 54 -191.001c41.333 -53.333 99.666 -80 174.999 -80c97.333 0 162.666 41.667 195.999 125z
M78.002 258.001c0 70 15.334 126.332 46.001 168.999c34 50 84.333 75 151 75s117 -25 151 -75c30 -43.333 45 -99.666 45 -168.999c0 -70 -15 -126.333 -45 -169c-34 -50 -84.333 -75 -151 -75s-117.334 25 -152.001 75c-30 42.667 -45 99 -45 169zM145.003 584h38l86 132
l87 -136l36 4l-99 160h-48z" />
    <glyph glyph-name="atilde" unicode="&#xe3;" horiz-adv-x="572" 
d="M471 112l0.00195312 -111.999h31v519h-31v-119c-34 86.667 -99.333 130 -196 130c-76.667 0 -135 -27 -175 -81c-36 -48 -54 -111.667 -54 -191c0 -78.667 18 -142.334 54 -191.001c41.333 -53.333 99.666 -80 174.999 -80c97.333 0 162.666 41.667 195.999 125z
M78.002 258.001c0 70 15.334 126.332 46.001 168.999c34 50 84.333 75 151 75s117 -25 151 -75c30 -43.333 45 -99.666 45 -168.999c0 -70 -15 -126.333 -45 -169c-34 -50 -84.333 -75 -151 -75s-117.334 25 -152.001 75c-30 42.667 -45 99 -45 169zM380.003 702
c-3.33301 -6.66699 -6.33203 -13 -8.99902 -19s-5.33398 -12.333 -8.00098 -19c-10 -18 -23.333 -27 -40 -27c-9.33301 0 -27.333 11.667 -54 35c-25.333 24 -43.333 36 -54 36c-22.667 0 -46.667 -24.667 -72 -74l16 -16c20 38 38.667 57.667 56 59
c5.33301 0.666992 21.666 -11 48.999 -35c27.333 -23.333 47 -35 59 -35c18 0.666992 32.333 8 43 22c1.33301 1.33301 4.33301 6.5 9 15.5s11.334 21.167 20.001 36.5z" />
    <glyph glyph-name="adieresis" unicode="&#xe4;" horiz-adv-x="572" 
d="M471 112l0.00195312 -111.999h31v519h-31v-119c-34 86.667 -99.333 130 -196 130c-76.667 0 -135 -27 -175 -81c-36 -48 -54 -111.667 -54 -191c0 -78.667 18 -142.334 54 -191.001c41.333 -53.333 99.666 -80 174.999 -80c97.333 0 162.666 41.667 195.999 125z
M78.002 258.001c0 70 15.334 126.332 46.001 168.999c34 50 84.333 75 151 75s117 -25 151 -75c30 -43.333 45 -99.666 45 -168.999c0 -70 -15 -126.333 -45 -169c-34 -50 -84.333 -75 -151 -75s-117.334 25 -152.001 75c-30 42.667 -45 99 -45 169zM325.003 663
c0 -32 7.33301 -48 22 -48s22 16 22 48c0 30.667 -7.33301 46 -22 46s-22 -15.333 -22 -46zM171.003 661c0 -32 7 -48 21 -48c14.667 0 22 16 22 48c0 31.333 -7.33301 47 -22 47c-14 0 -21 -15.667 -21 -47z" />
    <glyph glyph-name="aring" unicode="&#xe5;" horiz-adv-x="572" 
d="M471 112l0.00195312 -111.999h31v519h-31v-119c-34 86.667 -99.333 130 -196 130c-76.667 0 -135 -27 -175 -81c-36 -48 -54 -111.667 -54 -191c0 -78.667 18 -142.334 54 -191.001c41.333 -53.333 99.666 -80 174.999 -80c97.333 0 162.666 41.667 195.999 125z
M78.002 258.001c0 70 15.334 126.332 46.001 168.999c34 50 84.333 75 151 75s117 -25 151 -75c30 -43.333 45 -99.666 45 -168.999c0 -70 -15 -126.333 -45 -169c-34 -50 -84.333 -75 -151 -75s-117.334 25 -152.001 75c-30 42.667 -45 99 -45 169zM170.003 665
c0 -32 10.167 -58.167 30.5 -78.5s46.5 -30.5 78.5 -30.5s58.167 10.167 78.5 30.5s30.5 46.5 30.5 78.5s-10.167 58.167 -30.5 78.5s-46.5 30.5 -78.5 30.5s-58.167 -10.167 -78.5 -30.5s-30.5 -46.5 -30.5 -78.5zM198.003 666c0 22.667 8.00098 41.832 24.001 57.499
s35 23.5 57 23.5c23.333 0 42.666 -7.66699 57.999 -23s23 -34.666 23 -57.999s-7.66699 -42.833 -23 -58.5s-34.666 -23.5 -57.999 -23.5c-22.667 0 -41.834 7.83301 -57.501 23.5s-23.5 35.167 -23.5 58.5z" />
    <glyph glyph-name="ae" unicode="&#xe6;" horiz-adv-x="944" 
d="M902 159l-30.998 0.000976562c-11.333 -42.667 -32.666 -76.334 -63.999 -101.001s-69 -37 -113 -37c-60.667 0 -108 24.667 -142 74c-30 42.667 -45 96 -45 160v8h405v19c0 74.667 -17.333 134.334 -52 179.001c-38 50.667 -93.333 76 -166 76
c-74 0 -130.333 -28 -169 -84c-9.33301 -14 -17 -27.667 -23 -41v107h-31v-119c-34 86.667 -99.333 130 -196 130c-76.667 0 -135 -27 -175 -81c-36 -48 -54 -111.667 -54 -191c0 -78.667 18 -142.334 54 -191.001c41.333 -53.333 99.666 -80 174.999 -80
c97.333 0 162.666 41.667 195.999 125v-112h31v118c5.33301 -14 13 -28 23 -42c38.667 -54.667 95 -82 169 -82c52.667 0 97.667 14.5 135 43.5s61.666 69.5 72.999 121.5zM78.002 258.001c0 70 15.334 126.332 46.001 168.999c34 50 84.333 75 151 75s117 -25 151 -75
c30 -43.333 45 -99.666 45 -168.999c0 -70 -15 -126.333 -45 -169c-34 -50 -84.333 -75 -151 -75s-117.334 25 -152.001 75c-30 42.667 -45 99 -45 169zM508.003 292c4 62.667 21 113.001 51 151.001c34 44 81 66 141 66c58 0 103 -22.667 135 -68
c28.667 -38.667 43 -88.334 43 -149.001h-370z" />
    <glyph glyph-name="ccedilla" unicode="&#xe7;" horiz-adv-x="519" 
d="M466 125l-27 16.001c-10 -40 -30.167 -71.167 -60.5 -93.5s-65.833 -33.5 -106.5 -33.5c-66 0 -116.333 25 -151 75c-30 42.667 -45 99 -45 169c0 69.333 15 125.666 45 168.999c34 50 84.333 75 151 75c43.333 0 80 -12 110 -36
c23.333 -19.333 39.333 -41.666 48 -66.999l27 18c-29.333 75.333 -91 113 -185 113c-76 0 -134 -27.333 -174 -82c-36 -48 -54 -111.333 -54 -190c0 -76.667 17.667 -139.667 53 -189c40 -54.667 97.333 -82 172 -82c56.667 0 103.667 15.667 141 47
c26 23.333 44.667 53.666 56 90.999zM252 -215.999h34c66 0 99 27.667 99 83c0 50 -32.667 75 -98 75h-12v58h-25v-82h28c52.667 0 79 -18.667 79 -56c0 -34 -23 -51 -69 -51h-36v-27z" />
    <glyph glyph-name="egrave" unicode="&#xe8;" horiz-adv-x="523" 
d="M397 31c28.667 22.667 49.667 51.667 63 87l-26 14c-30 -78.667 -87 -118 -171 -118c-60.667 0 -108 24.667 -142 74c-30 42.667 -45 96 -45 160v8h405v19c0 75.333 -17.333 135.333 -52 180c-38 50 -93.333 75 -166 75c-74 0 -130.333 -28 -169 -84
c-34 -48 -51 -110.667 -51 -188s17 -140.333 51 -189c38.667 -54.667 95 -82 169 -82c52 0 96.667 14.667 134 44zM77 285c4 62 21 112.667 51 152c34 43.333 81 65 141 65c58 0 103 -22.333 135 -67c28.667 -39.333 43 -89.333 43 -150h-370zM322 584l-102 160h-53
l102 -160h53z" />
    <glyph glyph-name="eacute" unicode="&#xe9;" horiz-adv-x="523" 
d="M397 31c28.667 22.667 49.667 51.667 63 87l-26 14c-30 -78.667 -87 -118 -171 -118c-60.667 0 -108 24.667 -142 74c-30 42.667 -45 96 -45 160v8h405v19c0 75.333 -17.333 135.333 -52 180c-38 50 -93.333 75 -166 75c-74 0 -130.333 -28 -169 -84
c-34 -48 -51 -110.667 -51 -188s17 -140.333 51 -189c38.667 -54.667 95 -82 169 -82c52 0 96.667 14.667 134 44zM77 285c4 62 21 112.667 51 152c34 43.333 81 65 141 65c58 0 103 -22.333 135 -67c28.667 -39.333 43 -89.333 43 -150h-370zM210 584h54l101 160h-53z" />
    <glyph glyph-name="ecircumflex" unicode="&#xea;" horiz-adv-x="523" 
d="M397 31c28.667 22.667 49.667 51.667 63 87l-26 14c-30 -78.667 -87 -118 -171 -118c-60.667 0 -108 24.667 -142 74c-30 42.667 -45 96 -45 160v8h405v19c0 75.333 -17.333 135.333 -52 180c-38 50 -93.333 75 -166 75c-74 0 -130.333 -28 -169 -84
c-34 -48 -51 -110.667 -51 -188s17 -140.333 51 -189c38.667 -54.667 95 -82 169 -82c52 0 96.667 14.667 134 44zM77 285c4 62 21 112.667 51 152c34 43.333 81 65 141 65c58 0 103 -22.333 135 -67c28.667 -39.333 43 -89.333 43 -150h-370zM142 584h38l86 132l87 -136
l36 4l-99 160h-48z" />
    <glyph glyph-name="edieresis" unicode="&#xeb;" horiz-adv-x="523" 
d="M397 31c28.667 22.667 49.667 51.667 63 87l-26 14c-30 -78.667 -87 -118 -171 -118c-60.667 0 -108 24.667 -142 74c-30 42.667 -45 96 -45 160v8h405v19c0 75.333 -17.333 135.333 -52 180c-38 50 -93.333 75 -166 75c-74 0 -130.333 -28 -169 -84
c-34 -48 -51 -110.667 -51 -188s17 -140.333 51 -189c38.667 -54.667 95 -82 169 -82c52 0 96.667 14.667 134 44zM77 285c4 62 21 112.667 51 152c34 43.333 81 65 141 65c58 0 103 -22.333 135 -67c28.667 -39.333 43 -89.333 43 -150h-370zM322 663
c0 -32 7.33301 -48 22 -48s22 16 22 48c0 30.667 -7.33301 46 -22 46s-22 -15.333 -22 -46zM168 661c0 -32 7 -48 21 -48c14.667 0 22 16 22 48c0 31.333 -7.33301 47 -22 47c-14 0 -21 -15.667 -21 -47z" />
    <glyph glyph-name="igrave" unicode="&#xec;" horiz-adv-x="175" 
d="M72 0h31v519h-31v-519zM145 584l-102 160h-53l102 -160h53z" />
    <glyph glyph-name="iacute" unicode="&#xed;" horiz-adv-x="175" 
d="M72 0h31v519h-31v-519zM33 584h54l101 160h-53z" />
    <glyph glyph-name="icircumflex" unicode="&#xee;" horiz-adv-x="175" 
d="M72 0h31v519h-31v-519zM-35 584h38l86 132l87 -136l36 4l-99 160h-48z" />
    <glyph glyph-name="idieresis" unicode="&#xef;" horiz-adv-x="175" 
d="M72 0h31v519h-31v-519zM145 663c0 -32 7.33301 -48 22 -48s22 16 22 48c0 30.667 -7.33301 46 -22 46s-22 -15.333 -22 -46zM-9 661c0 -32 7 -48 21 -48c14.667 0 22 16 22 48c0 31.333 -7.33301 47 -22 47c-14 0 -21 -15.667 -21 -47z" />
    <glyph glyph-name="eth" unicode="&#xf0;" 
d="M442 710l-74 -54.001c-35.333 27.333 -79 41 -131 41c-52.667 0 -94.667 -14.833 -126 -44.5s-49.666 -70.834 -54.999 -123.501h32c13.333 91.333 65 137 155 137c38.667 0 71.667 -9.66699 99 -29l-114 -83l16 -23l120 88c51.333 -53.333 77 -149.333 77 -288v-30
c0 -8 -0.333008 -14.667 -1 -20c-26 106.667 -89.333 160 -190 160c-66 0 -117 -22.333 -153 -67c-33.333 -41.333 -50 -95.666 -50 -162.999c0 -65.333 17 -119.333 51 -162c37.333 -45.333 87.666 -68 150.999 -68c150.667 0 226 114 226 342
c0 148.667 -28.667 253.334 -86 314.001l70 51zM82 210.999c0 58.667 13.333 105.332 40 139.999c30 40 73 60 129 60c54.667 0 97.667 -19.667 129 -59c28 -37.333 42 -84 42 -140c0 -57.333 -13.333 -103.666 -40 -138.999c-28.667 -40.667 -70.667 -61 -126 -61
c-56 0 -99.667 19.667 -131 59c-28.667 35.333 -43 82 -43 140z" />
    <glyph glyph-name="ntilde" unicode="&#xf1;" 
d="M69 0h32.001v278c0 20 0.5 37.5 1.5 52.5s2.16699 27.5 3.5 37.5c16 88.667 73 133 171 133c53.333 0 91.666 -15 114.999 -45c20 -26 30 -66.667 30 -122v-334h32v344c0 124 -59.333 186 -178 186c-84 0 -142.333 -32 -175 -96v85h-32v-519zM372.001 702
c-3.33301 -6.66699 -6.33203 -13 -8.99902 -19s-5.33398 -12.333 -8.00098 -19c-10 -18 -23.333 -27 -40 -27c-9.33301 0 -27.333 11.667 -54 35c-25.333 24 -43.333 36 -54 36c-22.667 0 -46.667 -24.667 -72 -74l16 -16c20 38 38.667 57.667 56 59
c5.33301 0.666992 21.666 -11 48.999 -35c27.333 -23.333 47 -35 59 -35c18 0.666992 32.333 8 43 22c1.33301 1.33301 4.33301 6.5 9 15.5s11.334 21.167 20.001 36.5z" />
    <glyph glyph-name="ograve" unicode="&#xf2;" horiz-adv-x="545" 
d="M44 258c0 -78.667 18.001 -142.334 54.001 -191.001c40 -53.333 98 -80 174 -80c75.333 0 133.666 26.667 174.999 80c36 48.667 54 112.334 54 191.001s-18 142 -54 190c-40.667 54.667 -99 82 -175 82s-134 -27.333 -174 -82c-36 -48 -54 -111.333 -54 -190z
M76.001 258c0 69.333 15 125.666 45 168.999c34 50 84.333 75 151 75c66 0 116.667 -25 152 -75c30 -43.333 45 -99.666 45 -168.999c0 -70 -15 -126.333 -45 -169c-35.333 -50 -86 -75 -152 -75s-116.333 25 -151 75c-30 42.667 -45 99 -45 169zM329.001 584l-102 160h-53
l102 -160h53z" />
    <glyph glyph-name="oacute" unicode="&#xf3;" horiz-adv-x="545" 
d="M44 258c0 -78.667 18.001 -142.334 54.001 -191.001c40 -53.333 98 -80 174 -80c75.333 0 133.666 26.667 174.999 80c36 48.667 54 112.334 54 191.001s-18 142 -54 190c-40.667 54.667 -99 82 -175 82s-134 -27.333 -174 -82c-36 -48 -54 -111.333 -54 -190z
M76.001 258c0 69.333 15 125.666 45 168.999c34 50 84.333 75 151 75c66 0 116.667 -25 152 -75c30 -43.333 45 -99.666 45 -168.999c0 -70 -15 -126.333 -45 -169c-35.333 -50 -86 -75 -152 -75s-116.333 25 -151 75c-30 42.667 -45 99 -45 169zM217.001 584h54l101 160
h-53z" />
    <glyph glyph-name="ocircumflex" unicode="&#xf4;" horiz-adv-x="545" 
d="M44 258c0 -78.667 18.001 -142.334 54.001 -191.001c40 -53.333 98 -80 174 -80c75.333 0 133.666 26.667 174.999 80c36 48.667 54 112.334 54 191.001s-18 142 -54 190c-40.667 54.667 -99 82 -175 82s-134 -27.333 -174 -82c-36 -48 -54 -111.333 -54 -190z
M76.001 258c0 69.333 15 125.666 45 168.999c34 50 84.333 75 151 75c66 0 116.667 -25 152 -75c30 -43.333 45 -99.666 45 -168.999c0 -70 -15 -126.333 -45 -169c-35.333 -50 -86 -75 -152 -75s-116.333 25 -151 75c-30 42.667 -45 99 -45 169zM149.001 584h38l86 132
l87 -136l36 4l-99 160h-48z" />
    <glyph glyph-name="otilde" unicode="&#xf5;" horiz-adv-x="545" 
d="M44 258c0 -78.667 18.001 -142.334 54.001 -191.001c40 -53.333 98 -80 174 -80c75.333 0 133.666 26.667 174.999 80c36 48.667 54 112.334 54 191.001s-18 142 -54 190c-40.667 54.667 -99 82 -175 82s-134 -27.333 -174 -82c-36 -48 -54 -111.333 -54 -190z
M76.001 258c0 69.333 15 125.666 45 168.999c34 50 84.333 75 151 75c66 0 116.667 -25 152 -75c30 -43.333 45 -99.666 45 -168.999c0 -70 -15 -126.333 -45 -169c-35.333 -50 -86 -75 -152 -75s-116.333 25 -151 75c-30 42.667 -45 99 -45 169zM384.001 702
c-3.33301 -6.66699 -6.33203 -13 -8.99902 -19s-5.33398 -12.333 -8.00098 -19c-10 -18 -23.333 -27 -40 -27c-9.33301 0 -27.333 11.667 -54 35c-25.333 24 -43.333 36 -54 36c-22.667 0 -46.667 -24.667 -72 -74l16 -16c20 38 38.667 57.667 56 59
c5.33301 0.666992 21.666 -11 48.999 -35c27.333 -23.333 47 -35 59 -35c18 0.666992 32.333 8 43 22c1.33301 1.33301 4.33301 6.5 9 15.5s11.334 21.167 20.001 36.5z" />
    <glyph glyph-name="odieresis" unicode="&#xf6;" horiz-adv-x="545" 
d="M44 258c0 -78.667 18.001 -142.334 54.001 -191.001c40 -53.333 98 -80 174 -80c75.333 0 133.666 26.667 174.999 80c36 48.667 54 112.334 54 191.001s-18 142 -54 190c-40.667 54.667 -99 82 -175 82s-134 -27.333 -174 -82c-36 -48 -54 -111.333 -54 -190z
M76.001 258c0 69.333 15 125.666 45 168.999c34 50 84.333 75 151 75c66 0 116.667 -25 152 -75c30 -43.333 45 -99.666 45 -168.999c0 -70 -15 -126.333 -45 -169c-35.333 -50 -86 -75 -152 -75s-116.333 25 -151 75c-30 42.667 -45 99 -45 169zM329.001 663
c0 -32 7.33301 -48 22 -48s22 16 22 48c0 30.667 -7.33301 46 -22 46s-22 -15.333 -22 -46zM175.001 661c0 -32 7 -48 21 -48c14.667 0 22 16 22 48c0 31.333 -7.33301 47 -22 47c-14 0 -21 -15.667 -21 -47z" />
    <glyph glyph-name="divide" unicode="&#xf7;" horiz-adv-x="746" 
d="M110 313v-30h536v30h-536zM374 488c-20.667 0 -31 -15 -31 -45c0 -29.333 10.333 -44 31 -44c19.333 0 29 14.667 29 44c0 30 -9.66699 45 -29 45zM374 196c-20.667 0 -31 -15 -31 -45c0 -29.333 10.333 -44 31 -44c19.333 0 29 15 29 45c0 29.333 -9.66699 44 -29 44z
" />
    <glyph glyph-name="oslash" unicode="&#xf8;" horiz-adv-x="545" 
d="M30 -1l20 -19l62 71c42 -42.667 95.667 -64 161 -64c78 0 137 27.333 177 82c34.667 48.667 52 113.667 52 195c0 70.667 -16.667 129.667 -50 177l63 73l-21 20l-60 -70c-42 44 -95.667 66 -161 66c-76 0 -134.333 -27.333 -175 -82c-36 -49.333 -54 -113 -54 -191
c0 -73.333 16.667 -134.333 50 -183zM273 14c-30 0 -59 6.66699 -87 20c-28 14 -51.333 35.333 -70 64c-26.667 41.333 -40 94 -40 158c0 66.667 15 122.667 45 168c34 52 83.333 78 148 78c60 0 108.333 -21 145 -63s55 -102.333 55 -181c0 -70 -15 -126.333 -45 -169
c-34 -50 -84.333 -75 -151 -75zM248 249c0 -16 7 -24 21 -24s21 8 21 24c0 15.333 -7 23 -21 23s-21 -7.66699 -21 -23z" />
    <glyph glyph-name="ugrave" unicode="&#xf9;" 
d="M451 519h-31v-281c0 -20.667 -0.5 -38.5 -1.5 -53.5s-2.16699 -27.5 -3.5 -37.5c-16 -88 -73 -132 -171 -132c-54 0 -92.333 15 -115 45c-20.667 25.333 -31 66 -31 122v337h-31v-347c0 -123.333 59.333 -185 178 -185c84 0 142.333 31.333 175 94v-81h31v519zM317 584
l-102 160h-53l102 -160h53z" />
    <glyph glyph-name="uacute" unicode="&#xfa;" 
d="M451 519h-31v-281c0 -20.667 -0.5 -38.5 -1.5 -53.5s-2.16699 -27.5 -3.5 -37.5c-16 -88 -73 -132 -171 -132c-54 0 -92.333 15 -115 45c-20.667 25.333 -31 66 -31 122v337h-31v-347c0 -123.333 59.333 -185 178 -185c84 0 142.333 31.333 175 94v-81h31v519zM205 584
h54l101 160h-53z" />
    <glyph glyph-name="ucircumflex" unicode="&#xfb;" 
d="M451 519h-31v-281c0 -20.667 -0.5 -38.5 -1.5 -53.5s-2.16699 -27.5 -3.5 -37.5c-16 -88 -73 -132 -171 -132c-54 0 -92.333 15 -115 45c-20.667 25.333 -31 66 -31 122v337h-31v-347c0 -123.333 59.333 -185 178 -185c84 0 142.333 31.333 175 94v-81h31v519zM137 584
h38l86 132l87 -136l36 4l-99 160h-48z" />
    <glyph glyph-name="udieresis" unicode="&#xfc;" 
d="M451 519h-31v-281c0 -20.667 -0.5 -38.5 -1.5 -53.5s-2.16699 -27.5 -3.5 -37.5c-16 -88 -73 -132 -171 -132c-54 0 -92.333 15 -115 45c-20.667 25.333 -31 66 -31 122v337h-31v-347c0 -123.333 59.333 -185 178 -185c84 0 142.333 31.333 175 94v-81h31v519zM317 663
c0 -32 7.33301 -48 22 -48s22 16 22 48c0 30.667 -7.33301 46 -22 46s-22 -15.333 -22 -46zM163 661c0 -32 7 -48 21 -48c14.667 0 22 16 22 48c0 31.333 -7.33301 47 -22 47c-14 0 -21 -15.667 -21 -47z" />
    <glyph glyph-name="yacute" unicode="&#xfd;" 
d="M444 -59c3.33301 13.333 5.66797 25.6689 7.00098 37.002s2.33301 22.333 3 33v519h-32v-278c0 -20.667 -0.5 -38.5 -1.5 -53.5s-2.16699 -27.167 -3.5 -36.5c-16 -88.667 -73 -133 -171 -133c-54 0 -92.333 15 -115 45c-20 26 -30 66.667 -30 122v334h-32v-344
c0 -124 59.333 -186 178 -186c83.333 0 141.666 32 174.999 96v-80c0 -24 -1 -42 -3 -54c-1.33301 -10 -3.5 -19.167 -6.5 -27.5s-6.16699 -15.833 -9.5 -22.5c-30 -58 -83.333 -87 -160 -87c-42.667 0 -77.667 9.66699 -105 29c-30.667 20.667 -47 52 -49 94h-27
c0.666992 -48.667 18 -86.334 52 -113.001c30.667 -24.667 71.334 -37 122.001 -37c43.333 0 80.666 7.33301 111.999 22c51.333 25.333 83.333 65.666 96 120.999zM164.002 584.003h54l101 160h-53z" />
    <glyph glyph-name="thorn" unicode="&#xfe;" horiz-adv-x="572" 
d="M101 112c34 -83.333 99.333 -125 196 -125c76.667 0 135 26.667 175 80c36 48 54 111.667 54 191c0 78.667 -18 142 -54 190c-40.667 54.667 -99 82 -175 82c-96.667 0 -162 -43.333 -196 -130v298h-32v-884h32v298zM297 502c66 0 116.667 -25 152 -75
c30 -43.333 45 -99.666 45 -168.999c0 -70 -15 -126.333 -45 -169c-35.333 -50 -86 -75 -152 -75s-116.333 25 -151 75c-30 42.667 -45 99 -45 169c0 69.333 15 125.666 45 168.999c34 50 84.333 75 151 75z" />
    <glyph glyph-name="ydieresis" unicode="&#xff;" 
d="M444 -59c3.33301 13.333 5.66797 25.6689 7.00098 37.002s2.33301 22.333 3 33v519h-32v-278c0 -20.667 -0.5 -38.5 -1.5 -53.5s-2.16699 -27.167 -3.5 -36.5c-16 -88.667 -73 -133 -171 -133c-54 0 -92.333 15 -115 45c-20 26 -30 66.667 -30 122v334h-32v-344
c0 -124 59.333 -186 178 -186c83.333 0 141.666 32 174.999 96v-80c0 -24 -1 -42 -3 -54c-1.33301 -10 -3.5 -19.167 -6.5 -27.5s-6.16699 -15.833 -9.5 -22.5c-30 -58 -83.333 -87 -160 -87c-42.667 0 -77.667 9.66699 -105 29c-30.667 20.667 -47 52 -49 94h-27
c0.666992 -48.667 18 -86.334 52 -113.001c30.667 -24.667 71.334 -37 122.001 -37c43.333 0 80.666 7.33301 111.999 22c51.333 25.333 83.333 65.666 96 120.999zM276.002 663.003c0 -32 7.33301 -48 22 -48s22 16 22 48c0 30.667 -7.33301 46 -22 46s-22 -15.333 -22 -46
zM122.002 661.003c0 -32 7 -48 21 -48c14.667 0 22 16 22 48c0 31.333 -7.33301 47 -22 47c-14 0 -21 -15.667 -21 -47z" />
    <glyph glyph-name="dotlessi" unicode="&#x131;" horiz-adv-x="175" 
d="M72 0h31v519h-31v-519z" />
    <glyph glyph-name="foursuperior" unicode="&#x2074;" horiz-adv-x="344" 
d="M369 267h24v109h59v19h-59v283l-26 -1l-248 -287l7 -14h243v-109zM370 394h-218l218 250v-250z" />
    <glyph glyph-name="sterling" unicode="&#x20ac;" horiz-adv-x="681" 
d="M66 445l-10.001 -29.9971h72c-0.666992 -9.33301 -1 -19 -1 -29v-28v-37h-76l-9 -31h87c5.33301 -73.333 20.333 -135 45 -185c36.667 -74.667 91 -112 163 -112c56.667 0 102.667 21.667 138 65c26 32 43.333 73 52 123l-28 22c-19.333 -115.333 -74.333 -173 -165 -173
c-59.333 0 -104.333 34.333 -135 103c-19.333 43.333 -31.333 95.666 -36 156.999h219l10 31h-231v37c0 9.33301 0.166992 18.833 0.5 28.5s0.833008 19.167 1.5 28.5h263l10 30h-271c6 53.333 18 99.666 36 138.999c30.667 70 76 105 136 105
c80.667 0 132.667 -49 156 -147l30 21c-11.333 43.333 -29 78.666 -53 105.999c-35.333 39.333 -78 59 -128 59c-74.667 0 -130.334 -38 -167.001 -114c-11.333 -22.667 -20.666 -48 -27.999 -76s-12.666 -59 -15.999 -93h-65z" />
    <glyph glyph-name="minus" unicode="&#x2212;" horiz-adv-x="688" 
d="M124 313v-30h497v30h-497z" />
    <glyph glyph-name=".null" horiz-adv-x="0" 
 />
    <glyph glyph-name="nonmarkingreturn" horiz-adv-x="500" 
 />
    <glyph glyph-name="glyph109" 
d="M203 948v-208h36v208h-36zM282 948v-208h36v208h-36z" />
    </font>
</defs>
</svg>
