<?xml version="1.0" standalone="no"?>
<!DOCTYPE svg PUBLIC "-//W3C//DTD SVG 1.1//EN" "http://www.w3.org/Graphics/SVG/1.1/DTD/svg11.dtd" >
<svg xmlns="http://www.w3.org/2000/svg">
<metadata>
This is a custom SVG webfont generated by Font Squirrel.
Copyright   :  1992 1994 1997 2000 2004 Adobe Systems Incorporated All rights reserved
Designer    : Robert Slimbach and Carol Twombly
Foundry     : Adobe Systems Incorporated
Foundry URL : httpwwwadobecomtype
</metadata>
<defs>
<font id="MyriadProRegular" horiz-adv-x="1050" >
<font-face units-per-em="2048" ascent="1536" descent="-512" />
<missing-glyph horiz-adv-x="434" />
<glyph unicode=" "  horiz-adv-x="434" />
<glyph unicode="&#x09;" horiz-adv-x="434" />
<glyph unicode="&#xa0;" horiz-adv-x="434" />
<glyph unicode="!" horiz-adv-x="471" d="M115 104q0 55 34.5 91t88 36t86 -35.5t32.5 -91t-33.5 -91.5t-89.5 -36q-51 0 -84.5 37t-33.5 90zM137 1380h197l-29 -985h-139z" />
<glyph unicode="&#x22;" horiz-adv-x="690" d="M104 1417h179l-35 -491h-111zM410 1417h178l-35 -491h-109z" />
<glyph unicode="#" horiz-adv-x="1017" d="M76 401v121h188l39 297h-178v121h194l54 391h121l-54 -391h215l52 391h120l-51 -391h168v-121h-186l-37 -297h176v-121h-195l-53 -401h-123l54 401h-213l-52 -401h-122l53 401h-170zM385 522h213l39 297h-213z" />
<glyph unicode="$" d="M135 121l49 137q133 -88 293 -88q109 0 176.5 56.5t67.5 144.5q0 82 -56.5 139t-175.5 104q-170 66 -253.5 148t-83.5 209t83.5 217t223.5 112v205h129v-198q150 -4 266 -72l-51 -135q-125 72 -258 71q-109 0 -163 -53t-54 -125q0 -76 56 -125t198 -108 q164 -68 240.5 -154t76.5 -219q0 -129 -86 -226.5t-238 -121.5v-213h-129v205q-190 4 -311 90z" />
<glyph unicode="%" horiz-adv-x="1622" d="M61 938q0 195 92.5 305.5t231.5 110.5t222 -104.5t83 -291.5q0 -201 -90 -310t-227 -109q-133 0 -221.5 104.5t-90.5 294.5zM203 946q-4 -131 44 -215t130 -84q86 0 129 82t43 219q0 133 -42 215t-132 82q-80 0 -126 -85t-46 -214zM358 -25l785 1381h114l-784 -1381h-115 zM930 387q0 195 92 305.5t231.5 110.5t222.5 -104.5t83 -292.5q0 -201 -90.5 -310.5t-227.5 -109.5q-133 0 -221 104t-90 297zM1071 393q-4 -131 44 -215t130 -84q86 0 129 82t43 221q0 133 -42 215t-132 82q-80 0 -126 -85t-46 -216z" />
<glyph unicode="&#x26;" horiz-adv-x="1239" d="M63 365q0 256 271 403v6q-115 143 -115 289q0 137 93.5 239.5t256.5 102.5q131 0 218 -80t87 -213q0 -111 -70.5 -200t-232.5 -169v-8q193 -223 336 -383q92 141 133 404h164q-59 -344 -198 -510q166 -180 227 -246h-213q-18 18 -59 61t-70 72q-170 -156 -404 -156 q-195 0 -309.5 113t-114.5 275zM236 391q0 -119 79.5 -198.5t204.5 -79.5q168 0 283 125q-252 279 -389 436q-178 -115 -178 -283zM383 1081q0 -115 104 -250q117 68 173.5 128.5t56.5 144.5q0 72 -41 125t-121 53t-126 -58.5t-46 -142.5z" />
<glyph unicode="'" horiz-adv-x="385" d="M104 1417h179l-35 -491h-111z" />
<glyph unicode="(" horiz-adv-x="581" d="M131 584q2 483 268 837h140q-256 -348 -256 -839q0 -463 256 -830h-140q-268 355 -268 832z" />
<glyph unicode=")" horiz-adv-x="581" d="M41 -248q256 362 256 835.5t-256 833.5h139q268 -350 269 -833q-2 -481 -269 -836h-139z" />
<glyph unicode="*" horiz-adv-x="849" d="M61 975v139l301 -39v4l-192 252l125 72l127 -287h4l125 289l123 -72l-195 -256v-4l309 41v-139l-309 39v-6l197 -246l-129 -74l-125 287h-4l-131 -289l-117 74l195 250v6z" />
<glyph unicode="+" horiz-adv-x="1220" d="M82 485v123h463v482h131v-482h463v-123h-463v-485h-131v485h-463z" />
<glyph unicode="," horiz-adv-x="423" d="M33 -254q82 225 123 492l200 20q-37 -131 -95 -278.5t-101 -219.5z" />
<glyph unicode="-" horiz-adv-x="628" d="M61 487v131h506v-131h-506z" />
<glyph unicode="." horiz-adv-x="423" d="M106 106.5q0 55.5 35 92.5t88.5 37t87 -36t33.5 -94q0 -55 -34.5 -92t-90.5 -37q-51 0 -85 37t-34 92.5z" />
<glyph unicode="/" horiz-adv-x="702" d="M-2 -80l569 1485h142l-574 -1485h-137z" />
<glyph unicode="0" d="M74 662q0 328 128 510t337 182t324.5 -178.5t115.5 -495.5q0 -338 -121 -520.5t-342 -182.5q-199 0 -319.5 180.5t-122.5 504.5zM256 659q0 -256 72.5 -399t197.5 -143q133 0 202 146.5t69 408.5q0 256 -66.5 399t-204.5 143q-121 0 -195.5 -145.5t-74.5 -409.5z" />
<glyph unicode="1" d="M213 1176l291 155h153v-1331h-174v1163h-4l-231 -125z" />
<glyph unicode="2" d="M92 0v111l141 137q279 264 387.5 409.5t108.5 286.5q0 115 -61.5 187.5t-200.5 72.5q-147 0 -283 -112l-57 127q160 135 375 135q201 0 304 -115t103 -272q0 -170 -108.5 -327t-349.5 -388l-105 -98v-4h596v-150h-850z" />
<glyph unicode="3" d="M86 68l49 137q137 -82 295 -82t230.5 79t70.5 179q-2 131 -101.5 198.5t-242.5 67.5h-100v135h100q113 0 205 58.5t92 167.5q0 86 -58.5 143t-174.5 57q-143 0 -267 -88l-49 131q143 102 350 103q184 0 282.5 -92.5t98.5 -225.5q0 -106 -63.5 -189t-181.5 -126v-4 q129 -25 211.5 -115t85.5 -225q0 -168 -129.5 -284t-356.5 -116q-209 1 -346 91z" />
<glyph unicode="4" d="M31 365v116l594 850h194v-827h187v-139h-187v-365h-170v365h-618zM213 504h436v444q0 104 6 209h-6q-53 -100 -110 -196l-326 -453v-4z" />
<glyph unicode="5" d="M86 59l45 138q125 -74 287 -74q131 0 223 80t90 209q0 135 -95 214t-286 79q-88 0 -186 -13l86 639h637v-151h-508l-51 -342q45 6 108 6q172 0 287 -72q84 -47 137 -134t53 -206q0 -197 -140 -326t-355 -129q-201 0 -332 82z" />
<glyph unicode="6" d="M70 545q0 379 225 600q168 166 426 196q66 10 131 11v-148q-53 2 -135 -10q-203 -33 -320.5 -163t-142.5 -308h4q115 156 324 156q178 0 289.5 -119t111.5 -311.5t-122 -332t-322 -139.5q-213 0 -341 155t-128 413zM248 500q2 -170 78.5 -276.5t216.5 -106.5 q115 0 186.5 88t71.5 231q0 141 -75 223t-200 82q-82 0 -152.5 -45t-107.5 -118q-18 -37 -18 -78z" />
<glyph unicode="7" d="M117 1182v149h839v-119l-579 -1212h-187l578 1178v4h-651z" />
<glyph unicode="8" d="M76 336q0 246 264 358l-2 6q-106 49 -159.5 129t-53.5 170q0 156 117.5 255.5t296.5 99.5q184 0 286.5 -96.5t102.5 -231.5q0 -209 -221 -311v-6q268 -106 268 -344q0 -172 -129 -280t-324 -108q-203 0 -324.5 103.5t-121.5 255.5zM260 360q-4 -104 69.5 -177.5 t196.5 -73.5q121 0 194 66.5t73 170.5q0 115 -75 182.5t-218 108.5q-115 -33 -177.5 -107t-62.5 -170zM297 1012q-2 -94 64.5 -153.5t189.5 -92.5q92 31 147.5 93.5t55.5 148.5q0 90 -56.5 153.5t-169.5 63.5q-109 0 -170 -61.5t-61 -151.5z" />
<glyph unicode="9" d="M84 881q0 195 128 334t327 139q203 0 321.5 -152.5t118.5 -410.5q0 -401 -229 -623q-156 -152 -388 -178q-88 -14 -165 -10v147q41 -4 145 6q170 23 279 129q141 127 176 352h-6q-115 -141 -316 -141q-174 0 -282.5 117t-108.5 291zM262 891q0 -125 69.5 -204t186.5 -79 q88 0 156.5 38t105.5 102q16 29 17 67q0 180 -69 291t-206 111q-115 0 -187.5 -91.5t-72.5 -234.5z" />
<glyph unicode=":" horiz-adv-x="423" d="M109 104q0 57 33.5 93t86.5 36q55 0 88 -35.5t33 -93.5q0 -55 -33.5 -91t-89.5 -36q-51 0 -84.5 37t-33.5 90zM109 827q0 57 33.5 93t86.5 36q55 0 88 -35.5t33 -93.5q0 -55 -33.5 -91t-89.5 -36q-51 0 -84.5 37t-33.5 90z" />
<glyph unicode=";" horiz-adv-x="423" d="M35 -252q84 229 123 492l198 20q-37 -131 -95 -277.5t-101 -220.5zM123 827q0 57 33.5 93t87.5 36q55 0 88 -35.5t33 -93.5q0 -55 -34 -91t-89 -36q-51 0 -85 37t-34 90z" />
<glyph unicode="&#x3c;" horiz-adv-x="1220" d="M135 489v111l950 490v-142l-800 -401v-4l800 -402v-141z" />
<glyph unicode="=" horiz-adv-x="1220" d="M82 289v123h1057v-123h-1057zM82 690v123h1057v-123h-1057z" />
<glyph unicode="&#x3e;" horiz-adv-x="1220" d="M135 0v141l807 402v4l-807 401v142l950 -486v-117z" />
<glyph unicode="?" horiz-adv-x="831" d="M104 1323q117 82 293 82q166 0 254 -87t88 -214q0 -94 -43 -172t-133 -184q-125 -150 -117 -304l5 -51h-162l-4 53q-20 178 127 355q143 168 143 280q0 80 -50 127t-145 49q-123 0 -206 -63zM246 104q0 57 33.5 93t87.5 36q55 0 87.5 -35.5t32.5 -93.5q0 -55 -33.5 -91 t-88.5 -36q-51 0 -85 37t-34 90z" />
<glyph unicode="@" horiz-adv-x="1509" d="M88 426q0 328 208 558t540 230q264 0 429 -166.5t165 -426.5q0 -221 -106.5 -354.5t-256.5 -133.5q-68 0 -112 45t-42 135h-6q-106 -180 -289 -180q-92 0 -156.5 70.5t-64.5 187.5q0 197 138.5 341.5t347.5 144.5q125 0 219 -43l-70 -371q-45 -225 62 -230 q84 -4 152.5 100.5t68.5 272.5q0 229 -131 371.5t-365 142.5q-258 0 -436 -189.5t-178 -492.5q0 -252 147.5 -403.5t378.5 -151.5q182 0 309 72l33 -88q-156 -82 -364 -82q-260 0 -440.5 176t-180.5 465zM532 399q0 -70 35 -112.5t101 -42.5q84 0 157.5 88t92.5 190l43 230 q-41 16 -103 16q-135 0 -230.5 -109.5t-95.5 -259.5z" />
<glyph unicode="A" horiz-adv-x="1253" d="M51 0l471 1380h213l471 -1380h-190l-148 434h-489l-143 -434h-185zM416 573h418l-138 398q-29 84 -71 252h-4q-47 -184 -70 -250z" />
<glyph unicode="B" horiz-adv-x="1110" d="M156 4v1356q129 31 325 31q256 0 377 -101q117 -86 117 -243q0 -100 -62.5 -182.5t-171.5 -121.5v-6q115 -27 200 -114.5t85 -229.5q0 -168 -119 -276q-137 -129 -475 -129q-157 0 -276 16zM334 135q49 -8 149 -8q154 0 254.5 64.5t100.5 203.5q0 133 -100.5 200 t-256.5 67h-147v-527zM334 795h162q137 0 217 65.5t80 167.5q0 225 -301 225q-100 0 -158 -12v-446z" />
<glyph unicode="C" horiz-adv-x="1187" d="M74 678q0 326 199.5 525.5t521.5 199.5q209 0 327 -62l-45 -145q-115 57 -276 57q-246 0 -392.5 -150.5t-146.5 -418.5q0 -256 140.5 -405.5t388.5 -149.5q174 0 292 57l35 -143q-127 -66 -364 -66q-301 0 -490.5 184.5t-189.5 516.5z" />
<glyph unicode="D" horiz-adv-x="1363" d="M156 4v1356q180 31 379 31q371 0 559 -172q197 -178 196 -496q0 -338 -198 -537q-203 -199 -613 -198q-180 0 -323 16zM334 139q59 -8 180 -8q285 0 436.5 152.5t151.5 433.5q2 250 -140.5 391t-418.5 141q-125 0 -209 -18v-1092z" />
<glyph unicode="E" horiz-adv-x="1007" d="M154 0v1380h747v-149h-567v-436h534v-148h-534v-497h598v-150h-778z" />
<glyph unicode="F" horiz-adv-x="997" d="M154 0v1380h743v-149h-563v-459h520v-147h-520v-625h-180z" />
<glyph unicode="G" horiz-adv-x="1323" d="M74 682q0 313 202.5 513t544.5 200q215 0 346 -64l-45 -145q-125 59 -305 59q-254 0 -404.5 -148.5t-150.5 -406.5q0 -260 144.5 -408.5t388.5 -148.5q164 0 237 37v412h-278v143h454v-664q-197 -76 -426 -75q-326 0 -516 182q-192 186 -192 514z" />
<glyph unicode="H" horiz-adv-x="1335" d="M154 0v1380h180v-577h667v577h181v-1380h-181v647h-667v-647h-180z" />
<glyph unicode="I" horiz-adv-x="489" d="M154 0v1380h180v-1380h-180z" />
<glyph unicode="J" horiz-adv-x="757" d="M8 10l25 146q68 -27 151 -27q127 0 189.5 75t62.5 267v909h180v-923q0 -479 -417 -480q-115 0 -191 33z" />
<glyph unicode="K" horiz-adv-x="1110" d="M156 0v1380h178v-665h6q47 68 109 147l421 518h222l-500 -585l538 -795h-210l-453 678l-133 -152v-526h-178z" />
<glyph unicode="L" horiz-adv-x="966" d="M154 0v1380h180v-1230h590v-150h-770z" />
<glyph unicode="M" horiz-adv-x="1646" d="M119 0l96 1380h227l236 -667q82 -246 139 -465h4q49 188 148 465l245 667h228l86 -1380h-176l-33 606q-23 424 -23 596h-4q-94 -303 -174 -524l-244 -670h-135l-225 658q-104 315 -158 536h-4q-6 -264 -26 -610l-37 -592h-170z" />
<glyph unicode="N" horiz-adv-x="1347" d="M156 0v1380h196l441 -698q160 -258 245 -449l6 3q-20 231 -20 567v577h168v-1380h-180l-439 700q-172 272 -256 461l-6 -2q12 -209 13 -569v-590h-168z" />
<glyph unicode="O" horiz-adv-x="1411" d="M74 680q0 326 179 525.5t460 199.5q283 0 452.5 -194.5t169.5 -505.5q0 -342 -182 -535t-459 -193q-274 0 -447 195t-173 508zM262 684q0 -233 120 -397t323 -164q205 0 323.5 164t118.5 409q0 227 -116 395.5t-324 168.5q-211 0 -328 -167t-117 -409z" />
<glyph unicode="P" horiz-adv-x="1089" d="M156 0v1364q160 27 342 27q260 0 387 -115q121 -106 121 -289q0 -184 -107 -295q-145 -152 -422 -151q-94 0 -143 12v-553h-178zM334 698q55 -14 147 -14q162 0 254 77t92 216q0 135 -87 203.5t-238 68.5q-115 0 -168 -14v-537z" />
<glyph unicode="Q" horiz-adv-x="1411" d="M74 678q0 328 179 527.5t462 199.5q281 0 450.5 -194.5t169.5 -503.5q0 -258 -106.5 -429.5t-286.5 -234.5v-8q221 -55 404 -88l-52 -150q-281 74 -528 160q-61 20 -84 20q-260 10 -434 194.5t-174 506.5zM262 682q0 -233 120 -396t323 -163q205 0 323.5 164t118.5 409 q0 227 -114.5 395.5t-321.5 168.5q-143 0 -248 -83t-153 -212t-48 -283z" />
<glyph unicode="R" horiz-adv-x="1101" d="M156 0v1362q158 29 342 29q274 0 399 -113q109 -98 109 -264q0 -129 -72 -220.5t-186 -129.5v-7q150 -53 200 -278q76 -319 107 -379h-185q-33 57 -90 330q-31 143 -94 203.5t-184 64.5h-168v-598h-178zM334 733h182q141 0 226 72t85 190q0 129 -85 192.5t-232 63.5 q-123 0 -176 -14v-504z" />
<glyph unicode="S" horiz-adv-x="1009" d="M86 68l47 149q141 -90 318 -90q135 0 211.5 64.5t76.5 170.5q0 94 -60.5 157t-199.5 116q-365 133 -364 393q0 164 123.5 269.5t322.5 105.5q188 0 303 -68l-49 -145q-106 66 -260 65q-129 0 -194.5 -62.5t-65.5 -143.5q0 -94 62.5 -151.5t211.5 -115.5 q180 -70 265.5 -164t85.5 -241q0 -170 -124 -285t-358 -115q-98 0 -196.5 26t-155.5 65z" />
<glyph unicode="T" horiz-adv-x="1017" d="M-2 1229v151h1022v-151h-422v-1229h-180v1229h-420z" />
<glyph unicode="U" horiz-adv-x="1325" d="M154 567v813h180v-819q0 -221 88 -329.5t233 -108.5q158 0 247 108.5t89 329.5v819h180v-807q0 -303 -142 -449.5t-380 -146.5q-227 0 -361 142.5t-134 447.5z" />
<glyph unicode="V" horiz-adv-x="1142" d="M6 1380h195l215 -680q106 -348 147 -516h4q53 215 158 514l233 682h191l-494 -1380h-196z" />
<glyph unicode="W" horiz-adv-x="1732" d="M31 1380h188l164 -698q63 -268 102 -477h4q23 139 113 479l184 696h187l168 -700q74 -307 96 -473h4q27 143 111 477l182 696h182l-391 -1380h-186l-174 719q-66 272 -91 450h-4q-31 -186 -106 -450l-197 -719h-186z" />
<glyph unicode="X" horiz-adv-x="1169" d="M51 0l422 698l-405 682h206l183 -323q86 -150 127 -234h6q49 102 125 234l186 323h207l-420 -671l430 -709h-207l-178 305q-90 145 -158 273h-4q-47 -96 -149 -275l-166 -303h-205z" />
<glyph unicode="Y" horiz-adv-x="1107" d="M25 1380h204l195 -381q113 -231 137 -284h4q25 57 140 284l198 381h201l-461 -792v-588h-180v586z" />
<glyph unicode="Z" horiz-adv-x="1132" d="M61 0v104l764 1121v6h-698v149h932v-108l-762 -1116v-6h772v-150h-1008z" />
<glyph unicode="[" horiz-adv-x="581" d="M166 -229v1634h375v-113h-234v-1409h234v-112h-375z" />
<glyph unicode="\" horiz-adv-x="698" d="M4 1405h139l557 -1485h-139z" />
<glyph unicode="]" horiz-adv-x="581" d="M41 -117h233v1409h-233v113h375v-1634h-375v112z" />
<glyph unicode="^" horiz-adv-x="1220" d="M125 387l422 944h129l422 -944h-144l-342 795h-4l-342 -795h-141z" />
<glyph unicode="_" horiz-adv-x="1024" d="M0 -154h1024v-102h-1024v102z" />
<glyph unicode="`" horiz-adv-x="614" d="M45 1419h197l180 -293h-127z" />
<glyph unicode="a" horiz-adv-x="987" d="M72 262q0 180 154 276q151 93 430 93h12v20q0 37 -7.5 71t-29 73t-69.5 61.5t-120 22.5q-152 0 -260 -74l-41 121q137 86 328 86q207 0 292 -115t85 -289v-370q0 -143 14 -238h-162l-14 125h-6q-45 -63 -124 -105.5t-179 -42.5q-143 0 -223 84t-80 201zM252 283 q0 -84 48 -128t120 -44q92 0 155.5 48t88.5 117q8 27 8 58v172h-28q-392 1 -392 -223z" />
<glyph unicode="b" horiz-adv-x="1165" d="M141 0q8 135 9 256v1198h178v-623h4q104 180 338 181q186 0 303 -140.5t117 -363.5q0 -250 -133.5 -390.5t-313.5 -140.5q-225 0 -334 185h-4l-10 -162h-154zM328 397q0 -39 8 -65q25 -94 98.5 -152.5t171.5 -58.5q141 0 221 104.5t80 276.5q0 158 -78.5 263t-218.5 105 q-92 0 -168.5 -60t-103.5 -161q-10 -37 -10 -76v-176z" />
<glyph unicode="c" horiz-adv-x="917" d="M78 483q0 231 146.5 380t385.5 149q152 0 250 -54l-41 -137q-90 47 -209 47q-164 0 -257 -107.5t-93 -266.5q0 -170 97.5 -270.5t246.5 -100.5q115 0 221 47l31 -135q-121 -57 -285 -58q-223 0 -358 139.5t-135 366.5z" />
<glyph unicode="d" horiz-adv-x="1155" d="M78 489q0 234 128 377q130 145 316 146q109 0 185.5 -43t113.5 -107h4v592h179v-1198q0 -121 8 -256h-160l-8 172h-6q-41 -86 -129 -140.5t-205 -54.5q-182 0 -304 140.5t-122 371.5zM260 489q0 -158 77 -262t216 -104q92 0 166 58.5t98 156.5q8 33 8 78v172q0 45 -8 76 q-20 88 -91 147t-169 59q-137 0 -217 -107.5t-80 -273.5z" />
<glyph unicode="e" horiz-adv-x="1026" d="M78 479q0 229 127 381t338 152q115 0 199.5 -46t127.5 -120t62.5 -148.5t19.5 -150.5q0 -53 -6 -84h-696q2 -174 97 -259t243 -85q158 0 274 51l33 -129q-141 -63 -332 -64q-225 0 -356 137.5t-131 364.5zM252 592h526q2 109 -56 200t-194 91q-125 0 -194.5 -89 t-81.5 -202z" />
<glyph unicode="f" horiz-adv-x="598" d="M31 854v137h137v47q0 233 115 346q94 92 241 93q84 0 154 -29l-25 -139q-49 23 -114 22q-193 0 -193 -287v-53h240v-137h-240v-854h-178v854h-137z" />
<glyph unicode="g" horiz-adv-x="1144" d="M78 487q0 240 133 382.5t315 142.5q215 0 310 -170h4l6 149h160q-8 -92 -9 -270v-576q0 -322 -141 -454q-133 -119 -362 -119q-207 0 -330 82l45 139q121 -80 291 -80q147 0 233 84t86 264v109h-4q-43 -74 -124 -120t-191 -46q-182 0 -302 138t-120 345zM260 498 q0 -154 77 -255.5t216 -101.5q86 0 154.5 49.5t95.5 135.5q14 43 14 96v178q0 51 -10 80q-27 84 -91.5 138t-160.5 54q-131 0 -213 -102t-82 -272z" />
<glyph unicode="h" horiz-adv-x="1136" d="M150 0v1454h180v-620h4q47 84 129 129q86 49 184 49q43 0 87 -11.5t92 -40t84 -74.5t59.5 -122t23.5 -174v-590h-180v569q0 131 -55.5 212t-173.5 81q-84 0 -149.5 -51t-92.5 -127q-12 -33 -12 -86v-598h-180z" />
<glyph unicode="i" horiz-adv-x="479" d="M127 1270q0 47 31.5 79.5t81 32.5t80 -31.5t30.5 -80.5q0 -47 -30.5 -79t-83.5 -32q-49 0 -79 32t-30 79zM150 0v991h180v-991h-180z" />
<glyph unicode="j" horiz-adv-x="497" d="M-94 -291q137 10 196 78q39 43 54.5 121t15.5 250v833h180v-903q0 -287 -119 -407q-55 -55 -141 -84t-166 -29zM150 1270q0 47 31.5 79.5t80.5 32.5t80 -32.5t31 -79.5t-31 -79t-84 -32q-47 0 -77.5 33t-30.5 78z" />
<glyph unicode="k" horiz-adv-x="960" d="M150 0v1454h178v-917h4q41 57 86 112l293 342h215l-381 -407l436 -584h-221l-340 475l-92 -102v-373h-178z" />
<glyph unicode="l" horiz-adv-x="483" d="M150 0v1454h180v-1454h-180z" />
<glyph unicode="m" horiz-adv-x="1708" d="M141 991h158l8 -162h6q106 182 314 183q98 0 171.5 -54.5t106.5 -144.5h4q39 74 113 129q92 70 217 70q55 0 108.5 -19.5t104.5 -64.5t83 -134t32 -212v-582h-176v559q0 145 -54.5 225t-160.5 80q-74 0 -131.5 -46t-83.5 -116q-14 -47 -15 -90v-612h-176v594 q0 123 -53 196.5t-154 73.5q-78 0 -139.5 -53t-83.5 -127q-14 -35 -14 -88v-596h-176v723q-1 104 -9 268z" />
<glyph unicode="n" horiz-adv-x="1136" d="M141 991h160l10 -164h4q41 78 127 131.5t201 53.5q57 0 113.5 -19.5t112 -63.5t90 -131t34.5 -208v-590h-180v571q0 131 -55.5 212t-173.5 81q-84 0 -149.5 -53t-92.5 -131q-12 -33 -12 -84v-596h-180v723q-1 159 -9 268z" />
<glyph unicode="o" horiz-adv-x="1124" d="M78 487q0 240 140 382.5t351 142.5q213 0 345.5 -141.5t132.5 -366.5q0 -256 -147.5 -391.5t-346.5 -135.5q-205 0 -340 140.5t-135 369.5zM262 494q0 -164 84 -272.5t215 -108.5q129 0 215 109.5t86 275.5q0 145 -74.5 262t-222 117t-225.5 -113.5t-78 -269.5z" />
<glyph unicode="p" horiz-adv-x="1165" d="M141 991h160l10 -170h4q113 190 353 191q182 0 302 -139.5t120 -362.5q0 -254 -132.5 -393.5t-320.5 -139.5q-98 0 -179 41t-126 115h-4v-539h-178v1074q-1 135 -9 323zM328 403q0 -43 8 -73q25 -94 99.5 -152.5t170.5 -58.5q141 0 221 104.5t80 278.5q0 156 -78.5 261 t-216.5 105q-94 0 -170.5 -60t-101.5 -161q-12 -45 -12 -72v-172z" />
<glyph unicode="q" horiz-adv-x="1153" d="M78 477q0 260 136 397.5t312 137.5q109 0 188 -47t117 -123h5l6 149h170q-8 -164 -8 -272v-1125h-179v558h-4q-100 -174 -323 -175q-178 0 -299 139.5t-121 360.5zM260 489q0 -158 76 -263t217 -105q88 0 157.5 51t100.5 143q14 47 14 88v187q0 43 -8 74 q-23 88 -92.5 146t-165.5 58q-137 0 -218 -105.5t-81 -273.5z" />
<glyph unicode="r" horiz-adv-x="669" d="M141 991h158l8 -196h6q33 98 109 157.5t168 59.5q16 0 49 -4v-170q-18 4 -61 4q-94 0 -159 -63.5t-83 -166.5q-6 -37 -6 -84v-528h-180v682q-1 186 -9 309z" />
<glyph unicode="s" horiz-adv-x="811" d="M82 47l43 135q117 -70 240 -69q92 0 141 41t49 106q0 63 -41 103t-141 77q-264 96 -264 281q0 123 94 207t248 84q147 0 241 -62l-43 -131q-94 59 -203 60q-78 0 -120.5 -39t-42.5 -97q0 -59 42 -94t144 -76q131 -49 195.5 -119.5t64.5 -177.5q0 -135 -98.5 -217 t-270.5 -82q-159 0 -278 70z" />
<glyph unicode="t" horiz-adv-x="677" d="M37 854v137h153v185l177 53v-238h258v-137h-258v-535q0 -193 135 -192q63 0 104 12l8 -137q-70 -25 -159 -25q-125 0 -195 76q-70 78 -70 260v541h-153z" />
<glyph unicode="u" horiz-adv-x="1128" d="M143 412v579h181v-547q0 -317 221 -317q84 0 147.5 49t89.5 117q16 39 17 92v606h180v-719q0 -168 8 -272h-160l-10 162h-4q-41 -74 -125 -129.5t-203 -55.5q-63 0 -119.5 20.5t-108.5 67t-83 135.5t-31 212z" />
<glyph unicode="v" horiz-adv-x="985" d="M27 991h192l195 -555q53 -150 80 -256h6q25 88 84 256l192 555h189l-390 -991h-172z" />
<glyph unicode="w" horiz-adv-x="1507" d="M37 991h184l133 -504q59 -246 72 -315h6q23 100 88 313l162 506h152l153 -495q55 -180 88 -324h6q20 123 76 322l141 497h179l-320 -991h-164l-151 473q-59 186 -88 326h-4q-29 -141 -91 -328l-159 -471h-164z" />
<glyph unicode="x" horiz-adv-x="948" d="M16 0l353 506l-336 485h200l142 -213q49 -70 102 -160h4q37 66 101 162l137 211h196l-337 -479l346 -512h-203l-148 223q-41 61 -106 172h-4q-45 -80 -105 -172l-143 -223h-199z" />
<glyph unicode="y" horiz-adv-x="964" d="M18 991h197l215 -585q37 -96 66 -203h4q2 6 25.5 85t37.5 122l197 581h190l-270 -706q-100 -262 -175 -401.5t-165 -219.5q-113 -94 -221 -115l-45 150q86 27 157 88q92 72 152 201q14 33 14 43q0 16 -14 47z" />
<glyph unicode="z" horiz-adv-x="876" d="M37 0v104l446 584q16 20 131 156v4h-536v143h753v-112l-442 -576q-88 -113 -127 -156v-4h578v-143h-803z" />
<glyph unicode="{" horiz-adv-x="581" d="M57 539v104q96 0 130 42t36 110q0 59 -16 170q-16 119 -17 172q0 135 81 201.5t218 66.5h41v-113h-34q-164 -2 -164 -176q0 -31 14 -145q16 -102 16 -156q2 -180 -149 -221v-4q150 -39 149 -223q0 -55 -16 -158q-14 -115 -14 -148q0 -176 164 -178h34v-112h-43 q-297 0 -297 280q0 68 19 168q14 133 14 166q0 154 -166 154z" />
<glyph unicode="|" horiz-adv-x="489" d="M176 -512v2048h137v-2048h-137z" />
<glyph unicode="}" horiz-adv-x="581" d="M51 -117h35q164 2 164 178q0 33 -14 148q-16 102 -17 158q-2 182 150 223v4q-150 39 -150 221q0 53 17 156q14 115 14 145q0 174 -164 176h-35v113h41q137 0 218 -66.5t81 -201.5q0 -53 -16 -172q-16 -111 -17 -170q0 -68 34 -110t132 -42v-104q-162 0 -166 -154 q0 -51 17 -166q16 -111 16 -168q0 -281 -297 -280h-43v112z" />
<glyph unicode="~" horiz-adv-x="1220" d="M100 430q-4 147 64.5 228t179.5 81q61 0 119.5 -19.5t171.5 -72.5q180 -86 254 -86q106 0 110 172h121q6 -160 -60.5 -234.5t-172.5 -74.5q-102 0 -297 90q-12 6 -40 19.5t-39 19.5t-33.5 16.5t-36 14.5t-32 10t-34 8t-31.5 2q-119 0 -121 -174h-123z" />
<glyph unicode="&#xa1;" horiz-adv-x="471" d="M115 870q0 57 34.5 93t88 36t86 -35.5t32.5 -93.5q0 -53 -33.5 -89t-87 -36t-87 36t-33.5 89zM137 -399l29 977h139l29 -977h-197z" />
<glyph unicode="&#xa2;" d="M137 668q0 199 112.5 337t299.5 169v204h129v-200q127 -2 223 -52l-41 -137q-90 51 -215 51q-147 0 -237.5 -105.5t-90.5 -260.5q0 -164 91.5 -261.5t230.5 -97.5q131 0 233 52l31 -131q-88 -51 -225 -60v-205h-129v207q-180 20 -295 144q-117 127 -117 346z" />
<glyph unicode="&#xa3;" d="M115 0v102q104 53 168.5 149.5t64.5 209.5q0 76 -10 143h-211v129h190q-23 135 -22 221q0 180 110.5 290t282.5 110q141 0 223 -51l-39 -136q-74 41 -184 41q-115 0 -169 -69.5t-54 -186.5q0 -98 22 -219h295v-129h-278q12 -150 -8 -229q-33 -129 -142 -221v-4h611v-150 h-850z" />
<glyph unicode="&#xa5;" d="M33 1331h192l213 -422q49 -104 82 -186h6q33 92 82 190l221 418h189l-367 -620h267v-101h-320v-149h320v-101h-320v-360h-170v360h-317v101h317v149h-317v101h268z" />
<glyph unicode="&#xa8;" horiz-adv-x="614" d="M14 1272q0 43 30 73.5t75 30.5q41 0 69.5 -29.5t28.5 -74.5q0 -43 -28.5 -74t-73.5 -31q-43 0 -72 31t-29 74zM395 1272q0 43 30 73.5t73 30.5t71.5 -29.5t28.5 -74.5q0 -43 -28.5 -74t-73.5 -31q-43 0 -72 31t-29 74z" />
<glyph unicode="&#xa9;" horiz-adv-x="1386" d="M74 696q0 262 181 446.5t443 184.5q258 0 436.5 -184.5t178.5 -446.5q0 -264 -179.5 -449.5t-437.5 -185.5q-260 0 -441 185.5t-181 449.5zM176 690q0 -229 149.5 -387t370.5 -158q217 -2 365.5 158t148.5 393q0 229 -149.5 388t-366.5 159q-219 0 -368.5 -160 t-149.5 -393zM354 684q0 170 115 275.5t276 105.5q74 0 137.5 -17.5t88.5 -37.5l-25 -80q-88 47 -198 47q-139 0 -213 -79t-74 -208q0 -125 75.5 -207t213.5 -82q125 0 206 54l25 -78q-96 -63 -252 -64q-174 0 -274.5 105.5t-100.5 265.5z" />
<glyph unicode="&#xab;" horiz-adv-x="858" d="M59 516l271 377h145l-272 -377l274 -377h-147zM395 516l271 377h145l-272 -377l272 -377h-145z" />
<glyph unicode="&#xad;" horiz-adv-x="628" d="M61 487v131h506v-131h-506z" />
<glyph unicode="&#xae;" horiz-adv-x="858" d="M84 1063q0 141 101.5 238.5t246.5 97.5q143 0 242.5 -97.5t99.5 -238.5t-100.5 -239.5t-243.5 -98.5q-145 0 -245.5 98.5t-100.5 239.5zM170 1063q0 -113 76 -190.5t186 -77.5q109 -2 182.5 76.5t73.5 189.5q0 113 -74.5 191.5t-185.5 78.5q-109 0 -183.5 -78.5 t-74.5 -189.5zM299 889v336q78 10 129 10q78 0 115 -27q35 -25 35 -71q0 -57 -70 -80v-4q43 -14 59 -82q10 -55 25 -82h-82q-8 10 -27 82q-8 51 -69 51h-37v-133h-78zM379 1077h37q78 0 78 49q0 51 -72 52q-27 0 -43 -4v-97z" />
<glyph unicode="&#xb4;" horiz-adv-x="614" d="M207 1126l180 293h197l-250 -293h-127z" />
<glyph unicode="&#xb8;" horiz-adv-x="614" d="M111 -375l30 88q53 -29 111 -28q39 0 64.5 15t23.5 48q0 72 -160 86l96 172h113l-67 -108q59 -6 101 -45t42 -97q0 -86 -60.5 -126t-154.5 -40q-80 0 -139 35z" />
<glyph unicode="&#xbb;" horiz-adv-x="858" d="M49 139l273 377l-273 377h144l272 -377l-272 -377h-144zM381 893h145l273 -377l-273 -377h-143l272 377z" />
<glyph unicode="&#xbf;" horiz-adv-x="831" d="M113 -127q0 94 44 172t134 184q127 152 115 303l-3 54h158l6 -54q20 -176 -127 -356q-143 -168 -143 -280q0 -80 50 -128.5t145 -48.5q119 0 208 64l48 -129q-121 -82 -293 -82q-166 0 -254 87t-88 214zM365 870q0 57 33.5 93t88.5 36q53 0 86 -35.5t33 -93.5 q0 -55 -32.5 -91t-88.5 -36q-53 0 -86.5 36t-33.5 91z" />
<glyph unicode="&#xc6;" horiz-adv-x="1613" d="M-2 0l631 1380h864l-2 -149h-586l53 -440h515v-148h-492l61 -493h506l-2 -150h-657l-62 485h-424l-221 -485h-184zM463 631h344l-45 397q-20 164 -25 223h-8q-20 -57 -88 -217z" />
<glyph unicode="&#xe6;" horiz-adv-x="1583" d="M74 260q0 174 155.5 268.5t440.5 89.5v41q0 25 -8.5 57t-30 70.5t-71.5 65.5t-120 27q-147 0 -254 -74l-43 117q139 90 310 90q252 0 319 -209h4q49 98 139.5 153.5t206.5 55.5q106 0 187.5 -47t121 -121t59 -145.5t19.5 -141.5q0 -53 -6 -80h-665q-4 -172 84 -266 t233 -94q152 0 270 55l33 -127q-129 -68 -325 -68q-131 0 -232.5 57.5t-144.5 162.5h-6q-47 -102 -143.5 -161t-223.5 -59q-147 0 -228 83t-81 200zM252 274q0 -76 49 -119.5t123 -43.5q92 -2 154.5 47t85.5 123q10 37 10 71v146q-422 7 -422 -224zM838 606h499 q2 57 -17.5 117.5t-75.5 111t-140 50.5q-123 0 -191.5 -88.5t-74.5 -190.5z" />
<glyph unicode="&#x2c6;" horiz-adv-x="614" d="M51 1126l193 293h125l196 -293h-137l-119 193h-4l-119 -193h-135z" />
<glyph unicode="&#x2c9;" horiz-adv-x="614" d="M78 1200v117h461v-117h-461z" />
<glyph unicode="&#x2d8;" horiz-adv-x="614" d="M53 1397h107q10 -63 48 -102.5t97 -39.5q70 0 107 41t43 101h106q0 -115 -69.5 -185.5t-184.5 -70.5q-127 0 -190.5 75t-63.5 181z" />
<glyph unicode="&#x2da;" horiz-adv-x="614" d="M84 1286q0 82 57.5 137.5t151.5 55.5q90 0 146.5 -54.5t56.5 -138.5q0 -80 -58.5 -133t-146.5 -53q-90 0 -148.5 53t-58.5 133zM188 1286q0 -43 29 -76.5t74 -33.5q47 0 75.5 32.5t28.5 79.5q0 49 -29.5 82t-76.5 33t-74 -34t-27 -83z" />
<glyph unicode="&#x2dc;" horiz-adv-x="614" d="M55 1161q-2 98 35 155.5t105 57.5q41 0 127 -45q61 -35 88 -35q49 0 55 86h96q4 -207 -139 -206q-45 0 -127 43q-61 37 -88 36q-47 0 -53 -92h-99z" />
<glyph unicode="&#x2dd;" horiz-adv-x="614" d="M90 1141l162 278h176l-225 -278h-113zM385 1141l162 278h176l-225 -278h-113z" />
<glyph unicode="&#x398;" horiz-adv-x="1411" d="M74 678q0 326 180 526.5t460.5 200.5t451.5 -194.5t171 -508.5q0 -340 -182 -532.5t-458.5 -192.5t-449.5 194t-173 507zM262 682q0 -229 121 -394t324 -165q205 0 323.5 164t118.5 409q0 227 -115.5 395.5t-324.5 168.5q-213 0 -330 -168t-117 -410zM428 637v147h555 v-147h-555z" />
<glyph unicode="&#x3a8;" horiz-adv-x="1402" d="M96 930v450h174v-419q0 -379 346 -398v817h170v-819q152 8 249.5 112.5t97.5 325.5v381h174v-399q0 -260 -141.5 -403.5t-379.5 -155.5v-422h-170v422q-104 4 -194 33.5t-165 88t-118 157t-43 229.5z" />
<glyph unicode="&#x3b8;" horiz-adv-x="1093" d="M78 739q0 326 126 532t353 206q229 0 344 -198t115 -540q0 -356 -117 -559t-350 -203q-223 0 -347 194.5t-124 567.5zM256 684q0 -268 82 -420.5t217 -152.5q139 0 212 155.5t73 417.5h-584zM256 817h582q0 231 -74 378.5t-217 147.5q-131 0 -211 -153.5t-80 -372.5z" />
<glyph unicode="&#x3c8;" horiz-adv-x="1341" d="M121 991h164q27 -37 26 -184v-299q0 -203 81 -297t212 -102v1142h166v-1142q135 6 220 136t85 341q0 139 -24.5 252.5t-49.5 152.5h166q80 -123 80 -391q0 -117 -25.5 -220.5t-80 -193.5t-149.5 -146t-222 -63v-383h-166v383q-215 14 -341 131t-126 386v268 q0 163 -16 229z" />
<glyph unicode="&#x400;" horiz-adv-x="1007" d="M213 1820h197l180 -293h-127zM154 0v1380h747v-149h-567v-436h534v-148h-534v-497h598v-150h-778z" />
<glyph unicode="&#x401;" horiz-adv-x="1007" d="M154 0v1380h747v-149h-567v-436h534v-148h-534v-497h598v-150h-778zM233 1581q0 43 29 72.5t72 29.5t70.5 -29.5t27.5 -72.5q0 -45 -27.5 -74.5t-72.5 -29.5q-43 0 -71 30.5t-28 73.5zM612 1581q0 43 30 72.5t73 29.5t70.5 -29.5t27.5 -72.5q0 -45 -27.5 -74.5 t-74.5 -29.5q-43 0 -71 30.5t-28 73.5z" />
<glyph unicode="&#x402;" horiz-adv-x="1361" d="M-2 1231v149h1061v-149h-500v-393h6q127 84 277 84q213 0 332 -172q106 -145 106 -385q0 -332 -190 -494q-115 -129 -287 -156l-31 140q147 37 225 143q96 127 97 350q0 195 -72 299q-80 125 -229 125q-125 0 -234 -80v-692h-180v1231h-381z" />
<glyph unicode="&#x403;" horiz-adv-x="886" d="M154 0v1380h735v-149h-555v-1231h-180zM389 1454l191 240h217l-262 -240h-146z" />
<glyph unicode="&#x404;" horiz-adv-x="1179" d="M76 688q0 303 195.5 509t521.5 206q201 0 321 -66l-43 -139q-115 57 -272 57q-227 0 -368.5 -135t-164.5 -344h709v-141h-707q6 -217 149.5 -362.5t375.5 -145.5q158 0 288 55l31 -137q-131 -68 -352 -68q-301 0 -492.5 191.5t-191.5 519.5z" />
<glyph unicode="&#x405;" horiz-adv-x="1009" d="M86 68l47 149q141 -90 318 -90q135 0 211.5 64.5t76.5 170.5q0 94 -60.5 157t-199.5 116q-365 133 -364 393q0 164 123.5 269.5t322.5 105.5q188 0 303 -68l-49 -145q-106 66 -260 65q-129 0 -194.5 -62.5t-65.5 -143.5q0 -94 62.5 -151.5t211.5 -115.5 q180 -70 265.5 -164t85.5 -241q0 -170 -124 -285t-358 -115q-98 0 -196.5 26t-155.5 65z" />
<glyph unicode="&#x406;" horiz-adv-x="489" d="M154 0v1380h180v-1380h-180z" />
<glyph unicode="&#x407;" horiz-adv-x="489" d="M-43 1581q0 43 28.5 72.5t71.5 29.5t71 -29.5t28 -72.5q0 -45 -28 -74.5t-73 -29.5q-43 0 -70.5 30.5t-27.5 73.5zM154 0v1380h180v-1380h-180zM336 1581q0 43 29.5 72.5t72.5 29.5t71 -29.5t28 -72.5q0 -45 -28 -74.5t-75 -29.5q-43 0 -70.5 30.5t-27.5 73.5z" />
<glyph unicode="&#x408;" horiz-adv-x="757" d="M8 10l25 146q68 -27 151 -27q127 0 189.5 75t62.5 267v909h180v-923q0 -479 -417 -480q-115 0 -191 33z" />
<glyph unicode="&#x409;" horiz-adv-x="1804" d="M-12 127q88 16 147 76q119 117 119 598v579h772v-520q72 10 168 10q227 0 378.5 -107.5t151.5 -320.5q0 -182 -114 -301q-156 -154 -486 -153q-137 0 -276 14v1229h-420v-418q0 -135 -6 -231.5t-24.5 -210t-62.5 -194.5t-114 -128q-102 -66 -207 -65zM1026 135 q43 -8 143 -8q158 0 263.5 80t105.5 229q0 152 -104.5 223.5t-266.5 71.5q-51 0 -141 -8v-588z" />
<glyph unicode="&#x40a;" horiz-adv-x="1837" d="M154 0v1380h180v-551h547v551h178v-538q72 10 190 10q139 0 251 -41t184.5 -137t72.5 -236q0 -184 -115 -299q-154 -152 -481 -151q-162 0 -280 16v674h-547v-678h-180zM1059 137q53 -10 145 -10q158 0 262.5 77t104.5 228q0 143 -101.5 212t-257.5 69q-76 0 -153 -8 v-568z" />
<glyph unicode="&#x40b;" horiz-adv-x="1382" d="M-2 1231v149h1038v-149h-481v-395h4q156 94 313 94q162 0 254 -96q109 -111 109 -322v-512h-178v489q0 152 -66 226q-68 68 -176 67q-143 0 -260 -88v-694h-180v1231h-377z" />
<glyph unicode="&#x40c;" horiz-adv-x="1110" d="M156 0v1380h178v-612h55l473 612h213l-522 -632q160 -20 244 -108.5t143 -248.5q14 -41 46 -128t55.5 -147.5t50.5 -115.5h-191q-31 55 -127 326q-53 154 -137 230.5t-246 76.5h-57v-633h-178zM463 1444l190 239h217l-262 -239h-145z" />
<glyph unicode="&#x40d;" horiz-adv-x="1347" d="M360 1820h197l180 -293h-127zM156 0v1380h168v-581q0 -338 -17 -584l6 -2q86 182 254 457l447 710h178v-1380h-168v588q0 362 16 561l-6 2q-80 -180 -256 -463l-432 -688h-190z" />
<glyph unicode="&#x40e;" horiz-adv-x="1067" d="M4 1380h203l274 -592q57 -133 99 -241h6q25 70 84 248l217 585h188l-291 -712q-156 -391 -258 -523q-133 -170 -311 -170q-68 0 -100 13l16 145q25 -6 68 -6q162 0 270 235q16 37 -6 84zM272 1673h138q8 -59 33.5 -93t91 -34t91 34t33.5 93h138q-16 -221 -267 -221 q-242 0 -258 221z" />
<glyph unicode="&#x40f;" horiz-adv-x="1300" d="M154 0v1380h180v-1230h635v1230h180v-1380h-408l-14 -358h-149l-15 358h-409z" />
<glyph unicode="&#x410;" horiz-adv-x="1253" d="M51 0l471 1380h213l471 -1380h-190l-148 434h-489l-143 -434h-185zM416 573h418l-138 398q-29 84 -71 252h-4q-47 -184 -70 -250z" />
<glyph unicode="&#x411;" horiz-adv-x="1118" d="M156 4v1376h774v-149h-596v-371q72 10 170 10q217 0 356 -92q176 -115 176 -336q0 -182 -114 -301q-156 -154 -488 -153q-159 0 -278 16zM334 137q51 -10 149 -10q190 0 291 106q76 80 76 203q0 147 -113 226q-98 70 -262 69q-51 0 -141 -8v-586z" />
<glyph unicode="&#x412;" horiz-adv-x="1110" d="M156 4v1356q129 31 325 31q256 0 377 -101q117 -86 117 -243q0 -100 -62.5 -182.5t-171.5 -121.5v-6q115 -27 200 -114.5t85 -229.5q0 -168 -119 -276q-137 -129 -475 -129q-157 0 -276 16zM334 135q49 -8 149 -8q154 0 254.5 64.5t100.5 203.5q0 133 -100.5 200 t-256.5 67h-147v-527zM334 795h162q137 0 217 65.5t80 167.5q0 225 -301 225q-100 0 -158 -12v-446z" />
<glyph unicode="&#x413;" horiz-adv-x="886" d="M154 0v1380h735v-149h-555v-1231h-180z" />
<glyph unicode="&#x414;" horiz-adv-x="1290" d="M25 141l102 4q98 180 135 304q66 223 66 581v350h772v-1235l121 -4l-13 -473h-139l-12 332h-871l-12 -332h-139zM311 147h611v1086h-428v-260q0 -342 -70 -563q-33 -113 -113 -263z" />
<glyph unicode="&#x415;" horiz-adv-x="1007" d="M154 0v1380h747v-149h-567v-436h534v-148h-534v-497h598v-150h-778z" />
<glyph unicode="&#x416;" horiz-adv-x="1640" d="M23 0q27 57 49 120.5t48.5 146.5t41.5 122q57 164 139 251t231 105l-487 635h207l428 -612h55v612h172v-612h56l428 612h206l-489 -635q152 -14 233.5 -101t141.5 -253q14 -43 39.5 -124t48 -145.5t47.5 -121.5h-182q-20 41 -40 95.5t-42.5 128t-30.5 100.5 q-55 162 -128 235.5t-226 73.5h-62v-633h-172v633h-63q-154 0 -226.5 -74t-128.5 -235q-2 -6 -44 -137.5t-68 -186.5h-182z" />
<glyph unicode="&#x417;" horiz-adv-x="1007" d="M63 68l48 139q147 -84 311 -84q147 0 231 72.5t84 189.5q0 141 -109.5 203.5t-265.5 62.5h-81v135h79q137 0 231.5 74t94.5 180q0 104 -67.5 162t-180.5 58q-143 0 -288 -91l-48 131q160 104 365 105q182 0 293.5 -90t111.5 -248q0 -125 -80.5 -217t-203.5 -121v-4 q147 -16 241.5 -108.5t96.5 -237.5q0 -201 -146.5 -301.5t-355.5 -100t-361 90.5z" />
<glyph unicode="&#x418;" horiz-adv-x="1347" d="M156 0v1380h168v-581q0 -338 -17 -584l6 -2q86 182 254 457l447 710h178v-1380h-168v588q0 362 16 561l-6 2q-80 -180 -256 -463l-432 -688h-190z" />
<glyph unicode="&#x419;" horiz-adv-x="1347" d="M156 0v1380h168v-581q0 -338 -17 -584l6 -2q86 182 254 457l447 710h178v-1380h-168v588q0 362 16 561l-6 2q-80 -180 -256 -463l-432 -688h-190zM412 1669h137q8 -59 33.5 -93t91 -34t91.5 34t34 93h137q-16 -221 -266 -221q-242 0 -258 221z" />
<glyph unicode="&#x41a;" horiz-adv-x="1110" d="M156 0v1380h178v-612h55l473 612h213l-522 -632q160 -20 244 -108.5t143 -248.5q14 -41 46 -128t55.5 -147.5t50.5 -115.5h-191q-31 55 -127 326q-53 154 -137 230.5t-246 76.5h-57v-633h-178z" />
<glyph unicode="&#x41b;" horiz-adv-x="1216" d="M-14 127q84 12 145 74q121 117 121 598v581h811v-1380h-180v1231h-455v-418q0 -135 -6 -231.5t-24.5 -210t-62.5 -194.5t-114 -128q-102 -66 -213 -65z" />
<glyph unicode="&#x41c;" horiz-adv-x="1646" d="M119 0l96 1380h227l236 -667q82 -246 139 -465h4q49 188 148 465l245 667h228l86 -1380h-176l-33 606q-23 424 -23 596h-4q-94 -303 -174 -524l-244 -670h-135l-225 658q-104 315 -158 536h-4q-6 -264 -26 -610l-37 -592h-170z" />
<glyph unicode="&#x41d;" horiz-adv-x="1335" d="M154 0v1380h180v-577h667v577h181v-1380h-181v647h-667v-647h-180z" />
<glyph unicode="&#x41e;" horiz-adv-x="1411" d="M74 680q0 326 179 525.5t460 199.5q283 0 452.5 -194.5t169.5 -505.5q0 -342 -182 -535t-459 -193q-274 0 -447 195t-173 508zM262 684q0 -233 120 -397t323 -164q205 0 323.5 164t118.5 409q0 227 -116 395.5t-324 168.5q-211 0 -328 -167t-117 -409z" />
<glyph unicode="&#x41f;" horiz-adv-x="1308" d="M154 0v1380h1001v-1380h-180v1231h-641v-1231h-180z" />
<glyph unicode="&#x420;" horiz-adv-x="1089" d="M156 0v1364q160 27 342 27q260 0 387 -115q121 -106 121 -289q0 -184 -107 -295q-145 -152 -422 -151q-94 0 -143 12v-553h-178zM334 698q55 -14 147 -14q162 0 254 77t92 216q0 135 -87 203.5t-238 68.5q-115 0 -168 -14v-537z" />
<glyph unicode="&#x421;" horiz-adv-x="1187" d="M74 678q0 326 199.5 525.5t521.5 199.5q209 0 327 -62l-45 -145q-115 57 -276 57q-246 0 -392.5 -150.5t-146.5 -418.5q0 -256 140.5 -405.5t388.5 -149.5q174 0 292 57l35 -143q-127 -66 -364 -66q-301 0 -490.5 184.5t-189.5 516.5z" />
<glyph unicode="&#x422;" horiz-adv-x="1017" d="M-2 1229v151h1022v-151h-422v-1229h-180v1229h-420z" />
<glyph unicode="&#x423;" horiz-adv-x="1067" d="M4 1380h203l274 -592q57 -133 99 -241h6q25 70 84 248l217 585h188l-291 -712q-156 -391 -258 -523q-133 -170 -311 -170q-68 0 -100 13l16 145q25 -6 68 -6q162 0 270 235q16 37 -6 84z" />
<glyph unicode="&#x424;" horiz-adv-x="1484" d="M74 682q0 131 35.5 237.5t93 176t135.5 118t156.5 71t162.5 26.5v125h172v-125q113 -4 213.5 -42t184.5 -110t133 -192.5t49 -276.5q0 -158 -49 -277.5t-134 -189t-184.5 -106.5t-216.5 -45v-127h-172v127q-115 8 -213 44t-183 104.5t-134 186t-49 275.5zM258 688 q0 -229 113.5 -350t283.5 -137v983q-160 -8 -278.5 -129t-118.5 -367zM827 201q168 12 283 132t115 357q0 246 -115 365t-283 129v-983z" />
<glyph unicode="&#x425;" horiz-adv-x="1169" d="M51 0l422 698l-405 682h206l183 -323q86 -150 127 -234h6q49 102 125 234l186 323h207l-420 -671l430 -709h-207l-178 305q-90 145 -158 273h-4q-47 -96 -149 -275l-166 -303h-205z" />
<glyph unicode="&#x426;" horiz-adv-x="1335" d="M154 0v1380h180v-1230h633v1230h180v-1235l121 -4l-13 -475h-139l-12 334h-950z" />
<glyph unicode="&#x427;" horiz-adv-x="1222" d="M145 909v471h179v-442q0 -143 73.5 -220t216.5 -77q154 0 275 80v659h178v-1388h-178v590h-4q-150 -86 -332 -86q-76 0 -142.5 18t-129 61t-99.5 129t-37 205z" />
<glyph unicode="&#x428;" horiz-adv-x="1734" d="M156 0v1380h176v-1230h448v1230h176v-1230h449v1230h176v-1380h-1425z" />
<glyph unicode="&#x429;" horiz-adv-x="1769" d="M156 0v1380h176v-1230h448v1230h176v-1230h449v1230h176v-1235l121 -4l-12 -475h-140l-12 334h-1382z" />
<glyph unicode="&#x42a;" horiz-adv-x="1292" d="M-4 1233v147h532v-516q68 10 166 10q217 0 367.5 -109.5t150.5 -322.5q0 -180 -106 -292q-152 -162 -481 -162q-156 0 -275 16v1229h-354zM528 137q49 -10 142 -10q158 0 257 79t99 230q0 150 -102.5 222.5t-251.5 72.5q-57 0 -144 -8v-586z" />
<glyph unicode="&#x42b;" horiz-adv-x="1527" d="M156 4v1376h178v-518q61 12 166 12q229 0 379.5 -107.5t150.5 -324.5q0 -180 -106 -292q-154 -162 -492 -162q-157 0 -276 16zM334 137q47 -10 143 -10q158 0 262.5 80t104.5 229.5t-106.5 222t-262.5 72.5q-51 0 -141 -8v-586zM1184 0v1380h180v-1380h-180z" />
<glyph unicode="&#x42c;" horiz-adv-x="1116" d="M156 4v1376h178v-516q68 10 170 10q231 0 381.5 -107.5t150.5 -322.5q0 -182 -106 -294q-154 -162 -496 -162q-159 0 -278 16zM334 137q51 -10 147 -10q160 0 264.5 78t104.5 229.5t-104.5 224t-266.5 72.5q-55 0 -145 -8v-586z" />
<glyph unicode="&#x42d;" horiz-adv-x="1163" d="M61 47l39 143q137 -63 299 -63q221 0 354.5 143.5t143.5 364.5h-643v143h641q-18 211 -141 344t-330 133q-135 0 -297 -67l-43 135q174 80 350 80q313 0 483 -199.5t170 -513.5q0 -330 -189 -521.5t-476 -191.5q-201 0 -361 70z" />
<glyph unicode="&#x42e;" horiz-adv-x="1775" d="M156 0v1380h178v-594h205q27 289 184.5 454t402.5 165q266 0 421 -193.5t155 -506.5q0 -346 -168 -537t-426 -191q-252 0 -407.5 178.5t-165.5 479.5h-201v-635h-178zM711 684q0 -233 108.5 -398t297 -165t296 165t107.5 410q0 227 -104.5 396.5t-297.5 169.5 q-195 0 -301 -169t-106 -409z" />
<glyph unicode="&#x42f;" horiz-adv-x="1112" d="M29 0q29 49 57 125q14 41 40 121t44 130t51 111.5t72 100.5q49 49 117 71v5q-133 23 -219.5 112.5t-86.5 227.5q0 176 127 280q131 106 396 107q190 0 329 -29v-1362h-178v598h-133q-129 0 -196 -68q-43 -43 -75 -114.5t-63.5 -178t-44.5 -137.5q-25 -57 -45 -100h-192z M285 995q0 -121 95 -191.5t247 -70.5q117 0 151 4v498q-61 16 -170 16q-143 0 -233 -61.5t-90 -194.5z" />
<glyph unicode="&#x430;" horiz-adv-x="987" d="M72 262q0 180 154.5 275.5t441.5 93.5v20q0 37 -7.5 71t-29 73t-69.5 61.5t-120 22.5q-152 0 -260 -74l-41 121q137 86 328 86q207 0 292 -115t85 -289v-370q0 -143 14 -238h-162l-14 125h-6q-45 -63 -124 -105.5t-179 -42.5q-143 0 -223 84t-80 201zM252 283 q0 -84 48 -128t120 -44q92 0 155.5 48t88.5 117q8 27 8 58v172q-420 8 -420 -223z" />
<glyph unicode="&#x431;" horiz-adv-x="1081" d="M82 641q0 350 154 549q68 100 170 153.5t256 79.5q180 31 245 54l-8 -150q-57 -23 -207 -45q-252 -39 -354 -186q-88 -123 -109 -328h7q47 106 142 164.5t204 58.5q188 0 305 -129t117 -360q0 -244 -121 -385.5t-338 -141.5q-125 0 -218.5 56.5t-144.5 154t-75.5 211 t-24.5 244.5zM270 512q0 -90 27 -177t93.5 -155.5t158.5 -68.5q139 0 205.5 110.5t66.5 267.5q0 90 -22.5 168t-88 139.5t-165.5 61.5q-152 0 -226 -135q-49 -88 -49 -211z" />
<glyph unicode="&#x432;" horiz-adv-x="1024" d="M143 0v979q131 23 316 22q442 0 442 -247q0 -88 -58.5 -146.5t-148.5 -79.5v-4q115 -16 183.5 -77.5t68.5 -165.5q0 -293 -522 -293q-121 0 -281 12zM315 117q78 -6 144 -6q121 0 212 37.5t91 134.5q0 98 -84 136t-232 38h-131v-340zM317 573h136q115 0 192.5 38 t77.5 120q0 145 -266 146q-57 0 -140 -9v-295z" />
<glyph unicode="&#x433;" horiz-adv-x="788" d="M145 0v991h609v-143h-430v-848h-179z" />
<glyph unicode="&#x434;" horiz-adv-x="1085" d="M16 131l84 4q63 94 99 203q57 180 57 395v258h662v-856l102 -2l-10 -446h-142l-8 313h-686l-10 -313h-139zM285 137h456v717h-327v-162q0 -209 -52 -370q-28 -99 -77 -185z" />
<glyph unicode="&#x435;" horiz-adv-x="1026" d="M78 479q0 229 127 381t338 152q115 0 199.5 -46t127.5 -120t62.5 -148.5t19.5 -150.5q0 -53 -6 -84h-696q2 -174 97 -259t243 -85q158 0 274 51l33 -129q-141 -63 -332 -64q-225 0 -356 137.5t-131 364.5zM252 592h526q2 109 -56 200t-194 91q-125 0 -194.5 -89 t-81.5 -202z" />
<glyph unicode="&#x436;" horiz-adv-x="1366" d="M12 0q20 39 111 276q47 123 117.5 187.5t179.5 77.5l-391 450h204l330 -432h35v432h172v-432h35l328 432h206l-391 -450q207 -23 297 -262q84 -231 109 -279h-180q-37 66 -91 227q-45 117 -112.5 164t-169.5 47h-31v-438h-172v438h-31q-109 0 -175 -47t-111 -166 q-70 -184 -93 -225h-176z" />
<glyph unicode="&#x437;" horiz-adv-x="882" d="M57 59l47 123q121 -70 263 -69q111 0 177 47t66 123q0 170 -288 170h-89l-2 122h86q113 0 183.5 46.5t70.5 115.5q0 66 -53 106t-139 40q-123 0 -240 -72l-45 111q147 90 330 90q82 0 154.5 -23.5t127 -85t54.5 -151.5q0 -86 -66.5 -146.5t-156.5 -79.5v-4 q117 -12 193.5 -77.5t76.5 -170.5q0 -147 -126 -220.5t-302 -73.5q-179 -1 -322 79z" />
<glyph unicode="&#x438;" horiz-adv-x="1134" d="M143 0v991h172v-418q0 -184 -12 -397l6 -2q113 223 162 305l309 512h211v-991h-172v420q0 166 12 407h-4q-104 -205 -165 -309q-53 -88 -165 -275.5t-145 -242.5h-209z" />
<glyph unicode="&#x439;" horiz-adv-x="1134" d="M143 0v991h172v-418q0 -184 -12 -397l6 -2q113 223 162 305l309 512h211v-991h-172v420q0 166 12 407h-4q-104 -205 -165 -309q-53 -88 -165 -275.5t-145 -242.5h-209zM301 1395h131q4 -70 38 -113t93 -43q121 0 139 156h129q-8 -123 -79.5 -188.5t-192.5 -65.5 q-127 0 -189.5 69.5t-68.5 184.5z" />
<glyph unicode="&#x43a;" horiz-adv-x="980" d="M150 0v991h178v-430h43l370 430h220l-431 -446q115 -14 194 -89t140 -214q82 -203 105 -242h-189q-31 51 -92 203q-51 123 -127 178t-199 55h-34v-436h-178z" />
<glyph unicode="&#x43b;" horiz-adv-x="1038" d="M4 127q61 10 98 41q63 47 83 143.5t20 284.5v395h690v-991h-180v850h-340v-254q0 -229 -33 -359.5t-123 -189.5q-78 -61 -196 -61z" />
<glyph unicode="&#x43c;" horiz-adv-x="1308" d="M86 0l76 991h221l178 -499q57 -158 90 -273h4q35 119 119 340l158 432h223l70 -991h-172l-23 473q-2 49 -8 169t-8 185h-6q-25 -80 -111 -321l-190 -500h-129l-177 492q-51 145 -100 327h-8q-10 -270 -14 -356l-27 -469h-166z" />
<glyph unicode="&#x43d;" horiz-adv-x="1118" d="M143 0v991h181v-399h469v399h180v-991h-180v449h-469v-449h-181z" />
<glyph unicode="&#x43e;" horiz-adv-x="1124" d="M78 487q0 240 140 382.5t351 142.5q213 0 345.5 -141.5t132.5 -366.5q0 -256 -147.5 -391.5t-346.5 -135.5q-205 0 -340 140.5t-135 369.5zM262 494q0 -164 84 -272.5t215 -108.5q129 0 215 109.5t86 275.5q0 145 -74.5 262t-222 117t-225.5 -113.5t-78 -269.5z" />
<glyph unicode="&#x43f;" horiz-adv-x="1107" d="M143 0v991h822v-991h-181v850h-460v-850h-181z" />
<glyph unicode="&#x440;" horiz-adv-x="1165" d="M141 991h160l10 -170h4q113 190 353 191q182 0 302 -139.5t120 -362.5q0 -254 -132.5 -393.5t-320.5 -139.5q-98 0 -179 41t-126 115h-4v-539h-178v1074q-1 135 -9 323zM328 403q0 -43 8 -73q25 -94 99.5 -152.5t170.5 -58.5q141 0 221 104.5t80 278.5q0 156 -78.5 261 t-216.5 105q-94 0 -170.5 -60t-101.5 -161q-12 -45 -12 -72v-172z" />
<glyph unicode="&#x441;" horiz-adv-x="917" d="M78 483q0 231 146.5 380t385.5 149q152 0 250 -54l-41 -137q-90 47 -209 47q-164 0 -257 -107.5t-93 -266.5q0 -170 97.5 -270.5t246.5 -100.5q115 0 221 47l31 -135q-121 -57 -285 -58q-223 0 -358 139.5t-135 366.5z" />
<glyph unicode="&#x442;" horiz-adv-x="841" d="M20 850v141h799v-141h-309v-850h-180v850h-310z" />
<glyph unicode="&#x443;" horiz-adv-x="964" d="M18 991h197l215 -585q37 -96 66 -203h4q2 6 25.5 85t37.5 122l197 581h190l-270 -706q-100 -262 -175 -401.5t-165 -219.5q-113 -94 -221 -115l-45 150q86 27 157 88q92 72 152 201q14 33 14 43q0 16 -14 47z" />
<glyph unicode="&#x444;" horiz-adv-x="1312" d="M78 487q0 233 139 367.5t358 153.5l-2 442h168l-2 -440q223 -16 360.5 -151.5t137.5 -360.5q0 -236 -139.5 -369t-358.5 -147l2 -388h-168l2 386q-221 14 -359 148t-138 359zM256 492q0 -154 87 -261.5t232 -126.5v781q-147 -18 -233 -127.5t-86 -265.5zM739 102 q147 20 233.5 130t86.5 265.5t-86 261t-234 126.5v-783z" />
<glyph unicode="&#x445;" horiz-adv-x="948" d="M16 0l353 506l-336 485h200l142 -213q49 -70 102 -160h4q37 66 101 162l137 211h196l-337 -479l346 -512h-203l-148 223q-41 61 -106 172h-4q-45 -80 -105 -172l-143 -223h-199z" />
<glyph unicode="&#x446;" horiz-adv-x="1126" d="M143 0v991h181v-850h456v850h178v-856l103 -2l-10 -446h-142l-8 313h-758z" />
<glyph unicode="&#x447;" horiz-adv-x="1054" d="M133 635v356h180v-334q0 -102 46.5 -156.5t158.5 -54.5q121 0 213 68v477h178v-1003h-178v399h-2q-117 -74 -270 -74q-147 0 -236.5 80t-89.5 242z" />
<glyph unicode="&#x448;" horiz-adv-x="1511" d="M143 0v991h179v-850h344v850h178v-850h344v850h178v-991h-1223z" />
<glyph unicode="&#x449;" horiz-adv-x="1533" d="M143 0v991h179v-850h346v850h178v-850h344v850h176v-856l102 -2l-10 -446h-141l-6 313h-1168z" />
<glyph unicode="&#x44a;" horiz-adv-x="1185" d="M29 850v141h473v-334q78 10 170 11q113 0 207 -29t163.5 -107.5t69.5 -199.5q0 -141 -104 -230q-133 -113 -420 -112q-133 0 -266 14v846h-293zM500 127q74 -8 135 -8q127 0 212 49t85 158q0 80 -49 130t-112.5 66.5t-143.5 16.5q-61 0 -127 -13v-399z" />
<glyph unicode="&#x44b;" horiz-adv-x="1361" d="M143 4v987h181v-336q74 12 159 13q180 0 305 -82t125 -252q0 -141 -104 -230q-135 -115 -399 -114q-134 0 -267 14zM322 127q49 -8 124 -8q119 0 203 51t84 160q0 111 -81 160t-197 49q-78 0 -133 -13v-399zM1038 0v991h179v-991h-179z" />
<glyph unicode="&#x44c;" horiz-adv-x="1019" d="M143 4v987h181v-334q72 10 163 11q90 0 167 -16.5t145.5 -52.5t107.5 -104.5t39 -162.5q0 -139 -104 -228q-135 -115 -432 -114q-134 0 -267 14zM322 127q49 -8 135 -8q123 0 216 49t93 160q0 80 -53.5 130t-119 65.5t-142.5 15.5q-66 0 -129 -13v-399z" />
<glyph unicode="&#x44d;" horiz-adv-x="950" d="M57 47l37 127q123 -53 246 -53q150 0 244 87t104 234h-495v125h497q-12 135 -98 220t-244 85q-121 0 -235 -55l-39 119q133 76 305 76q225 0 358 -140q135 -141 135 -380q0 -223 -140 -367.5t-384 -144.5q-166 -1 -291 67z" />
<glyph unicode="&#x44e;" horiz-adv-x="1443" d="M145 0v991h177v-418h170q23 199 142.5 319t295.5 120q195 0 315.5 -139.5t120.5 -368.5q0 -236 -127 -381.5t-319 -145.5q-180 0 -299 124t-134 335h-165v-436h-177zM659 489q0 -156 70 -267t195 -111q127 0 194.5 116.5t67.5 272.5q0 152 -67.5 264.5t-192.5 112.5 t-196 -114t-71 -274z" />
<glyph unicode="&#x44f;" horiz-adv-x="1015" d="M23 0q35 51 61 113q10 20 36.5 95t53.5 123t66 81q49 43 112 57v4q-106 12 -184 75.5t-78 172.5q0 141 131 215q113 68 334 68q174 0 317 -21v-983h-178v416h-133q-106 0 -164 -58q-27 -20 -49 -56t-34.5 -65.5t-31 -81t-26.5 -73.5q-14 -37 -41 -82h-192zM276 711 q0 -86 84 -130t181 -44h153v335q-76 10 -149 11q-68 0 -124 -13.5t-100.5 -54.5t-44.5 -104z" />
<glyph unicode="&#x450;" horiz-adv-x="1026" d="M229 1427h197l180 -293h-127zM78 479q0 229 127 381t338 152q115 0 199.5 -46t127.5 -120t62.5 -148.5t19.5 -150.5q0 -53 -6 -84h-696q2 -174 97 -259t243 -85q158 0 274 51l33 -129q-141 -63 -332 -64q-225 0 -356 137.5t-131 364.5zM252 592h526q2 109 -56 200 t-194 91q-125 0 -194.5 -89t-81.5 -202z" />
<glyph unicode="&#x451;" horiz-adv-x="1026" d="M78 479q0 229 127 381t338 152q115 0 199.5 -46t127.5 -120t62.5 -148.5t19.5 -150.5q0 -53 -6 -84h-696q2 -174 97 -259t243 -85q158 0 274 51l33 -129q-141 -63 -332 -64q-225 0 -356 137.5t-131 364.5zM252 592h526q2 109 -56 200t-194 91q-125 0 -194.5 -89 t-81.5 -202zM258 1272q0 43 29.5 73.5t74.5 30.5q41 0 70 -29.5t29 -74.5q0 -43 -29 -74t-74 -31q-43 0 -71.5 31t-28.5 74zM637 1272q0 43 29.5 73.5t72.5 30.5t72 -29.5t29 -74.5q0 -43 -29 -74t-74 -31q-43 0 -71.5 31t-28.5 74z" />
<glyph unicode="&#x452;" horiz-adv-x="1140" d="M14 1151v129h168v174h180v-174h463v-129h-463v-291h5q127 141 301 141q182 0 282 -161q109 -160 109 -432q0 -418 -203 -588q-117 -100 -256 -113l-33 139q121 25 191 103q121 137 121 446q0 219 -78 348q-68 113 -188.5 113t-219.5 -119q-31 -43 -31 -112v-625h-180 v1151h-168z" />
<glyph unicode="&#x453;" horiz-adv-x="788" d="M145 0v991h609v-143h-430v-848h-179zM332 1126l180 293h197l-250 -293h-127z" />
<glyph unicode="&#x454;" horiz-adv-x="942" d="M78 487q0 236 151.5 380.5t388.5 144.5q156 0 267 -66l-43 -129q-115 55 -226 55q-156 0 -246.5 -86t-107.5 -219h502v-125h-500q10 -147 106.5 -235t241.5 -88q115 0 238 51l35 -129q-127 -63 -301 -64q-233 0 -369.5 143.5t-136.5 366.5z" />
<glyph unicode="&#x455;" horiz-adv-x="811" d="M82 47l43 135q117 -70 240 -69q92 0 141 41t49 106q0 63 -41 103t-141 77q-264 96 -264 281q0 123 94 207t248 84q147 0 241 -62l-43 -131q-94 59 -203 60q-78 0 -120.5 -39t-42.5 -97q0 -59 42 -94t144 -76q131 -49 195.5 -119.5t64.5 -177.5q0 -135 -98.5 -217 t-270.5 -82q-159 0 -278 70z" />
<glyph unicode="&#x456;" horiz-adv-x="479" d="M127 1270q0 47 31.5 79.5t81 32.5t80 -31.5t30.5 -80.5q0 -47 -30.5 -79t-83.5 -32q-49 0 -79 32t-30 79zM150 0v991h180v-991h-180z" />
<glyph unicode="&#x457;" horiz-adv-x="479" d="M-51 1272q0 43 29.5 73.5t74.5 30.5q41 0 70 -29.5t29 -74.5q0 -43 -29 -74t-74 -31q-43 0 -71.5 31t-28.5 74zM150 0v991h180v-991h-180zM328 1272q0 43 29.5 73.5t72.5 30.5t71.5 -29.5t28.5 -74.5q0 -43 -28.5 -74t-73.5 -31q-43 0 -71.5 31t-28.5 74z" />
<glyph unicode="&#x458;" horiz-adv-x="497" d="M-94 -291q137 10 196 78q39 43 54.5 121t15.5 250v833h180v-903q0 -287 -119 -407q-55 -55 -141 -84t-166 -29zM150 1270q0 47 31.5 79.5t80.5 32.5t80 -32.5t31 -79.5t-31 -79t-84 -32q-47 0 -77.5 33t-30.5 78z" />
<glyph unicode="&#x459;" horiz-adv-x="1587" d="M4 129q61 10 98 39q66 45 89.5 147.5t23.5 282.5v393h680v-338q72 10 162 11q88 0 164.5 -16.5t145.5 -53.5t107.5 -104.5t38.5 -159.5q0 -139 -98 -224q-135 -117 -432 -116q-135 0 -268 14v846h-332v-252q0 -223 -37 -356t-131 -193q-72 -61 -195 -61zM893 127 q49 -8 133 -8q123 0 215 48t92 159q0 115 -89 163t-208 48q-78 0 -143 -13v-397z" />
<glyph unicode="&#x45a;" horiz-adv-x="1601" d="M143 0v991h181v-368h417v368h181v-346q68 10 168 10q176 0 307 -79.5t131 -247.5q0 -139 -101 -226q-129 -113 -417 -112q-117 0 -269 12v481h-417v-483h-181zM920 125q104 -6 135 -6q117 0 205 47t88 156q0 113 -85 159.5t-208 46.5q-68 0 -135 -10v-393z" />
<glyph unicode="&#x45b;" horiz-adv-x="1169" d="M14 1151v129h168v174h180v-174h414v-129h-414v-322h5q51 78 122 121q86 51 191 51q160 0 253 -109.5t93 -311.5v-580h-180v559q0 131 -55.5 212t-174.5 81q-86 0 -150.5 -52t-90.5 -126q-12 -39 -13 -94v-580h-180v1151h-168z" />
<glyph unicode="&#x45c;" horiz-adv-x="980" d="M150 0v991h178v-430h43l370 430h220l-431 -446q115 -14 194 -89t140 -214q82 -203 105 -242h-189q-31 51 -92 203q-51 123 -127 178t-199 55h-34v-436h-178zM395 1126l178 293h199l-250 -293h-127z" />
<glyph unicode="&#x45d;" horiz-adv-x="1134" d="M254 1427h197l180 -293h-127zM143 0v991h172v-418q0 -184 -12 -397l6 -2q113 223 162 305l309 512h211v-991h-172v420q0 166 12 407h-4q-104 -205 -165 -309q-53 -88 -165 -275.5t-145 -242.5h-209z" />
<glyph unicode="&#x45e;" horiz-adv-x="964" d="M18 991h197l215 -585q37 -96 66 -203h4q2 6 25.5 85t37.5 122l197 581h190l-270 -706q-100 -262 -175 -401.5t-165 -219.5q-113 -94 -221 -115l-45 150q86 27 157 88q92 72 152 201q14 33 14 43q0 16 -14 47zM217 1395h131q4 -70 38 -113t93 -43q121 0 139 156h130 q-8 -123 -80 -188.5t-193 -65.5q-127 0 -189.5 69.5t-68.5 184.5z" />
<glyph unicode="&#x45f;" horiz-adv-x="1101" d="M143 0v991h181v-850h454v850h180v-991h-321l-12 -322h-144l-14 322h-324z" />
<glyph unicode="&#x470;" horiz-adv-x="1402" d="M96 930v450h174v-419q0 -379 346 -398v817h170v-819q152 8 249.5 112.5t97.5 325.5v381h174v-399q0 -260 -141.5 -403.5t-379.5 -155.5v-422h-170v422q-104 4 -194 33.5t-165 88t-118 157t-43 229.5z" />
<glyph unicode="&#x471;" horiz-adv-x="1341" d="M121 991h164q27 -37 26 -184v-299q0 -203 81 -297t212 -102v1142h166v-1142q135 6 220 136t85 341q0 139 -24.5 252.5t-49.5 152.5h166q80 -123 80 -391q0 -117 -25.5 -220.5t-80 -193.5t-149.5 -146t-222 -63v-383h-166v383q-215 14 -341 131t-126 386v268 q0 163 -16 229z" />
<glyph unicode="&#x490;" horiz-adv-x="915" d="M156 0v1380h596l32 252h134l-23 -401h-561v-1231h-178z" />
<glyph unicode="&#x491;" horiz-adv-x="802" d="M145 0v991h469l25 223h129l-12 -366h-432v-848h-179z" />
<glyph unicode="&#x4ae;" horiz-adv-x="1107" d="M25 1380h204l195 -381q113 -231 137 -284h4q25 57 140 284l198 381h201l-461 -792v-588h-180v586z" />
<glyph unicode="&#x4c0;" horiz-adv-x="489" d="M154 0v1380h180v-1380h-180z" />
<glyph unicode="&#x4c1;" horiz-adv-x="1640" d="M567 1784h107q10 -63 48 -102.5t97 -39.5q70 0 107 41t43 101h106q0 -115 -69.5 -185.5t-184.5 -70.5q-127 0 -190.5 75t-63.5 181zM23 0q27 57 49 120.5t48.5 146.5t41.5 122q57 164 139 251t231 105l-487 635h207l428 -612h55v612h172v-612h56l428 612h206l-489 -635 q152 -14 233.5 -101t141.5 -253q14 -43 39.5 -124t48 -145.5t47.5 -121.5h-182q-20 41 -40 95.5t-42.5 128t-30.5 100.5q-55 162 -128 235.5t-226 73.5h-62v-633h-172v633h-63q-154 0 -226.5 -74t-128.5 -235q-2 -6 -44 -137.5t-68 -186.5h-182z" />
<glyph unicode="&#x4c2;" horiz-adv-x="1366" d="M430 1391h107q10 -63 48 -102.5t97 -39.5q70 0 107 41t43 101h106q0 -115 -69.5 -185.5t-184.5 -70.5q-127 0 -190.5 75t-63.5 181zM12 0q20 39 111 276q47 123 117.5 187.5t179.5 77.5l-391 450h204l330 -432h35v432h172v-432h35l328 432h206l-391 -450 q207 -23 297 -262q84 -231 109 -279h-180q-37 66 -91 227q-45 117 -112.5 164t-169.5 47h-31v-438h-172v438h-31q-109 0 -175 -47t-111 -166q-70 -184 -93 -225h-176z" />
<glyph unicode="&#x4d0;" horiz-adv-x="1253" d="M375 1784h107q10 -63 48 -102.5t97 -39.5q70 0 107 41t43 101h106q0 -115 -69.5 -185.5t-184.5 -70.5q-127 0 -190.5 75t-63.5 181zM51 0l471 1380h213l471 -1380h-190l-148 434h-489l-143 -434h-185zM416 573h418l-138 398q-29 84 -71 252h-4q-47 -184 -70 -250z" />
<glyph unicode="&#x4d1;" horiz-adv-x="987" d="M215 1391h107q10 -63 48 -102.5t97 -39.5q70 0 107 41t43 101h106q0 -115 -69.5 -185.5t-184.5 -70.5q-127 0 -190.5 75t-63.5 181zM72 262q0 180 154.5 275.5t441.5 93.5v20q0 37 -7.5 71t-29 73t-69.5 61.5t-120 22.5q-152 0 -260 -74l-41 121q137 86 328 86 q207 0 292 -115t85 -289v-370q0 -143 14 -238h-162l-14 125h-6q-45 -63 -124 -105.5t-179 -42.5q-143 0 -223 84t-80 201zM252 283q0 -84 48 -128t120 -44q92 0 155.5 48t88.5 117q8 27 8 58v172q-420 8 -420 -223z" />
<glyph unicode="&#x4d2;" horiz-adv-x="1253" d="M338 1632q0 43 30 73.5t75 30.5q41 0 69.5 -29.5t28.5 -74.5q0 -43 -28.5 -74t-73.5 -31q-43 0 -72 31t-29 74zM719 1632q0 43 30 73.5t73 30.5t71.5 -29.5t28.5 -74.5q0 -43 -28.5 -74t-73.5 -31q-43 0 -72 31t-29 74zM51 0l471 1380h213l471 -1380h-190l-148 434h-489 l-143 -434h-185zM416 573h418l-138 398q-29 84 -71 252h-4q-47 -184 -70 -250z" />
<glyph unicode="&#x4d3;" horiz-adv-x="987" d="M178 1239q0 43 30 73.5t75 30.5q41 0 69.5 -29.5t28.5 -74.5q0 -43 -28.5 -74t-73.5 -31q-43 0 -72 31t-29 74zM559 1239q0 43 30 73.5t73 30.5t71.5 -29.5t28.5 -74.5q0 -43 -28.5 -74t-73.5 -31q-43 0 -72 31t-29 74zM72 262q0 180 154.5 275.5t441.5 93.5v20 q0 37 -7.5 71t-29 73t-69.5 61.5t-120 22.5q-152 0 -260 -74l-41 121q137 86 328 86q207 0 292 -115t85 -289v-370q0 -143 14 -238h-162l-14 125h-6q-45 -63 -124 -105.5t-179 -42.5q-143 0 -223 84t-80 201zM252 283q0 -84 48 -128t120 -44q92 0 155.5 48t88.5 117 q8 27 8 58v172q-420 8 -420 -223z" />
<glyph unicode="&#x4d4;" horiz-adv-x="1613" d="M-2 0l631 1380h864l-2 -149h-586l53 -440h515v-148h-492l61 -493h506l-2 -150h-657l-62 485h-424l-221 -485h-184zM463 631h344l-45 397q-20 164 -25 223h-8q-20 -57 -88 -217z" />
<glyph unicode="&#x4d5;" horiz-adv-x="1583" d="M74 260q0 174 155.5 268.5t440.5 89.5v41q0 25 -8.5 57t-30 70.5t-71.5 65.5t-120 27q-147 0 -254 -74l-43 117q139 90 310 90q252 0 319 -209h4q49 98 139.5 153.5t206.5 55.5q106 0 187.5 -47t121 -121t59 -145.5t19.5 -141.5q0 -53 -6 -80h-665q-4 -172 84 -266 t233 -94q152 0 270 55l33 -127q-129 -68 -325 -68q-131 0 -232.5 57.5t-144.5 162.5h-6q-47 -102 -143.5 -161t-223.5 -59q-147 0 -228 83t-81 200zM252 274q0 -76 49 -119.5t123 -43.5q92 -2 154.5 47t85.5 123q10 37 10 71v146q-422 7 -422 -224zM838 606h499 q2 57 -17.5 117.5t-75.5 111t-140 50.5q-123 0 -191.5 -88.5t-74.5 -190.5z" />
<glyph unicode="&#x4d6;" horiz-adv-x="1007" d="M274 1784h107q10 -63 48 -102.5t97 -39.5q70 0 107 41t43 101h106q0 -115 -69.5 -185.5t-184.5 -70.5q-127 0 -190.5 75t-63.5 181zM154 0v1380h747v-149h-567v-436h534v-148h-534v-497h598v-150h-778z" />
<glyph unicode="&#x4d7;" horiz-adv-x="1026" d="M289 1391h107q10 -63 48 -102.5t97 -39.5q70 0 107 41t43 101h106q0 -115 -69.5 -185.5t-184.5 -70.5q-127 0 -190.5 75t-63.5 181zM78 479q0 229 127 381t338 152q115 0 199.5 -46t127.5 -120t62.5 -148.5t19.5 -150.5q0 -53 -6 -84h-696q2 -174 97 -259t243 -85 q158 0 274 51l33 -129q-141 -63 -332 -64q-225 0 -356 137.5t-131 364.5zM252 592h526q2 109 -56 200t-194 91q-125 0 -194.5 -89t-81.5 -202z" />
<glyph unicode="&#x4d9;" horiz-adv-x="671" d="M72 442q0 57 6 84h696q-2 174 -95 259t-242.5 85t-276.5 -51l-33 127q150 66 334 66q225 0 355 -137.5t130 -364.5q0 -229 -127 -379.5t-338 -150.5q-115 0 -199.5 46t-127.5 119.5t-62.5 147t-19.5 149.5zM246 397q-2 -109 56 -198.5t194 -89.5q127 0 195.5 88t80.5 200 h-526z" />
<glyph unicode="&#x4db;" horiz-adv-x="671" d="M170 1239q0 43 30 73.5t75 30.5q41 0 69.5 -29.5t28.5 -74.5q0 -43 -28.5 -74t-73.5 -31q-43 0 -72 31t-29 74zM551 1239q0 43 30 73.5t73 30.5t71.5 -29.5t28.5 -74.5q0 -43 -28.5 -74t-73.5 -31q-43 0 -72 31t-29 74zM72 442q0 57 6 84h696q-2 174 -95 259t-242.5 85 t-276.5 -51l-33 127q150 66 334 66q225 0 355 -137.5t130 -364.5q0 -229 -127 -379.5t-338 -150.5q-115 0 -199.5 46t-127.5 119.5t-62.5 147t-19.5 149.5zM246 397q-2 -109 56 -198.5t194 -89.5q127 0 195.5 88t80.5 200h-526z" />
<glyph unicode="&#x4dc;" horiz-adv-x="1640" d="M530 1632q0 43 30 73.5t75 30.5q41 0 69.5 -29.5t28.5 -74.5q0 -43 -28.5 -74t-73.5 -31q-43 0 -72 31t-29 74zM911 1632q0 43 30 73.5t73 30.5t71.5 -29.5t28.5 -74.5q0 -43 -28.5 -74t-73.5 -31q-43 0 -72 31t-29 74zM23 0q27 57 49 120.5t48.5 146.5t41.5 122 q57 164 139 251t231 105l-487 635h207l428 -612h55v612h172v-612h56l428 612h206l-489 -635q152 -14 233.5 -101t141.5 -253q14 -43 39.5 -124t48 -145.5t47.5 -121.5h-182q-20 41 -40 95.5t-42.5 128t-30.5 100.5q-55 162 -128 235.5t-226 73.5h-62v-633h-172v633h-63 q-154 0 -226.5 -74t-128.5 -235q-2 -6 -44 -137.5t-68 -186.5h-182z" />
<glyph unicode="&#x4dd;" horiz-adv-x="1366" d="M391 1239q0 43 30 73.5t75 30.5q41 0 69.5 -29.5t28.5 -74.5q0 -43 -28.5 -74t-73.5 -31q-43 0 -72 31t-29 74zM772 1239q0 43 30 73.5t73 30.5t71.5 -29.5t28.5 -74.5q0 -43 -28.5 -74t-73.5 -31q-43 0 -72 31t-29 74zM12 0q20 39 111 276q47 123 117.5 187.5 t179.5 77.5l-391 450h204l330 -432h35v432h172v-432h35l328 432h206l-391 -450q207 -23 297 -262q84 -231 109 -279h-180q-37 66 -91 227q-45 117 -112.5 164t-169.5 47h-31v-438h-172v438h-31q-109 0 -175 -47t-111 -166q-70 -184 -93 -225h-176z" />
<glyph unicode="&#x4de;" horiz-adv-x="1007" d="M174 1632q0 43 30 73.5t75 30.5q41 0 69.5 -29.5t28.5 -74.5q0 -43 -28.5 -74t-73.5 -31q-43 0 -72 31t-29 74zM555 1632q0 43 30 73.5t73 30.5t71.5 -29.5t28.5 -74.5q0 -43 -28.5 -74t-73.5 -31q-43 0 -72 31t-29 74zM63 68l48 139q147 -84 311 -84q147 0 231 72.5 t84 189.5q0 141 -109.5 203.5t-265.5 62.5h-81v135h79q137 0 231.5 74t94.5 180q0 104 -67.5 162t-180.5 58q-143 0 -288 -91l-48 131q160 104 365 105q182 0 293.5 -90t111.5 -248q0 -125 -80.5 -217t-203.5 -121v-4q147 -16 241.5 -108.5t96.5 -237.5 q0 -201 -146.5 -301.5t-355.5 -100t-361 90.5z" />
<glyph unicode="&#x4df;" horiz-adv-x="882" d="M133 1239q0 43 30 73.5t75 30.5q41 0 69.5 -29.5t28.5 -74.5q0 -43 -28.5 -74t-73.5 -31q-43 0 -72 31t-29 74zM514 1239q0 43 30 73.5t73 30.5t71.5 -29.5t28.5 -74.5q0 -43 -28.5 -74t-73.5 -31q-43 0 -72 31t-29 74zM57 59l47 123q121 -70 263 -69q111 0 177 47 t66 123q0 170 -288 170h-89l-2 122h86q113 0 183.5 46.5t70.5 115.5q0 66 -53 106t-139 40q-123 0 -240 -72l-45 111q147 90 330 90q82 0 154.5 -23.5t127 -85t54.5 -151.5q0 -86 -66.5 -146.5t-156.5 -79.5v-4q117 -12 193.5 -77.5t76.5 -170.5q0 -147 -126 -220.5 t-302 -73.5q-179 -1 -322 79z" />
<glyph unicode="&#x4e2;" horiz-adv-x="1347" d="M443 1528v117h461v-117h-461zM156 0v1380h168v-581q0 -338 -17 -584l6 -2q86 182 254 457l447 710h178v-1380h-168v588q0 362 16 561l-6 2q-80 -180 -256 -463l-432 -688h-190z" />
<glyph unicode="&#x4e3;" horiz-adv-x="1134" d="M336 1134v117h461v-117h-461zM143 0v991h172v-418q0 -184 -12 -397l6 -2q113 223 162 305l309 512h211v-991h-172v420q0 166 12 407h-4q-104 -205 -165 -309q-53 -88 -165 -275.5t-145 -242.5h-209z" />
<glyph unicode="&#x4e4;" horiz-adv-x="1347" d="M383 1632q0 43 30 73.5t75 30.5q41 0 69.5 -29.5t28.5 -74.5q0 -43 -28.5 -74t-73.5 -31q-43 0 -72 31t-29 74zM764 1632q0 43 30 73.5t73 30.5t71.5 -29.5t28.5 -74.5q0 -43 -28.5 -74t-73.5 -31q-43 0 -72 31t-29 74zM156 0v1380h168v-581q0 -338 -17 -584l6 -2 q86 182 254 457l447 710h178v-1380h-168v588q0 362 16 561l-6 2q-80 -180 -256 -463l-432 -688h-190z" />
<glyph unicode="&#x4e5;" horiz-adv-x="1134" d="M276 1239q0 43 30 73.5t75 30.5q41 0 69.5 -29.5t28.5 -74.5q0 -43 -28.5 -74t-73.5 -31q-43 0 -72 31t-29 74zM657 1239q0 43 30 73.5t73 30.5t71.5 -29.5t28.5 -74.5q0 -43 -28.5 -74t-73.5 -31q-43 0 -72 31t-29 74zM143 0v991h172v-418q0 -184 -12 -397l6 -2 q113 223 162 305l309 512h211v-991h-172v420q0 166 12 407h-4q-104 -205 -165 -309q-53 -88 -165 -275.5t-145 -242.5h-209z" />
<glyph unicode="&#x4e6;" horiz-adv-x="1411" d="M420 1632q0 43 30 73.5t75 30.5q41 0 69.5 -29.5t28.5 -74.5q0 -43 -28.5 -74t-73.5 -31q-43 0 -72 31t-29 74zM801 1632q0 43 30 73.5t73 30.5t71.5 -29.5t28.5 -74.5q0 -43 -28.5 -74t-73.5 -31q-43 0 -72 31t-29 74zM74 680q0 326 179 525.5t460 199.5 q283 0 452.5 -194.5t169.5 -505.5q0 -342 -182 -535t-459 -193q-274 0 -447 195t-173 508zM262 684q0 -233 120 -397t323 -164q205 0 323.5 164t118.5 409q0 227 -116 395.5t-324 168.5q-211 0 -328 -167t-117 -409z" />
<glyph unicode="&#x4e7;" horiz-adv-x="1124" d="M276 1239q0 43 30 73.5t75 30.5q41 0 69.5 -29.5t28.5 -74.5q0 -43 -28.5 -74t-73.5 -31q-43 0 -72 31t-29 74zM657 1239q0 43 30 73.5t73 30.5t71.5 -29.5t28.5 -74.5q0 -43 -28.5 -74t-73.5 -31q-43 0 -72 31t-29 74zM78 487q0 240 140 382.5t351 142.5 q213 0 345.5 -141.5t132.5 -366.5q0 -256 -147.5 -391.5t-346.5 -135.5q-205 0 -340 140.5t-135 369.5zM262 494q0 -164 84 -272.5t215 -108.5q129 0 215 109.5t86 275.5q0 145 -74.5 262t-222 117t-225.5 -113.5t-78 -269.5z" />
<glyph unicode="&#x4e8;" horiz-adv-x="1411" d="M74 678q0 326 180 526.5t460.5 200.5t451.5 -194.5t171 -508.5q0 -340 -182 -532.5t-458.5 -192.5t-449.5 194t-173 507zM262 682q0 -229 121 -394t324 -165q205 0 323.5 164t118.5 409q0 227 -115.5 395.5t-324.5 168.5q-213 0 -330 -168t-117 -410zM428 637v147h555 v-147h-555z" />
<glyph unicode="&#x4e9;" horiz-adv-x="1093" d="M78 739q0 326 126 532t353 206q229 0 344 -198t115 -540q0 -356 -117 -559t-350 -203q-223 0 -347 194.5t-124 567.5zM256 684q0 -268 82 -420.5t217 -152.5q139 0 212 155.5t73 417.5h-584zM256 817h582q0 231 -74 378.5t-217 147.5q-131 0 -211 -153.5t-80 -372.5z" />
<glyph unicode="&#x4ea;" horiz-adv-x="1411" d="M424 1632q0 43 30 73.5t75 30.5q41 0 69.5 -29.5t28.5 -74.5q0 -43 -28.5 -74t-73.5 -31q-43 0 -72 31t-29 74zM805 1632q0 43 30 73.5t73 30.5t71.5 -29.5t28.5 -74.5q0 -43 -28.5 -74t-73.5 -31q-43 0 -72 31t-29 74zM74 678q0 326 180 526.5t460.5 200.5t451.5 -194.5 t171 -508.5q0 -340 -182 -532.5t-458.5 -192.5t-449.5 194t-173 507zM262 682q0 -229 121 -394t324 -165q205 0 323.5 164t118.5 409q0 227 -115.5 395.5t-324.5 168.5q-213 0 -330 -168t-117 -410zM428 637v147h555v-147h-555z" />
<glyph unicode="&#x4eb;" horiz-adv-x="1093" d="M264 1704q0 43 30 73.5t75 30.5q41 0 69.5 -29.5t28.5 -74.5q0 -43 -28.5 -74t-73.5 -31q-43 0 -72 31t-29 74zM645 1704q0 43 30 73.5t73 30.5t71.5 -29.5t28.5 -74.5q0 -43 -28.5 -74t-73.5 -31q-43 0 -72 31t-29 74zM78 739q0 326 126 532t353 206q229 0 344 -198 t115 -540q0 -356 -117 -559t-350 -203q-223 0 -347 194.5t-124 567.5zM256 684q0 -268 82 -420.5t217 -152.5q139 0 212 155.5t73 417.5h-584zM256 817h582q0 231 -74 378.5t-217 147.5q-131 0 -211 -153.5t-80 -372.5z" />
<glyph unicode="&#x4ec;" horiz-adv-x="1163" d="M141 1632q0 43 30 73.5t75 30.5q41 0 69.5 -29.5t28.5 -74.5q0 -43 -28.5 -74t-73.5 -31q-43 0 -72 31t-29 74zM522 1632q0 43 30 73.5t73 30.5t71.5 -29.5t28.5 -74.5q0 -43 -28.5 -74t-73.5 -31q-43 0 -72 31t-29 74zM61 47l39 143q137 -63 299 -63q221 0 354.5 143.5 t143.5 364.5h-643v143h641q-18 211 -141 344t-330 133q-135 0 -297 -67l-43 135q174 80 350 80q313 0 483 -199.5t170 -513.5q0 -330 -189 -521.5t-476 -191.5q-201 0 -361 70z" />
<glyph unicode="&#x4ed;" horiz-adv-x="950" d="M88 1239q0 43 30 73.5t75 30.5q41 0 69.5 -29.5t28.5 -74.5q0 -43 -28.5 -74t-73.5 -31q-43 0 -72 31t-29 74zM469 1239q0 43 30 73.5t73 30.5t71.5 -29.5t28.5 -74.5q0 -43 -28.5 -74t-73.5 -31q-43 0 -72 31t-29 74zM57 47l37 127q123 -53 246 -53q150 0 244 87 t104 234h-495v125h497q-12 135 -98 220t-244 85q-121 0 -235 -55l-39 119q133 76 305 76q225 0 358 -140q135 -141 135 -380q0 -223 -140 -367.5t-384 -144.5q-166 -1 -291 67z" />
<glyph unicode="&#x4ee;" horiz-adv-x="1067" d="M309 1528v117h461v-117h-461zM4 1380h203l274 -592q57 -133 99 -241h6q25 70 84 248l217 585h188l-291 -712q-156 -391 -258 -523q-133 -170 -311 -170q-68 0 -100 13l16 145q25 -6 68 -6q162 0 270 235q16 37 -6 84z" />
<glyph unicode="&#x4ef;" horiz-adv-x="964" d="M254 1134v117h461v-117h-461zM18 991h197l215 -585q37 -96 66 -203h4q2 6 25.5 85t37.5 122l197 581h190l-270 -706q-100 -262 -175 -401.5t-165 -219.5q-113 -94 -221 -115l-45 150q86 27 157 88q92 72 152 201q14 33 14 43q0 16 -14 47z" />
<glyph unicode="&#x4f0;" horiz-adv-x="1067" d="M247 1632q0 43 30 73.5t75 30.5q41 0 69.5 -29.5t28.5 -74.5q0 -43 -28.5 -74t-73.5 -31q-43 0 -72 31t-29 74zM628 1632q0 43 30 73.5t73 30.5t71.5 -29.5t28.5 -74.5q0 -43 -28.5 -74t-73.5 -31q-43 0 -72 31t-29 74zM4 1380h203l274 -592q57 -133 99 -241h6 q25 70 84 248l217 585h188l-291 -712q-156 -391 -258 -523q-133 -170 -311 -170q-68 0 -100 13l16 145q25 -6 68 -6q162 0 270 235q16 37 -6 84z" />
<glyph unicode="&#x4f1;" horiz-adv-x="964" d="M192 1239q0 43 30 73.5t75 30.5q41 0 69.5 -29.5t28.5 -74.5q0 -43 -28.5 -74t-73.5 -31q-43 0 -72 31t-29 74zM573 1239q0 43 30 73.5t73 30.5t71.5 -29.5t28.5 -74.5q0 -43 -28.5 -74t-73.5 -31q-43 0 -72 31t-29 74zM18 991h197l215 -585q37 -96 66 -203h4 q2 6 25.5 85t37.5 122l197 581h190l-270 -706q-100 -262 -175 -401.5t-165 -219.5q-113 -94 -221 -115l-45 150q86 27 157 88q92 72 152 201q14 33 14 43q0 16 -14 47z" />
<glyph unicode="&#x4f2;" horiz-adv-x="1067" d="M336 1528l162 278h176l-225 -278h-113zM631 1528l162 278h176l-225 -278h-113zM4 1380h203l274 -592q57 -133 99 -241h6q25 70 84 248l217 585h188l-291 -712q-156 -391 -258 -523q-133 -170 -311 -170q-68 0 -100 13l16 145q25 -6 68 -6q162 0 270 235q16 37 -6 84z" />
<glyph unicode="&#x4f3;" horiz-adv-x="964" d="M280 1135l162 278h176l-225 -278h-113zM575 1135l162 278h176l-225 -278h-113zM18 991h197l215 -585q37 -96 66 -203h4q2 6 25.5 85t37.5 122l197 581h190l-270 -706q-100 -262 -175 -401.5t-165 -219.5q-113 -94 -221 -115l-45 150q86 27 157 88q92 72 152 201 q14 33 14 43q0 16 -14 47z" />
<glyph unicode="&#x4f4;" horiz-adv-x="1222" d="M313 1632q0 43 30 73.5t75 30.5q41 0 69.5 -29.5t28.5 -74.5q0 -43 -28.5 -74t-73.5 -31q-43 0 -72 31t-29 74zM694 1632q0 43 30 73.5t73 30.5t71.5 -29.5t28.5 -74.5q0 -43 -28.5 -74t-73.5 -31q-43 0 -72 31t-29 74zM145 909v471h179v-442q0 -143 73.5 -220t216.5 -77 q154 0 275 80v659h178v-1388h-178v590h-4q-150 -86 -332 -86q-76 0 -142.5 18t-129 61t-99.5 129t-37 205z" />
<glyph unicode="&#x4f5;" horiz-adv-x="1054" d="M229 1239q0 43 30 73.5t75 30.5q41 0 69.5 -29.5t28.5 -74.5q0 -43 -28.5 -74t-73.5 -31q-43 0 -72 31t-29 74zM610 1239q0 43 30 73.5t73 30.5t71.5 -29.5t28.5 -74.5q0 -43 -28.5 -74t-73.5 -31q-43 0 -72 31t-29 74zM133 635v356h180v-334q0 -102 46.5 -156.5 t158.5 -54.5q121 0 213 68v477h178v-1003h-178v399h-2q-117 -74 -270 -74q-147 0 -236.5 80t-89.5 242z" />
<glyph unicode="&#x4f8;" horiz-adv-x="1527" d="M469 1632q0 43 30 73.5t75 30.5q41 0 69.5 -29.5t28.5 -74.5q0 -43 -28.5 -74t-73.5 -31q-43 0 -72 31t-29 74zM850 1632q0 43 30 73.5t73 30.5t71.5 -29.5t28.5 -74.5q0 -43 -28.5 -74t-73.5 -31q-43 0 -72 31t-29 74zM156 4v1376h178v-518q61 12 166 12 q229 0 379.5 -107.5t150.5 -324.5q0 -180 -106 -292q-154 -162 -492 -162q-157 0 -276 16zM334 137q47 -10 143 -10q158 0 262.5 80t104.5 229.5t-106.5 222t-262.5 72.5q-51 0 -141 -8v-586zM1184 0v1380h180v-1380h-180z" />
<glyph unicode="&#x4f9;" horiz-adv-x="1361" d="M387 1239q0 43 30 73.5t75 30.5q41 0 69.5 -29.5t28.5 -74.5q0 -43 -28.5 -74t-73.5 -31q-43 0 -72 31t-29 74zM768 1239q0 43 30 73.5t73 30.5t71.5 -29.5t28.5 -74.5q0 -43 -28.5 -74t-73.5 -31q-43 0 -72 31t-29 74zM143 4v987h181v-336q74 12 159 13q180 0 305 -82 t125 -252q0 -141 -104 -230q-135 -115 -399 -114q-134 0 -267 14zM322 127q49 -8 124 -8q119 0 203 51t84 160q0 111 -81 160t-197 49q-78 0 -133 -13v-399zM1038 0v991h179v-991h-179z" />
<glyph unicode="&#x2000;" horiz-adv-x="909" />
<glyph unicode="&#x2001;" horiz-adv-x="1820" />
<glyph unicode="&#x2002;" horiz-adv-x="909" />
<glyph unicode="&#x2003;" horiz-adv-x="1820" />
<glyph unicode="&#x2004;" horiz-adv-x="606" />
<glyph unicode="&#x2005;" horiz-adv-x="454" />
<glyph unicode="&#x2006;" horiz-adv-x="303" />
<glyph unicode="&#x2007;" horiz-adv-x="303" />
<glyph unicode="&#x2008;" horiz-adv-x="227" />
<glyph unicode="&#x2009;" horiz-adv-x="362" />
<glyph unicode="&#x200a;" horiz-adv-x="100" />
<glyph unicode="&#x2010;" horiz-adv-x="628" d="M61 487v131h506v-131h-506z" />
<glyph unicode="&#x2011;" horiz-adv-x="628" d="M61 487v131h506v-131h-506z" />
<glyph unicode="&#x2012;" horiz-adv-x="628" d="M61 487v131h506v-131h-506z" />
<glyph unicode="&#x2013;" horiz-adv-x="1024" d="M61 459v123h902v-123h-902z" />
<glyph unicode="&#x2014;" horiz-adv-x="2048" d="M61 459v123h1926v-123h-1926z" />
<glyph unicode="&#x2018;" horiz-adv-x="423" d="M72 918q35 127 91 271t99 216l115 12q-84 -233 -121 -479z" />
<glyph unicode="&#x2019;" horiz-adv-x="423" d="M70 918q84 233 120 479l185 20q-35 -127 -91.5 -271.5t-99.5 -215.5z" />
<glyph unicode="&#x201a;" horiz-adv-x="423" d="M43 -242q84 233 121 480l184 20q-35 -127 -91 -271.5t-99 -215.5z" />
<glyph unicode="&#x201c;" horiz-adv-x="724" d="M72 918q35 127 91 271t99 216l115 12q-84 -233 -121 -479zM375 918q35 127 91 271t99 216l115 12q-80 -217 -121 -479z" />
<glyph unicode="&#x201d;" horiz-adv-x="724" d="M70 918q80 217 120 479l185 20q-35 -127 -91.5 -271.5t-99.5 -215.5zM373 918q84 233 121 479l184 20q-35 -127 -91.5 -271.5t-99.5 -215.5z" />
<glyph unicode="&#x201e;" horiz-adv-x="729" d="M41 -242q80 217 121 480l184 20q-35 -127 -91 -271.5t-99 -215.5zM344 -242q84 233 121 480l184 20q-35 -127 -91 -271.5t-99 -215.5z" />
<glyph unicode="&#x2022;" horiz-adv-x="577" d="M74 537q-2 88 61.5 151.5t153.5 63.5t152.5 -62.5t62.5 -153t-63.5 -152.5t-153.5 -62q-88 0 -150.5 62.5t-62.5 152.5z" />
<glyph unicode="&#x2026;" horiz-adv-x="2048" d="M219 106.5q0 55.5 35 92.5t88 37t87 -36t34 -94q0 -55 -35 -92t-90 -37q-51 0 -85 37t-34 92.5zM901 106.5q0 55.5 35 92.5t88 37t87 -36t34 -94q0 -55 -35 -92t-90 -37q-51 0 -85 37t-34 92.5zM1583 106.5q0 55.5 35 92.5t88 37t87 -36t34 -94q0 -55 -35 -92t-90 -37 q-51 0 -85 37t-34 92.5z" />
<glyph unicode="&#x202f;" horiz-adv-x="362" />
<glyph unicode="&#x2039;" horiz-adv-x="522" d="M59 516l271 377h145l-272 -377l272 -377h-145z" />
<glyph unicode="&#x203a;" horiz-adv-x="522" d="M49 139l273 377l-273 377h144l272 -377l-272 -377h-144z" />
<glyph unicode="&#x205f;" horiz-adv-x="454" />
<glyph unicode="&#x20ac;" d="M20 512v102h117v31q0 33 4 90h-121v103h136q37 215 168 346q160 170 403 170q152 0 274 -66l-40 -135q-100 57 -230 57q-166 0 -272 -110q-88 -92 -121 -262h571v-103h-590q-4 -27 -4 -86v-35h594v-102h-579q25 -174 112 -268q111 -119 289 -119q139 0 250 68l35 -132 q-125 -84 -305 -84q-262 0 -416 183q-121 133 -148 352h-127z" />
<glyph unicode="&#x2122;" horiz-adv-x="1267" d="M63 1288v92h465v-92h-178v-465h-110v465h-177zM561 823l41 557h166l96 -272q6 -18 37 -141h2q6 18 19.5 66t19.5 71l96 276h160l43 -557h-111l-20 328q-2 23 -3 76t-1 80h-6q-16 -55 -47 -166l-101 -310h-114l-101 318q-4 18 -18 76l-21 82h-6q0 -53 -4 -156l-20 -328 h-107z" />
<glyph unicode="&#xe000;" horiz-adv-x="990" d="M0 990h990v-990h-990v990z" />
</font>
</defs>
</svg>
